<?xml version="1.0" encoding="UTF-8"?>
<svg version="1.1" xmlns="http://www.w3.org/2000/svg" width="250" height="234">
<path d="M0 0 C0.95132813 0.44883545 0.95132813 0.44883545 1.921875 0.90673828 C10.93711537 5.24983033 18.44980263 10.37810559 26 17 C27.08667969 17.80244141 27.08667969 17.80244141 28.1953125 18.62109375 C32.66556428 21.96020895 32.66556428 21.96020895 33.64453125 25.00390625 C34.10380962 28.32908168 34 31.64724212 34 35 C35.96498322 36.38442 37.97048465 37.71203834 40 39 C43.23714908 42.4169907 44.88024653 45.42767331 46 50 C45.92523438 50.92425781 45.85046875 51.84851562 45.7734375 52.80078125 C46.06509305 56.91915874 47.90061725 59.13265622 50.375 62.25 C53.93459043 67.00856037 55.67878812 70.74450706 56.44140625 76.62890625 C57.33374699 80.41667427 59.60441114 83.01742952 61.91796875 86.0859375 C64.48606748 89.68031208 66.692049 93.41308593 68.875 97.25 C69.26824463 97.92369629 69.66148926 98.59739258 70.06665039 99.29150391 C72.72463626 104.00579953 74.6815928 108.08014439 73.39453125 113.59375 C71.60978902 116.67330522 69.50466445 118.33470987 66.6875 120.5 C63.73969527 122.78424705 61.03108756 124.96743435 58.453125 127.66796875 C54.01611491 131.88595445 48.36401913 132.87772315 42.375 133.1875 C41.59125 133.125625 40.8075 133.06375 40 133 C40.309375 132.401875 40.61875 131.80375 40.9375 131.1875 C42.10209704 128.91043228 42.10209704 128.91043228 43 126 C39.04 126 35.08 126 31 126 C31.61875 128.59875 31.61875 128.59875 32.25 131.25 C32.59804688 132.71179688 32.59804688 132.71179688 32.953125 134.203125 C34.11799266 137.31523411 35.51330545 138.84212456 38 141 C38.99 138.03 38.99 138.03 40 135 C40.99 135.33 41.98 135.66 43 136 C44.04152965 139.12458895 44.02837278 141.63535492 43.9453125 144.8984375 C43.9271845 147.24173448 43.9271845 147.24173448 44.875 150.375 C45.06811971 155.97547169 42.09693919 159.50277013 39 164 C38.22877967 165.16641088 37.4578722 166.33302878 36.6875 167.5 C36.130625 168.325 35.57375 169.15 35 170 C33.74965302 172.02635231 33.74965302 172.02635231 34.375 174.625 C33.61872563 181.43146932 27.76546213 185.50440825 22.72265625 189.66992188 C7.57718497 201.68631657 -10.291673 209.32122205 -29.3125 212.5 C-34.98515959 213.41768331 -34.98515959 213.41768331 -39.125 217.0625 C-39.74375 218.031875 -40.3625 219.00125 -41 220 C-44.82513352 222.4438353 -48.41371227 222.21454607 -52.77734375 221.6171875 C-56.44950987 220.5974999 -58.35536218 218.71075376 -61 216 C-61.33 215.34 -61.66 214.68 -62 214 C-63.97372039 213.34701544 -63.97372039 213.34701544 -66.3828125 212.921875 C-67.75179687 212.63993286 -67.75179687 212.63993286 -69.1484375 212.35229492 C-70.13070312 212.1535376 -71.11296875 211.95478027 -72.125 211.75 C-93.52031312 207.12664102 -116.40508598 197.09689928 -131 180 C-131.5390625 178 -131.5390625 178 -131.625 176 C-131.92109792 170.16914868 -134.41294556 167.35803941 -138.5625 163.375 C-143.96227716 158.17393463 -143.96227716 158.17393463 -144.09765625 153.9609375 C-144.08605469 152.77757812 -144.07445312 151.59421875 -144.0625 150.375 C-144.05347656 149.18648437 -144.04445312 147.99796875 -144.03515625 146.7734375 C-144.02355469 145.85820312 -144.01195312 144.94296875 -144 144 C-143.01 143.67 -142.02 143.34 -141 143 C-141.04125 142.071875 -141.0825 141.14375 -141.125 140.1875 C-141 137 -141 137 -139 134 C-138.34 134 -137.68 134 -137 134 C-136.01 135.98 -136.01 135.98 -135 138 C-132.22957891 135.22957891 -132.60203894 133.23466195 -132.375 129.375 C-132.30023438 128.18648437 -132.22546875 126.99796875 -132.1484375 125.7734375 C-132.09945312 124.85820312 -132.05046875 123.94296875 -132 123 C-137.55053286 123.74359673 -137.55053286 123.74359673 -143 125 C-142.505 125.78375 -142.01 126.5675 -141.5 127.375 C-140 130 -140 130 -140 132 C-146.625 132.25 -146.625 132.25 -150 130 C-151.4540625 129.62875 -151.4540625 129.62875 -152.9375 129.25 C-156 128 -156 128 -157.8359375 125.234375 C-160.78231977 120.83075673 -164.57825766 117.91677777 -168.63671875 114.5625 C-171.45391622 111.50781977 -172.0410739 110.13819502 -172 106 C-171.0661474 103.32592049 -170.11864329 101.10231639 -168.8125 98.625 C-168.46171387 97.9330957 -168.11092773 97.24119141 -167.74951172 96.52832031 C-164.4977742 90.38568682 -160.34732609 85.15083898 -156.01855469 79.74316406 C-152.20231998 74.7803366 -150.81180807 70.79606067 -150.3515625 64.48046875 C-149.95868931 61.70853015 -149.32707131 60.69846835 -147.4375 58.6875 C-144.42340858 55.364271 -144.52876551 53.3811999 -144 49 C-142.86842403 46.21621686 -141.46698306 43.61961261 -140 41 C-139.505 40.071875 -139.01 39.14375 -138.5 38.1875 C-136.89403121 35.84546218 -135.41447937 34.47984219 -133 33 C-132.34 33 -131.68 33 -131 33 C-131.226875 31.948125 -131.45375 30.89625 -131.6875 29.8125 C-132.04986707 25.39162177 -131.53648034 24.50301285 -129 21 C-95.46150862 -11.63348447 -42.07718212 -19.88101901 0 0 Z " fill="#245396" transform="translate(174,11)"/>
<path d="M0 0 C8.84257947 7.67519796 14.88516346 15.95182679 19.13671875 26.859375 C19.50410156 27.71917969 19.87148437 28.57898438 20.25 29.46484375 C23.41119605 41.56651497 22.719367 57.65940367 17.13671875 68.859375 C16.48316406 70.26316406 16.48316406 70.26316406 15.81640625 71.6953125 C7.99285021 87.29967292 -4.68653454 96.14768007 -20.86328125 101.859375 C-36.94284884 105.48882596 -53.14107665 102.7792614 -67.30078125 94.546875 C-78.84401731 86.94523174 -85.83765856 76.58342345 -90.86328125 63.859375 C-91.229375 63.00988281 -91.59546875 62.16039062 -91.97265625 61.28515625 C-95.37182054 48.21030064 -94.58724589 31.67312554 -87.86328125 19.859375 C-87.08404297 18.42464844 -87.08404297 18.42464844 -86.2890625 16.9609375 C-80.245589 6.67717141 -72.42684283 -0.67498475 -61.86328125 -6.140625 C-60.7340625 -6.72650391 -60.7340625 -6.72650391 -59.58203125 -7.32421875 C-40.05563313 -16.70926574 -17.05492029 -12.75047247 0 0 Z " fill="#1E509A" transform="translate(160.86328125,67.140625)"/>
<path d="M0 0 C3.37948796 0.45059839 4.43524751 1.58310913 6.82421875 3.9765625 C20.98137718 17.17904413 38.10054195 20.97574642 56.90234375 20.69140625 C72.4200658 20.07346656 87.8515872 12.95657095 98.63671875 1.85546875 C100.63671875 0.3515625 100.63671875 0.3515625 103.26171875 0.00390625 C105.63671875 0.3515625 105.63671875 0.3515625 107.63671875 2.3515625 C109.6409548 2.66360802 109.6409548 2.66360802 111.88671875 2.7265625 C117.80474632 3.28701776 121.07537607 5.53702912 124.94921875 10.0390625 C126.80279463 13.6775633 127.18538165 16.37516964 127.36328125 20.3984375 C127.46965518 22.58599129 127.46965518 22.58599129 129.63671875 24.3515625 C129.74182777 28.03037815 128.29654129 30.02430812 125.88671875 32.6015625 C108.47547809 48.91351913 84.52035932 59.28016148 60.63671875 59.3515625 C60.3428125 60.30289063 60.04890625 61.25421875 59.74609375 62.234375 C58.51894149 65.68250001 57.87540299 66.73222038 54.63671875 68.3515625 C50.82209789 68.91969752 49.14975583 68.65938475 45.82421875 66.6640625 C43.38404364 64.08444882 43.16317508 62.76503741 42.63671875 59.3515625 C41.80011719 59.32578125 40.96351562 59.3 40.1015625 59.2734375 C16.50192505 58.12351054 -3.53989636 48.48704015 -21.36328125 33.3515625 C-22.23919922 32.63806641 -22.23919922 32.63806641 -23.1328125 31.91015625 C-24.55078125 30.6640625 -24.55078125 30.6640625 -26.36328125 28.3515625 C-26.17280506 24.16108631 -26.17280506 24.16108631 -24.36328125 22.3515625 C-24.23126779 20.95808705 -24.13270092 19.56137798 -24.05078125 18.1640625 C-23.45947283 12.43291933 -21.09436355 9.23538735 -17.23828125 5.0390625 C-13.63115704 2.92183742 -10.69801486 2.78589994 -6.5703125 2.625 C-3.59354661 2.25619715 -3.00233005 0.44662761 0 0 Z " fill="#F4C60A" transform="translate(73.36328125,159.6484375)"/>
<path d="M0 0 C3.1447251 2.84018243 6.18634315 5.77068385 9.1875 8.76171875 C8.61405063 11.62896561 8.3260485 12.62317025 6.1875 14.76171875 C5.87470844 16.99569255 5.87470844 16.99569255 5.8125 19.51171875 C5.42832467 24.25902821 4.33369367 27.06031443 1.1875 30.76171875 C-2.5015888 33.22111128 -5.01375189 33.11803671 -9.33984375 33.3203125 C-11.90987589 33.58216693 -11.90987589 33.58216693 -13.87890625 35.359375 C-15.8125 36.76171875 -15.8125 36.76171875 -17.75 36.7109375 C-20.54751936 35.42344279 -22.5113874 33.61851075 -24.8125 31.57421875 C-41.88270786 17.23889065 -61.29604286 15.25428239 -82.8125 16.76171875 C-95.70445594 18.67485032 -108.08818537 26.32078287 -117.03125 35.609375 C-118.8125 36.76171875 -118.8125 36.76171875 -121.40625 36.5703125 C-123.8125 35.76171875 -123.8125 35.76171875 -125.8125 33.76171875 C-128.08043884 33.44928587 -128.08043884 33.44928587 -130.625 33.38671875 C-135.18337688 33.01178732 -137.62877959 32.24391294 -140.8125 28.76171875 C-143.12131106 24.93287194 -143.16695929 21.48057601 -143.37109375 17.1015625 C-143.59739157 14.67329321 -143.59739157 14.67329321 -145.41015625 13.203125 C-146.10431641 12.48962891 -146.10431641 12.48962891 -146.8125 11.76171875 C-146.51680381 7.58090315 -144.03639253 5.49872525 -141.13671875 2.74609375 C-102.44833196 -30.28533564 -39.45984718 -34.41663712 0 0 Z " fill="#F5C70A" transform="translate(193.8125,29.23828125)"/>
<path d="M0 0 C4.875 4.75 4.875 4.75 6 7 C6.598125 7.0825 7.19625 7.165 7.8125 7.25 C12.23275237 8.7655151 13.95381846 13.91241464 16.125 17.8125 C17.63767832 21.04558545 17.63767832 21.04558545 20 22 C20 23.19625 20 24.3925 20 25.625 C20.56632611 32.23213793 24.65611993 36.86710394 28.33984375 42.12890625 C30.84391582 45.71450711 33.05930454 49.36534695 35.1875 53.1875 C35.75855469 54.21230469 36.32960937 55.23710938 36.91796875 56.29296875 C38.05967361 59.14929173 38.15388424 60.2053324 37 63 C36.030625 62.484375 35.06125 61.96875 34.0625 61.4375 C29.58474728 59.47389532 25.69444853 60.11646433 21 61 C21 61.66 21 62.32 21 63 C21.763125 63.0825 22.52625 63.165 23.3125 63.25 C26 64 26 64 27.875 65.75 C29 68 29 68 29.0625 70.375 C27.58477301 74.02585491 25.33245657 76.85454677 22 79 C17.81093294 79.61005831 15.7262083 78.50968819 12.375 76.0625 C6.04754841 71.49507334 0.64404453 71.58520689 -7 72 C-10.20958476 72.58456355 -13.0718456 73.5359228 -16 75 C-15.375 73.125 -15.375 73.125 -14 71 C-10.875 69.75 -10.875 69.75 -8 69 C-9.98 68.67 -11.96 68.34 -14 68 C-13.67 67.01 -13.34 66.02 -13 65 C-11.515 64.505 -11.515 64.505 -10 64 C-9.67 62.35 -9.34 60.7 -9 59 C-10.32 58.67 -11.64 58.34 -13 58 C-13 57.01 -13 56.02 -13 55 C-7.25 56.875 -7.25 56.875 -5 58 C-4.34 56.68 -3.68 55.36 -3 54 C-6.3 53.34 -9.6 52.68 -13 52 C-13 51.34 -13 50.68 -13 50 C-11.89140625 49.93941406 -10.7828125 49.87882812 -9.640625 49.81640625 C-8.1770718 49.73197049 -6.71353075 49.64732401 -5.25 49.5625 C-4.52039063 49.52318359 -3.79078125 49.48386719 -3.0390625 49.44335938 C0.4272973 49.23852902 3.65333026 48.9147998 7 48 C5.35 47.67 3.7 47.34 2 47 C2.99 46.01 3.98 45.02 5 44 C1.535 43.505 1.535 43.505 -2 43 C-0.35 41.68 1.3 40.36 3 39 C-0.41099168 39 -3.63088314 39.49145406 -7 40 C-5.68 39.01 -4.36 38.02 -3 37 C-3.99 36.67 -4.98 36.34 -6 36 C-6.495 34.515 -6.495 34.515 -7 33 C-7.969375 32.38125 -8.93875 31.7625 -9.9375 31.125 C-13.17884577 28.87590294 -13.9680162 27.71514168 -15 24 C-14.34 24 -13.68 24 -13 24 C-13.03480469 23.32453125 -13.06960937 22.6490625 -13.10546875 21.953125 C-13.13253906 21.06109375 -13.15960938 20.1690625 -13.1875 19.25 C-13.23970703 17.92742187 -13.23970703 17.92742187 -13.29296875 16.578125 C-12.94923684 13.55328417 -11.99772541 12.24416398 -10 10 C-10.66 9.67 -11.32 9.34 -12 9 C-10.68 8.67 -9.36 8.34 -8 8 C-8.66 7.34 -9.32 6.68 -10 6 C-8.35 5.67 -6.7 5.34 -5 5 C-5 4.34 -5 3.68 -5 3 C-3 4 -1 5 1 6 C0.67 4.02 0.34 2.04 0 0 Z " fill="#F1C50C" transform="translate(206,59)"/>
<path d="M0 0 C1.38251953 0.60134766 1.38251953 0.60134766 2.79296875 1.21484375 C18.4588311 8.83786563 29.8883168 23.0775679 35.8269043 39.25219727 C37.82158834 45.30738225 38.51263596 50.82956701 38.4375 57.1875 C38.42992676 58.09806152 38.42235352 59.00862305 38.41455078 59.94677734 C37.99048561 77.54393433 31.18566479 92.34637574 19 105 C11.7167524 111.4874294 4.20224532 115.84600463 -5 119 C-5.8353125 119.31839844 -6.670625 119.63679688 -7.53125 119.96484375 C-22.02968172 124.82002845 -38.17631113 122.76705976 -51.91796875 116.71484375 C-67.38536152 108.88297632 -79.06324324 96.34354213 -85 80 C-85.31839844 79.13632813 -85.63679688 78.27265625 -85.96484375 77.3828125 C-90.95677966 61.14176756 -88.94729931 44.2727506 -81.6484375 29.2109375 C-72.78897457 13.22430886 -58.75856828 3.00311574 -41.86328125 -3.140625 C-28.67569855 -6.0741621 -12.36431286 -5.70798235 0 0 Z M-69.99609375 22.1875 C-74.49720918 27.60819815 -77.44877713 33.45472784 -80 40 C-80.36609375 40.85078125 -80.7321875 41.7015625 -81.109375 42.578125 C-84.52572049 55.70408398 -83.66122384 72.1149743 -77 84 C-76.53078125 84.89460938 -76.0615625 85.78921875 -75.578125 86.7109375 C-67.4706166 101.22599287 -55.14380966 110.36192759 -39.2578125 115.12109375 C-34.662952 116.21430885 -30.20464432 116.29530958 -25.5 116.25 C-24.29537109 116.26160156 -24.29537109 116.26160156 -23.06640625 116.2734375 C-8.86063533 116.22738962 4.40058114 110.31030035 15 101 C27.91187951 87.94556031 32.45406375 73.04275036 32.43383789 55.13208008 C32.28009127 46.73343189 31.16354305 40.41005257 27 33 C26.48050781 32.04222656 25.96101563 31.08445312 25.42578125 30.09765625 C17.39261196 16.44688606 5.21620179 7.08598079 -9.9375 2.47265625 C-33.33194792 -2.8885714 -54.04023438 4.70162672 -69.99609375 22.1875 Z " fill="#F1C50C" transform="translate(150,54)"/>
<path d="M0 0 C0.495 1.98 0.495 1.98 1 4 C-0.3921875 4.556875 -0.3921875 4.556875 -1.8125 5.125 C-5.5260303 7.30942959 -6.42687504 9.06718759 -8 13 C-7.071875 13.433125 -7.071875 13.433125 -6.125 13.875 C-4 15 -4 15 -2 17 C-0.35 15.68 1.3 14.36 3 13 C3.66 13.33 4.32 13.66 5 14 C3.35 15.98 1.7 17.96 0 20 C0.928125 19.505 1.85625 19.01 2.8125 18.5 C6 17 6 17 9 17 C9 19 9 19 7 21.125 C6.34 21.74375 5.68 22.3625 5 23 C5.78375 22.79375 6.5675 22.5875 7.375 22.375 C8.674375 22.189375 8.674375 22.189375 10 22 C12 24 12 24 12.25 26.5 C12 29 12 29 10 31 C8.68 31 7.36 31 6 31 C6.185625 31.804375 6.37125 32.60875 6.5625 33.4375 C6.706875 34.283125 6.85125 35.12875 7 36 C6 37 6 37 2.3125 37.25 C-0.86034391 37.23312317 -2.02956015 36.98427652 -4.9375 35.4375 C-9.17552142 33.44822464 -12.49995545 34.16999178 -17 35 C-17.268125 36.03125 -17.53625 37.0625 -17.8125 38.125 C-18.80998897 41.6485042 -20.2661898 44.76880827 -22 48 C-20.72740489 47.54658132 -19.45698757 47.08704773 -18.1875 46.625 C-17.47980469 46.36976562 -16.77210937 46.11453125 -16.04296875 45.8515625 C-13.75226641 44.9734231 -13.75226641 44.9734231 -11 43 C-11.66 42.34 -12.32 41.68 -13 41 C-12.67 40.01 -12.34 39.02 -12 38 C-11.01 39.32 -10.02 40.64 -9 42 C-8.67 40.68 -8.34 39.36 -8 38 C-7.34 38 -6.68 38 -6 38 C-6 39.65 -6 41.3 -6 43 C-5.319375 42.46375 -4.63875 41.9275 -3.9375 41.375 C-1 40 -1 40 2.8125 40.8125 C3.864375 41.204375 4.91625 41.59625 6 42 C6 42.33 6 42.66 6 43 C4.35 43 2.7 43 1 43 C1.99 44.65 2.98 46.3 4 48 C1.69 47.67 -0.62 47.34 -3 47 C-2.34 48.98 -1.68 50.96 -1 53 C-3.64 52.34 -6.28 51.68 -9 51 C-5.32442148 55.00972202 -1.81033104 57.45335415 3 60 C2.34 60.99 1.68 61.98 1 63 C2.32 63.66 3.64 64.32 5 65 C4.01 65.495 4.01 65.495 3 66 C5.64 66 8.28 66 11 66 C10.67 67.98 10.34 69.96 10 72 C7.03 71.01 7.03 71.01 4 70 C4.33 70.66 4.66 71.32 5 72 C5.04022391 74.3329866 5.04320247 76.66706666 5 79 C4.67 79 4.34 79 4 79 C3.34 76.36 2.68 73.72 2 71 C1.34 71.99 0.68 72.98 0 74 C-1.32 72.68 -2.64 71.36 -4 70 C-3.67 70.99 -3.34 71.98 -3 73 C-2.93259135 74.56118428 -2.91485544 76.1250252 -2.9375 77.6875 C-2.94652344 78.49574219 -2.95554688 79.30398437 -2.96484375 80.13671875 C-2.97644531 80.75160156 -2.98804688 81.36648437 -3 82 C-2.29488281 81.65195313 -1.58976562 81.30390625 -0.86328125 80.9453125 C2.50876462 79.83203133 4.37087431 80.12862334 7.8125 80.875 C9.27623047 81.18050781 9.27623047 81.18050781 10.76953125 81.4921875 C11.50558594 81.65976563 12.24164063 81.82734375 13 82 C13.66 85.3 14.32 88.6 15 92 C12.53721199 89.53721199 12.00228745 87.29323018 11 84 C0.16036806 83.43032591 -7.76235476 84.76566543 -17.375 89.75 C-20 91 -20 91 -25 91 C-26.65 88.03 -28.3 85.06 -30 82 C-27.47983871 77.21169355 -27.47983871 77.21169355 -24.875 76.0625 C-24.25625 75.711875 -23.6375 75.36125 -23 75 C-22.18415432 71.94091587 -22.18415432 71.94091587 -22 69 C-25.98921683 70.46971147 -29.93355558 71.94694802 -33.8125 73.6875 C-37 75 -37 75 -40 75 C-39.57753352 65.49450421 -34.0601786 58.25486338 -28.3371582 51.0246582 C-21.78179681 43.01721852 -21.78179681 43.01721852 -20.05078125 33.0546875 C-19.96461677 29.56834019 -18.22151794 27.53887765 -16 25 C-13.75 23.625 -13.75 23.625 -12 23 C-12.103125 21.906875 -12.20625 20.81375 -12.3125 19.6875 C-12.29173225 13.86214641 -10.14094608 8.84358765 -7 4 C-4.69055461 2.05796638 -2.82561134 1.16348702 0 0 Z " fill="#F1C50D" transform="translate(46,46)"/>
<path d="M0 0 C10.56 0 21.12 0 32 0 C32 1.65 32 3.3 32 5 C30.7934375 5.4640625 30.7934375 5.4640625 29.5625 5.9375 C27.10919595 6.76335345 27.10919595 6.76335345 26 8 C25.87700834 9.68709347 25.82214742 11.37920903 25.79467773 13.07055664 C25.77473251 14.15160172 25.75478729 15.23264679 25.73423767 16.34645081 C25.70916893 18.110485 25.70916893 18.110485 25.68359375 19.91015625 C25.66281265 21.10732773 25.64203156 22.30449921 25.62062073 23.53794861 C25.55499721 27.37940487 25.49618097 31.22093201 25.4375 35.0625 C25.39432695 37.65951267 25.35071307 40.25651806 25.30664062 42.85351562 C25.1993028 49.2356036 25.09807182 55.61776318 25 62 C31.27 61.67 37.54 61.34 44 61 C44.33 58.03 44.66 55.06 45 52 C47.5625 48.4375 47.5625 48.4375 50 46 C51.32 46.66 52.64 47.32 54 48 C54 51 54 51 53 53 C53.02281905 55.15002389 53.02281905 55.15002389 53.3125 57.5 C53.39113281 58.2940625 53.46976563 59.088125 53.55078125 59.90625 C53.8465242 62.20854909 53.8465242 62.20854909 56 64 C56 66.64 56 69.28 56 72 C37.19 72 18.38 72 -1 72 C-1 69.36 -1 66.72 -1 64 C2.465 63.505 2.465 63.505 6 63 C6.05057624 55.20380412 6.08568114 47.4076503 6.10986328 39.61132812 C6.11994089 36.95734069 6.13360313 34.3033644 6.15087891 31.64941406 C6.17504992 27.84176893 6.18646535 24.03427016 6.1953125 20.2265625 C6.20563507 19.03382721 6.21595764 17.84109192 6.22659302 16.61221313 C6.22681961 14.96072769 6.22681961 14.96072769 6.22705078 13.27587891 C6.231492 12.30325104 6.23593323 11.33062317 6.24050903 10.32852173 C6.22744595 7.80696897 6.22744595 7.80696897 4 6 C1.93125966 5.3574765 1.93125966 5.3574765 0 5 C0 3.35 0 1.7 0 0 Z " fill="#F6C709" transform="translate(102,75)"/>
<path d="M0 0 C1.03125 -0.03738281 2.0625 -0.07476562 3.125 -0.11328125 C6.70449731 0.41683452 7.80946373 1.49244045 10 4.3125 C10.75 7.0625 10.75 7.0625 11 9.3125 C11.66 9.3125 12.32 9.3125 13 9.3125 C13.67667998 10.55710783 14.34094719 11.80846896 15 13.0625 C15.37125 13.75859375 15.7425 14.4546875 16.125 15.171875 C17 17.3125 17 17.3125 17 21.3125 C14 23.3125 14 23.3125 11 23.3125 C11.495 24.7975 11.495 24.7975 12 26.3125 C9.69 27.3025 7.38 28.2925 5 29.3125 C5 29.6425 5 29.9725 5 30.3125 C3.35 30.3125 1.7 30.3125 0 30.3125 C0 31.3025 0 32.2925 0 33.3125 C-2.64 33.6425 -5.28 33.9725 -8 34.3125 C-8.33 35.6325 -8.66 36.9525 -9 38.3125 C-9.99 36.9925 -10.98 35.6725 -12 34.3125 C-12 36.2925 -12 38.2725 -12 40.3125 C-14.35448165 37.76181155 -14.98327924 36.60232642 -15.1875 33.0625 C-15.125625 32.155 -15.06375 31.2475 -15 30.3125 C-13.35 29.9825 -11.7 29.6525 -10 29.3125 C-11.12451727 26.3405615 -12.22293791 23.97809313 -14 21.3125 C-14.625 19.125 -14.625 19.125 -15 17.3125 C-14.01 16.9825 -13.02 16.6525 -12 16.3125 C-11.34 17.6325 -10.68 18.9525 -10 20.3125 C-7.22957891 17.54207891 -7.60203894 15.54716195 -7.375 11.6875 C-7.30023438 10.49898437 -7.22546875 9.31046875 -7.1484375 8.0859375 C-7.09945312 7.17070312 -7.05046875 6.25546875 -7 5.3125 C-12.55053286 6.05609673 -12.55053286 6.05609673 -18 7.3125 C-18 7.9725 -18 8.6325 -18 9.3125 C-18.99 8.9825 -19.98 8.6525 -21 8.3125 C-21 7.6525 -21 6.9925 -21 6.3125 C-19.25197854 5.49575204 -17.50149811 4.68426549 -15.75 3.875 C-14.77546875 3.42253906 -13.8009375 2.97007812 -12.796875 2.50390625 C-8.42140978 0.64005584 -4.76319406 0.11312586 0 0 Z " fill="#235396" transform="translate(49,128.6875)"/>
<path d="M0 0 C3.49784038 2.33189359 5.56156627 4.29998761 7.8125 7.875 C8.87508117 13.46858766 8.01627323 18.12457762 4.8125 22.875 C-0.11063719 27.31783112 -3.14169928 28.24219453 -9.6484375 28.1484375 C-13.45356146 27.73865492 -15.40318088 26.46043918 -18.1875 23.875 C-20.86766586 20.4912906 -22.0746925 17.66465251 -22.6875 13.375 C-21.98189571 8.43576997 -20.47737936 4.8460354 -16.64453125 1.546875 C-11.19910869 -1.99202662 -6.14698998 -2.16952587 0 0 Z " fill="#245396" transform="translate(122.1875,12.125)"/>
<path d="M0 0 C4.875 4.75 4.875 4.75 6 7 C6.598125 7.0825 7.19625 7.165 7.8125 7.25 C12.40969307 8.82618048 14.17344461 14.25844829 16.25 18.375 C16.83737341 19.58137461 17.42217367 20.78902355 18 22 C16 23 16 23 12.9375 22.875 C9.49027811 22.98443562 7.63540038 23.35303302 4.5 24.5 C0.5369537 25.94295532 -2.75313937 26.26001188 -7 26 C-7.66 26 -8.32 26 -9 26 C-5.79619983 28.13586678 -4.98060033 28.23132175 -1.3125 28.125 C-0.50425781 28.10695313 0.30398437 28.08890625 1.13671875 28.0703125 C1.75160156 28.04710938 2.36648437 28.02390625 3 28 C3.33 27.01 3.66 26.02 4 25 C4.66 25 5.32 25 6 25 C6.33 26.32 6.66 27.64 7 29 C8.32 27.68 9.64 26.36 11 25 C10.67 26.65 10.34 28.3 10 30 C7.69 30.66 5.38 31.32 3 32 C3 32.66 3 33.32 3 34 C4.32 34.33 5.64 34.66 7 35 C5.66065756 37.67868487 4.48307603 37.74954078 1.6875 38.6875 C0.90761719 38.95949219 0.12773437 39.23148438 -0.67578125 39.51171875 C-3.18274511 40.03839183 -4.60132343 39.8178554 -7 39 C-5.68 38.34 -4.36 37.68 -3 37 C-3.99 36.67 -4.98 36.34 -6 36 C-6.495 34.515 -6.495 34.515 -7 33 C-7.969375 32.38125 -8.93875 31.7625 -9.9375 31.125 C-13.17884577 28.87590294 -13.9680162 27.71514168 -15 24 C-14.34 24 -13.68 24 -13 24 C-13.03480469 23.32453125 -13.06960937 22.6490625 -13.10546875 21.953125 C-13.13253906 21.06109375 -13.15960938 20.1690625 -13.1875 19.25 C-13.22230469 18.36828125 -13.25710937 17.4865625 -13.29296875 16.578125 C-12.94923684 13.55328417 -11.99772541 12.24416398 -10 10 C-10.66 9.67 -11.32 9.34 -12 9 C-10.68 8.67 -9.36 8.34 -8 8 C-8.66 7.34 -9.32 6.68 -10 6 C-8.35 5.67 -6.7 5.34 -5 5 C-5 4.34 -5 3.68 -5 3 C-3 4 -1 5 1 6 C0.67 4.02 0.34 2.04 0 0 Z " fill="#F4C60A" transform="translate(206,59)"/>
<path d="M0 0 C3.3125 0.1875 3.3125 0.1875 7 1 C10.67864829 5.49257915 12.10826179 11.58571479 14 17 C15.65 13.37 17.3 9.74 19 6 C21.31 6.66 23.62 7.32 26 8 C24.36231563 17.00726401 21.13020303 25.42639358 18 34 C11.41806256 32.61473177 11.41806256 32.61473177 9.546875 29.86328125 C9.28390625 29.02152344 9.0209375 28.17976563 8.75 27.3125 C8.4509375 26.42433594 8.151875 25.53617188 7.84375 24.62109375 C7.5653125 23.75613281 7.286875 22.89117187 7 22 C6.43437121 20.61762275 5.85350439 19.24126689 5.25 17.875 C4.8375 16.92625 4.425 15.9775 4 15 C2.68 18.96 1.36 22.92 0 27 C-2.64 26.67 -5.28 26.34 -8 26 C-6.36231563 16.99273599 -3.13020303 8.57360642 0 0 Z " fill="#235396" transform="translate(142,13)"/>
<path d="M0 0 C0.33 1.32 0.66 2.64 1 4 C0.071875 4.37125 -0.85625 4.7425 -1.8125 5.125 C-5.5260303 7.30942959 -6.42687504 9.06718759 -8 13 C-7.071875 13.433125 -7.071875 13.433125 -6.125 13.875 C-4 15 -4 15 -2 17 C-0.35 15.68 1.3 14.36 3 13 C3.66 13.33 4.32 13.66 5 14 C3.35 15.98 1.7 17.96 0 20 C0.928125 19.505 1.85625 19.01 2.8125 18.5 C6 17 6 17 9 17 C9 19 9 19 7 21.125 C6.34 21.74375 5.68 22.3625 5 23 C6.175625 22.690625 6.175625 22.690625 7.375 22.375 C8.674375 22.189375 8.674375 22.189375 10 22 C12 24 12 24 12.25 26.5 C12 29 12 29 10 31 C8.68 31 7.36 31 6 31 C6.185625 31.804375 6.37125 32.60875 6.5625 33.4375 C6.706875 34.283125 6.85125 35.12875 7 36 C6 37 6 37 2.3125 37.25 C-0.86034391 37.23312317 -2.02956015 36.98427652 -4.9375 35.4375 C-9.17552142 33.44822464 -12.49995545 34.16999178 -17 35 C-17.495 37.475 -17.495 37.475 -18 40 C-20 38 -20 38 -20.375 34.75 C-19.93501694 30.35016944 -18.8182654 28.36626145 -16 25 C-13.75 23.625 -13.75 23.625 -12 23 C-12.103125 21.906875 -12.20625 20.81375 -12.3125 19.6875 C-12.29173225 13.86214641 -10.14094608 8.84358765 -7 4 C-4.69055461 2.05796638 -2.82561134 1.16348702 0 0 Z " fill="#F3C60B" transform="translate(46,46)"/>
<path d="M0 0 C4.963828 0.46828566 7.93431267 2.75055436 11.1875 6.4375 C12.3125 8.3125 12.3125 8.3125 12.3125 10.3125 C9.66511084 11.7731285 8.41801666 12.3125 5.3125 12.3125 C4.6525 11.3225 3.9925 10.3325 3.3125 9.3125 C2.3225 8.9825 1.3325 8.6525 0.3125 8.3125 C0.951875 9.446875 1.59125 10.58125 2.25 11.75 C2.60964844 12.38808594 2.96929687 13.02617188 3.33984375 13.68359375 C4.2097513 15.29128146 4.2097513 15.29128146 5.3125 16.3125 C5.10508701 19.97679621 4.7499597 22.60162799 2.8125 25.75 C-0.96078761 28.10830476 -4.36337837 28.1968091 -8.6875 27.3125 C-12.23325538 25.34846637 -14.44441252 22.67713122 -16.6875 19.3125 C-16.6875 18.3225 -16.6875 17.3325 -16.6875 16.3125 C-14.04011084 14.8518715 -12.79301666 14.3125 -9.6875 14.3125 C-8.66883771 15.96782623 -7.66939187 17.63510138 -6.6875 19.3125 C-5.6975 19.6425 -4.7075 19.9725 -3.6875 20.3125 C-4.6521453 17.64117456 -5.51159283 15.52900113 -7.3125 13.3125 C-8.6875 11.3125 -8.6875 11.3125 -9.1875 8.875 C-8.47266027 5.2114464 -6.43379681 3.72388257 -3.6875 1.3125 C-2.6875 0.3125 -2.6875 0.3125 0 0 Z " fill="#265494" transform="translate(181.6875,29.6875)"/>
<path d="M0 0 C0.99 0 1.98 0 3 0 C4.9375 2.046875 4.9375 2.046875 7 4.75 C7.680625 5.63171875 8.36125 6.5134375 9.0625 7.421875 C9.701875 8.27265625 10.34125 9.1234375 11 10 C11.5775 10.76828125 12.155 11.5365625 12.75 12.328125 C13.1625 12.87984375 13.575 13.4315625 14 14 C14.5775 13.690625 15.155 13.38125 15.75 13.0625 C19.63245823 11.22911695 19.63245823 11.22911695 22 11 C23.75 12.4375 23.75 12.4375 25 14 C23.52202738 17.67056937 21.52384523 19.41085783 18.375 21.75 C17.55773437 22.36359375 16.74046875 22.9771875 15.8984375 23.609375 C15.27195312 24.06828125 14.64546875 24.5271875 14 25 C9.43610148 23.43554306 7.21579238 19.77063923 4.4375 16.0625 C3.47964546 14.80203011 2.52006394 13.54287035 1.55859375 12.28515625 C0.92908813 11.44803101 0.92908813 11.44803101 0.28686523 10.59399414 C-1.04524164 8.94396079 -2.47582432 7.47252753 -4 6 C-2.84826645 3.53199953 -1.95216435 1.95216435 0 0 Z " fill="#245396" transform="translate(61,33)"/>
<path d="M0 0 C1.94647298 3.25523897 3.28564037 6.81790045 4.75 10.3125 C5.17410156 11.27607422 5.59820312 12.23964844 6.03515625 13.23242188 C6.43089844 14.16248047 6.82664062 15.09253906 7.234375 16.05078125 C7.59756836 16.90325439 7.96076172 17.75572754 8.33496094 18.6340332 C9.07368974 21.26216127 9.12459176 22.51898073 8 25 C4.9375 26.25 4.9375 26.25 2 27 C0.29680933 23.23605994 -1.38480877 19.46286675 -3.0625 15.6875 C-3.79049805 14.0797168 -3.79049805 14.0797168 -4.53320312 12.43945312 C-5.21479492 10.89741211 -5.21479492 10.89741211 -5.91015625 9.32421875 C-6.33433838 8.37635498 -6.75852051 7.42849121 -7.19555664 6.4519043 C-8 4 -8 4 -7 1 C-4.05697101 -0.96201933 -3.48011144 -1.16003715 0 0 Z " fill="#245396" transform="translate(89,19)"/>
<path d="M0 0 C2.31197526 2.31197526 2.60942587 3.69201727 3.4375 6.8125 C4.51430129 10.60877393 5.71482405 13.73546293 8 17 C-0.2173913 15.17391304 -0.2173913 15.17391304 -3 11 C-6.3 11.33 -9.6 11.66 -13 12 C-13 11.34 -13 10.68 -13 10 C-11.02 9.34 -9.04 8.68 -7 8 C-7 7.34 -7 6.68 -7 6 C-7.99 6.66 -8.98 7.32 -10 8 C-10 6.35 -10 4.7 -10 3 C-10.66 3 -11.32 3 -12 3 C-12.33 4.32 -12.66 5.64 -13 7 C-21.19256018 7.4726477 -21.19256018 7.4726477 -24.5625 5.5 C-25.036875 5.005 -25.51125 4.51 -26 4 C-25.67 3.34 -25.34 2.68 -25 2 C-24.34 2.33 -23.68 2.66 -23 3 C-18.7506703 3.34688406 -15.4626859 2.93605028 -11.5 1.5 C-7.53596593 0.07023728 -4.25167774 -0.43384467 0 0 Z " fill="#2B5791" transform="translate(222,81)"/>
<path d="M0 0 C0.33 0 0.66 0 1 0 C1.1753125 1.06605469 1.350625 2.13210937 1.53125 3.23046875 C2.4508742 6.42262581 3.47475527 7.69807651 6.34375 9.36328125 C7.71558636 10.04122364 9.10209805 10.6900765 10.5 11.3125 C11.21671875 11.65152344 11.9334375 11.99054688 12.671875 12.33984375 C17.96708558 14.7588788 23.17514777 16.43991806 29 17 C29.495 18.98 29.495 18.98 30 21 C29.4225 21.20625 28.845 21.4125 28.25 21.625 C25.18589456 23.49750888 23.84460032 25.96958519 22 29 C21.01 28.67 20.02 28.34 19 28 C18.875 20.25 18.875 20.25 20 18 C16.04 18.495 16.04 18.495 12 19 C12 17.68 12 16.36 12 15 C10.02 15 8.04 15 6 15 C6 13.68 6 12.36 6 11 C4.02 11.33 2.04 11.66 0 12 C0 11.01 0 10.02 0 9 C-0.99 8.67 -1.98 8.34 -3 8 C-2.45276317 4.62537285 -1.9451 2.91765 0 0 Z " fill="#EDC30F" transform="translate(186,143)"/>
<path d="M0 0 C3.58789719 3.58789719 5 6.94858535 5 12 C2 14 2 14 -1 14 C-0.67 14.99 -0.34 15.98 0 17 C-2.31 17.99 -4.62 18.98 -7 20 C-7 20.33 -7 20.66 -7 21 C-8.65 21 -10.3 21 -12 21 C-12 21.99 -12 22.98 -12 24 C-15.96 24.495 -15.96 24.495 -20 25 C-20.33 26.32 -20.66 27.64 -21 29 C-21.99 27.68 -22.98 26.36 -24 25 C-24 26.98 -24 28.96 -24 31 C-27.10315537 27.63824835 -27.147075 25.47353123 -27 21 C-25.87722656 20.78085938 -24.75445312 20.56171875 -23.59765625 20.3359375 C-11.15409456 18.04227759 -11.15409456 18.04227759 -1 11 C0.23239871 7.46459235 0.23239871 7.46459235 0 4 C0 2.68 0 1.36 0 0 Z " fill="#E8C013" transform="translate(61,138)"/>
<path d="M0 0 C2.625 0.5 2.625 0.5 4.875 3.3125 C7.67254505 8.40802848 7.89579378 11.8133306 7.625 17.5 C5.625 19.5 5.625 19.5 2.75 19.6875 C-0.86282786 18.31462541 -1.14950368 17.7303262 -2.75 14.375 C-4.306491 10.30866727 -4.91106674 6.87787836 -4.375 2.5 C-2.375 0.5 -2.375 0.5 0 0 Z " fill="#295692" transform="translate(150.375,186.5)"/>
<path d="M0 0 C3 1 3 1 4.0625 3 C4.371875 3.66 4.68125 4.32 5 5 C7.40545638 6.20272819 8.94996953 6.10071472 11.625 6.0625 C12.44226563 6.05347656 13.25953125 6.04445313 14.1015625 6.03515625 C14.72804687 6.02355469 15.35453125 6.01195313 16 6 C16.33 5.01 16.66 4.02 17 3 C17.66 3 18.32 3 19 3 C19.33 4.32 19.66 5.64 20 7 C21.32 5.68 22.64 4.36 24 3 C23.67 4.65 23.34 6.3 23 8 C20.69 8.66 18.38 9.32 16 10 C16 10.66 16 11.32 16 12 C17.32 12.33 18.64 12.66 20 13 C18.66065756 15.67868487 17.48307603 15.74954078 14.6875 16.6875 C13.90761719 16.95949219 13.12773437 17.23148438 12.32421875 17.51171875 C9.81725489 18.03839183 8.39867657 17.8178554 6 17 C7.32 16.34 8.64 15.68 10 15 C9.01 14.67 8.02 14.34 7 14 C6.67 13.01 6.34 12.02 6 11 C5.030625 10.38125 4.06125 9.7625 3.0625 9.125 C-0.17884577 6.87590294 -0.9680162 5.71514168 -2 2 C-1.34 2 -0.68 2 0 2 C0 1.34 0 0.68 0 0 Z " fill="#EBC111" transform="translate(193,81)"/>
<path d="M0 0 C1.9375 1.125 1.9375 1.125 3 3 C3.42030443 6.29238472 3.295454 8.33957342 1.9375 11.375 C0 13 0 13 -3.4375 13.5 C-7 13 -7 13 -9.4375 11.3125 C-11 9 -11 9 -11.5 6.5 C-10.21591544 0.07957718 -5.93091193 -0.75484334 0 0 Z " fill="#F4C60B" transform="translate(119,19)"/>
<path d="M0 0 C0.99 0 1.98 0 3 0 C3.66 1.98 4.32 3.96 5 6 C5.33 4.02 5.66 2.04 6 0 C6.99 0 7.98 0 9 0 C8.47594437 6.69007182 7.89536075 13.3487487 7 20 C6.01 20 5.02 20 4 20 C3.34 17.03 2.68 14.06 2 11 C1.34 13.64 0.68 16.28 0 19 C-0.66 19 -1.32 19 -2 19 C-2.21432579 12.35590042 -1.51233701 6.46794133 0 0 Z " fill="#335C8C" transform="translate(110,190)"/>
<path d="M0 0 C8.80330096 1.32821734 15.16712943 7.66073874 21 14 C20.01 15.485 20.01 15.485 19 17 C14.56790166 16.23107846 10.34010866 14.92482105 6.0625 13.5625 C5.37220703 13.34529297 4.68191406 13.12808594 3.97070312 12.90429688 C-0.03251308 11.64072247 -4.02116072 10.33873309 -8 9 C-3.60155678 7.62655615 -0.07495445 8.75692498 4.25 9.9375 C5.36761719 10.23043945 5.36761719 10.23043945 6.5078125 10.52929688 C8.34079386 11.01104198 10.17071818 11.50439225 12 12 C11.09636719 11.59007813 10.19273437 11.18015625 9.26171875 10.7578125 C8.08222656 10.21898438 6.90273437 9.68015625 5.6875 9.125 C4.51574219 8.59132813 3.34398437 8.05765625 2.13671875 7.5078125 C-1 6 -1 6 -4 4 C1.66104589 4.49658297 5.87674471 5.54510684 11 8 C10.37351563 7.59007813 9.74703125 7.18015625 9.1015625 6.7578125 C8.28429687 6.21898438 7.46703125 5.68015625 6.625 5.125 C5.81289062 4.59132813 5.00078125 4.05765625 4.1640625 3.5078125 C2 2 2 2 0 0 Z " fill="#416382" transform="translate(209,115)"/>
<path d="M0 0 C0.99 0 1.98 0 3 0 C4.17374173 2.43431639 5.33915763 4.87204182 6.5 7.3125 C6.83386719 8.00279297 7.16773438 8.69308594 7.51171875 9.40429688 C10 14.66015625 10 14.66015625 10 18 C5.75177626 17.52797514 3.80010291 15.03344482 1 12 C1.495 12.928125 1.99 13.85625 2.5 14.8125 C4 18 4 18 4 21 C1 20 1 20 -0.82421875 16.69140625 C-1.45604983 15.32000027 -2.07673453 13.94341651 -2.6875 12.5625 C-3.00783203 11.86833984 -3.32816406 11.17417969 -3.65820312 10.45898438 C-6 5.30103945 -6 5.30103945 -6 3 C-2.40094092 3.55550695 -1.00090201 4.74887248 1.25 7.5625 C1.77078125 8.20316406 2.2915625 8.84382812 2.828125 9.50390625 C3.21484375 9.99761719 3.6015625 10.49132812 4 11 C3.71125 10.45730469 3.4225 9.91460937 3.125 9.35546875 C2.75375 8.64003906 2.3825 7.92460937 2 7.1875 C1.443125 6.12595703 1.443125 6.12595703 0.875 5.04296875 C0 3 0 3 0 0 Z " fill="#325B8C" transform="translate(162,181)"/>
<path d="M0 0 C1.98 0.66 3.96 1.32 6 2 C6.6875 4.25 6.6875 4.25 7 7 C6.5153125 7.6084375 6.030625 8.216875 5.53125 8.84375 C3.62769889 11.52426075 3.68442355 13.00539659 3.8125 16.25 C3.83957031 17.14203125 3.86664063 18.0340625 3.89453125 18.953125 C3.92933594 19.62859375 3.96414062 20.3040625 4 21 C3.01 21 2.02 21 1 21 C1 18.03 1 15.06 1 12 C0.34 12 -0.32 12 -1 12 C-1.33 14.31 -1.66 16.62 -2 19 C-2.99 18.67 -3.98 18.34 -5 18 C-4.35531497 15.56219101 -3.70929951 13.12474799 -3.0625 10.6875 C-2.88009766 9.99720703 -2.69769531 9.30691406 -2.50976562 8.59570312 C-1.7406739 5.70112156 -0.94738424 2.84215271 0 0 Z " fill="#275594" transform="translate(100,187)"/>
<path d="M0 0 C0.99 0 1.98 0 3 0 C2.7834375 0.93972656 2.7834375 0.93972656 2.5625 1.8984375 C2.376875 2.71570313 2.19125 3.53296875 2 4.375 C1.814375 5.18710938 1.62875 5.99921875 1.4375 6.8359375 C0.93394761 8.95874951 0.93394761 8.95874951 1 11 C1.33773437 10.4946875 1.67546875 9.989375 2.0234375 9.46875 C2.46945313 8.8190625 2.91546875 8.169375 3.375 7.5 C3.81585938 6.8503125 4.25671875 6.200625 4.7109375 5.53125 C5.13632813 5.0259375 5.56171875 4.520625 6 4 C6.66 4 7.32 4 8 4 C6.51390706 8.17189634 4.44697825 11.62853826 2 15.3125 C1.29875 16.38113281 0.5975 17.44976562 -0.125 18.55078125 C-1.053125 19.76314453 -1.053125 19.76314453 -2 21 C-2.66 21 -3.32 21 -4 21 C-3.73958333 18.98177083 -3.47916667 16.96354167 -3.21875 14.9453125 C-2.9627515 12.99501656 -2.9627515 12.99501656 -3 11 C-4.98 13.97 -4.98 13.97 -7 17 C-7.99 16.67 -8.98 16.34 -10 16 C-7.75835046 11.94778737 -5.41880508 7.97318532 -2.9375 4.0625 C-2.45152344 3.29035156 -1.96554688 2.51820313 -1.46484375 1.72265625 C-0.98144531 1.15417969 -0.49804688 0.58570313 0 0 Z " fill="#2F598E" transform="translate(74,174)"/>
<path d="M0 0 C0.99 0.33 1.98 0.66 3 1 C3.94921875 3.765625 3.94921875 3.765625 4.6875 7.25 C5.06455078 8.95929688 5.06455078 8.95929688 5.44921875 10.703125 C5.92626436 13.55863207 6.11381624 16.1166552 6 19 C5.01 18.67 4.02 18.34 3 18 C3 17.34 3 16.68 3 16 C1.68 16 0.36 16 -1 16 C-1.33 17.32 -1.66 18.64 -2 20 C-2.66 20 -3.32 20 -4 20 C-2.07289294 6.3667426 -2.07289294 6.3667426 0 0 Z " fill="#60756D" transform="translate(124,191)"/>
<path d="M0 0 C4.03082 1.612328 6.75944137 4.46234596 9.75 7.5 C10.25660156 7.99886719 10.76320312 8.49773437 11.28515625 9.01171875 C15 12.74658861 15 12.74658861 15 15 C12.03 14.505 12.03 14.505 9 14 C8.67 15.65 8.34 17.3 8 19 C7.34 19 6.68 19 6 19 C4.99141578 16.58660204 3.99297327 14.16981325 3 11.75 C2.57074219 10.72712891 2.57074219 10.72712891 2.1328125 9.68359375 C0.70654506 6.18584265 0 3.83099811 0 0 Z " fill="#2B5791" transform="translate(169,177)"/>
<path d="M0 0 C4.75 0.75 4.75 0.75 7 3 C7.37890625 5.42578125 7.37890625 5.42578125 7.5625 8.3125 C7.80646516 11.96201964 8.2122259 15.42571915 9 19 C6.625 18.0625 6.625 18.0625 4 16 C3.269371 13.71890831 2.87881772 11.52793457 2.5546875 9.15625 C1.90249575 6.6209694 0.86044946 5.76870127 -1 4 C-0.6875 1.8125 -0.6875 1.8125 0 0 Z " fill="#EFC30E" transform="translate(195,135)"/>
<path d="M0 0 C1.98 0.66 3.96 1.32 6 2 C6 2.66 6 3.32 6 4 C4.35 3.67 2.7 3.34 1 3 C1 4.98 1 6.96 1 9 C1.66 9.33 2.32 9.66 3 10 C3 10.66 3 11.32 3 12 C1.35 11.67 -0.3 11.34 -2 11 C-2.33 12.98 -2.66 14.96 -3 17 C-2.01 17.33 -1.02 17.66 0 18 C0 18.66 0 19.32 0 20 C-1.98 19.67 -3.96 19.34 -6 19 C-7.12642186 15.62073443 -6.96344705 15.27071722 -5.56640625 12.20703125 C-5.0878418 11.1387207 -5.0878418 11.1387207 -4.59960938 10.04882812 C-4.25736328 9.31083984 -3.91511719 8.57285156 -3.5625 7.8125 C-3.22412109 7.06291016 -2.88574219 6.31332031 -2.53710938 5.54101562 C-1.7000589 3.69007302 -0.85114596 1.84450334 0 0 Z " fill="#2F598E" transform="translate(92,184)"/>
<path d="M0 0 C0.33 0 0.66 0 1 0 C1.103125 1.03125 1.20625 2.0625 1.3125 3.125 C2.12466342 6.16906289 2.9417583 6.9593806 5.58203125 8.80078125 C8.35401569 10.29174592 11.13704135 11.69299714 14 13 C13.67 13.99 13.34 14.98 13 16 C10.69 15.67 8.38 15.34 6 15 C6 13.68 6 12.36 6 11 C4.02 11.33 2.04 11.66 0 12 C0 11.01 0 10.02 0 9 C-0.99 8.67 -1.98 8.34 -3 8 C-2.45276317 4.62537285 -1.9451 2.91765 0 0 Z " fill="#E3BD16" transform="translate(186,143)"/>
<path d="M0 0 C4 2 4 2 5 4 C5.66 2.68 6.32 1.36 7 0 C7.99 3.3 8.98 6.6 10 10 C7 12 7 12 2 13 C1.34 8.71 0.68 4.42 0 0 Z " fill="#2E598F" transform="translate(41,115)"/>
<path d="M0 0 C0.99 0.33 1.98 0.66 3 1 C2.74357696 2.91864771 2.46926564 4.83490994 2.1875 6.75 C2.03667969 7.81734375 1.88585938 8.8846875 1.73046875 9.984375 C0.97813825 13.09025279 0.25320432 14.75225138 -2 17 C-2.99 17 -3.98 17 -5 17 C-4.7438709 14.91480784 -4.46951265 12.8318495 -4.1875 10.75 C-4.03667969 9.58984375 -3.88585938 8.4296875 -3.73046875 7.234375 C-3.00362557 4.01605334 -2.18338975 2.41668345 0 0 Z " fill="#ECC210" transform="translate(50,134)"/>
<path d="M0 0 C0 0.66 0 1.32 0 2 C-0.99 2 -1.98 2 -3 2 C-2.34 7.94 -1.68 13.88 -1 20 C-1.99 20 -2.98 20 -4 20 C-4.99250545 14.29309366 -5.10477512 8.78591511 -5 3 C-6.32 3 -7.64 3 -9 3 C-9 2.34 -9 1.68 -9 1 C-5.92677456 0.08941469 -3.19902639 -0.08886184 0 0 Z " fill="#325B8D" transform="translate(138,190)"/>
<path d="M0 0 C3.68754757 0.49831724 5.60490662 1.10067643 8 4 C6.86498047 4.55107422 6.86498047 4.55107422 5.70703125 5.11328125 C2.37988802 7.43219926 1.37818326 9.53090596 -0.3125 13.1875 C-0.82425781 14.27417969 -1.33601563 15.36085937 -1.86328125 16.48046875 C-2.23839844 17.31191406 -2.61351563 18.14335937 -3 19 C-3.99 19 -4.98 19 -6 19 C-4.3341708 12.83643195 -1.12194714 7.51740344 2 2 C1.34 2 0.68 2 0 2 C0 1.34 0 0.68 0 0 Z " fill="#2C5890" transform="translate(83,180)"/>
<path d="M0 0 C3.91939465 3.80411834 7.49102731 7.81576108 11 12 C12.65 11.67 14.3 11.34 16 11 C14.63016497 14.16115776 14.0109362 14.9927092 11 17 C8.96644849 14.73950295 6.94838912 12.46800554 4.9375 10.1875 C4.06641602 9.22360352 4.06641602 9.22360352 3.17773438 8.24023438 C2.63310547 7.61826172 2.08847656 6.99628906 1.52734375 6.35546875 C1.01937256 5.78465576 0.51140137 5.21384277 -0.01196289 4.62573242 C-0.33801514 4.08924072 -0.66406738 3.55274902 -1 3 C-0.67 2.01 -0.34 1.02 0 0 Z " fill="#325B8D" transform="translate(176,172)"/>
<path d="M0 0 C1.8125 0.5 1.8125 0.5 4 2 C6.02846155 5.63977979 7.12138444 8.8347094 6.6875 13 C6.460625 13.66 6.23375 14.32 6 15 C3 14 3 14 2.05078125 12.36328125 C0.5119453 8.08873693 -0.34619582 4.61594432 0 0 Z " fill="#E9C112" transform="translate(149,189)"/>
<path d="M0 0 C5.875 0.875 5.875 0.875 7 2 C7.1875 5.4375 7.1875 5.4375 7 9 C5 11 5 11 2 11.25 C-1 11 -1 11 -3 9 C-3.125 5.875 -3.125 5.875 -3 3 C-2.67 3 -2.34 3 -2 3 C-1.67 4.65 -1.34 6.3 -1 8 C-0.67 6.35 -0.34 4.7 0 3 C0.33 3.66 0.66 4.32 1 5 C1.66 5 2.32 5 3 5 C3.33 4.34 3.66 3.68 4 3 C4 4.65 4 6.3 4 8 C4.66 8 5.32 8 6 8 C5.67 6.35 5.34 4.7 5 3 C2.03 2.505 2.03 2.505 -1 2 C-0.67 1.34 -0.34 0.68 0 0 Z " fill="#5E746F" transform="translate(123,213)"/>
<path d="M0 0 C-2.31 1.32 -4.62 2.64 -7 4 C-6.01 4.33 -5.02 4.66 -4 5 C-5.79090758 6.1470194 -7.58274997 7.29257935 -9.375 8.4375 C-10.87160156 9.39462891 -10.87160156 9.39462891 -12.3984375 10.37109375 C-15 12 -15 12 -17 13 C-17 12.34 -17 11.68 -17 11 C-17.66 10.34 -18.32 9.68 -19 9 C-4.46158651 -1.4871955 -4.46158651 -1.4871955 0 0 Z " fill="#5A7172" transform="translate(41,121)"/>
<path d="M0 0 C0.99 0 1.98 0 3 0 C2.67 1.98 2.34 3.96 2 6 C1.67 5.34 1.34 4.68 1 4 C0.9175 4.5775 0.835 5.155 0.75 5.75 C-0.2128986 8.63869579 -1.82728832 9.89119161 -4 12 C-5.04349839 13.63978318 -6.05607981 15.30094366 -7 17 C-7.99 16.67 -8.98 16.34 -10 16 C-7.75835046 11.94778737 -5.41880508 7.97318532 -2.9375 4.0625 C-2.45152344 3.29035156 -1.96554688 2.51820313 -1.46484375 1.72265625 C-0.98144531 1.15417969 -0.49804688 0.58570313 0 0 Z " fill="#345C8B" transform="translate(74,174)"/>
<path d="M0 0 C0.66 0 1.32 0 2 0 C1.5020163 3.73487777 1.12508244 5.81237635 -1 9 C-1.66 9 -2.32 9 -3 9 C-3.33 11.31 -3.66 13.62 -4 16 C-4.99 15.67 -5.98 15.34 -7 15 C-6.01 10.71 -5.02 6.42 -4 2 C-3.67 2.66 -3.34 3.32 -3 4 C-2.34 4 -1.68 4 -1 4 C-0.67 2.68 -0.34 1.36 0 0 Z " fill="#677869" transform="translate(102,190)"/>
<path d="M0 0 C0.99 0 1.98 0 3 0 C3 2.31 3 4.62 3 7 C2.67 7 2.34 7 2 7 C1.93941406 7.69867188 1.87882812 8.39734375 1.81640625 9.1171875 C1.69072266 10.48230469 1.69072266 10.48230469 1.5625 11.875 C1.48128906 12.77992188 1.40007812 13.68484375 1.31640625 14.6171875 C1 17 1 17 0 19 C-0.66 19 -1.32 19 -2 19 C-2.21432579 12.35590042 -1.51233701 6.46794133 0 0 Z " fill="#315A8D" transform="translate(110,190)"/>
<path d="M0 0 C0.66 0.33 1.32 0.66 2 1 C0.38462556 4.89917968 -2.27924873 7.71293772 -5.125 10.75 C-5.59292969 11.25660156 -6.06085938 11.76320312 -6.54296875 12.28515625 C-7.69126541 13.52719141 -8.84508672 14.76411494 -10 16 C-10.99 15.67 -11.98 15.34 -13 15 C-8.70214922 9.96836982 -4.36574458 4.97281557 0 0 Z " fill="#2E598F" transform="translate(71,170)"/>
<path d="M0 0 C2.25245881 2.68841859 3.88213958 4.64641875 5 8 C4.67 8.99 4.34 9.98 4 11 C1.625 10.3125 1.625 10.3125 -1 9 C-2.125 6.5625 -2.125 6.5625 -3 4 C-4.52007842 2.22722741 -4.52007842 2.22722741 -6 1 C-4.02 0.67 -2.04 0.34 0 0 Z " fill="#B7A533" transform="translate(233,100)"/>
<path d="M0 0 C5.66987582 1.34997043 8.25662601 3.7218583 12 8 C12 8.66 12 9.32 12 10 C8.8784113 9.62043576 5.94707672 9.11821705 3 8 C1.07566765 5.20097113 0 3.41161998 0 0 Z " fill="#66786A" transform="translate(172,182)"/>
<path d="M0 0 C0.66 0 1.32 0 2 0 C3.85102717 6.33307408 5.37968409 12.42465139 6 19 C5.01 19 4.02 19 3 19 C2.49161436 16.96040523 1.99366114 14.91820862 1.5 12.875 C1.2215625 11.73804688 0.943125 10.60109375 0.65625 9.4296875 C0.03546235 6.18533302 -0.12006768 3.29185543 0 0 Z " fill="#355D8A" transform="translate(140,189)"/>
<path d="M0 0 C1.125 1.625 1.125 1.625 2 4 C1.125 7.25 1.125 7.25 0 10 C-0.99 10 -1.98 10 -3 10 C-3 9.34 -3 8.68 -3 8 C-3.99 7.67 -4.98 7.34 -6 7 C-5.67 5.02 -5.34 3.04 -5 1 C-3.35 1.33 -1.7 1.66 0 2 C0 1.34 0 0.68 0 0 Z " fill="#E5BE15" transform="translate(98,186)"/>
<path d="M0 0 C0.66 0 1.32 0 2 0 C2.69821417 2.10063576 3.38324472 4.20565737 4.0625 6.3125 C4.44535156 7.48425781 4.82820312 8.65601563 5.22265625 9.86328125 C6 13 6 13 5 16 C1.66475716 13.30004151 0.43648692 9.96744005 -1 6 C-1.25 3.125 -1.25 3.125 -1 1 C-0.67 0.67 -0.34 0.34 0 0 Z " fill="#345C8B" transform="translate(147,190)"/>
<path d="M0 0 C0.99 0.33 1.98 0.66 3 1 C3.33 4.3 3.66 7.6 4 11 C3.34 11 2.68 11 2 11 C2 9.68 2 8.36 2 7 C1.34 7 0.68 7 0 7 C-0.33 8.98 -0.66 10.96 -1 13 C-1.33 13 -1.66 13 -2 13 C-1.85915204 11.20793453 -1.71216299 9.41635083 -1.5625 7.625 C-1.48128906 6.62726563 -1.40007812 5.62953125 -1.31640625 4.6015625 C-1 2 -1 2 0 0 Z " fill="#335B8C" transform="translate(124,191)"/>
<path d="M0 0 C1 2 1 2 0.22265625 4.8203125 C-0.16019531 5.91085938 -0.54304688 7.00140625 -0.9375 8.125 C-1.31777344 9.22070312 -1.69804687 10.31640625 -2.08984375 11.4453125 C-2.54037109 12.70988281 -2.54037109 12.70988281 -3 14 C-4.65 14.33 -6.3 14.66 -8 15 C-6.62712658 11.30123909 -4.93644547 8.0485524 -2.875 4.6875 C-2.33617187 3.80449219 -1.79734375 2.92148438 -1.2421875 2.01171875 C-0.83226562 1.34785156 -0.42234375 0.68398437 0 0 Z " fill="#3E6185" transform="translate(19,98)"/>
<path d="M0 0 C0.33 1.32 0.66 2.64 1 4 C0.071875 4.37125 -0.85625 4.7425 -1.8125 5.125 C-5.5260303 7.30942959 -6.42687504 9.06718759 -8 13 C-8.66 12.34 -9.32 11.68 -10 11 C-8.51903023 6.46997482 -7.55183965 3.9396196 -3.3125 1.5625 C-2.219375 1.046875 -1.12625 0.53125 0 0 Z " fill="#DBB91B" transform="translate(46,46)"/>
<path d="M0 0 C0.66 0 1.32 0 2 0 C3.0076952 1.7664657 4.00591714 3.53833823 5 5.3125 C5.8353125 6.79169922 5.8353125 6.79169922 6.6875 8.30078125 C8 11 8 11 8 14 C5 13 5 13 3.61328125 10.56640625 C2.96939453 9.07947266 2.96939453 9.07947266 2.3125 7.5625 C1.87550781 6.57378906 1.43851563 5.58507812 0.98828125 4.56640625 C0 2 0 2 0 0 Z " fill="#2C5890" transform="translate(158,188)"/>
<path d="M0 0 C-0.89203125 0.47050781 -1.7840625 0.94101563 -2.703125 1.42578125 C-3.88551092 2.05451027 -5.06779735 2.68342643 -6.25 3.3125 C-7.41015625 3.92738281 -8.5703125 4.54226562 -9.765625 5.17578125 C-12.37033548 6.64486313 -14.67723539 8.13143936 -17 10 C-17.66 9.67 -18.32 9.34 -19 9 C-14.13968719 4.31159536 -7.09131424 -2.36377141 0 0 Z " fill="#406383" transform="translate(39,119)"/>
<path d="M0 0 C0 1.65 0 3.3 0 5 C-0.66 5 -1.32 5 -2 5 C-2.33 4.01 -2.66 3.02 -3 2 C-3.66 2 -4.32 2 -5 2 C-5.66 3.32 -6.32 4.64 -7 6 C-8 5 -8 5 -8.0625 1.9375 C-8.041875 0.968125 -8.02125 -0.00125 -8 -1 C-4.37673261 -2.2077558 -3.35853631 -1.54311128 0 0 Z " fill="#CDB125" transform="translate(129,216)"/>
<path d="M0 0 C2.475 0.495 2.475 0.495 5 1 C5 3.97 5 6.94 5 10 C4.34 10 3.68 10 3 10 C2.67 10.66 2.34 11.32 2 12 C0.86235649 7.73383684 0 4.43513689 0 0 Z " fill="#66786A" transform="translate(111,195)"/>
<path d="M0 0 C2.5625 1.25 2.5625 1.25 5 3 C5.33 3.99 5.66 4.98 6 6 C3.69 6 1.38 6 -1 6 C-1.33 4.35 -1.66 2.7 -2 1 C-1.34 0.67 -0.68 0.34 0 0 Z " fill="#677969" transform="translate(28,137)"/>
<path d="M0 0 C3.82530237 0.56871752 6.46211473 1.62529799 9.6875 3.75 C10.45449219 4.23984375 11.22148437 4.7296875 12.01171875 5.234375 C14.33699744 7.29925902 15.06717496 9.06683892 16 12 C13.27049805 10.88798069 11.77304829 9.76691446 9.6875 7.625 C6.63045245 4.63904658 3.76009492 2.99063849 0 1 C0 0.67 0 0.34 0 0 Z " fill="#566F74" transform="translate(209,115)"/>
<path d="M0 0 C0 0.33 0 0.66 0 1 C-0.89203125 1.12117187 -1.7840625 1.24234375 -2.703125 1.3671875 C-3.87359375 1.53476563 -5.0440625 1.70234375 -6.25 1.875 C-7.41015625 2.03742188 -8.5703125 2.19984375 -9.765625 2.3671875 C-12.58193313 2.91820431 -14.55217557 3.55796482 -17 5 C-16.00827903 2.02483708 -15.27035683 1.13847545 -12.4375 -0.3125 C-8.08149134 -1.18370173 -4.34860048 -0.71510319 0 0 Z " fill="#CEB124" transform="translate(207,129)"/>
<path d="M0 0 C3.79588866 0.54226981 5.47211993 2.20127563 8 5 C7.67 5.99 7.34 6.98 7 8 C6.34 8 5.68 8 5 8 C4.67 6.68 4.34 5.36 4 4 C3.01 4 2.02 4 1 4 C0.67 2.68 0.34 1.36 0 0 Z " fill="#406383" transform="translate(156,184)"/>
<path d="M0 0 C-0.33 1.98 -0.66 3.96 -1 6 C-4.65316671 4.75023244 -5.78065836 4.32901247 -8 1 C-5.23735711 0.40267181 -2.83967231 0 0 0 Z " fill="#E5BE15" transform="translate(57,112)"/>
<path d="M0 0 C0.99 0 1.98 0 3 0 C3.03738281 0.59167969 3.07476562 1.18335937 3.11328125 1.79296875 C3.51376901 6.60667451 4.0385035 10.00841777 7 14 C6.01 14 5.02 14 4 14 C2.13459373 9.29593201 0.63156995 5.05255964 0 0 Z " fill="#DBB91B" transform="translate(223,81)"/>
<path d="M0 0 C0.66 0.33 1.32 0.66 2 1 C1.44271087 4.34373475 0.64826111 7.03312999 -1 10 C-1.99 10 -2.98 10 -4 10 C-2.8905928 6.51329166 -1.73662334 3.22515763 0 0 Z " fill="#385E88" transform="translate(81,189)"/>
<path d="M0 0 C0.66 0.99 1.32 1.98 2 3 C1.2575 4.1446875 1.2575 4.1446875 0.5 5.3125 C-1.24368308 7.92363751 -1.24368308 7.92363751 -1 11 C-2.65 11 -4.3 11 -6 11 C-4.18690997 7.22272911 -2.0926741 3.62730178 0 0 Z " fill="#DDBA1A" transform="translate(26,84)"/>
<path d="M0 0 C0.66 0.33 1.32 0.66 2 1 C0.54744301 4.82946843 -1.42895561 6.12050295 -5 8 C-5 5 -5 5 -2.5 2.3125 C-1.675 1.549375 -0.85 0.78625 0 0 Z " fill="#3B6087" transform="translate(71,170)"/>
<path d="M0 0 C0.99 0 1.98 0 3 0 C2.67 1.98 2.34 3.96 2 6 C1.67 5.34 1.34 4.68 1 4 C0.67 5.32 0.34 6.64 0 8 C-2 7 -2 7 -3 5 C-1.75 2.375 -1.75 2.375 0 0 Z " fill="#426482" transform="translate(74,174)"/>
<path d="M0 0 C1.33617352 0.97528737 2.6688751 1.95533319 4 2.9375 C4.7425 3.48277344 5.485 4.02804688 6.25 4.58984375 C6.8275 5.05519531 7.405 5.52054687 8 6 C8 6.33 8 6.66 8 7 C5.6875 7.25 5.6875 7.25 3 7 C1.1875 5.1875 1.1875 5.1875 0 3 C0 2.01 0 1.02 0 0 Z " fill="#4B697C" transform="translate(35,100)"/>
<path d="M0 0 C3.24732932 1.62366466 3.70155136 4.75387839 5 8 C3.35 8 1.7 8 0 8 C0 5.36 0 2.72 0 0 Z " fill="#EBC210" transform="translate(35,149)"/>
<path d="M0 0 C3.36720387 1.39332574 4.9859524 2.9789286 7 6 C3.89448334 6 2.64738916 5.4606285 0 4 C0 2.68 0 1.36 0 0 Z " fill="#395F88" transform="translate(169,177)"/>
<path d="M0 0 C0.33 0 0.66 0 1 0 C1.33 3.3 1.66 6.6 2 10 C1.01 10 0.02 10 -1 10 C-1.125 3.375 -1.125 3.375 0 0 Z " fill="#385E88" transform="translate(102,198)"/>
<path d="M0 0 C0.33 0 0.66 0 1 0 C1 2.31 1 4.62 1 7 C-0.65 7.33 -2.3 7.66 -4 8 C-2.68 5.36 -1.36 2.72 0 0 Z " fill="#E1BB18" transform="translate(215,150)"/>
<path d="M0 0 C0.99 0 1.98 0 3 0 C3.66 1.98 4.32 3.96 5 6 C4.01 6.33 3.02 6.66 2 7 C0.5393715 4.35261084 0 3.10551666 0 0 Z " fill="#426482" transform="translate(162,181)"/>
<path d="M0 0 C0.99 0 1.98 0 3 0 C3.66 3.3 4.32 6.6 5 10 C3 8 3 8 2 4.9375 C1.34247444 1.87849194 1.34247444 1.87849194 -1 1 C-0.67 0.67 -0.34 0.34 0 0 Z " fill="#CBB026" transform="translate(56,128)"/>
<path d="M0 0 C0.99 0.33 1.98 0.66 3 1 C3 1.99 3 2.98 3 4 C-0.3 3.67 -3.6 3.34 -7 3 C-7 2.67 -7 2.34 -7 2 C-4.69 2 -2.38 2 0 2 C0 1.34 0 0.68 0 0 Z " fill="#4A697C" transform="translate(215,157)"/>
<path d="M0 0 C1.98 0.99 1.98 0.99 4 2 C4.33 2.99 4.66 3.98 5 5 C4.34 5 3.68 5 3 5 C3 6.65 3 8.3 3 10 C2.67 10 2.34 10 2 10 C1.34 6.7 0.68 3.4 0 0 Z " fill="#597073" transform="translate(41,115)"/>
<path d="M0 0 C0.33 1.32 0.66 2.64 1 4 C-0.98 4.33 -2.96 4.66 -5 5 C-5 4.34 -5 3.68 -5 3 C-2.5 1.375 -2.5 1.375 0 0 Z " fill="#EAC111" transform="translate(46,46)"/>
<path d="M0 0 C0.33 0.99 0.66 1.98 1 3 C-0.9375 6.1875 -0.9375 6.1875 -3 9 C-4 7 -4 7 -3.1875 3.9375 C-2 1 -2 1 0 0 Z " fill="#CEB124" transform="translate(77,179)"/>
<path d="M0 0 C1.65 0 3.3 0 5 0 C5.66 1.32 6.32 2.64 7 4 C3.73045798 3.43628586 2.17424117 2.50037734 0 0 Z " fill="#546E76" transform="translate(227,101)"/>
<path d="M0 0 C0.66 0 1.32 0 2 0 C2.309375 0.78375 2.61875 1.5675 2.9375 2.375 C3.92875038 4.92330128 3.92875038 4.92330128 5 7 C1.125 6.125 1.125 6.125 0 5 C-0.04063832 3.33382885 -0.042721 1.66611905 0 0 Z " fill="#B6A434" transform="translate(185,72)"/>
</svg>
