<?xml version="1.0" encoding="UTF-8"?>
<svg version="1.1" xmlns="http://www.w3.org/2000/svg" width="280" height="83">
<path d="M0 0 C92.4 0 184.8 0 280 0 C280 27.39 280 54.78 280 83 C187.6 83 95.2 83 0 83 C0 55.61 0 28.22 0 0 Z " fill="#FCFCFC" transform="translate(0,0)"/>
<path d="M0 0 C0.99 0 1.98 0 3 0 C3.12375 0.969375 3.2475 1.93875 3.375 2.9375 C3.58125 3.948125 3.7875 4.95875 4 6 C4.66 6.33 5.32 6.66 6 7 C4.60587891 7.14695312 4.60587891 7.14695312 3.18359375 7.296875 C-3.79586719 8.14110594 -9.23288378 8.88063127 -15 13 C-14.67 14.32 -14.34 15.64 -14 17 C-11.7791893 16.50648651 -9.84550226 15.92938019 -7.76953125 14.98046875 C-4.50864435 13.8260504 -1.82874055 13.69940945 1.625 13.6875 C3.31496094 13.66236328 3.31496094 13.66236328 5.0390625 13.63671875 C8 14 8 14 9.8984375 15.51953125 C10.26195312 16.00808594 10.62546875 16.49664063 11 17 C6.25 16.125 6.25 16.125 4 15 C4.495 20.94 4.495 20.94 5 27 C8.75931849 26.23085066 8.75931849 26.23085066 11 24.9375 C13 24 13 24 17 24 C17.495 22.515 17.495 22.515 18 21 C21.42460063 25.97119447 23.14099085 29.1437042 23.0625 35.1875 C23.05347656 36.08855469 23.04445313 36.98960938 23.03515625 37.91796875 C23.02355469 38.60503906 23.01195312 39.29210938 23 40 C24.65 40.66 26.3 41.32 28 42 C28 36.39 28 30.78 28 25 C30.31 25 32.62 25 35 25 C34.67 26.32 34.34 27.64 34 29 C32.68 29.33 31.36 29.66 30 30 C31.39195915 32.7839183 33.15575779 32.97898997 36 34 C36 34.99 36 35.98 36 37 C34.02 37.33 32.04 37.66 30 38 C31.63412443 39.70840281 32.86906094 40.93453047 35 42 C35 42.99 35 43.98 35 45 C33.02 45.33 31.04 45.66 29 46 C28.77390663 48.12364481 28.77390663 48.12364481 30.5 49.625 C30.995 50.07875 31.49 50.5325 32 51 C31.505 51.99 31.505 51.99 31 53 C29.02 53 27.04 53 25 53 C25.66 54.98 26.32 56.96 27 59 C24.6875 59.625 24.6875 59.625 22 60 C21.01 59.34 20.02 58.68 19 58 C19.495 61.465 19.495 61.465 20 65 C19.01 65.33 18.02 65.66 17 66 C14.3125 64.0625 14.3125 64.0625 12 62 C12 63.98 12 65.96 12 68 C8 68 8 68 5.75 66 C5.1725 65.34 4.595 64.68 4 64 C3.67 65.98 3.34 67.96 3 70 C2.01 70 1.02 70 0 70 C-0.33 68.35 -0.66 66.7 -1 65 C-4.27773504 65.75150023 -4.27773504 65.75150023 -6 69 C-6.99 69 -7.98 69 -9 69 C-9.33 67.02 -9.66 65.04 -10 63 C-10.598125 63.515625 -11.19625 64.03125 -11.8125 64.5625 C-12.534375 65.036875 -13.25625 65.51125 -14 66 C-15.485 65.505 -15.485 65.505 -17 65 C-17 63.02 -17 61.04 -17 59 C-20.465 59.495 -20.465 59.495 -24 60 C-23.33333333 57.33333333 -22.66666667 54.66666667 -22 52 C-23.98 52.66 -25.96 53.32 -28 54 C-28.6875 52.3125 -28.6875 52.3125 -29 50 C-27.5625 47.25 -27.5625 47.25 -26 45 C-27.98 45 -29.96 45 -32 45 C-31.43628586 41.73045798 -30.50037734 40.17424117 -28 38 C-29.65 37.67 -31.3 37.34 -33 37 C-33 35.68 -33 34.36 -33 33 C-30.525 32.505 -30.525 32.505 -28 32 C-28 31.34 -28 30.68 -28 30 C-29.32 29.34 -30.64 28.68 -32 28 C-32 27.01 -32 26.02 -32 25 C-30.02 25 -28.04 25 -26 25 C-26.495 24.236875 -26.99 23.47375 -27.5 22.6875 C-29 20 -29 20 -29 17 C-26.69 17.33 -24.38 17.66 -22 18 C-22.66 15.69 -23.32 13.38 -24 11 C-21.39417629 10.06934867 -20.35801776 9.85082593 -17.75 10.9375 C-17.1725 11.288125 -16.595 11.63875 -16 12 C-16.33 9.69 -16.66 7.38 -17 5 C-15.68 5 -14.36 5 -13 5 C-12.67 5.99 -12.34 6.98 -12 8 C-11.01 8 -10.02 8 -9 8 C-9 5.69 -9 3.38 -9 1 C-7.68 1.33 -6.36 1.66 -5 2 C-4.67 3.32 -4.34 4.64 -4 6 C-1.2160817 4.60804085 -1.02101003 2.84424221 0 0 Z " fill="#F7B136" transform="translate(233,2)"/>
<path d="M0 0 C0.99 0 1.98 0 3 0 C3.12375 0.969375 3.2475 1.93875 3.375 2.9375 C3.58125 3.948125 3.7875 4.95875 4 6 C4.66 6.33 5.32 6.66 6 7 C4.60587891 7.14695312 4.60587891 7.14695312 3.18359375 7.296875 C-3.79586719 8.14110594 -9.23288378 8.88063127 -15 13 C-14.67 14.32 -14.34 15.64 -14 17 C-11.7791893 16.50648651 -9.84550226 15.92938019 -7.76953125 14.98046875 C-4.50864435 13.8260504 -1.82874055 13.69940945 1.625 13.6875 C3.31496094 13.66236328 3.31496094 13.66236328 5.0390625 13.63671875 C8 14 8 14 9.8984375 15.51953125 C10.26195312 16.00808594 10.62546875 16.49664063 11 17 C6.25 16.125 6.25 16.125 4 15 C4.495 20.94 4.495 20.94 5 27 C8.75931849 26.23085066 8.75931849 26.23085066 11 24.9375 C13 24 13 24 17 24 C17.495 22.515 17.495 22.515 18 21 C21.42460063 25.97119447 23.14099085 29.1437042 23.0625 35.1875 C23.05347656 36.08855469 23.04445313 36.98960938 23.03515625 37.91796875 C23.02355469 38.60503906 23.01195312 39.29210938 23 40 C24.65 40.66 26.3 41.32 28 42 C28 36.39 28 30.78 28 25 C30.31 25 32.62 25 35 25 C34.67 26.32 34.34 27.64 34 29 C32.68 29.33 31.36 29.66 30 30 C31.39195915 32.7839183 33.15575779 32.97898997 36 34 C36 34.99 36 35.98 36 37 C34.02 37.33 32.04 37.66 30 38 C31.63412443 39.70840281 32.86906094 40.93453047 35 42 C35 42.99 35 43.98 35 45 C33.02 45.33 31.04 45.66 29 46 C28.77390663 48.12364481 28.77390663 48.12364481 30.5 49.625 C30.995 50.07875 31.49 50.5325 32 51 C31.505 51.99 31.505 51.99 31 53 C29.02 53 27.04 53 25 53 C25.66 54.98 26.32 56.96 27 59 C24.6875 59.625 24.6875 59.625 22 60 C21.01 59.34 20.02 58.68 19 58 C19.495 61.465 19.495 61.465 20 65 C19.01 65.33 18.02 65.66 17 66 C14.3125 64.0625 14.3125 64.0625 12 62 C12 63.98 12 65.96 12 68 C8 68 8 68 5.75 66 C5.1725 65.34 4.595 64.68 4 64 C3.67 65.98 3.34 67.96 3 70 C2.01 70 1.02 70 0 70 C-0.33 68.35 -0.66 66.7 -1 65 C-4.27773504 65.75150023 -4.27773504 65.75150023 -6 69 C-6.99 69 -7.98 69 -9 69 C-9.33 67.02 -9.66 65.04 -10 63 C-10.598125 63.515625 -11.19625 64.03125 -11.8125 64.5625 C-12.534375 65.036875 -13.25625 65.51125 -14 66 C-15.485 65.505 -15.485 65.505 -17 65 C-17 63.02 -17 61.04 -17 59 C-20.465 59.495 -20.465 59.495 -24 60 C-23.33333333 57.33333333 -22.66666667 54.66666667 -22 52 C-23.98 52.66 -25.96 53.32 -28 54 C-28.75 52.375 -28.75 52.375 -29 50 C-27.0625 46.75 -27.0625 46.75 -25 44 C-23.70502904 45.94245644 -22.43251346 47.90015107 -21.1875 49.875 C-17.12959726 55.67200392 -13.51860493 58.57150012 -7 61 C-7 60.34 -7 59.68 -7 59 C-7.66 59 -8.32 59 -9 59 C-8.34 57.68 -7.68 56.36 -7 55 C-6.34 55.33 -5.68 55.66 -5 56 C-5 57.98 -5 59.96 -5 62 C4.32614787 62.41967665 11.32178017 62.17090752 18.75 56.1875 C22.56834274 52.68299365 25.35034058 48.94897826 27 44 C24.03 43.505 24.03 43.505 21 43 C20.773125 43.70125 20.54625 44.4025 20.3125 45.125 C19.1347764 47.70477551 18.17784967 49.02615994 16.3125 51.0625 C13.70535313 53.69083436 13.70535313 53.69083436 14.1875 56.375 C14.455625 56.91125 14.72375 57.4475 15 58 C14.67 57.34 14.34 56.68 14 56 C13.34 56 12.68 56 12 56 C11.505 56.99 11.505 56.99 11 58 C11 57.01 11 56.02 11 55 C10.34 55 9.68 55 9 55 C9.66 56.65 10.32 58.3 11 60 C10.34 60 9.68 60 9 60 C8.731875 59.38125 8.46375 58.7625 8.1875 58.125 C7.04443152 55.7004767 7.04443152 55.7004767 4 54 C5.953125 53.34895833 7.90625 52.69791667 9.859375 52.046875 C12.56612297 50.86662555 12.56612297 50.86662555 16 47 C12.37 45.35 8.74 43.7 5 42 C6.32 40.02 7.64 38.04 9 36 C13.10958767 37.45044271 16.43258745 39.51110752 20 42 C20 37.38 20 32.76 20 28 C18.576875 29.010625 17.15375 30.02125 15.6875 31.0625 C13.26171875 32.78515625 13.26171875 32.78515625 11 34 C8 33 8 33 6.1875 30.9375 C4.09786954 28.75245892 4.09786954 28.75245892 1 28.4375 C-2.21449361 28.73709629 -2.21449361 28.73709629 -4.375 31.5 C-4.91125 32.325 -5.4475 33.15 -6 34 C-10.30764815 32.43358249 -14.06171464 30.31663844 -18 28 C-18 31.3 -18 34.6 -18 38 C-18.33 38 -18.66 38 -19 38 C-20.76494516 28.46545929 -20.76494516 28.46545929 -17.9375 24.125 C-17.298125 23.09375 -16.65875 22.0625 -16 21 C-16.58255237 18.5756566 -16.58255237 18.5756566 -18 17 C-24.054782 22.42842525 -25.33218766 27.64694473 -25.7890625 35.51171875 C-26 38 -26 38 -27 41 C-27.66 40.67 -28.32 40.34 -29 40 C-28.67 39.34 -28.34 38.68 -28 38 C-29.65 37.67 -31.3 37.34 -33 37 C-33 35.68 -33 34.36 -33 33 C-30.525 32.505 -30.525 32.505 -28 32 C-28 31.34 -28 30.68 -28 30 C-29.32 29.34 -30.64 28.68 -32 28 C-32 27.01 -32 26.02 -32 25 C-30.02 25 -28.04 25 -26 25 C-26.495 24.236875 -26.99 23.47375 -27.5 22.6875 C-29 20 -29 20 -29 17 C-26.69 17.33 -24.38 17.66 -22 18 C-22.66 15.69 -23.32 13.38 -24 11 C-21.39417629 10.06934867 -20.35801776 9.85082593 -17.75 10.9375 C-17.1725 11.288125 -16.595 11.63875 -16 12 C-16.33 9.69 -16.66 7.38 -17 5 C-15.68 5 -14.36 5 -13 5 C-12.67 5.99 -12.34 6.98 -12 8 C-11.01 8 -10.02 8 -9 8 C-9 5.69 -9 3.38 -9 1 C-7.68 1.33 -6.36 1.66 -5 2 C-4.67 3.32 -4.34 4.64 -4 6 C-1.2160817 4.60804085 -1.02101003 2.84424221 0 0 Z " fill="#F7AC29" transform="translate(233,2)"/>
<path d="M0 0 C0.99 0.33 1.98 0.66 3 1 C3 2.98 3 4.96 3 7 C3.763125 6.319375 4.52625 5.63875 5.3125 4.9375 C6.199375 4.298125 7.08625 3.65875 8 3 C8.99 3.33 9.98 3.66 11 4 C10.67 6.31 10.34 8.62 10 11 C10.99 10.34 11.98 9.68 13 9 C15.6875 9.375 15.6875 9.375 18 10 C17.34 11.98 16.68 13.96 16 16 C17.98 16 19.96 16 22 16 C22 17.32 22 18.64 22 20 C21.01 20.33 20.02 20.66 19 21 C19.2475 22.3921875 19.2475 22.3921875 19.5 23.8125 C21.30433917 36.39132166 21.30433917 36.39132166 19 41 C16.5625 40.625 16.5625 40.625 14 40 C12.81757765 37.63515529 13.01919665 36.48597623 13.1875 33.875 C13.28068384 28.64823393 11.60205048 25.47227427 9 21 C8.67 21.66 8.34 22.32 8 23 C6.29296875 23.81640625 6.29296875 23.81640625 4.1875 24.5625 C3.50042969 24.81128906 2.81335938 25.06007813 2.10546875 25.31640625 C0.07442468 25.97583614 -1.90239784 26.59503993 -4 27 C-5 26 -5 26 -5.09765625 23.27734375 C-5.08605469 22.17519531 -5.07445312 21.07304687 -5.0625 19.9375 C-5.05347656 18.83277344 -5.04445312 17.72804688 -5.03515625 16.58984375 C-5.02355469 15.73519531 -5.01195312 14.88054688 -5 14 C-2.03 14.495 -2.03 14.495 1 15 C-3.38083169 12.80958415 -9.21881331 13.64475958 -14 14 C-17.43595207 15.4225861 -17.43595207 15.4225861 -20 17 C-22.375 16.6875 -22.375 16.6875 -24 16 C-24.33 14.68 -24.66 13.36 -25 12 C-17.3612893 6.86329876 -12.12709755 5.8210373 -3 6 C-2.690625 5.195625 -2.38125 4.39125 -2.0625 3.5625 C-1 1 -1 1 0 0 Z " fill="#F8B036" transform="translate(242,3)"/>
<path d="M0 0 C0.99 0 1.98 0 3 0 C3.12375 0.969375 3.2475 1.93875 3.375 2.9375 C3.58125 3.948125 3.7875 4.95875 4 6 C4.66 6.33 5.32 6.66 6 7 C4.60587891 7.14695312 4.60587891 7.14695312 3.18359375 7.296875 C-3.79586719 8.14110594 -9.23288378 8.88063127 -15 13 C-14.67 14.32 -14.34 15.64 -14 17 C-11.41752649 16.38020636 -8.91574485 15.66350702 -6.375 14.875 C-3 14 -3 14 -1 15 C-1.06034932 17.22990727 -1.1492275 19.4590536 -1.25 21.6875 C-1.29640625 22.92886719 -1.3428125 24.17023437 -1.390625 25.44921875 C-2.07137845 29.41591675 -3.25338754 31.12704336 -6 34 C-10.30764815 32.43358249 -14.06171464 30.31663844 -18 28 C-18 31.3 -18 34.6 -18 38 C-18.33 38 -18.66 38 -19 38 C-20.76494516 28.46545929 -20.76494516 28.46545929 -17.9375 24.125 C-17.298125 23.09375 -16.65875 22.0625 -16 21 C-16.58255237 18.5756566 -16.58255237 18.5756566 -18 17 C-24.054782 22.42842525 -25.33218766 27.64694473 -25.7890625 35.51171875 C-26 38 -26 38 -27 41 C-27.66 40.67 -28.32 40.34 -29 40 C-28.67 39.34 -28.34 38.68 -28 38 C-29.65 37.67 -31.3 37.34 -33 37 C-33 35.68 -33 34.36 -33 33 C-30.525 32.505 -30.525 32.505 -28 32 C-28 31.34 -28 30.68 -28 30 C-29.32 29.34 -30.64 28.68 -32 28 C-32 27.01 -32 26.02 -32 25 C-30.02 25 -28.04 25 -26 25 C-26.495 24.236875 -26.99 23.47375 -27.5 22.6875 C-29 20 -29 20 -29 17 C-26.69 17.33 -24.38 17.66 -22 18 C-22.66 15.69 -23.32 13.38 -24 11 C-21.39417629 10.06934867 -20.35801776 9.85082593 -17.75 10.9375 C-17.1725 11.288125 -16.595 11.63875 -16 12 C-16.33 9.69 -16.66 7.38 -17 5 C-15.68 5 -14.36 5 -13 5 C-12.67 5.99 -12.34 6.98 -12 8 C-11.01 8 -10.02 8 -9 8 C-9 5.69 -9 3.38 -9 1 C-7.68 1.33 -6.36 1.66 -5 2 C-4.67 3.32 -4.34 4.64 -4 6 C-1.2160817 4.60804085 -1.02101003 2.84424221 0 0 Z " fill="#F7AF32" transform="translate(233,2)"/>
<path d="M0 0 C13.00552486 -0.60773481 13.00552486 -0.60773481 17.375 2.0625 C19.39579343 5.71547274 19.6096772 7.88467889 19 12 C18.01979625 13.0194119 17.02196992 14.02246356 16 15 C16.12056596 17.36539052 16.12056596 17.36539052 17 20 C17.350625 21.258125 17.70125 22.51625 18.0625 23.8125 C18.5265625 25.3903125 18.5265625 25.3903125 19 27 C17.35 27 15.7 27 14 27 C13.76925781 26.36191406 13.53851563 25.72382812 13.30078125 25.06640625 C12.32549888 22.59543393 11.35161692 20.28868041 10 18 C7.3912295 16.7886547 7.3912295 16.7886547 5 17 C5 20.3 5 23.6 5 27 C3.35 27 1.7 27 0 27 C0 18.09 0 9.18 0 0 Z " fill="#255095" transform="translate(84,21)"/>
<path d="M0 0 C2.75329021 1.79562405 4.52627461 3.05254922 6 6 C6.55512815 10.63213493 6.6364242 13.98172127 4.125 18 C1.34133676 20.61991834 0.49815479 20.96309965 -3.375 21.25 C-7.14275074 20.99015512 -8.4270943 20.67186361 -11 18 C-12.45169963 13.64490112 -12.62989078 9.54679785 -12 5 C-8.71154166 0.01748736 -5.83923052 -0.93844776 0 0 Z " fill="#275196" transform="translate(118,28)"/>
<path d="M0 0 C2.875 2.5 2.875 2.5 5 5 C7.29776136 3.89367046 9.45328831 2.71939295 11.625 1.375 C14 0 14 0 16 0 C17.24377393 2.48754786 17.13306235 4.22655301 17.125 7 C17.12886719 8.3303125 17.12886719 8.3303125 17.1328125 9.6875 C17 12 17 12 16 14 C12.51750769 12.74243333 9.93534151 11.2268108 7 9 C6.34 9 5.68 9 5 9 C4.1646875 10.2375 4.1646875 10.2375 3.3125 11.5 C1 14 1 14 -2.5 14.5625 C-6 14 -6 14 -8.4375 12.375 C-10.47161336 9.28314769 -10.60605429 7.63632575 -10 4 C-7.2247536 -0.05612936 -4.80517165 -0.88258255 0 0 Z " fill="#FBD69E" transform="translate(237,30)"/>
<path d="M0 0 C0.78246094 -0.02578125 1.56492188 -0.0515625 2.37109375 -0.078125 C5.13696698 0.33601645 5.84395163 1.08040102 7.5625 3.25 C7.90307617 5.24291992 7.90307617 5.24291992 7.85546875 7.48046875 C7.84580078 8.28291016 7.83613281 9.08535156 7.82617188 9.91210938 C7.80103516 10.74548828 7.77589844 11.57886719 7.75 12.4375 C7.72969727 13.7049707 7.72969727 13.7049707 7.70898438 14.99804688 C7.67365799 17.08230384 7.61985139 19.16623277 7.5625 21.25 C5.45945523 21.3580023 3.35483091 21.43558987 1.25 21.5 C-0.50763672 21.56960937 -0.50763672 21.56960937 -2.30078125 21.640625 C-5.4375 21.25 -5.4375 21.25 -7.328125 19.390625 C-8.7214323 16.70213063 -8.96051126 15.23863579 -8.4375 12.25 C-6.9375 9.9375 -6.9375 9.9375 -4.4375 8.25 C-1.67896096 7.91834359 0.76674286 8.06361619 3.5625 8.25 C3.2325 7.59 2.9025 6.93 2.5625 6.25 C0.43673218 5.78348793 0.43673218 5.78348793 -2 5.625 C-2.82628906 5.55023438 -3.65257812 5.47546875 -4.50390625 5.3984375 C-5.14199219 5.34945312 -5.78007812 5.30046875 -6.4375 5.25 C-6.4375 3.93 -6.4375 2.61 -6.4375 1.25 C-4.11063547 0.08656773 -2.59028587 0.05104012 0 0 Z " fill="#295397" transform="translate(148.4375,27.75)"/>
<path d="M0 0 C1.65 0 3.3 0 5 0 C5.20496094 0.71027344 5.40992188 1.42054687 5.62109375 2.15234375 C5.89050781 3.07144531 6.15992188 3.99054687 6.4375 4.9375 C6.83775391 6.31228516 6.83775391 6.31228516 7.24609375 7.71484375 C7.79026051 9.9402493 7.79026051 9.9402493 9 11 C10.32 7.37 11.64 3.74 13 0 C14.32 0 15.64 0 17 0 C16.40457239 2.85623903 15.79897499 5.70969123 15.1875 8.5625 C15.02185547 9.36236328 14.85621094 10.16222656 14.68554688 10.98632812 C12.1105957 22.8894043 12.1105957 22.8894043 9 26 C6.32941149 26.14115161 3.67567762 26.04247107 1 26 C0.67 24.68 0.34 23.36 0 22 C1.134375 21.87625 2.26875 21.7525 3.4375 21.625 C4.613125 21.41875 5.78875 21.2125 7 21 C7.33 20.34 7.66 19.68 8 19 C7.01 19 6.02 19 5 19 C4.34922704 16.95990245 3.70460176 14.91784331 3.0625 12.875 C2.70285156 11.73804688 2.34320313 10.60109375 1.97265625 9.4296875 C1.08101661 6.28567301 0.46648986 3.23105607 0 0 Z " fill="#255095" transform="translate(174,29)"/>
<path d="M0 0 C0.33 1.32 0.66 2.64 1 4 C1.66 4 2.32 4 3 4 C3.33 2.68 3.66 1.36 4 0 C4.66 0 5.32 0 6 0 C5.67 0.99 5.34 1.98 5 3 C5.99 3.33 6.98 3.66 8 4 C8 2.68 8 1.36 8 0 C13.99291003 0.41330414 17.25036599 1.31903365 22 5 C21.1875 6.9375 21.1875 6.9375 20 9 C19.01 9.33 18.02 9.66 17 10 C16.34 9.67 15.68 9.34 15 9 C15.66 7.68 16.32 6.36 17 5 C16.67 4.67 16.34 4.34 16 4 C15.01 5.485 15.01 5.485 14 7 C10.65746763 7.17986721 7.4526154 7.06607777 4.1171875 6.8828125 C-0.77556305 6.71911453 -3.63622861 7.5461879 -8 10 C-10.375 9.6875 -10.375 9.6875 -12 9 C-12.33 7.68 -12.66 6.36 -13 5 C-4.738041 -0.74031891 -4.738041 -0.74031891 0 0 Z " fill="#FDECD4" transform="translate(230,10)"/>
<path d="M0 0 C1.32 0 2.64 0 4 0 C4 1.65 4 3.3 4 5 C5.65 5 7.3 5 9 5 C9 6.32 9 7.64 9 9 C7.35 9 5.7 9 4 9 C4 12.63 4 16.26 4 20 C5.65 20 7.3 20 9 20 C9 21.65 9 23.3 9 25 C2.57178218 25.36386139 2.57178218 25.36386139 0.28125 23.90625 C-1.63271296 21.05864657 -1.28800847 18.69628509 -1.1875 15.3125 C-1.16042969 14.13300781 -1.13335937 12.95351563 -1.10546875 11.73828125 C-1.07066406 10.83464844 -1.03585938 9.93101563 -1 9 C-1.66 9 -2.32 9 -3 9 C-3 7.35 -3 5.7 -3 4 C-2.34 4 -1.68 4 -1 4 C-0.67 2.68 -0.34 1.36 0 0 Z " fill="#2F579A" transform="translate(129,24)"/>
<path d="M0 0 C0.33 0 0.66 0 1 0 C0.96519531 0.68707031 0.93039063 1.37414063 0.89453125 2.08203125 C0.86746094 2.98308594 0.84039062 3.88414063 0.8125 4.8125 C0.77769531 5.70582031 0.74289063 6.59914063 0.70703125 7.51953125 C1.04918998 10.41647515 1.75393573 11.22555028 4 13 C3.01 13.495 3.01 13.495 2 14 C1.01 13.67 0.02 13.34 -1 13 C-1.226875 13.70125 -1.45375 14.4025 -1.6875 15.125 C-2.8652236 17.70477551 -3.82215033 19.02615994 -5.6875 21.0625 C-8.29464687 23.69083436 -8.29464687 23.69083436 -7.8125 26.375 C-7.544375 26.91125 -7.27625 27.4475 -7 28 C-7.33 27.34 -7.66 26.68 -8 26 C-8.66 26 -9.32 26 -10 26 C-10.33 26.66 -10.66 27.32 -11 28 C-11 27.01 -11 26.02 -11 25 C-11.66 25 -12.32 25 -13 25 C-12.34 26.65 -11.68 28.3 -11 30 C-11.66 30 -12.32 30 -13 30 C-13.268125 29.38125 -13.53625 28.7625 -13.8125 28.125 C-14.95556848 25.7004767 -14.95556848 25.7004767 -18 24 C-16.046875 23.34895833 -14.09375 22.69791667 -12.140625 22.046875 C-9.43387703 20.86662555 -9.43387703 20.86662555 -6 17 C-9.63 15.35 -13.26 13.7 -17 12 C-15.02 9.03 -15.02 9.03 -13 6 C-8.89041233 7.45044271 -5.56741255 9.51110752 -2 12 C-1.34 8.04 -0.68 4.08 0 0 Z " fill="#F7AD2C" transform="translate(255,32)"/>
<path d="M0 0 C3.9369665 1.31232217 4.29810026 2.74548642 6.1875 6.375 C9.08161415 12.36381047 9.93201596 17.41689994 9 24 C8.67 24.66 8.34 25.32 8 26 C5.5625 25.625 5.5625 25.625 3 25 C1.81757765 22.63515529 2.01919665 21.48597623 2.1875 18.875 C2.26663279 14.40759429 1.16197328 11.61201825 -1.125 7.82421875 C-2 6 -2 6 -2 2 C-1.34 1.34 -0.68 0.68 0 0 Z " fill="#FEFAF3" transform="translate(253,18)"/>
<path d="M0 0 C1.32 0.99 2.64 1.98 4 3 C2.16336634 7.72277228 2.16336634 7.72277228 0.96875 9.75 C-0.32741916 12.76045739 -0.4292288 15.48714667 -0.625 18.75 C-0.73714844 20.50570312 -0.73714844 20.50570312 -0.8515625 22.296875 C-0.92503906 23.63492188 -0.92503906 23.63492188 -1 25 C-2.98 25.33 -4.96 25.66 -7 26 C-7.53932072 16.90345715 -7.89092413 9.47968852 -2 2 C-1.34 1.34 -0.68 0.68 0 0 Z " fill="#FEFAF5" transform="translate(214,18)"/>
<path d="M0 0 C2.5625 0.25 2.5625 0.25 5.5625 2.25 C5.5625 1.59 5.5625 0.93 5.5625 0.25 C6.2225 0.25 6.8825 0.25 7.5625 0.25 C7.5625 1.24 7.5625 2.23 7.5625 3.25 C8.5525 3.25 9.5425 3.25 10.5625 3.25 C10.5625 5.23 10.5625 7.21 10.5625 9.25 C11.2225 9.25 11.8825 9.25 12.5625 9.25 C12.5625 7.27 12.5625 5.29 12.5625 3.25 C13.2225 3.25 13.8825 3.25 14.5625 3.25 C14.5625 5.56 14.5625 7.87 14.5625 10.25 C7.5625 10.25 7.5625 10.25 5.5 9.6875 C4.860625 9.543125 4.22125 9.39875 3.5625 9.25 C3.2325 9.58 2.9025 9.91 2.5625 10.25 C0.125 10.4375 0.125 10.4375 -2.4375 10.25 C-4.4375 8.25 -4.4375 8.25 -4.6875 5.25 C-4.37752366 1.53028393 -3.8002894 0.38977327 0 0 Z " fill="#B8C5DC" transform="translate(17.4375,58.75)"/>
<path d="M0 0 C2.25 0.125 2.25 0.125 5 1 C6.3540932 2.98600337 7.68457624 4.98817543 9 7 C11.23880651 8.87051799 13.55105006 10.3987635 16 12 C15.34 13.32 14.68 14.64 14 16 C14.66 16 15.32 16 16 16 C16 16.66 16 17.32 16 18 C11.06328061 17.54077029 8.51386625 16.51386625 5 13 C2.73904223 10.13962551 0.54950929 7.30872659 -1 4 C-0.6640625 1.71875 -0.6640625 1.71875 0 0 Z " fill="#FBD18E" transform="translate(210,45)"/>
<path d="M0 0 C0.99 0 1.98 0 3 0 C2.67 1.65 2.34 3.3 2 5 C0.35 5.33 -1.3 5.66 -3 6 C-3 10.95 -3 15.9 -3 21 C-4.65 21 -6.3 21 -8 21 C-8 14.4 -8 7.8 -8 1 C-5.69 1 -3.38 1 -1 1 C-0.67 0.67 -0.34 0.34 0 0 Z " fill="#325A9B" transform="translate(169,28)"/>
<path d="M0 0 C0.99 0 1.98 0 3 0 C3.12375 0.969375 3.2475 1.93875 3.375 2.9375 C3.58125 3.948125 3.7875 4.95875 4 6 C4.66 6.33 5.32 6.66 6 7 C4.62328125 7.14695312 4.62328125 7.14695312 3.21875 7.296875 C-4.02825101 8.17991294 -9.72075995 9.23245597 -16 13 C-16.33 10.36 -16.66 7.72 -17 5 C-15.68 5 -14.36 5 -13 5 C-12.67 5.99 -12.34 6.98 -12 8 C-11.01 8 -10.02 8 -9 8 C-9 5.69 -9 3.38 -9 1 C-7.68 1.33 -6.36 1.66 -5 2 C-4.67 3.32 -4.34 4.64 -4 6 C-1.2160817 4.60804085 -1.02101003 2.84424221 0 0 Z " fill="#F7AC2B" transform="translate(233,2)"/>
<path d="M0 0 C0.66 0 1.32 0 2 0 C2 0.66 2 1.32 2 2 C2.61488281 2.19335938 3.22976562 2.38671875 3.86328125 2.5859375 C5.07564453 2.97652344 5.07564453 2.97652344 6.3125 3.375 C7.11300781 3.63023438 7.91351563 3.88546875 8.73828125 4.1484375 C11 5 11 5 14 7 C12.68 8.65 11.36 10.3 10 12 C5.69235185 10.43358249 1.93828536 8.31663844 -2 6 C-2 9.3 -2 12.6 -2 16 C-2.33 16 -2.66 16 -3 16 C-4.75944138 6.32307238 -4.75944138 6.32307238 -2.1875 2.375 C-1.465625 1.59125 -0.74375 0.8075 0 0 Z " fill="#F7AD2C" transform="translate(217,24)"/>
<path d="M0 0 C3.0289346 0.52018659 5.53326534 1.65885376 8.25 3.0625 C8.95640625 3.42472656 9.6628125 3.78695312 10.390625 4.16015625 C10.92171875 4.43730469 11.4528125 4.71445312 12 5 C6.56777494 10.73401535 6.56777494 10.73401535 3 12 C1.68 12 0.36 12 -1 12 C-1.02687279 10.18757948 -1.04633715 8.37504767 -1.0625 6.5625 C-1.07410156 5.55316406 -1.08570313 4.54382812 -1.09765625 3.50390625 C-1 1 -1 1 0 0 Z " fill="#FEF7EE" transform="translate(238,44)"/>
<path d="M0 0 C5.02265357 1.18180084 8.0949151 2.44992282 12 6 C10.90012224 9.29963329 10.54413252 9.61064772 7.6875 11.25 C6.79611328 11.78367187 6.79611328 11.78367187 5.88671875 12.328125 C4 13 4 13 0 12 C0 8.04 0 4.08 0 0 Z " fill="#FEF8EE" transform="translate(237,17)"/>
<path d="M0 0 C1.24377393 2.48754786 1.13306235 4.22655301 1.125 7 C1.12757813 7.886875 1.13015625 8.77375 1.1328125 9.6875 C1 12 1 12 0 14 C-3.99500618 12.6302836 -6.80009492 10.74277578 -10 8 C-8.48502075 3.75805811 -4.70198172 0 0 0 Z " fill="#FEFAF3" transform="translate(253,30)"/>
<path d="M0 0 C3.56679337 0.89169834 4.95603121 1.4670234 7.75 3.5625 C8.67039063 4.24505859 8.67039063 4.24505859 9.609375 4.94140625 C10.29773438 5.46541016 10.29773438 5.46541016 11 6 C9.49616703 10.21073233 6.79335044 11.83237117 3 14 C2.01 14 1.02 14 0 14 C0 9.38 0 4.76 0 0 Z " fill="#FEFAF4" transform="translate(215,30)"/>
<path d="M0 0 C0 3.96 0 7.92 0 12 C-4.60057086 11.07988583 -7.79672559 9.89559434 -12 8 C-10.01351708 2.43784783 -5.71424233 0 0 0 Z " fill="#FEFBF5" transform="translate(231,18)"/>
<path d="M0 0 C0.33 3.96 0.66 7.92 1 12 C-5.14689273 11.63118644 -7.69027374 10.09949571 -12 6 C-8.82952065 2.30110743 -4.90226152 0 0 0 Z " fill="#FEFBF6" transform="translate(231,44)"/>
<path d="M0 0 C4.55555556 0.55555556 4.55555556 0.55555556 6 2 C6.16796875 3.99609375 6.16796875 3.99609375 6.1875 6.4375 C6.20167969 7.24058594 6.21585938 8.04367188 6.23046875 8.87109375 C6 11 6 11 4 13 C-0.55555556 12.44444444 -0.55555556 12.44444444 -2 11 C-2.16796875 9.00390625 -2.16796875 9.00390625 -2.1875 6.5625 C-2.20167969 5.75941406 -2.21585937 4.95632812 -2.23046875 4.12890625 C-2 2 -2 2 0 0 Z " fill="#F4F6FA" transform="translate(113,32)"/>
<path d="M0 0 C4.29 0 8.58 0 13 0 C13 2.31 13 4.62 13 7 C9.04 7 5.08 7 1 7 C0 3 0 3 0 0 Z " fill="#FCDFB3" transform="translate(227,58)"/>
<path d="M0 0 C0.57234375 0.21527344 1.1446875 0.43054687 1.734375 0.65234375 C1.734375 4.65234375 1.734375 4.65234375 0.734375 6.65234375 C-4.44548112 9.76025742 -4.44548112 9.76025742 -7.640625 9.33984375 C-8.176875 9.11296875 -8.713125 8.88609375 -9.265625 8.65234375 C-9.595625 7.33234375 -9.925625 6.01234375 -10.265625 4.65234375 C-9.02618224 3.78292881 -7.77355441 2.93228918 -6.515625 2.08984375 C-5.81953125 1.61417969 -5.1234375 1.13851563 -4.40625 0.6484375 C-2.265625 -0.34765625 -2.265625 -0.34765625 0 0 Z " fill="#FCDCAB" transform="translate(227.265625,10.34765625)"/>
<path d="M0 0 C2.875 -0.125 2.875 -0.125 6 0 C8 2 8 2 8.25 5 C8 8 8 8 6 10 C2.875 10.125 2.875 10.125 0 10 C0 6.7 0 3.4 0 0 Z " fill="#4A6CA7" transform="translate(105,59)"/>
<path d="M0 0 C3.375 -0.125 3.375 -0.125 7 0 C9 2 9 2 9.1875 4.5625 C9 7 9 7 8 8 C5.32941149 8.14115161 2.67567762 8.04247107 0 8 C0 5.36 0 2.72 0 0 Z " fill="#F2F4F8" transform="translate(89,25)"/>
<path d="M0 0 C0.66 0 1.32 0 2 0 C2 2.64 2 5.28 2 8 C-0.97 7.505 -0.97 7.505 -4 7 C-4 8.32 -4 9.64 -4 11 C-5.32 10.67 -6.64 10.34 -8 10 C-7.34 9.01 -6.68 8.02 -6 7 C-6.99 7.495 -6.99 7.495 -8 8 C-8.33 8.99 -8.66 9.98 -9 11 C-9.66 11 -10.32 11 -11 11 C-11.33 9.35 -11.66 7.7 -12 6 C-9.03 6 -6.06 6 -3 6 C-2.690625 5.195625 -2.38125 4.39125 -2.0625 3.5625 C-1 1 -1 1 0 0 Z " fill="#F7AD2E" transform="translate(242,3)"/>
<path d="M0 0 C3.875 1.875 3.875 1.875 5 3 C5.125 5.5 5.125 5.5 5 8 C4 9 4 9 1.5625 9.1875 C-1 9 -1 9 -3 7 C-2.67028521 3.70285207 -2.3773161 2.3773161 0 0 Z " fill="#FEF9F1" transform="translate(233,32)"/>
<path d="M0 0 C0.66 0 1.32 0 2 0 C2 0.99 2 1.98 2 3 C2.99 3 3.98 3 5 3 C5 4.98 5 6.96 5 9 C5.66 9 6.32 9 7 9 C7 7.02 7 5.04 7 3 C7.66 3 8.32 3 9 3 C9 5.31 9 7.62 9 10 C6 10 3 10 0 10 C0 6.7 0 3.4 0 0 Z " fill="#6885B6" transform="translate(23,59)"/>
<path d="M0 0 C0.66 0 1.32 0 2 0 C1.67 1.65 1.34 3.3 1 5 C2.32 4.67 3.64 4.34 5 4 C-0.43222506 9.73401535 -0.43222506 9.73401535 -4 11 C-5.32 11 -6.64 11 -8 11 C-8 9.02 -8 7.04 -8 5 C-7.34 6.32 -6.68 7.64 -6 9 C-6 8.01 -6 7.02 -6 6 C-6 5.34 -6 4.68 -6 4 C-4.35 4.33 -2.7 4.66 -1 5 C-1.33 4.01 -1.66 3.02 -2 2 C-1.34 1.34 -0.68 0.68 0 0 Z " fill="#FDEFD9" transform="translate(248,53)"/>
<path d="M0 0 C5.75 0.75 5.75 0.75 8 3 C8.375 5.9375 8.375 5.9375 8 9 C6.3125 10.9375 6.3125 10.9375 4 12 C1.30190224 11.74303831 -0.58350693 11.20824654 -3 10 C-3.875 7.75 -3.875 7.75 -4 5 C-2.0625 2.1875 -2.0625 2.1875 0 0 Z M-0.6875 2.1875 C-2.29311998 3.98466409 -2.29311998 3.98466409 -1.75 6.625 C-1.22254355 8.9312407 -1.22254355 8.9312407 0 10 C2.5 10.16666667 2.5 10.16666667 5 10 C6.25676839 8.95296435 6.25676839 8.95296435 6.25 6.625 C6.22966657 3.9726652 6.22966657 3.9726652 4.625 2.1875 C2.38201942 0.54839881 1.57741764 0.59366907 -0.6875 2.1875 Z " fill="#F7AF35" transform="translate(232,31)"/>
<path d="M0 0 C4.30840713 1.07710178 7.63576723 2.03947516 11 5 C10.1875 6.9375 10.1875 6.9375 9 9 C8.01 9.33 7.02 9.66 6 10 C5.34 9.67 4.68 9.34 4 9 C4.66 7.68 5.32 6.36 6 5 C5.34 4.34 4.68 3.68 4 3 C3.01 3.99 2.02 4.98 1 6 C0.01 5.34 -0.98 4.68 -2 4 C-1.34 2.68 -0.68 1.36 0 0 Z " fill="#FBD395" transform="translate(241,10)"/>
<path d="M0 0 C0.66 0.33 1.32 0.66 2 1 C1.9175 1.928125 1.835 2.85625 1.75 3.8125 C1.64696955 7.09105222 1.64696955 7.09105222 4 8.875 C4.66 9.24625 5.32 9.6175 6 10 C5.01 10.33 4.02 10.66 3 11 C2.01 12.485 2.01 12.485 1 14 C0.01 14 -0.98 14 -2 14 C-2.25 7.375 -2.25 7.375 0 4 C-0.66 4 -1.32 4 -2 4 C-1.34 2.68 -0.68 1.36 0 0 Z " fill="#F8B544" transform="translate(226,57)"/>
<path d="M0 0 C3.79588866 0.54226981 5.47211993 2.20127563 8 5 C7.01 6.485 7.01 6.485 6 8 C6.66 8 7.32 8 8 8 C8 8.66 8 9.32 8 10 C5.03 9.505 5.03 9.505 2 9 C1.855625 8.360625 1.71125 7.72125 1.5625 7.0625 C1.18992819 5.02454854 1.18992819 5.02454854 0 4 C-0.33 3.34 -0.66 2.68 -1 2 C-0.67 1.34 -0.34 0.68 0 0 Z " fill="#FBD9A5" transform="translate(218,53)"/>
<path d="M0 0 C-0.33 2.97 -0.66 5.94 -1 9 C-1.66 8.67 -2.32 8.34 -3 8 C-2.67 7.34 -2.34 6.68 -2 6 C-3.65 5.67 -5.3 5.34 -7 5 C-7 3.68 -7 2.36 -7 1 C-4.53721199 -0.231394 -2.7204945 -0.07159196 0 0 Z " fill="#F8B340" transform="translate(207,34)"/>
<path d="M0 0 C0.33 0.99 0.66 1.98 1 3 C2.65 3.33 4.3 3.66 6 4 C6 5.65 6 7.3 6 9 C1.125 10 1.125 10 0 10 C0 6.7 0 3.4 0 0 Z " fill="#7791BD" transform="translate(85,59)"/>
<path d="M0 0 C0.33 0.99 0.66 1.98 1 3 C2.65 3.33 4.3 3.66 6 4 C6 5.65 6 7.3 6 9 C1.125 10 1.125 10 0 10 C0 6.7 0 3.4 0 0 Z " fill="#7791BD" transform="translate(34,59)"/>
<path d="M0 0 C0 0.66 0 1.32 0 2 C-0.515625 2.45375 -1.03125 2.9075 -1.5625 3.375 C-2.2740625 4.179375 -2.2740625 4.179375 -3 5 C-2.77242269 7.16299211 -2.77242269 7.16299211 -2 9 C-2.33 8.34 -2.66 7.68 -3 7 C-3.66 7 -4.32 7 -5 7 C-5.33 7.66 -5.66 8.32 -6 9 C-6 8.01 -6 7.02 -6 6 C-6.66 6 -7.32 6 -8 6 C-7.34 7.65 -6.68 9.3 -6 11 C-6.66 11 -7.32 11 -8 11 C-8.268125 10.38125 -8.53625 9.7625 -8.8125 9.125 C-9.95556848 6.7004767 -9.95556848 6.7004767 -13 5 C-12.45730469 4.80664062 -11.91460937 4.61328125 -11.35546875 4.4140625 C-10.64003906 4.15367188 -9.92460937 3.89328125 -9.1875 3.625 C-8.47980469 3.36976562 -7.77210938 3.11453125 -7.04296875 2.8515625 C-0.20183486 0 -0.20183486 0 0 0 Z " fill="#F9BA52" transform="translate(250,51)"/>
<path d="M0 0 C0.66 0 1.32 0 2 0 C2.99 3.3 3.98 6.6 5 10 C4.34 9.67 3.68 9.34 3 9 C3 8.34 3 7.68 3 7 C1.35 7 -0.3 7 -2 7 C-2 7.99 -2 8.98 -2 10 C-2.66 9.67 -3.32 9.34 -4 9 C-2.68 6.03 -1.36 3.06 0 0 Z " fill="#6582B4" transform="translate(64,59)"/>
<path d="M0 0 C1.67542976 0.28604898 3.34385343 0.61781233 5 1 C5 2.65 5 4.3 5 6 C3.34385343 6.38218767 1.67542976 6.71395102 0 7 C-1 6 -1 6 -1.125 3.5 C-1 1 -1 1 0 0 Z " fill="#8CA2C7" transform="translate(159,62)"/>
<path d="M0 0 C1.67542976 0.28604898 3.34385343 0.61781233 5 1 C5 2.65 5 4.3 5 6 C3.34385343 6.38218767 1.67542976 6.71395102 0 7 C-1 6 -1 6 -1.125 3.5 C-1 1 -1 1 0 0 Z " fill="#8CA2C7" transform="translate(47,62)"/>
<path d="M0 0 C1.32 0.33 2.64 0.66 4 1 C4.625 3.375 4.625 3.375 5 6 C4.34 6.66 3.68 7.32 3 8 C2.01 8 1.02 8 0 8 C0 5.36 0 2.72 0 0 Z " fill="#FAFBFC" transform="translate(107,60)"/>
<path d="M0 0 C2.97 0.495 2.97 0.495 6 1 C6 1.66 6 2.32 6 3 C5.01 3 4.02 3 3 3 C2.67 3.66 2.34 4.32 2 5 C-0.0625 5.625 -0.0625 5.625 -2 6 C-1.67 7.32 -1.34 8.64 -1 10 C-1.99 9.34 -2.98 8.68 -4 8 C-2.66666667 5.33333333 -1.33333333 2.66666667 0 0 Z " fill="#FEF5E9" transform="translate(254,45)"/>
<path d="M0 0 C1.4540625 0.0309375 1.4540625 0.0309375 2.9375 0.0625 C2.6075 1.7125 2.2775 3.3625 1.9375 5.0625 C0.2875 5.0625 -1.3625 5.0625 -3.0625 5.0625 C-3.625 3.125 -3.625 3.125 -4.0625 1.0625 C-3.0625 0.0625 -3.0625 0.0625 0 0 Z " fill="#F0F3F8" transform="translate(149.0625,39.9375)"/>
<path d="M0 0 C1.67542976 0.28604898 3.34385343 0.61781233 5 1 C5 1.99 5 2.98 5 4 C4.01 4.495 4.01 4.495 3 5 C3.66 5.33 4.32 5.66 5 6 C3.34385343 6.38218767 1.67542976 6.71395102 0 7 C-1 6 -1 6 -1.125 3.5 C-1 1 -1 1 0 0 Z " fill="#6381B3" transform="translate(116,62)"/>
<path d="M0 0 C2.64 0 5.28 0 8 0 C8 1.65 8 3.3 8 5 C6.68 4.67 5.36 4.34 4 4 C4.66 3.01 5.32 2.02 6 1 C5.01 1.495 5.01 1.495 4 2 C3.67 2.99 3.34 3.98 3 5 C2.34 5 1.68 5 1 5 C0.67 3.35 0.34 1.7 0 0 Z " fill="#FACB82" transform="translate(230,9)"/>
<path d="M0 0 C1.65 0.33 3.3 0.66 5 1 C5.33 2.98 5.66 4.96 6 7 C5.01 6.67 4.02 6.34 3 6 C3 5.34 3 4.68 3 4 C2.01 4 1.02 4 0 4 C0 4.66 0 5.32 0 6 C0.66 6.33 1.32 6.66 2 7 C1.01 7 0.02 7 -1 7 C-1 5.68 -1 4.36 -1 3 C0.32 3 1.64 3 3 3 C3 2.34 3 1.68 3 1 C1.68 1.33 0.36 1.66 -1 2 C-0.67 1.34 -0.34 0.68 0 0 Z " fill="#4F70A9" transform="translate(137,62)"/>
<path d="M0 0 C0.99 0.99 1.98 1.98 3 3 C2.67 3.99 2.34 4.98 2 6 C2.99 6.33 3.98 6.66 5 7 C4.01 7.99 3.02 8.98 2 10 C0.68 8.68 -0.64 7.36 -2 6 C-1.67 5.38125 -1.34 4.7625 -1 4.125 C0.14193235 2.08981656 0.14193235 2.08981656 0 0 Z " fill="#FEF4E5" transform="translate(216,50)"/>
<path d="M0 0 C2.0625 0.4375 2.0625 0.4375 4 1 C3.1875 2.9375 3.1875 2.9375 2 5 C1.01 5.33 0.02 5.66 -1 6 C-1.66 5.67 -2.32 5.34 -3 5 C-1.125 1.125 -1.125 1.125 0 0 Z " fill="#FEFAF3" transform="translate(248,14)"/>
<path d="M0 0 C0.66 0 1.32 0 2 0 C3.125 7.75 3.125 7.75 2 10 C1.34 10 0.68 10 0 10 C0 6.7 0 3.4 0 0 Z " fill="#8EA4C8" transform="translate(23,59)"/>
<path d="M0 0 C0.99 0.33 1.98 0.66 3 1 C3 1.99 3 2.98 3 4 C3.66 4 4.32 4 5 4 C5.33 2.68 5.66 1.36 6 0 C6.66 0 7.32 0 8 0 C7.67 0.99 7.34 1.98 7 3 C7.66 3.66 8.32 4.32 9 5 C4.545 5.495 4.545 5.495 0 6 C0.33 4.68 0.66 3.36 1 2 C0.67 1.34 0.34 0.68 0 0 Z " fill="#FEF8F0" transform="translate(228,10)"/>
<path d="M0 0 C2.475 0.495 2.475 0.495 5 1 C5 2.98 5 4.96 5 7 C3.35 7 1.7 7 0 7 C0.33 6.34 0.66 5.68 1 5 C1.99 5.33 2.98 5.66 4 6 C4 5.34 4 4.68 4 4 C2.68 3.67 1.36 3.34 0 3 C0 2.01 0 1.02 0 0 Z " fill="#607EB1" transform="translate(70,62)"/>
<path d="M0 0 C1.67542976 0.28604898 3.34385343 0.61781233 5 1 C5 1.66 5 2.32 5 3 C2.5 4.625 2.5 4.625 0 6 C-0.38218767 4.34385343 -0.71395102 2.67542976 -1 1 C-0.67 0.67 -0.34 0.34 0 0 Z " fill="#FEF7EE" transform="translate(210,45)"/>
<path d="M0 0 C0.66 0.33 1.32 0.66 2 1 C1.67 3.97 1.34 6.94 1 10 C0.34 10 -0.32 10 -1 10 C-2.25 3.375 -2.25 3.375 0 0 Z " fill="#5E7CB0" transform="translate(55,59)"/>
<path d="M0 0 C3 1 3 1 4.1875 3.0625 C4.455625 3.701875 4.72375 4.34125 5 5 C3.68 5.33 2.36 5.66 1 6 C0.34 4.35 -0.32 2.7 -1 1 C-0.67 0.67 -0.34 0.34 0 0 Z " fill="#FEF6EA" transform="translate(218,14)"/>
<path d="M0 0 C1.32 0.33 2.64 0.66 4 1 C4 2.32 4 3.64 4 5 C3.34 5.66 2.68 6.32 2 7 C0 2.25 0 2.25 0 0 Z " fill="#FACE8A" transform="translate(225,10)"/>
<path d="M0 0 C3.3 0 6.6 0 10 0 C10 1.65 10 3.3 10 5 C9.34 5 8.68 5 8 5 C7.67 3.68 7.34 2.36 7 1 C4.69 1 2.38 1 0 1 C0 0.67 0 0.34 0 0 Z " fill="#FACB82" transform="translate(230,58)"/>
</svg>
