<?xml version="1.0" standalone="no"?>
<!DOCTYPE svg PUBLIC "-//W3C//DTD SVG 20010904//EN"
 "http://www.w3.org/TR/2001/REC-SVG-20010904/DTD/svg10.dtd">
<svg version="1.0" xmlns="http://www.w3.org/2000/svg"
 width="2730.000000pt" height="1056.000000pt" viewBox="0 0 2730.000000 1056.000000"
 preserveAspectRatio="xMidYMid meet">

<g transform="translate(0.000000,1056.000000) scale(0.100000,-0.100000)"
fill="#000000" stroke="none">
<path d="M4820 10240 c-224 -48 -387 -136 -530 -286 -143 -150 -229 -313 -290
-551 l-11 -43 -95 0 c-100 0 -150 -14 -190 -51 l-21 -20 -53 33 c-51 32 -58
33 -173 36 -143 4 -173 0 -223 -34 -30 -21 -41 -24 -54 -15 -8 6 -33 20 -55
31 -36 18 -62 20 -283 20 -257 0 -289 -5 -338 -51 l-22 -20 -47 33 -47 33
-138 3 c-123 3 -144 1 -182 -17 -24 -11 -50 -26 -58 -32 -13 -9 -24 -6 -54 15
-21 14 -52 28 -70 31 -17 4 -140 5 -273 3 l-241 -3 -46 -32 -46 -33 -46 33
c-45 31 -48 32 -171 35 -149 4 -179 0 -229 -34 -30 -21 -41 -24 -54 -15 -59
44 -92 51 -246 51 -138 0 -154 -2 -195 -23 -55 -29 -105 -101 -115 -164 -6
-42 8 -96 135 -518 154 -513 162 -531 244 -573 92 -48 302 -40 381 13 l36 24
36 -24 c77 -52 285 -61 379 -15 66 32 95 79 140 224 21 69 41 126 45 126 3 0
21 -51 39 -112 19 -62 42 -129 51 -148 40 -79 104 -111 235 -118 107 -5 185 9
238 44 34 23 41 24 55 11 40 -35 87 -49 181 -54 156 -9 253 24 300 101 11 17
36 88 57 158 21 70 41 124 44 120 4 -4 24 -64 45 -135 59 -195 104 -235 280
-245 107 -5 185 9 238 44 34 23 41 24 55 11 50 -44 84 -52 217 -52 134 0 166
8 217 52 16 14 22 13 65 -15 112 -70 240 -77 353 -19 l45 23 58 -46 c94 -76
265 -152 423 -186 144 -31 342 -23 514 20 25 7 28 -1 350 -830 179 -460 327
-841 328 -845 2 -5 -14 -9 -36 -9 -61 0 -166 -37 -218 -76 -105 -80 -935 -826
-958 -861 -84 -127 -87 -312 -8 -441 17 -28 187 -187 472 -441 245 -219 467
-414 493 -434 26 -20 77 -46 113 -57 223 -69 453 58 510 280 l18 67 130 6
c220 11 422 62 598 154 110 56 190 114 287 207 41 39 70 62 65 51 -14 -31 -18
-3391 -4 -3490 48 -331 260 -621 561 -764 46 -22 125 -53 174 -68 l90 -28
1750 0 1750 0 80 22 c196 54 349 143 485 283 l85 87 43 -53 c116 -142 316
-264 527 -320 67 -18 139 -19 1820 -19 l1750 0 81 22 c194 51 338 135 479 278
l90 91 43 -52 c116 -142 317 -264 527 -320 67 -18 139 -19 1815 -19 l1745 0
81 22 c194 51 338 135 479 278 l90 91 43 -52 c116 -142 317 -264 527 -320 67
-18 139 -19 1820 -19 l1750 0 81 22 c188 50 336 134 469 268 131 130 214 274
268 463 l22 77 3 1723 c2 1655 2 1726 -17 1815 -82 406 -398 713 -814 792
-118 22 -3390 23 -3518 0 -224 -39 -403 -137 -567 -310 -41 -42 -75 -75 -76
-73 -27 42 -106 123 -169 173 -133 107 -288 177 -460 210 -118 22 -3380 23
-3508 0 -224 -39 -403 -137 -567 -310 -41 -42 -75 -75 -76 -73 -1 1 -21 27
-45 56 -93 113 -274 234 -433 288 -163 55 -130 54 -1444 54 l-1214 0 0 155 0
155 234 0 c205 0 242 2 298 20 72 22 137 64 185 118 l32 37 31 -36 c42 -51
113 -96 188 -119 57 -18 93 -20 312 -20 219 0 255 2 312 20 75 23 147 68 188
118 l29 35 65 -60 c108 -101 129 -107 449 -111 248 -3 274 -2 336 17 96 29
169 87 235 184 11 17 17 15 91 -36 141 -96 263 -148 446 -189 137 -30 397 -32
529 -5 180 38 349 109 480 201 85 59 211 184 268 266 25 36 49 69 53 73 4 5
21 -36 39 -90 75 -223 114 -291 207 -352 97 -64 151 -73 435 -69 295 4 327 12
423 100 69 62 94 105 140 233 19 55 42 119 51 142 l16 43 57 -78 c186 -249
438 -405 758 -469 133 -26 413 -24 550 6 191 40 362 116 502 221 l81 62 43
-32 c47 -35 151 -70 206 -70 65 0 154 29 212 70 l57 39 78 -40 c221 -111 505
-86 673 59 l45 38 61 -46 c114 -87 257 -127 419 -118 104 6 228 43 297 89 l44
29 30 -29 c73 -70 194 -103 298 -82 61 12 147 52 168 77 8 10 24 6 72 -21 107
-59 265 -81 377 -53 25 6 124 12 220 14 96 1 189 3 205 3 17 1 88 -2 160 -5
165 -8 217 3 279 57 l46 40 36 -35 c58 -56 111 -68 277 -64 135 3 145 4 190
31 26 15 60 47 75 69 23 36 27 52 27 117 l0 76 -120 229 c-66 126 -121 233
-123 237 -2 4 40 54 93 111 80 86 98 112 112 157 21 74 6 142 -44 201 -59 69
-94 80 -263 80 -121 0 -152 -4 -186 -19 l-42 -19 -4 92 c-5 109 -29 163 -96
211 l-44 30 -164 3 c-162 3 -164 3 -213 -24 -28 -15 -62 -43 -75 -63 -26 -37
-46 -115 -46 -177 l0 -34 -102 0 c-110 0 -164 -16 -202 -58 l-18 -21 -32 24
c-62 47 -96 55 -238 55 -154 0 -195 -9 -245 -53 -69 -61 -77 -93 -81 -345 -3
-192 -6 -223 -19 -218 -8 3 -23 6 -33 6 -14 0 -21 10 -25 38 -28 190 -84 312
-189 418 -119 119 -259 174 -441 174 -152 0 -294 -45 -392 -126 l-42 -35 -53
41 c-107 86 -211 120 -360 120 -185 0 -325 -56 -449 -180 l-76 -76 -7 126
c-19 389 -139 692 -364 923 -243 248 -568 369 -952 354 -195 -8 -333 -41 -502
-119 l-68 -31 -23 21 c-12 11 -49 33 -82 49 l-60 28 -270 0 -270 0 -67 -33
c-78 -38 -149 -105 -182 -171 -13 -25 -38 -92 -57 -148 -18 -57 -36 -103 -39
-103 -3 0 -23 53 -44 118 -57 177 -114 249 -243 310 l-58 27 -284 3 c-262 3
-289 2 -350 -17 -37 -11 -86 -34 -108 -50 l-41 -30 -93 40 c-191 83 -377 116
-598 106 -198 -9 -353 -48 -516 -130 -109 -54 -184 -107 -270 -188 -40 -38
-75 -69 -77 -69 -3 0 -27 27 -53 61 -125 160 -351 280 -587 314 -27 4 -48 9
-48 12 0 3 63 209 140 459 119 386 140 464 140 519 0 167 -101 315 -257 376
-49 19 -82 23 -215 27 -171 4 -232 -4 -310 -43 -48 -24 -48 -24 -81 -5 -61 36
-143 50 -292 50 -148 -1 -202 -9 -268 -40 l-41 -20 -65 28 c-65 27 -70 27
-276 27 -194 0 -215 -2 -272 -23 -58 -21 -64 -22 -99 -7 -104 43 -196 59 -349
59 -221 1 -371 -38 -526 -139 l-70 -45 -62 44 c-106 74 -206 115 -340 136
l-75 12 -6 47 c-15 112 -107 229 -223 284 l-68 32 -225 0 c-212 0 -228 -1
-282 -23 -67 -27 -155 -103 -191 -165 -47 -80 -57 -137 -57 -320 l0 -169 -64
60 c-84 78 -139 115 -240 163 -136 64 -235 83 -416 83 -131 1 -168 -3 -240
-22 -99 -27 -232 -87 -299 -136 l-48 -33 -39 29 c-62 47 -212 116 -299 139
-113 29 -303 36 -421 15 -124 -21 -249 -68 -337 -126 l-73 -47 -34 25 c-19 13
-75 44 -125 67 -316 152 -709 118 -982 -86 l-52 -39 -53 40 c-304 230 -768
240 -1094 23 l-52 -34 -52 39 c-96 73 -237 128 -371 147 -46 6 -46 6 -58 58
-28 126 -125 243 -238 288 -52 21 -77 24 -260 27 -230 4 -275 -4 -362 -62
l-52 -35 -33 20 c-54 31 -186 76 -276 93 -112 22 -310 20 -420 -4z m379 -395
c157 -37 286 -144 360 -298 37 -76 78 -213 67 -224 -5 -6 -199 -32 -238 -33
-23 0 -27 5 -38 53 -42 179 -157 289 -304 290 -176 1 -294 -113 -345 -335 -50
-216 -29 -485 51 -641 26 -53 94 -125 138 -147 52 -27 137 -39 196 -30 131 21
220 116 269 284 16 55 19 58 44 53 14 -3 70 -11 125 -18 61 -8 100 -18 103
-26 8 -20 -35 -151 -75 -228 -49 -95 -156 -202 -242 -242 -92 -43 -160 -57
-280 -56 -215 1 -360 71 -508 247 -143 170 -199 547 -126 846 19 75 83 218
110 247 11 10 36 40 57 66 38 46 131 119 195 151 103 52 310 71 441 41z m871
-296 l0 -281 41 52 c81 102 186 146 332 137 157 -8 252 -75 309 -214 23 -57
23 -63 26 -515 l3 -458 -126 0 -125 0 0 388 c0 414 -5 469 -51 533 -42 59
-124 81 -212 55 -73 -21 -136 -82 -168 -162 -23 -58 -24 -66 -27 -437 l-3
-378 -127 3 -127 3 -3 778 -2 777 130 0 130 0 0 -281z m6400 5 l0 -275 56 60
c34 37 77 71 112 88 52 25 67 28 172 28 97 0 122 -4 162 -22 106 -49 176 -148
197 -283 6 -38 11 -236 11 -472 l0 -408 -130 0 -130 0 0 403 c0 455 -3 481
-65 536 -32 28 -89 51 -126 51 -8 0 -39 -7 -68 -16 -67 -20 -131 -78 -162
-147 -24 -51 -24 -59 -29 -437 l-5 -385 -127 -3 -128 -3 0 781 0 780 130 0
130 0 0 -276z m-4756 -123 c170 -60 296 -207 342 -397 22 -92 22 -276 0 -368
-67 -278 -302 -447 -586 -422 -291 27 -475 235 -496 561 -13 198 49 386 167
504 66 67 168 122 254 140 79 16 250 6 319 -18z m1184 14 c255 -60 412 -286
412 -593 0 -353 -198 -587 -515 -609 -283 -19 -512 157 -569 439 -20 98 -20
246 -1 339 45 214 195 376 393 423 76 19 202 19 280 1z m1143 5 c83 -15 191
-73 240 -128 41 -47 97 -147 88 -157 -5 -4 -192 -45 -209 -45 -5 0 -20 20 -34
45 -39 66 -99 97 -197 103 -133 8 -207 -34 -216 -122 -6 -50 10 -84 51 -111
13 -9 95 -31 182 -49 184 -40 237 -56 317 -99 114 -60 163 -150 155 -286 -10
-168 -127 -290 -320 -336 -81 -19 -255 -19 -336 0 -162 38 -280 135 -332 273
l-19 50 67 12 c37 6 88 14 114 17 46 6 46 5 67 -35 58 -113 218 -174 360 -138
80 20 115 45 135 97 13 32 14 48 6 79 -14 52 -52 77 -152 101 -46 10 -130 30
-187 44 -179 42 -278 99 -327 187 -26 47 -29 63 -29 143 0 78 4 97 28 146 48
98 150 173 275 203 68 17 199 20 273 6z m1243 -19 c33 -12 79 -32 102 -46 149
-87 253 -294 254 -502 l0 -73 -410 0 -410 0 0 -42 c0 -133 76 -261 179 -306
49 -21 174 -20 223 1 55 25 106 74 134 128 21 43 27 48 52 44 15 -3 69 -9 121
-15 51 -5 96 -12 99 -14 12 -13 -65 -143 -119 -200 -107 -114 -226 -161 -414
-160 -102 0 -130 4 -191 26 -236 84 -364 288 -364 580 0 123 21 215 71 316 69
141 189 240 335 277 84 21 260 14 338 -14z m2785 14 c242 -57 394 -262 408
-549 15 -319 -128 -556 -382 -632 -42 -13 -93 -18 -170 -18 -94 0 -122 4 -190
28 -100 34 -163 74 -221 140 -95 108 -144 258 -144 439 0 189 51 333 157 447
61 66 157 119 261 144 76 19 203 19 281 1z m713 -32 c63 -234 213 -763 217
-763 3 0 51 176 105 390 l99 390 102 0 102 0 103 -387 c56 -214 105 -391 109
-395 4 -4 58 170 121 387 l114 395 103 0 c57 0 103 -3 103 -7 0 -5 -79 -266
-177 -581 l-177 -573 -104 3 -105 3 -106 403 c-67 255 -109 396 -113 385 -4
-10 -50 -189 -103 -397 -53 -209 -98 -384 -101 -388 -7 -11 -202 -10 -208 1
-8 12 -346 1130 -346 1142 0 5 58 9 129 9 114 0 129 -2 133 -17z m-14138 -290
c3 -10 39 -142 81 -293 42 -151 77 -275 78 -276 1 -1 36 130 77 292 l75 295
79 -3 80 -3 77 -288 c42 -159 78 -290 80 -292 2 -2 42 129 89 291 l85 294 78
0 c42 0 77 -4 77 -9 0 -5 -58 -199 -130 -431 -72 -232 -130 -424 -130 -427 0
-2 -37 -3 -81 -1 l-82 3 -77 292 c-42 161 -79 295 -82 298 -3 3 -33 -106 -67
-242 -34 -136 -69 -272 -77 -300 l-15 -53 -79 0 -79 0 -22 73 c-25 84 -227
754 -235 780 -5 15 4 17 95 17 86 0 100 -2 105 -17z m1198 0 c59 -221 152
-550 157 -555 4 -4 40 123 80 283 l74 290 80 -3 80 -3 76 -287 c42 -159 78
-288 81 -288 3 0 44 131 90 290 l84 290 79 0 c71 0 79 -2 75 -17 -3 -10 -63
-206 -133 -436 l-129 -418 -80 3 -80 3 -80 304 -80 303 -71 -278 c-40 -154
-75 -291 -79 -306 -6 -28 -8 -28 -85 -28 l-79 0 -16 48 c-20 63 -246 813 -246
818 0 2 44 4 99 4 86 0 99 -2 103 -17z m1274 -272 c43 -160 82 -287 86 -283 5
6 148 551 148 567 0 3 36 5 79 5 l80 0 15 -52 c8 -29 43 -160 77 -290 35 -131
66 -238 71 -238 4 0 8 5 8 11 0 6 37 137 82 290 l81 279 79 0 c71 0 79 -2 74
-17 -70 -234 -249 -814 -256 -831 -9 -21 -15 -23 -87 -20 l-78 3 -47 175 c-25
96 -61 233 -80 305 l-34 130 -28 -110 c-15 -61 -50 -199 -78 -308 l-51 -198
-80 3 -80 3 -128 425 c-71 234 -129 428 -129 433 0 4 44 7 98 7 l99 0 79 -289z
m1089 -341 c64 -39 83 -129 42 -191 -60 -90 -181 -88 -237 4 -39 63 -14 158
48 192 39 21 109 19 147 -5z m5675 -430 c287 -36 537 -147 728 -325 110 -103
190 -211 258 -350 149 -303 174 -725 64 -1070 -128 -397 -445 -690 -863 -795
-356 -89 -770 -54 -1062 92 -288 144 -506 396 -605 699 -53 160 -64 245 -64
459 0 210 11 296 61 454 139 443 518 754 1008 830 109 17 359 20 475 6z m8150
-55 c141 -37 289 -124 382 -223 177 -189 258 -444 245 -767 -18 -445 -247
-764 -623 -867 -113 -30 -364 -31 -476 0 -346 94 -568 372 -617 772 -55 439
112 831 429 1008 63 35 184 78 262 91 79 15 321 6 398 -14z m3444 -4 c385
-102 615 -448 616 -923 l0 -68 -651 0 -650 0 7 -72 c9 -97 37 -205 71 -274
127 -261 505 -312 705 -95 30 32 65 84 79 115 23 54 26 56 54 52 17 -3 105
-13 198 -22 92 -10 167 -21 167 -25 0 -4 -14 -38 -30 -75 -78 -173 -216 -320
-372 -398 -138 -68 -240 -90 -423 -90 -224 -1 -346 32 -511 141 -168 110 -280
274 -342 503 -24 87 -26 112 -26 300 -1 183 1 215 22 295 31 120 117 293 185
375 121 145 297 245 489 279 89 16 321 6 412 -18z m-6299 4 c135 -36 258 -136
321 -263 l31 -62 34 52 c81 127 229 237 365 273 77 20 252 20 329 0 139 -37
249 -127 310 -258 69 -143 68 -137 72 -894 l4 -683 -205 0 -206 0 0 633 c0
689 -1 694 -57 786 -17 27 -48 58 -78 76 -45 28 -56 30 -139 30 -85 0 -95 -2
-154 -34 -75 -41 -131 -101 -172 -185 -57 -116 -60 -147 -60 -753 l0 -553
-200 0 -199 0 -3 648 -3 647 -24 60 c-31 78 -100 148 -161 165 -67 18 -169 8
-233 -24 -67 -32 -150 -119 -182 -188 -54 -120 -55 -127 -55 -740 l0 -568
-200 0 -200 0 0 905 0 905 185 0 184 0 3 -142 3 -143 47 66 c83 117 183 193
308 236 80 28 244 31 335 8z m-8186 -697 c113 -383 208 -699 211 -702 3 -3 97
304 209 682 113 378 208 695 213 705 8 16 36 17 368 17 198 0 360 -2 360 -4 0
-20 -1010 -2811 -1040 -2874 -122 -256 -301 -405 -576 -479 -95 -26 -110 -27
-354 -27 -140 -1 -285 2 -322 7 l-68 8 -2 -195 -3 -195 -427 380 c-236 209
-428 383 -427 387 0 4 192 177 427 384 l427 378 3 -219 2 -220 58 -8 c108 -15
391 -9 462 10 110 30 158 73 174 156 6 35 10 24 -951 2499 -4 10 102 12 522
10 l528 -3 206 -697z m5263 -120 l4 -823 22 -68 c30 -89 72 -131 147 -148 119
-27 230 33 277 149 l23 57 5 825 5 825 478 3 477 2 0 -1235 0 -1235 -445 0
-445 0 0 168 0 167 -32 -55 c-17 -30 -70 -93 -117 -140 -97 -96 -200 -155
-326 -187 -108 -27 -380 -24 -500 6 -294 72 -448 258 -500 601 -12 77 -15 263
-15 1003 l0 907 469 0 470 0 3 -822z m7073 118 c121 -371 222 -673 225 -671 3
2 105 305 225 674 l219 671 169 0 169 0 -6 -22 c-3 -13 -146 -420 -318 -905
l-312 -883 -187 0 c-169 0 -188 2 -194 18 -13 34 -625 1784 -625 1788 0 2 94
4 208 4 l209 0 218 -674z m6587 -306 l3 -350 170 194 170 195 104 0 103 1
-131 -140 c-72 -76 -131 -144 -131 -150 0 -5 65 -134 145 -287 80 -152 145
-281 145 -285 0 -4 -46 -8 -102 -8 l-103 0 -114 222 -114 221 -73 -79 -73 -79
-1 -142 0 -143 -100 0 -100 0 0 583 c0 321 3 587 7 590 3 4 48 7 100 7 l93 0
2 -350z m-2735 29 c34 -16 76 -46 94 -66 39 -45 79 -130 86 -183 6 -42 13 -39
-122 -55 l-51 -6 -13 52 c-36 140 -180 190 -274 94 -33 -34 -67 -111 -67 -152
0 -13 -4 -23 -10 -23 -6 0 -10 -35 -10 -85 0 -50 4 -85 10 -85 6 0 10 -8 10
-18 0 -41 35 -117 71 -153 90 -90 233 -46 270 81 7 25 16 49 19 53 4 5 45 3
90 -4 l82 -12 -6 -40 c-10 -61 -55 -144 -104 -188 -64 -60 -121 -82 -225 -87
-255 -13 -412 143 -425 422 -7 152 19 251 92 349 95 129 327 181 483 106z
m762 31 c207 -34 341 -211 341 -449 0 -98 -15 -166 -55 -248 -40 -82 -97 -138
-184 -180 -52 -26 -65 -28 -176 -28 -109 0 -125 2 -177 27 -71 33 -146 102
-181 166 -74 135 -76 366 -6 504 52 102 169 188 281 207 74 12 85 12 157 1z
m1051 -313 c0 -323 7 -378 56 -416 78 -61 201 -22 257 83 21 39 22 54 25 334
l3 292 100 0 99 0 0 -435 0 -435 -95 0 -95 0 0 62 0 62 -36 -42 c-60 -70 -113
-95 -214 -100 -106 -5 -172 19 -226 81 -63 74 -67 103 -72 475 l-4 332 101 0
101 0 0 -293z m-2563 -334 c96 -45 98 -199 4 -248 -63 -32 -148 -9 -187 51
-23 35 -22 112 2 149 40 61 113 81 181 48z m2154 -6 c90 -60 88 -181 -4 -237
-91 -56 -207 11 -207 119 0 111 120 179 211 118z m-16336 -662 c35 -49 107
-133 160 -186 l95 -96 -102 -6 c-64 -4 -137 -16 -193 -32 -115 -32 -274 -111
-349 -172 -104 -85 -99 -83 -77 -22 24 69 270 756 283 789 9 23 14 17 64 -80
30 -58 83 -145 119 -195z m3565 -712 c160 -55 291 -166 360 -306 77 -156 72
-34 67 -1887 -3 -910 -9 -1666 -13 -1680 -15 -43 -34 -67 -41 -51 -4 9 -8 10
-12 2 -4 -6 -23 -13 -41 -16 -24 -4 -29 -3 -16 3 19 8 19 9 -2 14 -15 4 -22 2
-22 -8 0 -7 -6 -11 -13 -8 -7 2 -32 -2 -55 -10 -40 -14 -47 -13 -43 8 1 5 -5
4 -13 -4 -13 -10 -16 -10 -17 1 0 10 -2 10 -5 2 -3 -7 -13 -9 -21 -6 -13 5
-15 2 -10 -13 6 -17 6 -17 -6 -2 -10 12 -17 14 -31 6 -13 -7 -22 -5 -37 8 -10
9 -19 12 -19 6 0 -13 -52 -11 -62 3 -5 6 -8 5 -8 -2 0 -7 -12 -13 -26 -13 -14
0 -23 -4 -20 -8 2 -4 -4 -8 -14 -8 -12 0 -16 4 -10 11 7 8 -68 10 -135 3 -5 0
-17 1 -25 3 -8 2 -14 -2 -12 -9 1 -8 -2 -11 -7 -7 -6 3 -7 13 -4 23 6 14 4 15
-9 5 -8 -7 -18 -10 -21 -6 -4 3 -7 2 -7 -3 0 -8 -17 -9 -88 -5 -8 1 -10 6 -6
14 6 9 4 9 -7 -1 -14 -13 -63 -17 -55 -4 2 4 -5 9 -16 9 -12 1 -25 8 -29 15
-7 10 -9 10 -9 1 0 -21 -36 -15 -54 9 l-17 23 11 -22 c6 -13 8 -23 5 -23 -12
0 -34 28 -28 34 4 3 -1 6 -11 6 -9 0 -14 -4 -11 -10 3 -5 -3 -10 -15 -10 -12
0 -18 5 -15 10 3 6 -1 10 -10 10 -9 0 -14 -4 -11 -8 3 -5 -1 -9 -9 -9 -8 0
-11 5 -8 10 3 6 -7 8 -26 5 -24 -4 -31 -1 -29 11 2 9 -1 16 -7 16 -5 0 -26 12
-45 26 -19 15 -45 32 -57 38 -12 6 -25 20 -28 31 -4 11 -10 18 -14 16 -4 -3
-13 9 -20 25 -8 18 -17 26 -24 22 -7 -4 -5 2 3 12 9 11 10 16 3 11 -8 -4 -13
-1 -13 9 0 9 5 13 10 10 6 -3 10 -1 10 4 0 6 -7 11 -16 11 -18 0 -44 23 -44
40 0 7 -9 25 -21 41 -16 23 -17 29 -6 29 21 0 10 39 -17 63 -16 14 -17 17 -4
14 14 -5 15 -3 2 21 -8 16 -10 30 -4 36 6 6 2 20 -10 37 -11 15 -21 39 -22 53
-1 14 -5 26 -9 26 -3 0 -5 14 -4 30 1 17 -2 33 -7 36 -4 3 -5 17 -2 31 5 18 3
24 -5 19 -13 -9 -14 3 -1 24 6 9 5 17 -2 21 -10 6 -16 147 -7 179 2 8 -1 14
-6 13 -12 -2 -16 78 -17 307 0 166 5 249 15 243 4 -2 7 11 8 29 2 45 6 93 9
93 3 0 10 47 11 68 0 9 5 17 10 17 24 0 1 47 -36 74 -56 41 -211 177 -330 289
l-100 95 -8 -36 c-14 -63 -23 -234 -16 -292 4 -36 24 -92 57 -160 59 -121 120
-295 163 -458 36 -140 38 -242 9 -552 -11 -118 -20 -252 -20 -297 l0 -81 43
-16 c23 -8 79 -25 125 -37 61 -16 87 -28 98 -45 46 -70 -37 -99 -286 -99 -185
0 -241 10 -260 46 -7 13 -7 53 1 128 7 68 9 219 7 403 -5 315 -7 329 -68 448
-33 66 -122 202 -127 196 -3 -3 -16 -81 -30 -173 -46 -320 -68 -380 -289 -768
-44 -77 -83 -148 -87 -159 -5 -12 2 -34 19 -63 21 -37 38 -51 93 -76 81 -37
101 -53 101 -82 0 -42 -24 -50 -154 -50 -114 0 -124 2 -168 28 -65 38 -154
122 -184 174 -26 43 -26 44 -9 96 9 28 65 153 125 277 187 389 183 369 205
835 8 171 20 345 26 388 l11 77 -99 104 c-103 106 -163 201 -163 256 0 51 40
183 83 274 127 268 327 460 503 482 114 14 259 -52 336 -154 49 -63 90 -154
121 -267 50 -184 133 -337 265 -492 24 -29 49 -53 55 -53 6 0 7 19 2 53 -4 28
-7 65 -6 81 1 15 -4 35 -11 44 -10 12 -10 14 0 8 6 -4 12 -3 12 3 0 5 -4 13
-10 16 -5 3 -10 19 -10 34 0 15 -5 32 -11 38 -5 5 -11 25 -11 44 -1 18 -7 40
-15 48 -8 7 -11 21 -8 29 3 8 0 19 -7 24 -10 6 -10 8 2 8 11 0 12 2 2 8 -7 5
-14 18 -17 30 -2 11 -8 30 -14 41 -6 11 -10 24 -9 28 1 4 -3 19 -9 33 -19 42
-27 64 -28 76 0 6 -6 19 -14 28 -7 9 -10 16 -5 16 5 0 3 4 -4 9 -7 4 -14 22
-14 39 -1 18 -5 29 -11 25 -6 -3 -7 -1 -3 6 4 6 2 18 -4 26 -7 8 -10 15 -6 15
4 0 0 14 -9 30 -9 17 -13 30 -10 30 4 0 -1 7 -9 16 -9 8 -13 20 -10 26 4 6 1
14 -6 18 -7 5 -14 16 -15 27 -1 10 -8 32 -15 48 -7 17 -14 33 -15 38 -2 4 -4
10 -5 15 -1 4 -2 11 -1 15 1 5 -2 6 -7 3 -10 -6 -35 42 -27 53 2 5 -4 16 -15
26 -11 10 -20 24 -20 32 0 7 -4 13 -9 13 -5 0 -12 12 -16 28 -7 26 -8 25 -19
-19 -31 -119 -158 -203 -280 -185 -101 15 -200 109 -212 202 -3 21 -8 50 -10
63 l-5 24 -15 -22 c-9 -12 -20 -19 -25 -16 -5 4 -9 1 -9 -5 0 -5 -13 -24 -30
-42 -16 -17 -30 -35 -30 -40 0 -5 -4 -6 -10 -3 -5 3 -10 -3 -10 -15 0 -12 -4
-18 -10 -15 -5 3 -10 -1 -10 -9 0 -8 -10 -26 -22 -39 -39 -41 -57 -65 -51 -71
3 -3 -2 -8 -11 -12 -9 -3 -16 -17 -16 -30 0 -15 -6 -24 -16 -24 -8 0 -12 -4
-9 -10 3 -5 1 -10 -4 -10 -6 0 -11 -12 -11 -26 0 -14 -4 -23 -10 -19 -5 3 -10
1 -10 -6 0 -6 -9 -20 -21 -30 -11 -9 -20 -20 -20 -23 2 -18 -1 -25 -19 -46
-11 -13 -20 -29 -20 -37 0 -13 -20 -54 -31 -63 -3 -3 -12 -22 -18 -42 -7 -21
-16 -38 -20 -38 -3 0 -8 -12 -9 -27 -1 -15 -6 -29 -11 -32 -5 -3 -11 -22 -14
-41 -3 -19 -11 -60 -18 -90 -6 -30 -13 -77 -14 -105 -6 -107 -7 -140 -5 -145
1 -3 2 -30 2 -60 1 -30 5 -60 10 -67 5 -7 9 -25 8 -40 -1 -15 -1 -30 -1 -33 1
-3 4 -27 5 -55 2 -27 8 -65 14 -82 6 -18 9 -49 7 -68 -2 -19 0 -35 4 -35 4 0
7 -13 6 -30 -1 -16 3 -30 8 -30 5 0 7 -12 4 -26 -3 -15 -1 -39 3 -55 6 -19 4
-29 -3 -32 -9 -3 -9 -8 1 -19 9 -12 11 -48 7 -144 -3 -71 -8 -147 -11 -169 -3
-22 -6 -51 -6 -65 0 -14 -4 -30 -9 -36 -5 -6 -10 -30 -11 -52 -1 -23 -5 -39
-8 -37 -4 3 -8 -1 -7 -8 1 -32 -4 -48 -13 -42 -6 4 -10 -10 -10 -34 0 -22 -5
-43 -11 -46 -6 -4 -8 -13 -5 -21 3 -7 -2 -20 -10 -29 -12 -11 -12 -15 -2 -15
10 0 10 -2 -1 -9 -8 -5 -11 -16 -8 -25 4 -9 4 -23 0 -32 -5 -13 -8 -13 -15 -2
-7 10 -8 8 -7 -7 2 -34 -1 -46 -10 -41 -5 3 -8 -6 -8 -21 0 -15 -6 -29 -12
-31 -9 -3 -8 -8 1 -20 8 -10 9 -13 1 -9 -6 4 -14 3 -18 -3 -6 -10 -17 -55 -18
-77 0 -6 -6 -9 -12 -7 -7 3 -18 -2 -25 -11 -7 -8 -10 -15 -7 -15 3 0 0 -12 -8
-27 -8 -15 -12 -30 -9 -35 3 -4 0 -8 -5 -8 -6 0 -11 -13 -11 -30 0 -16 -5 -30
-11 -30 -6 0 -8 -7 -5 -16 4 -10 -1 -25 -10 -35 -10 -11 -12 -19 -6 -19 7 0 2
-11 -10 -25 -11 -13 -25 -22 -29 -19 -5 3 -11 -7 -15 -22 -4 -16 -9 -22 -14
-14 -5 8 -9 3 -13 -12 -4 -12 -2 -24 3 -26 6 -2 10 -9 10 -15 0 -8 -4 -7 -12
1 -17 17 -29 15 -22 -3 4 -8 1 -15 -5 -15 -6 0 -10 -6 -8 -13 1 -6 -3 -11 -8
-10 -6 1 -12 -8 -12 -19 -1 -12 -7 -26 -14 -32 -9 -8 -10 -8 -5 1 5 9 0 12
-18 11 -13 -1 -22 -6 -20 -10 3 -4 -2 -8 -12 -8 -14 0 -15 -2 -3 -17 7 -10 9
-15 5 -11 -5 4 -21 -5 -36 -20 -33 -34 -84 -54 -99 -39 -8 8 -11 8 -11 1 0 -6
-14 -11 -31 -12 -39 -1 -45 -7 -29 -27 10 -12 10 -15 -4 -15 -11 0 -14 5 -10
12 5 8 2 9 -9 5 -9 -3 -19 -2 -22 3 -3 5 -12 7 -20 4 -8 -4 -12 -10 -9 -15 3
-5 0 -9 -5 -9 -6 0 -11 5 -11 11 0 8 -4 8 -14 0 -14 -12 -58 -10 -125 5 -25 5
-32 4 -27 -4 5 -8 -2 -12 -19 -12 -15 0 -24 4 -20 10 3 6 -1 10 -10 10 -9 0
-13 -5 -10 -10 3 -6 -3 -10 -14 -10 -10 0 -22 6 -24 13 -4 9 -8 9 -14 1 -16
-22 -51 -26 -62 -7 -9 16 -12 16 -22 3 -9 -13 -10 -12 -5 2 3 10 1 20 -4 23
-6 4 -10 0 -10 -7 0 -7 -11 -13 -24 -13 -20 0 -22 3 -13 15 7 8 2 7 -10 -3
-14 -13 -23 -15 -28 -7 -5 8 -11 8 -21 -1 -11 -9 -14 -9 -14 0 0 7 -4 9 -10 6
-5 -3 -10 -1 -10 6 0 7 -6 4 -14 -7 -13 -17 -17 -17 -37 -6 -12 8 -24 10 -28
5 -15 -22 -36 -5 -49 42 -21 73 -24 3361 -3 3445 56 230 249 414 474 455 58
11 400 13 1732 12 l1660 -2 65 -22z m14363 0 c89 -34 168 -79 225 -129 69 -60
143 -174 173 -265 l24 -74 0 -1680 c0 -924 -2 -1690 -5 -1702 -3 -16 -8 -19
-16 -12 -7 6 -56 9 -109 8 -68 -1 -99 2 -105 11 -6 10 -9 9 -15 -1 -6 -9 -11
-6 -18 12 -5 14 -11 19 -14 12 -8 -21 -22 -15 -18 7 3 15 -2 20 -20 20 -13 0
-31 10 -39 22 -9 12 -16 17 -16 10 0 -6 -8 -12 -17 -11 -11 0 -13 3 -5 6 6 2
12 18 12 34 0 18 4 28 10 24 6 -3 10 -1 10 4 0 6 -6 11 -14 11 -9 0 -13 7 -11
20 2 11 0 20 -6 20 -13 0 -11 54 4 69 10 11 9 12 -1 6 -11 -6 -12 -3 -3 13 13
25 14 45 2 37 -6 -3 -9 3 -8 14 0 11 5 17 9 15 4 -3 8 11 8 30 0 20 -4 36 -10
36 -6 0 -10 32 -10 75 0 53 -4 75 -12 75 -9 0 -10 3 -2 8 14 9 17 85 3 77 -6
-5 -9 33 -8 109 1 64 5 116 10 116 5 0 9 46 9 103 0 69 3 97 10 87 6 -10 10
62 10 213 0 145 -4 227 -10 227 -5 0 -10 24 -10 54 0 30 -4 58 -10 61 -5 3
-10 34 -10 69 0 36 -5 68 -12 75 -10 11 -10 13 0 7 9 -5 12 10 12 63 0 41 4
71 10 71 6 0 10 9 10 20 0 11 5 20 10 20 6 0 10 9 10 19 0 11 6 22 13 24 6 3
-15 6 -49 6 -72 1 -116 14 -162 49 -89 66 -94 156 -13 225 33 27 26 37 -25 37
-14 0 -23 3 -21 8 3 4 -8 8 -24 9 -37 3 -71 21 -63 34 3 6 -4 5 -15 -3 -18
-11 -23 -11 -31 2 -21 33 -9 -18 34 -148 37 -109 56 -149 116 -238 145 -218
190 -335 197 -524 6 -143 -5 -246 -47 -435 -44 -197 -50 -249 -57 -530 -6
-253 -7 -260 -29 -282 -23 -23 -27 -23 -248 -23 -223 0 -225 0 -253 24 l-28
24 -3 161 -4 161 -1089 0 -1089 0 0 -150 c0 -160 -7 -191 -47 -209 -15 -7
-105 -11 -249 -11 l-225 0 -24 25 c-25 24 -25 25 -25 227 0 296 -9 374 -81
693 -18 82 -23 131 -23 270 -1 167 0 172 32 265 31 89 109 243 136 265 6 6 34
42 60 80 36 52 60 104 92 200 24 71 44 133 44 137 0 4 -9 8 -20 8 -11 0 -20
-4 -20 -10 0 -5 -13 -10 -29 -10 -17 0 -33 -4 -36 -10 -3 -5 -18 -10 -33 -10
-66 0 -93 -23 -49 -39 29 -11 57 -67 57 -111 0 -81 -92 -149 -213 -158 -38 -3
-63 -8 -57 -12 6 -4 11 -10 10 -14 -2 -8 17 -61 31 -88 12 -23 12 -198 0 -198
-5 0 -8 -12 -7 -26 2 -14 -1 -45 -6 -68 -4 -22 -11 -63 -13 -91 -3 -27 -8 -75
-12 -105 -4 -30 -6 -68 -5 -85 1 -16 4 -55 6 -85 2 -30 5 -86 7 -125 1 -38 5
-74 8 -80 3 -5 6 -46 8 -90 5 -137 11 -229 17 -252 2 -13 1 -23 -4 -23 -8 0
-14 -143 -12 -273 0 -20 -4 -35 -9 -32 -5 4 -9 -9 -9 -29 0 -19 6 -37 13 -40
9 -5 9 -7 -2 -12 -11 -5 -11 -8 0 -16 11 -8 11 -11 1 -15 -10 -4 -10 -8 -1
-20 10 -11 10 -16 1 -22 -6 -3 -11 -15 -11 -26 0 -74 -4 -95 -17 -95 -8 0 -25
-9 -37 -20 -12 -12 -23 -16 -25 -10 -6 16 -22 12 -22 -6 0 -8 -4 -12 -10 -9
-5 3 -10 -3 -10 -14 0 -12 -5 -21 -11 -21 -5 0 -7 5 -4 10 3 6 2 10 -4 10 -5
0 -11 -5 -13 -10 -2 -6 -37 -11 -81 -11 -56 0 -75 -4 -70 -12 5 -9 3 -9 -8 -1
-8 7 -30 11 -50 10 l-37 -3 -6 51 c-3 28 -6 778 -6 1666 0 1364 3 1626 15
1683 48 229 219 407 449 467 68 18 136 19 1756 17 l1685 -2 58 -22z m-9598 2
c104 -27 183 -73 271 -160 86 -85 141 -178 164 -278 7 -32 10 -457 9 -1335 -1
-708 -4 -1277 -6 -1264 -2 12 -9 22 -15 22 -6 0 -8 3 -5 7 4 3 0 17 -9 31 -13
20 -14 26 -3 33 10 6 11 9 2 9 -7 0 -13 9 -13 20 0 11 -6 20 -12 20 -10 0 -9
3 1 9 11 7 9 10 -9 16 -15 5 -20 13 -17 26 4 16 0 19 -29 19 -26 0 -34 4 -34
17 0 10 -21 60 -46 110 -44 88 -47 93 -78 93 -34 0 -56 15 -56 38 0 17 -187
202 -205 202 -7 0 -18 7 -25 15 -21 25 -153 83 -200 88 -41 4 -85 13 -85 17 0
4 -53 12 -107 17 -32 2 -58 9 -58 14 0 5 -11 4 -25 -1 -14 -5 -25 -6 -25 -2 0
5 -21 9 -47 10 -83 4 -146 23 -174 54 -15 15 -34 28 -43 28 -9 0 -16 8 -16 21
0 11 -4 17 -10 14 -5 -3 -10 1 -10 9 0 9 -4 16 -9 16 -5 0 -12 10 -16 23 -4
12 -9 27 -11 32 -2 6 -9 27 -16 48 -7 20 -16 37 -20 37 -5 0 -8 7 -8 16 0 8
-7 22 -15 31 -8 8 -13 19 -10 24 4 5 2 9 -3 9 -5 0 -15 14 -22 30 -7 17 -15
30 -19 30 -3 0 -12 14 -19 30 -8 17 -18 30 -24 30 -14 0 -68 56 -68 72 0 10
-3 9 -10 -2 -9 -13 -10 -13 -11 0 -1 8 -1 19 0 23 1 5 -3 6 -8 3 -5 -4 -16 1
-24 9 -9 8 -24 15 -34 15 -15 0 -16 2 -3 10 12 8 11 10 -7 10 -13 0 -23 5 -23
11 0 5 -4 8 -9 4 -5 -3 -16 2 -24 10 -9 8 -20 15 -26 15 -6 0 -11 5 -11 10 0
6 -9 10 -19 10 -11 0 -23 5 -26 10 -3 6 -15 10 -26 10 -11 0 -17 5 -14 10 3 6
1 10 -5 10 -6 0 -22 10 -35 23 -42 38 -53 46 -59 40 -3 -4 -6 1 -6 11 0 9 -4
14 -10 11 -5 -3 -10 3 -10 15 0 12 -4 18 -10 15 -5 -3 -10 1 -10 9 0 9 -4 16
-10 16 -5 0 -10 7 -10 17 0 9 -3 13 -7 10 -7 -8 -33 38 -33 59 0 8 -4 14 -10
14 -6 0 -10 31 -10 74 0 41 5 78 10 81 6 3 10 19 10 36 0 16 5 29 10 29 6 0
10 7 10 15 0 8 5 15 10 15 6 0 10 16 10 35 0 19 5 35 10 35 6 0 10 11 10 24 0
14 5 28 10 31 12 8 14 255 1 255 -5 0 -9 6 -8 13 1 36 -4 57 -13 52 -5 -3 -10
2 -10 12 0 10 -9 25 -20 33 -11 8 -20 20 -20 28 0 16 -57 73 -93 91 -15 8 -27
18 -27 23 0 4 -9 8 -19 8 -11 0 -21 4 -23 10 -1 5 -12 11 -23 13 -11 2 -27 7
-35 10 -8 3 -36 8 -62 10 -25 3 -52 8 -59 12 -8 5 -10 4 -5 -3 4 -7 2 -12 -3
-12 -6 0 -11 6 -11 13 0 8 -3 9 -8 1 -4 -6 -34 -12 -66 -13 -33 -1 -65 -5 -70
-10 -6 -5 -27 -11 -47 -15 -21 -4 -42 -13 -49 -21 -7 -8 -15 -13 -19 -10 -4 2
-20 -7 -36 -21 -15 -13 -32 -24 -37 -24 -13 0 -98 -92 -98 -106 0 -7 -7 -17
-16 -22 -8 -5 -17 -17 -19 -28 -2 -10 -4 -20 -5 -21 -2 -2 -3 -7 -4 -12 0 -5
-4 -13 -8 -17 -5 -4 -8 -17 -8 -29 0 -11 -5 -26 -12 -33 -7 -7 -11 -45 -10
-102 0 -50 -3 -90 -9 -90 -5 0 -9 -27 -9 -59 0 -33 -4 -63 -10 -66 -5 -3 -10
-19 -10 -36 0 -16 -3 -29 -7 -29 -9 0 -33 -49 -33 -67 0 -7 -4 -13 -9 -13 -5
0 -13 -9 -16 -20 -3 -11 -12 -26 -18 -32 -18 -20 -97 -176 -97 -193 0 -8 -4
-15 -8 -15 -5 0 -9 -7 -9 -15 0 -25 -26 -95 -35 -95 -5 0 -8 -6 -7 -12 1 -7 1
-30 0 -51 -1 -28 -4 -36 -13 -31 -8 5 -7 0 2 -11 9 -11 10 -16 3 -11 -10 5
-13 -3 -14 -31 -1 -21 -3 -56 -5 -78 -2 -22 -4 -60 -4 -85 0 -25 0 -52 -1 -60
0 -8 -2 -58 -3 -110 -1 -52 -4 -101 -6 -109 -9 -27 -67 -78 -103 -92 -20 -7
-34 -16 -31 -21 3 -5 2 -8 -3 -6 -4 1 -28 -5 -53 -12 -25 -8 -48 -14 -52 -14
-3 -1 -10 -4 -14 -8 -4 -5 -29 -8 -55 -8 -26 0 -51 -4 -54 -10 -3 -5 -15 -10
-26 -10 -10 0 -19 -4 -19 -10 0 -5 -9 -10 -20 -10 -11 0 -20 -4 -20 -10 0 -5
-8 -10 -18 -10 -10 0 -24 -9 -32 -20 -8 -11 -20 -20 -27 -20 -16 0 -203 -185
-203 -201 0 -17 -27 -39 -48 -39 -31 0 -52 -11 -52 -26 0 -8 -4 -14 -9 -14 -8
0 -12 -17 -26 -137 -6 -43 -10 -53 -26 -53 -10 0 -19 -4 -19 -10 0 -5 -4 -10
-10 -10 -5 0 -10 7 -10 15 0 10 -9 14 -25 13 -17 -2 -24 -7 -20 -16 2 -7 -4
-23 -15 -34 -12 -14 -17 -25 -11 -31 6 -6 2 -17 -10 -30 -14 -16 -16 -23 -7
-29 10 -6 9 -12 -6 -23 -10 -7 -16 -18 -13 -23 4 -4 0 -20 -8 -35 -7 -14 -10
-29 -7 -33 4 -4 2 -4 -5 -1 -6 4 -14 1 -16 -5 -3 -7 -6 573 -6 1290 -1 1450
-5 1357 67 1497 70 135 225 259 373 299 83 23 3397 23 3484 1z m1433 -242 c22
-21 10 -55 -35 -100 -23 -24 -45 -43 -47 -43 -12 0 -86 -86 -86 -101 0 -8 -15
-31 -33 -51 -53 -58 -93 -59 -103 -2 -6 34 15 144 27 144 5 0 9 6 9 13 0 25
115 137 141 137 13 0 31 5 39 10 19 13 71 9 88 -7z m2730 -82 c46 -23 67 -46
87 -94 13 -32 15 -218 15 -1620 0 -1156 -3 -1593 -11 -1618 -24 -70 -105 -128
-180 -129 l-36 0 5 -80 c4 -63 1 -85 -12 -105 l-16 -25 -193 0 c-137 0 -196 3
-205 12 -8 8 -12 46 -12 105 l0 93 -560 0 -560 0 0 -89 c0 -68 -4 -93 -16
-105 -23 -24 -385 -24 -408 0 -12 12 -16 37 -16 103 l0 88 -43 5 c-64 7 -116
36 -145 81 l-27 41 0 1622 0 1622 30 38 c17 20 46 45 65 55 33 18 82 19 1118
19 1043 0 1084 -1 1120 -19z m-6030 -197 c102 -50 164 -195 112 -261 -11 -14
-20 -36 -20 -49 0 -77 -93 -183 -184 -209 -119 -35 -260 26 -308 131 -8 16
-22 23 -56 27 -58 6 -76 28 -67 82 20 136 158 274 305 305 68 14 158 3 218
-26z m-232 -610 c59 -34 124 -109 226 -264 159 -240 235 -296 493 -365 55 -14
108 -32 118 -38 13 -8 28 -50 48 -124 51 -199 177 -564 199 -578 5 -3 31 5 57
19 101 50 189 71 313 71 92 0 130 -5 190 -24 110 -34 202 -86 281 -159 155
-143 229 -311 229 -518 0 -363 -256 -654 -620 -704 -273 -37 -558 106 -698
351 -150 262 -110 609 94 819 l44 46 -49 110 c-26 60 -65 159 -87 218 -31 91
-40 106 -48 91 -51 -86 -173 -228 -282 -327 -48 -44 -52 -50 -58 -109 -7 -60
-36 -181 -105 -439 -17 -63 -31 -127 -31 -143 0 -40 53 -92 140 -136 67 -34
75 -41 75 -67 0 -24 -6 -31 -35 -41 -96 -33 -269 -3 -352 60 -73 56 -77 71
-45 169 29 89 52 217 65 365 8 92 8 92 -13 79 -11 -7 -62 -37 -113 -66 -71
-41 -92 -57 -87 -69 23 -58 37 -164 32 -251 -15 -253 -160 -477 -380 -585
-124 -61 -198 -79 -327 -78 -129 0 -205 18 -325 77 -350 173 -488 604 -304
956 195 376 681 493 1035 250 54 -38 147 -131 171 -171 10 -16 22 -29 28 -29
13 0 255 162 255 171 0 4 -26 31 -57 59 -44 39 -108 76 -258 150 -110 54 -219
115 -242 135 -115 98 -147 308 -89 581 46 215 160 414 292 504 77 54 133 55
220 4z m-1781 -1993 c-3 -6 -11 -11 -17 -11 -6 0 -6 6 2 15 14 17 26 13 15 -4z
m4319 4 c-4 -8 -11 -15 -16 -15 -6 0 -5 6 2 15 7 8 14 15 16 15 2 0 1 -7 -2
-15z m7254 -310 c38 -3 51 0 46 8 -5 8 -3 8 7 0 7 -7 17 -13 22 -13 4 0 5 6 1
13 -5 8 -2 8 9 -2 14 -11 17 -11 17 0 0 11 2 11 8 2 10 -16 132 -16 132 1 0 7
3 6 9 -2 10 -16 209 -15 230 2 11 8 13 8 8 -1 -6 -9 2 -12 27 -11 23 1 33 5
29 12 -5 7 -2 7 8 0 9 -8 51 -11 112 -10 53 0 97 -2 97 -5 0 -3 14 -5 30 -4
17 1 30 -2 30 -7 0 -4 19 -8 43 -8 24 0 49 -6 56 -12 8 -7 11 -8 8 -3 -3 6 4
12 16 12 14 2 17 -1 9 -6 -10 -6 -10 -10 3 -21 10 -8 15 -9 15 -1 0 6 5 11 10
11 5 0 9 -6 8 -12 -2 -7 5 -12 14 -12 10 1 14 -4 11 -12 -3 -9 2 -12 16 -9 12
2 19 0 16 -5 -3 -4 -2 -10 2 -13 5 -2 2 -2 -4 -1 -7 2 -13 -1 -13 -6 0 -6 7
-10 16 -10 8 0 12 -4 9 -10 -3 -5 1 -10 9 -10 9 0 19 -12 22 -27 4 -16 11 -34
17 -40 6 -9 6 -13 0 -13 -6 0 -10 -20 -9 -45 0 -25 4 -45 8 -45 4 0 8 -7 8
-15 0 -10 -10 -15 -30 -15 -24 0 -30 -4 -30 -22 0 -19 -2 -20 -10 -8 -9 13
-10 13 -10 0 0 -13 -1 -13 -10 0 -8 13 -10 13 -10 -2 0 -11 -5 -15 -15 -12 -9
4 -18 -2 -24 -17 -6 -13 -10 -17 -11 -9 0 12 -2 12 -9 2 -6 -11 -76 -13 -345
-13 -270 1 -336 -1 -330 -11 6 -10 5 -10 -7 -1 -18 14 -147 15 -155 1 -3 -5
-11 -5 -17 0 -18 15 -159 13 -151 -1 5 -8 3 -8 -7 1 -8 7 -41 12 -86 12 -51 0
-73 -4 -74 -12 0 -10 -2 -10 -6 0 -7 17 -224 17 -242 0 -11 -11 -12 -10 -6 0
6 11 -4 13 -41 12 -117 -4 -165 0 -158 13 6 10 4 10 -7 0 -14 -14 -30 -17 -27
-5 6 22 -15 52 -38 52 -13 0 -24 5 -24 10 0 6 -13 10 -30 10 -27 0 -30 3 -30
30 0 22 5 30 18 30 16 1 16 1 0 14 -20 14 -24 36 -8 36 6 0 10 5 10 11 0 5 -6
7 -12 3 -10 -6 -10 -4 0 7 6 7 12 19 12 27 0 8 9 22 19 31 11 9 26 32 35 51 9
19 14 26 11 15 -6 -20 -6 -20 13 0 11 11 18 23 15 27 -2 4 5 5 17 3 11 -2 19
1 17 8 -1 7 6 11 16 9 11 -2 26 3 35 12 11 9 31 13 55 11 44 -4 70 3 61 16 -3
5 2 6 10 3 9 -3 13 -11 10 -18 -3 -6 0 -4 8 4 11 13 46 15 213 13 135 -1 193
1 180 8 -16 7 -14 8 10 3 17 -3 54 -8 83 -9z m-13301 -421 c-3 -3 -12 -4 -19
-1 -8 3 -5 6 6 6 11 1 17 -2 13 -5z m-2567 -104 c8 -5 11 -10 5 -10 -5 0 -17
5 -25 10 -8 5 -10 10 -5 10 6 0 17 -5 25 -10z"/>
<path d="M7460 9256 c-25 -6 -62 -24 -81 -39 -121 -92 -165 -395 -88 -603 55
-148 200 -213 335 -150 110 51 165 179 165 386 0 228 -69 365 -203 405 -60 18
-68 18 -128 1z"/>
<path d="M8682 9251 c-68 -23 -107 -61 -143 -134 -38 -81 -53 -179 -46 -312 8
-181 59 -289 159 -339 144 -72 292 3 349 176 34 103 35 309 2 414 -52 165
-182 244 -321 195z"/>
<path d="M10985 9246 c-80 -37 -134 -115 -154 -220 l-8 -46 270 0 270 0 -6 52
c-8 67 -50 152 -91 183 -77 59 -194 72 -281 31z"/>
<path d="M13852 9251 c-29 -10 -67 -31 -84 -47 -37 -35 -85 -132 -94 -191 -3
-24 -10 -43 -15 -43 -5 0 -9 -54 -9 -120 0 -66 4 -120 9 -120 5 0 11 -19 15
-42 24 -148 126 -248 254 -248 95 0 170 49 219 144 69 136 70 386 2 531 -58
123 -178 178 -297 136z"/>
<path d="M9300 6816 l0 -757 408 362 c224 199 415 369 425 378 16 16 -3 34
-320 316 -186 165 -377 335 -425 378 l-88 79 0 -756z"/>
<path d="M17687 7736 c-57 -16 -142 -72 -180 -121 -42 -53 -92 -168 -113 -260
-29 -121 -26 -429 5 -540 60 -221 167 -338 336 -364 121 -18 235 18 320 104
62 62 96 124 131 240 26 85 28 101 28 290 1 160 -3 215 -17 278 -44 185 -153
326 -283 367 -74 23 -156 25 -227 6z"/>
<path d="M21123 7745 c-180 -51 -276 -177 -317 -417 l-7 -38 427 0 427 0 -6
63 c-18 193 -120 337 -270 382 -77 23 -192 28 -254 10z"/>
<path d="M23806 6930 c-44 -14 -94 -68 -118 -129 -18 -47 -22 -76 -22 -176 1
-131 13 -180 61 -243 50 -66 152 -82 229 -37 125 73 153 383 47 524 -44 58
-124 82 -197 61z"/>
<path d="M9627 3484 c-34 -39 -77 -124 -77 -154 0 -15 17 -51 42 -85 50 -70
51 -68 67 90 18 183 14 202 -32 149z"/>
<path d="M10932 1260 c13 -20 28 -27 28 -12 0 4 -9 13 -20 20 -19 12 -20 11
-8 -8z"/>
<path d="M7965 1130 c-3 -6 1 -7 9 -4 18 7 21 14 7 14 -6 0 -13 -4 -16 -10z"/>
<path d="M8205 1110 c-3 -6 1 -7 9 -4 18 7 21 14 7 14 -6 0 -13 -4 -16 -10z"/>
<path d="M23167 3403 c-28 -105 -31 -131 -13 -158 16 -24 19 -25 141 -25 l125
0 0 35 c0 31 -3 35 -26 35 -14 0 -32 7 -41 15 -8 8 -19 13 -24 10 -5 -4 -9 -1
-9 4 0 6 -7 11 -15 11 -8 0 -15 5 -15 10 0 6 -7 10 -17 10 -9 0 -13 3 -10 6 3
4 -7 19 -23 34 -16 15 -28 29 -26 31 2 2 -4 12 -14 22 -16 16 -18 14 -33 -40z"/>
<path d="M25630 3442 c0 -5 -8 -18 -17 -30 -10 -11 -25 -30 -33 -41 -8 -12
-19 -21 -25 -21 -6 0 -21 -9 -33 -20 -12 -11 -28 -20 -37 -20 -8 0 -15 -4 -15
-10 0 -5 -9 -10 -21 -10 -26 0 -49 -23 -49 -49 0 -20 5 -21 123 -21 168 0 173
6 140 155 -9 41 -20 75 -25 75 -4 0 -8 -4 -8 -8z"/>
<path d="M23500 3235 c-11 -13 -6 -15 33 -15 27 0 49 6 57 15 11 13 6 15 -33
15 -27 0 -49 -6 -57 -15z"/>
<path d="M24060 3235 c8 -9 29 -15 56 -15 34 0 42 3 38 15 -4 11 -21 15 -56
15 -44 0 -49 -2 -38 -15z"/>
<path d="M24230 3235 c0 -13 27 -15 180 -15 153 0 180 2 180 15 0 13 -27 15
-180 15 -153 0 -180 -2 -180 -15z"/>
<path d="M23087 2876 c-97 -36 -165 -110 -199 -218 -70 -227 93 -415 280 -322
133 66 210 244 168 387 -36 122 -147 191 -249 153z"/>
<path d="M25633 2880 c-74 -17 -124 -75 -149 -170 -13 -53 -14 -73 -4 -124 45
-228 254 -348 394 -226 84 75 100 226 37 354 -39 80 -105 140 -174 161 -55 16
-57 16 -104 5z"/>
<path d="M23592 2617 c-70 -39 -74 -133 -8 -185 35 -27 191 -103 281 -137 321
-120 700 -128 1030 -20 127 41 321 134 359 171 34 34 42 83 22 123 -33 64 5
61 -868 61 -617 -1 -798 -3 -816 -13z"/>
<path d="M18597 4552 c-15 -17 -17 -55 -17 -340 l0 -322 1040 0 1040 0 0 318
c0 271 -2 321 -16 340 l-15 22 -1008 0 c-964 0 -1009 -1 -1024 -18z m360 -149
c81 -53 63 -186 -29 -221 -155 -59 -244 166 -93 234 34 16 86 10 122 -13z
m393 -1 c14 -10 33 -35 44 -56 16 -33 17 -43 7 -78 -33 -108 -167 -130 -228
-39 -79 117 63 255 177 173z m665 9 c79 -36 97 -138 35 -200 -68 -68 -181 -44
-210 45 -28 85 28 165 120 172 8 1 33 -7 55 -17z m389 5 c101 -42 104 -180 6
-231 -16 -8 -42 -15 -58 -15 -35 0 -92 37 -109 70 -31 61 -1 149 60 175 41 18
60 18 101 1z m-1427 -291 c20 -9 52 -27 70 -41 l33 -25 33 25 c52 40 101 56
169 56 76 0 130 -23 181 -75 31 -32 57 -85 57 -117 0 -5 -198 -8 -440 -8 -355
0 -440 3 -440 13 0 7 11 36 26 64 23 48 80 97 134 116 32 12 142 6 177 -8z
m1080 0 c20 -9 52 -27 71 -41 l33 -26 22 20 c58 55 171 77 258 50 71 -21 136
-89 153 -160 l6 -28 -441 0 -441 0 6 33 c18 93 121 167 232 167 36 0 81 -7
101 -15z"/>
<path d="M19010 3590 l0 -80 610 0 610 0 0 80 0 80 -610 0 -610 0 0 -80z"/>
<path d="M18580 2765 l0 -505 1040 0 1040 0 0 505 0 505 -1040 0 -1040 0 0
-505z m419 190 c16 -8 40 -28 55 -45 22 -26 26 -41 26 -90 0 -52 -4 -64 -31
-95 -71 -80 -196 -67 -244 25 -23 44 -19 122 7 155 48 61 126 82 187 50z
m1008 -160 c31 -9 71 -59 78 -99 14 -72 -49 -146 -125 -146 -76 0 -139 74
-126 149 6 41 49 88 91 100 30 9 40 8 82 -4z m385 5 c88 -25 119 -134 57 -204
-52 -60 -126 -61 -186 -1 -27 27 -33 41 -33 74 0 77 38 122 120 140 3 0 22 -4
42 -9z m-1331 -191 c27 -12 68 -42 93 -69 45 -48 59 -82 70 -172 5 -43 4 -48
-14 -48 -11 0 -20 4 -20 8 0 24 -80 98 -134 123 -117 56 -255 26 -339 -71 -20
-24 -37 -47 -37 -52 0 -4 -9 -8 -19 -8 -17 0 -18 6 -14 43 8 82 26 127 66 173
87 99 222 127 348 73z m1014 -111 c17 -9 42 -27 57 -41 26 -24 27 -24 44 -6 9
10 39 30 67 44 139 69 317 -6 351 -147 l6 -28 -440 0 c-495 0 -459 -6 -419 76
22 47 73 90 128 111 46 17 166 12 206 -9z m-1072 -80 c21 -6 60 -31 86 -55
l46 -42 -200 0 -200 0 47 43 c67 62 137 79 221 54z"/>
<path d="M18788 1884 c-138 -42 -155 -239 -25 -305 51 -26 134 -22 175 8 38
28 72 91 72 135 0 119 -105 197 -222 162z"/>
<path d="M20361 1890 c-39 -9 -77 -35 -105 -74 -16 -21 -21 -42 -21 -91 0 -68
15 -99 68 -139 36 -27 124 -33 165 -12 98 50 125 167 61 257 -32 45 -109 72
-168 59z"/>
<path d="M14512 3407 c-11 -12 -29 -40 -38 -62 -22 -52 -30 -191 -15 -238 19
-57 86 -123 205 -201 64 -42 135 -99 165 -132 l54 -59 65 70 c35 39 85 98 110
133 54 76 132 211 132 229 0 10 -22 13 -82 13 -188 1 -322 55 -458 186 -48 46
-94 84 -102 84 -8 0 -24 -10 -36 -23z"/>
<path d="M13665 2464 c-106 -17 -215 -74 -295 -155 -252 -256 -179 -681 145
-840 103 -50 202 -66 313 -50 213 31 400 204 442 408 14 64 9 228 -6 243 -7 7
-58 -11 -156 -54 -197 -87 -324 -136 -357 -136 -53 0 -82 69 -43 102 9 8 80
43 157 77 77 34 184 86 238 115 l98 53 -41 50 c-51 64 -156 136 -240 164 -64
21 -192 32 -255 23z"/>
<path d="M15840 2464 c-66 -13 -200 -69 -200 -84 0 -13 111 -183 159 -244 49
-61 105 -112 151 -136 32 -17 40 -29 40 -61 0 -33 -29 -59 -66 -59 -58 0 -221
164 -325 326 -30 45 -58 82 -64 80 -19 -4 -91 -122 -110 -181 -29 -88 -28
-248 3 -335 63 -182 231 -323 421 -351 262 -39 508 121 585 380 20 67 21 207
2 277 -21 79 -75 173 -136 235 -97 99 -209 148 -350 154 -47 2 -96 1 -110 -1z"/>
</g>
</svg>
