<?xml version="1.0" encoding="UTF-8"?>
<svg version="1.1" xmlns="http://www.w3.org/2000/svg" width="273" height="272">
<path d="M0 0 C2.40907309 0.00315546 4.81690808 -0.02036958 7.22583008 -0.0456543 C27.64007761 -0.12969636 46.94549586 4.99969389 65.1105957 14.31567383 C65.7396582 14.6352002 66.3687207 14.95472656 67.0168457 15.28393555 C77.19803302 20.51621077 85.63379377 26.6607225 94.1105957 34.31567383 C95.4853777 35.44094023 96.86034767 36.56597705 98.2355957 37.69067383 C118.38226 55.55179217 130.79056275 80.52673673 137.1105957 106.31567383 C137.30709717 107.11046143 137.50359863 107.90524902 137.70605469 108.72412109 C139.44079652 116.80081372 139.44865619 124.85217087 139.42626953 133.07470703 C139.42312381 135.48166878 139.44659417 137.88737993 139.47192383 140.29418945 C139.53088553 154.32374907 137.54328426 167.4324515 132.9855957 180.75317383 C132.6870166 181.63223389 132.3884375 182.51129395 132.08081055 183.41699219 C127.24878433 197.10114214 120.30988209 209.09224233 111.1105957 220.31567383 C110.6798877 220.8517627 110.24917969 221.38785156 109.80541992 221.94018555 C92.94699511 242.89323317 70.05370894 259.45412436 44.1105957 267.31567383 C43.38678711 267.54125977 42.66297852 267.7668457 41.91723633 267.99926758 C10.30429769 277.45503742 -26.28358182 274.66867097 -55.8894043 260.31567383 C-56.8789209 259.83759277 -56.8789209 259.83759277 -57.88842773 259.34985352 C-66.48505176 255.12525092 -74.31507903 250.19898695 -81.8894043 244.31567383 C-82.77241211 243.65954102 -83.65541992 243.0034082 -84.56518555 242.32739258 C-89.28130198 238.78480434 -89.28130198 238.78480434 -90.8894043 237.31567383 C-90.8894043 236.65567383 -90.8894043 235.99567383 -90.8894043 235.31567383 C-91.4669043 235.06946289 -92.0444043 234.82325195 -92.6394043 234.56958008 C-109.46804925 225.19111649 -121.75905041 198.29855554 -127.7019043 180.81567383 C-127.9801001 179.99808594 -128.2582959 179.18049805 -128.54492188 178.33813477 C-132.76780344 165.21285804 -134.40838913 152.64057053 -134.33544922 138.9375 C-134.32694638 136.5151628 -134.3558233 134.09520193 -134.38745117 131.6730957 C-134.43791292 120.42795448 -132.81385417 110.15854593 -129.8894043 99.31567383 C-129.64327393 98.38376221 -129.39714355 97.45185059 -129.14355469 96.49169922 C-128.55071308 94.38841013 -127.90523019 92.32184052 -127.2019043 90.25317383 C-126.83125854 89.15948486 -126.83125854 89.15948486 -126.453125 88.04370117 C-121.77021863 74.84758028 -114.7507461 63.12680183 -105.8894043 52.31567383 C-105.45869629 51.77958496 -105.02798828 51.24349609 -104.58422852 50.69116211 C-86.82617321 28.61997913 -63.46447982 12.73883957 -36.2644043 4.56567383 C-35.28080933 4.26765869 -35.28080933 4.26765869 -34.27734375 3.96362305 C-22.89879767 0.70463096 -11.76227189 -0.03210811 0 0 Z " fill="#6F22A1" transform="translate(133.889404296875,-0.315673828125)"/>
<path d="M0 0 C2.40907309 0.00315546 4.81690808 -0.02036958 7.22583008 -0.0456543 C27.64007761 -0.12969636 46.94549586 4.99969389 65.1105957 14.31567383 C65.7396582 14.6352002 66.3687207 14.95472656 67.0168457 15.28393555 C77.19803302 20.51621077 85.63379377 26.6607225 94.1105957 34.31567383 C95.4853777 35.44094023 96.86034767 36.56597705 98.2355957 37.69067383 C118.38226 55.55179217 130.79056275 80.52673673 137.1105957 106.31567383 C137.30709717 107.11046143 137.50359863 107.90524902 137.70605469 108.72412109 C139.44079652 116.80081372 139.44865619 124.85217087 139.42626953 133.07470703 C139.42312381 135.48166878 139.44659417 137.88737993 139.47192383 140.29418945 C139.53088553 154.32374907 137.54328426 167.4324515 132.9855957 180.75317383 C132.6870166 181.63223389 132.3884375 182.51129395 132.08081055 183.41699219 C127.24878433 197.10114214 120.30988209 209.09224233 111.1105957 220.31567383 C110.6798877 220.8517627 110.24917969 221.38785156 109.80541992 221.94018555 C92.94699511 242.89323317 70.05370894 259.45412436 44.1105957 267.31567383 C43.38678711 267.54125977 42.66297852 267.7668457 41.91723633 267.99926758 C10.30429769 277.45503742 -26.28358182 274.66867097 -55.8894043 260.31567383 C-56.8789209 259.83759277 -56.8789209 259.83759277 -57.88842773 259.34985352 C-66.48505176 255.12525092 -74.31507903 250.19898695 -81.8894043 244.31567383 C-82.77241211 243.65954102 -83.65541992 243.0034082 -84.56518555 242.32739258 C-89.28130198 238.78480434 -89.28130198 238.78480434 -90.8894043 237.31567383 C-90.8894043 236.65567383 -90.8894043 235.99567383 -90.8894043 235.31567383 C-91.4669043 235.06946289 -92.0444043 234.82325195 -92.6394043 234.56958008 C-109.46804925 225.19111649 -121.75905041 198.29855554 -127.7019043 180.81567383 C-127.9801001 179.99808594 -128.2582959 179.18049805 -128.54492188 178.33813477 C-132.76780344 165.21285804 -134.40838913 152.64057053 -134.33544922 138.9375 C-134.32694638 136.5151628 -134.3558233 134.09520193 -134.38745117 131.6730957 C-134.43791292 120.42795448 -132.81385417 110.15854593 -129.8894043 99.31567383 C-129.64327393 98.38376221 -129.39714355 97.45185059 -129.14355469 96.49169922 C-128.55071308 94.38841013 -127.90523019 92.32184052 -127.2019043 90.25317383 C-126.83125854 89.15948486 -126.83125854 89.15948486 -126.453125 88.04370117 C-121.77021863 74.84758028 -114.7507461 63.12680183 -105.8894043 52.31567383 C-105.45869629 51.77958496 -105.02798828 51.24349609 -104.58422852 50.69116211 C-86.82617321 28.61997913 -63.46447982 12.73883957 -36.2644043 4.56567383 C-35.28080933 4.26765869 -35.28080933 4.26765869 -34.27734375 3.96362305 C-22.89879767 0.70463096 -11.76227189 -0.03210811 0 0 Z M-1.8894043 29.31567383 C-3.89804788 31.68837123 -3.89804788 31.68837123 -4.8894043 34.31567383 C-5.5494043 34.64567383 -6.2094043 34.97567383 -6.8894043 35.31567383 C-6.5594043 33.33567383 -6.2294043 31.35567383 -5.8894043 29.31567383 C-9.1894043 29.64567383 -12.4894043 29.97567383 -15.8894043 30.31567383 C-16.5494043 32.29567383 -17.2094043 34.27567383 -17.8894043 36.31567383 C-18.3844043 33.84067383 -18.3844043 33.84067383 -18.8894043 31.31567383 C-23.01691879 31.92266125 -26.22151909 33.35378174 -29.8894043 35.31567383 C-29.8894043 37.29567383 -29.8894043 39.27567383 -29.8894043 41.31567383 C-30.5494043 41.31567383 -31.2094043 41.31567383 -31.8894043 41.31567383 C-31.8894043 39.33567383 -31.8894043 37.35567383 -31.8894043 35.31567383 C-35.83577904 35.87944165 -38.72137241 36.85164903 -41.8894043 39.31567383 C-42.77598895 41.90690126 -42.77598895 41.90690126 -42.8894043 44.31567383 C-43.3844043 42.33567383 -43.3844043 42.33567383 -43.8894043 40.31567383 C-47.80152163 41.47152668 -50.76390839 42.67102345 -53.8894043 45.31567383 C-53.3944043 48.28567383 -53.3944043 48.28567383 -52.8894043 51.31567383 C-54.8894043 50.31567383 -54.8894043 50.31567383 -55.8894043 47.31567383 C-59.20174814 48.47947031 -61.77922619 49.42806169 -63.8894043 52.31567383 C-63.8894043 53.63567383 -63.8894043 54.95567383 -63.8894043 56.31567383 C-64.76338867 55.98116211 -64.76338867 55.98116211 -65.6550293 55.63989258 C-67.93504372 55.06959929 -67.93504372 55.06959929 -69.8112793 56.46020508 C-70.41456055 57.01063477 -71.0178418 57.56106445 -71.6394043 58.12817383 C-72.25299805 58.67086914 -72.8665918 59.21356445 -73.4987793 59.77270508 C-75.11256565 61.21708943 -75.11256565 61.21708943 -74.8894043 63.31567383 C-75.5494043 63.31567383 -76.2094043 63.31567383 -76.8894043 63.31567383 C-79.98883717 66.49024446 -81.79824836 69.31295851 -82.2019043 73.75317383 C-82.0987793 74.59879883 -81.9956543 75.44442383 -81.8894043 76.31567383 C-83.3744043 75.82067383 -83.3744043 75.82067383 -84.8894043 75.31567383 C-88.24563328 79.82095773 -88.24563328 79.82095773 -88.8894043 85.31567383 C-89.8794043 85.31567383 -90.8694043 85.31567383 -91.8894043 85.31567383 C-92.42392989 86.5598803 -92.9414904 87.81138318 -93.4519043 89.06567383 C-93.74194336 89.76176758 -94.03198242 90.45786133 -94.33081055 91.17504883 C-94.98137417 93.66811782 -94.91035953 94.95567682 -93.8894043 97.31567383 C-92.8994043 97.64567383 -91.9094043 97.97567383 -90.8894043 98.31567383 C-90.8894043 98.97567383 -90.8894043 99.63567383 -90.8894043 100.31567383 C-92.2094043 100.31567383 -93.5294043 100.31567383 -94.8894043 100.31567383 C-94.8894043 99.65567383 -94.8894043 98.99567383 -94.8894043 98.31567383 C-95.5494043 98.31567383 -96.2094043 98.31567383 -96.8894043 98.31567383 C-97.25049971 99.96000089 -97.60310506 101.60619463 -97.9519043 103.25317383 C-98.14913086 104.16969727 -98.34635742 105.0862207 -98.54956055 106.03051758 C-98.66170898 106.78461914 -98.77385742 107.5387207 -98.8894043 108.31567383 C-98.5594043 108.64567383 -98.2294043 108.97567383 -97.8894043 109.31567383 C-98.8794043 109.81067383 -98.8794043 109.81067383 -99.8894043 110.31567383 C-101.26038282 113.88021799 -100.96183584 117.54923378 -100.8894043 121.31567383 C-100.2294043 121.31567383 -99.5694043 121.31567383 -98.8894043 121.31567383 C-98.8894043 122.30567383 -98.8894043 123.29567383 -98.8894043 124.31567383 C-99.5494043 124.31567383 -100.2094043 124.31567383 -100.8894043 124.31567383 C-100.91638619 125.94058337 -100.93579187 127.56562016 -100.9519043 129.19067383 C-100.96350586 130.0955957 -100.97510742 131.00051758 -100.98706055 131.93286133 C-101.05189687 134.33253233 -101.05189687 134.33253233 -99.8894043 136.31567383 C-100.5494043 136.31567383 -101.2094043 136.31567383 -101.8894043 136.31567383 C-101.58157933 137.96238795 -101.26801196 139.60802959 -100.9519043 141.25317383 C-100.77788086 142.16969727 -100.60385742 143.0862207 -100.42456055 144.03051758 C-100.11225441 146.26857227 -100.11225441 146.26857227 -98.8894043 147.31567383 C-97.22323315 147.35631215 -95.55552335 147.35839483 -93.8894043 147.31567383 C-93.8894043 147.97567383 -93.8894043 148.63567383 -93.8894043 149.31567383 C-95.5394043 149.31567383 -97.1894043 149.31567383 -98.8894043 149.31567383 C-98.2294043 152.94567383 -97.5694043 156.57567383 -96.8894043 160.31567383 C-94.5794043 160.64567383 -92.2694043 160.97567383 -89.8894043 161.31567383 C-91.5394043 161.64567383 -93.1894043 161.97567383 -94.8894043 162.31567383 C-94.15895154 167.13503919 -94.15895154 167.13503919 -91.8894043 171.31567383 C-88.32733769 172.13437568 -88.32733769 172.13437568 -84.8894043 172.31567383 C-86.5394043 172.64567383 -88.1894043 172.97567383 -89.8894043 173.31567383 C-87.92471361 178.60942647 -87.92471361 178.60942647 -84.8894043 183.31567383 C-81.7630522 183.73313991 -81.7630522 183.73313991 -78.8894043 183.31567383 C-78.8894043 183.97567383 -78.8894043 184.63567383 -78.8894043 185.31567383 C-80.2094043 185.64567383 -81.5294043 185.97567383 -82.8894043 186.31567383 C-82.12823878 187.46795206 -81.35507736 188.61231243 -80.5769043 189.75317383 C-80.14764648 190.39125977 -79.71838867 191.0293457 -79.27612305 191.68676758 C-77.8859991 193.60424223 -77.8859991 193.60424223 -74.8894043 194.31567383 C-74.8894043 195.30567383 -74.8894043 196.29567383 -74.8894043 197.31567383 C-71.07710292 201.24930248 -71.07710292 201.24930248 -66.0144043 202.62817383 C-65.3131543 202.52504883 -64.6119043 202.42192383 -63.8894043 202.31567383 C-63.8275293 203.05817383 -63.7656543 203.80067383 -63.7019043 204.56567383 C-62.62533577 208.20944424 -61.06701284 209.32043126 -57.8894043 211.31567383 C-56.5694043 211.31567383 -55.2494043 211.31567383 -53.8894043 211.31567383 C-53.5594043 212.30567383 -53.2294043 213.29567383 -52.8894043 214.31567383 C-49.46501149 216.545511 -47.62437471 217.38372664 -43.5144043 217.00317383 C-42.6481543 216.77629883 -41.7819043 216.54942383 -40.8894043 216.31567383 C-41.2194043 217.30567383 -41.5494043 218.29567383 -41.8894043 219.31567383 C-40.65056111 220.04334386 -39.39772089 220.74722198 -38.1394043 221.44067383 C-37.44331055 221.83512695 -36.7472168 222.22958008 -36.0300293 222.63598633 C-33.86763092 223.57517866 -33.86763092 223.57517866 -31.7487793 222.43286133 C-31.13518555 222.06418945 -30.5215918 221.69551758 -29.8894043 221.31567383 C-29.2294043 221.31567383 -28.5694043 221.31567383 -27.8894043 221.31567383 C-27.6419043 222.09942383 -27.3944043 222.88317383 -27.1394043 223.69067383 C-25.73551331 226.63884491 -24.88264693 227.21815153 -21.8894043 228.31567383 C-20.8994043 227.32567383 -19.9094043 226.33567383 -18.8894043 225.31567383 C-18.8894043 225.97567383 -18.8894043 226.63567383 -18.8894043 227.31567383 C-15.5894043 228.30567383 -12.2894043 229.29567383 -8.8894043 230.31567383 C-11.16805013 230.54353841 -13.44669596 230.77140299 -15.7253418 230.99926758 C-17.93213235 231.20657497 -17.93213235 231.20657497 -19.8894043 232.31567383 C-19.38684318 234.32999648 -19.38684318 234.32999648 -17.8894043 236.31567383 C-12.94573169 238.2303092 -12.94573169 238.2303092 -7.8894043 237.31567383 C-7.5594043 237.97567383 -7.2294043 238.63567383 -6.8894043 239.31567383 C-4.45542461 240.41821086 -4.45542461 240.41821086 -1.5769043 241.37817383 C-0.61139648 241.71977539 0.35411133 242.06137695 1.34887695 242.41333008 C4.68877902 243.53060007 4.68877902 243.53060007 8.1105957 244.31567383 C10.02726237 243.23234049 10.02726237 243.23234049 11.1105957 241.31567383 C10.88301839 239.15268172 10.88301839 239.15268172 10.1105957 237.31567383 C10.6468457 237.64567383 11.1830957 237.97567383 11.7355957 238.31567383 C14.70350491 239.56531981 16.91858849 239.59323967 20.1105957 239.31567383 C20.7705957 238.65567383 21.4305957 237.99567383 22.1105957 237.31567383 C26.61202778 236.51703265 29.71029911 236.13097859 34.1105957 237.31567383 C36.35384406 235.50374377 36.35384406 235.50374377 36.3059082 232.93286133 C36.28270508 232.02793945 36.25950195 231.12301758 36.2355957 230.19067383 C36.21754883 229.2805957 36.19950195 228.37051758 36.1809082 227.43286133 C36.15770508 226.73418945 36.13450195 226.03551758 36.1105957 225.31567383 C36.89305664 224.9521582 37.67551758 224.58864258 38.48168945 224.21411133 C39.49360352 223.71137695 40.50551758 223.20864258 41.5480957 222.69067383 C42.55743164 222.2034082 43.56676758 221.71614258 44.60668945 221.21411133 C47.41797413 219.48763041 47.41797413 219.48763041 47.95825195 216.10473633 C48.00852539 215.1843457 48.05879883 214.26395508 48.1105957 213.31567383 C48.4405957 214.96567383 48.7705957 216.61567383 49.1105957 218.31567383 C52.9016076 216.86616928 56.4980595 215.16394816 60.1105957 213.31567383 C60.1105957 212.65567383 60.1105957 211.99567383 60.1105957 211.31567383 C60.7912207 211.06817383 61.4718457 210.82067383 62.1730957 210.56567383 C69.06891239 207.63128375 75.30193075 204.04348001 79.1105957 197.31567383 C78.88915347 194.61447325 78.88915347 194.61447325 78.1105957 192.31567383 C79.4305957 192.64567383 80.7505957 192.97567383 82.1105957 193.31567383 C83.0387207 192.10911133 83.0387207 192.10911133 83.9855957 190.87817383 C86.1105957 188.31567383 86.1105957 188.31567383 88.1105957 187.31567383 C88.1105957 186.32567383 88.1105957 185.33567383 88.1105957 184.31567383 C88.7705957 184.31567383 89.4305957 184.31567383 90.1105957 184.31567383 C93.28807364 179.76160818 93.28807364 179.76160818 93.9230957 174.50317383 C93.15476451 172.31417658 93.15476451 172.31417658 92.1105957 170.31567383 C93.4305957 170.64567383 94.7505957 170.97567383 96.1105957 171.31567383 C99.9438116 166.2928392 101.46861703 161.36864845 103.1105957 155.31567383 C103.5024707 154.20192383 103.8943457 153.08817383 104.2980957 151.94067383 C105.45947141 146.75915146 105.46947099 141.60699785 105.1105957 136.31567383 C104.7805957 135.98567383 104.4505957 135.65567383 104.1105957 135.31567383 C104.7705957 134.98567383 105.4305957 134.65567383 106.1105957 134.31567383 C106.1105957 131.01567383 106.1105957 127.71567383 106.1105957 124.31567383 C103.1405957 123.82067383 103.1405957 123.82067383 100.1105957 123.31567383 C100.1105957 122.65567383 100.1105957 121.99567383 100.1105957 121.31567383 C102.0905957 121.31567383 104.0705957 121.31567383 106.1105957 121.31567383 C105.99600877 119.87730632 105.86850454 118.43996417 105.7355957 117.00317383 C105.63118164 115.80241211 105.63118164 115.80241211 105.5246582 114.57739258 C105.21495144 112.04342942 105.21495144 112.04342942 103.1105957 109.31567383 C103.4405957 108.65567383 103.7705957 107.99567383 104.1105957 107.31567383 C103.56843463 105.08070182 103.56843463 105.08070182 102.6730957 102.69067383 C102.38563477 101.8734082 102.09817383 101.05614258 101.80200195 100.21411133 C101.57383789 99.58762695 101.34567383 98.96114258 101.1105957 98.31567383 C98.1405957 97.82067383 98.1405957 97.82067383 95.1105957 97.31567383 C97.5855957 96.82067383 97.5855957 96.82067383 100.1105957 96.31567383 C99.37366655 93.17402848 98.55496835 90.20970987 97.1105957 87.31567383 C94.08174726 85.63530872 94.08174726 85.63530872 91.1105957 85.31567383 C92.1005957 84.98567383 93.0905957 84.65567383 94.1105957 84.31567383 C93.45945182 80.79949686 92.32393494 78.1395894 90.1105957 75.31567383 C87.014885 74.42360204 87.014885 74.42360204 84.1105957 74.31567383 C85.4305957 73.98567383 86.7505957 73.65567383 88.1105957 73.31567383 C88.1105957 72.65567383 88.1105957 71.99567383 88.1105957 71.31567383 C87.4505957 71.31567383 86.7905957 71.31567383 86.1105957 71.31567383 C85.8218457 70.71754883 85.5330957 70.11942383 85.2355957 69.50317383 C83.15857064 65.33864801 83.15857064 65.33864801 79.1105957 63.31567383 C78.42572845 61.99159714 77.76189368 60.65658142 77.1105957 59.31567383 C75.31868538 57.02352338 75.31868538 57.02352338 73.1105957 55.31567383 C71.7905957 55.31567383 70.4705957 55.31567383 69.1105957 55.31567383 C69.0487207 54.73817383 68.9868457 54.16067383 68.9230957 53.56567383 C67.76485591 50.35824055 65.89919012 49.19635378 63.1105957 47.31567383 C61.78198645 46.96398314 60.44901243 46.62797106 59.1105957 46.31567383 C58.10218101 45.32415994 57.10330559 44.32291118 56.1105957 43.31567383 C47.22366894 36.62951902 34.38183204 31.58849729 23.1105957 32.31567383 C22.6155957 31.32567383 22.6155957 31.32567383 22.1105957 30.31567383 C17.8205957 30.31567383 13.5305957 30.31567383 9.1105957 30.31567383 C9.1105957 29.65567383 9.1105957 28.99567383 9.1105957 28.31567383 C5.38083686 28.31567383 1.73742122 28.37563266 -1.8894043 29.31567383 Z " fill="#6E20A0" transform="translate(133.889404296875,-0.315673828125)"/>
<path d="M0 0 C9.6203465 4.27311507 18.76570082 12.66717751 25 21 C25.45246094 21.598125 25.90492188 22.19625 26.37109375 22.8125 C30.76131564 29.86116075 29.98721924 39.09005531 28.41015625 46.93359375 C26.1060592 54.41925468 22.5204881 61.45044908 19.22900391 68.54077148 C16.17401119 75.25753549 14.16130307 81.68512548 13 89 C9.7 89 6.4 89 3 89 C2.67 70.52 2.34 52.04 2 33 C1.34 33 0.68 33 0 33 C-0.33 51.48 -0.66 69.96 -1 89 C-4.3 89 -7.6 89 -11 89 C-11.17273438 88.10023438 -11.34546875 87.20046875 -11.5234375 86.2734375 C-13.67570992 76.42037385 -17.11475722 67.72349882 -21.47021484 58.62841797 C-26.52599748 48.04712696 -29.55279476 37.36431223 -25.5625 25.8125 C-21.28131478 16.5765165 -13.62510887 10.31542329 -5.3828125 4.69140625 C-3.35094421 3.24911286 -1.68421 1.82363136 0 0 Z " fill="#FCFBFD" transform="translate(135,54)"/>
<path d="M0 0 C11.48614491 5.97502207 18.23493329 16.01427753 22.39453125 28.09375 C23.9153507 33.28159205 24.77790232 37.85880892 24.41796875 43.2578125 C20.36521715 44.24029774 16.57935138 44.33940824 12.41796875 44.2578125 C12.13824219 43.58234375 11.85851562 42.906875 11.5703125 42.2109375 C8.7811621 36.00485366 6.85435631 32.74203226 0.41796875 30.2578125 C-3.20078011 29.75118766 -5.0106548 29.99809593 -8.33203125 31.5078125 C-12.04976479 34.39938303 -12.61644197 36.98262167 -13.20703125 41.5078125 C-13.33078125 42.7453125 -13.45453125 43.9828125 -13.58203125 45.2578125 C-19.13861665 45.87268056 -23.32927805 45.98437194 -27.95703125 42.5703125 C-33.56462536 37.74280709 -37.06536984 33.2913471 -37.83984375 25.74609375 C-38.15950591 18.10616819 -36.76452585 12.30682791 -32.00390625 6.25 C-23.25680794 -3.16692116 -11.59518714 -5.14143182 0 0 Z " fill="#FCFAFD" transform="translate(96.58203125,100.7421875)"/>
<path d="M0 0 C5.90716957 5.29396858 9.4204448 10.07322796 10.20703125 18.1171875 C10.51198934 24.64554947 9.6127691 30.90071528 5.30078125 36.015625 C-0.36318367 41.31237805 -6.11274784 44.23157735 -14 44 C-14.09796875 43.25234375 -14.1959375 42.5046875 -14.296875 41.734375 C-15.15835049 35.77763081 -15.15835049 35.77763081 -17.625 30.375 C-21.01222757 28.41397351 -24.13675463 27.70393821 -28 28 C-33.38811727 29.75249875 -36.31615367 33.04520678 -39 38 C-39.76939681 40.22602615 -39.76939681 40.22602615 -40 42 C-44.16138263 42.08159574 -47.9472484 41.98248524 -52 41 C-51.21066594 27.96237873 -46.82920049 14.30572434 -37.7734375 4.53125 C-27.43560387 -4.39480899 -11.97014904 -8.44685989 0 0 Z " fill="#FCFAFD" transform="translate(203,103)"/>
<path d="M0 0 C0 2.64 0 5.28 0 8 C-3.3 9.65 -6.6 11.3 -10 13 C-10 16.3 -10 19.6 -10 23 C-14 25 -14 25 -16.375 24.5 C-19.77617592 23.85215697 -21.83724059 24.70614388 -25 26 C-25.495 26.495 -25.495 26.495 -26 27 C-29.94836905 27.2632246 -32.60379269 27.08997373 -36 25 C-35.773125 25.598125 -35.54625 26.19625 -35.3125 26.8125 C-35 29 -35 29 -36.1875 30.8125 C-38 32 -38 32 -39.7578125 31.6953125 C-42.42199777 30.86913658 -45.05768177 29.99294303 -47.6875 29.0625 C-48.66074219 28.72347656 -49.63398438 28.38445312 -50.63671875 28.03515625 C-53 27 -53 27 -54 25 C-54.99 25.33 -55.98 25.66 -57 26 C-60.5625 25.3125 -60.5625 25.3125 -64 24 C-65.4375 21.875 -65.4375 21.875 -66 20 C-63.70370006 18.85185003 -61.92301914 18.69230191 -59.375 18.4375 C-57.93125 18.293125 -56.4875 18.14875 -55 18 C-58.3 17.01 -61.6 16.02 -65 15 C-65 14.34 -65 13.68 -65 13 C-65.99 13.99 -66.98 14.98 -68 16 C-69.9375 15.3125 -69.9375 15.3125 -72 14 C-72.75 11.375 -72.75 11.375 -73 9 C-65.88610478 2.29612756 -65.88610478 2.29612756 -61 2 C-60.01 3.485 -60.01 3.485 -59 5 C-58.649375 4.505 -58.29875 4.01 -57.9375 3.5 C-54.90959666 1.15581677 -52.73538407 1.56420519 -49 2 C-47.1640625 2.9375 -47.1640625 2.9375 -45.375 4.0625 C-42.22013577 6.29962993 -42.22013577 6.29962993 -39.0625 5.75 C-38.381875 5.5025 -37.70125 5.255 -37 5 C-36.505 7.475 -36.505 7.475 -36 10 C-35.34 10 -34.68 10 -34 10 C-33.505 10.99 -33.505 10.99 -33 12 C-31.02 11.67 -29.04 11.34 -27 11 C-26.875 13.375 -26.875 13.375 -27 16 C-29 18 -29 18 -30.9453125 18.1953125 C-32.96354167 18.13020833 -34.98177083 18.06510417 -37 18 C-37 18.66 -37 19.32 -37 20 C-33.04 20 -29.08 20 -25 20 C-25.495 18.02 -25.495 18.02 -26 16 C-25.625 12.5 -25.625 12.5 -24 9 C-20.22953599 6.51771755 -16.52579561 5 -12 5 C-11.505 7.475 -11.505 7.475 -11 10 C-10.4740625 8.3603125 -10.4740625 8.3603125 -9.9375 6.6875 C-8.63042506 3.56820039 -7.4924224 2.38116327 -4.375 1.0625 C-1 0 -1 0 0 0 Z " fill="#7830A7" transform="translate(180,212)"/>
<path d="M0 0 C3.3 0 6.6 0 10 0 C10.37125 1.258125 10.7425 2.51625 11.125 3.8125 C12.74565023 8.78459196 15.18768684 13.05968328 17.890625 17.51953125 C19 20 19 20 18.82421875 22.0859375 C15.54494203 29.70131946 9.2402939 35.19222348 2 39 C-1.69914651 40.12772929 -3.25304279 40.37294734 -6.74609375 38.62890625 C-20.41550079 28.13381725 -20.41550079 28.13381725 -22.7890625 21.94140625 C-23.1462281 18.65415988 -20.8444721 16.61300214 -19 14 C-17.02660755 9.74961626 -15.41581373 5.4652587 -14 1 C-10.7 1 -7.4 1 -4 1 C-3.34 6.61 -2.68 12.22 -2 18 C-1.03813069 14.15252277 -0.69340973 10.69832148 -0.4375 6.75 C-0.35371094 5.48671875 -0.26992187 4.2234375 -0.18359375 2.921875 C-0.09271484 1.47554687 -0.09271484 1.47554687 0 0 Z " fill="#FBF9FC" transform="translate(138,161)"/>
<path d="M0 0 C2.42877444 0.00535831 4.857364 0.00003093 7.28613281 -0.00634766 C28.84315171 -0.01810078 28.84315171 -0.01810078 34.43457031 4.13037109 C33.93457031 6.00537109 33.93457031 6.00537109 32.43457031 8.13037109 C26.40484914 10.06618215 20.861977 10.42527028 14.56347656 10.39599609 C13.18082863 10.39886627 13.18082863 10.39886627 11.77024841 10.40179443 C9.83144862 10.40314824 7.89263951 10.39950837 5.95385742 10.39111328 C3.00906716 10.38041468 0.06488857 10.39102981 -2.87988281 10.40380859 C-4.77376435 10.40248662 -6.66764551 10.39992344 -8.56152344 10.39599609 C-9.43054794 10.40004456 -10.29957245 10.40409302 -11.19493103 10.40826416 C-22.7160538 10.32121521 -22.7160538 10.32121521 -27.56542969 8.13037109 C-28.81541443 6.05328369 -28.81541443 6.05328369 -29.56542969 4.13037109 C-21.53242707 -1.82959859 -9.57120166 -0.02513649 0 0 Z " fill="#F4EEF7" transform="translate(133.5654296875,146.86962890625)"/>
<path d="M0 0 C0 2.64 0 5.28 0 8 C-3.3 9.65 -6.6 11.3 -10 13 C-10 16.3 -10 19.6 -10 23 C-14 25 -14 25 -16.375 24.5 C-19.77617592 23.85215697 -21.83724059 24.70614388 -25 26 C-25.33 26.33 -25.66 26.66 -26 27 C-30.6688148 27.42443771 -33.20864604 26.73820008 -37 24 C-37.66 23.34 -38.32 22.68 -39 22 C-35.78817851 20.09391902 -33.46117397 19.77733753 -29.75 19.875 C-28.85796875 19.89304688 -27.9659375 19.91109375 -27.046875 19.9296875 C-26.37140625 19.95289063 -25.6959375 19.97609375 -25 20 C-25.25910156 19.11828125 -25.25910156 19.11828125 -25.5234375 18.21875 C-26.31901714 14.51473985 -25.58458151 12.41294479 -24 9 C-20.22953599 6.51771755 -16.52579561 5 -12 5 C-11.67 6.65 -11.34 8.3 -11 10 C-10.4740625 8.3603125 -10.4740625 8.3603125 -9.9375 6.6875 C-8.63042506 3.56820039 -7.4924224 2.38116327 -4.375 1.0625 C-1 0 -1 0 0 0 Z " fill="#7932A7" transform="translate(180,212)"/>
<path d="M0 0 C3.3 0.66 6.6 1.32 10 2 C9.4196558 8.96413043 7.4347475 15.06906448 2.1875 19.9375 C-1.46683364 22.30206882 -3.65521035 23 -8 23 C-13.24224568 21.21763647 -15.92069214 18.43782603 -19 14 C-19 12.68 -19 11.36 -19 10 C-18.41992188 10.03480469 -17.83984375 10.06960937 -17.2421875 10.10546875 C-12.06199942 10.28498022 -8.3536345 10.13866673 -4 7 C-2.38340242 4.73374172 -1.23425555 2.51598246 0 0 Z " fill="#F9F6FB" transform="translate(111,159)"/>
<path d="M0 0 C0.45375 0.94875 0.9075 1.8975 1.375 2.875 C3.29385729 6.56511017 4.1178081 7.54417804 8 9 C11.68143643 9.23365958 15.31699946 9.17415239 19 9 C17.91388902 14.06851793 15.89090813 16.67392097 11.9296875 19.796875 C8.90045819 21.68554429 6.54421389 22.06444025 3 22 C-1.73353263 20.32934142 -4.35069748 18.23888404 -7 14 C-11 4.46896552 -11 4.46896552 -11 1 C-3.375 -1.125 -3.375 -1.125 0 0 Z " fill="#F9F6FB" transform="translate(162,160)"/>
<path d="M0 0 C0.66 0 1.32 0 2 0 C3.15425933 12.13078408 3.11594239 24.20223511 3.0625 36.375 C3.05747236 38.38281138 3.0529117 40.39062398 3.04882812 42.3984375 C3.03792865 47.26565586 3.02073451 52.13281401 3 57 C5.97 57 8.94 57 12 57 C7.5 59.25 7.5 59.25 3.890625 59.1953125 C3.13652344 59.18886719 2.38242188 59.18242187 1.60546875 59.17578125 C0.82816406 59.15902344 0.05085937 59.14226562 -0.75 59.125 C-1.54277344 59.11597656 -2.33554688 59.10695312 -3.15234375 59.09765625 C-5.10169281 59.07417012 -7.05088575 59.03830137 -9 59 C-9.33 58.34 -9.66 57.68 -10 57 C-7.03 57 -4.06 57 -1 57 C-1.00785522 54.99619263 -1.00785522 54.99619263 -1.01586914 52.9519043 C-1.03409658 47.95158571 -1.04549632 42.95127 -1.05493164 37.95092773 C-1.05993155 35.79499822 -1.06673365 33.63907204 -1.07543945 31.4831543 C-1.08769663 28.36766735 -1.09327188 25.25222559 -1.09765625 22.13671875 C-1.10281754 21.18729904 -1.10797882 20.23787933 -1.11329651 19.25968933 C-1.11382761 12.78979554 -0.68745634 6.43254714 0 0 Z " fill="#7C37A9" transform="translate(135,87)"/>
<path d="M0 0 C2 0 2 0 3.4375 1.390625 C4.2109375 2.31101563 4.2109375 2.31101563 5 3.25 C5.7734375 4.15492188 5.7734375 4.15492188 6.5625 5.078125 C8 7 8 7 9.0625 9.171875 C9.86379323 11.17848242 9.86379323 11.17848242 12 12 C12 12.66 12 13.32 12 14 C14.64 14 17.28 14 20 14 C19.25 18.75 19.25 18.75 17 21 C12.398797 21.51124478 9.68403491 20.81720317 6 18 C6 17.34 6 16.68 6 16 C5.01 15.67 4.02 15.34 3 15 C3 16.32 3 17.64 3 19 C1.375 19.6875 1.375 19.6875 -1 20 C-4.25 18.5625 -4.25 18.5625 -7 17 C-5.91815978 14.47570615 -5.09121837 13.07463321 -2.9375 11.3125 C-0.06878871 7.88855427 -0.18588482 4.3497047 0 0 Z " fill="#8544AF" transform="translate(104,226)"/>
<path d="M0 0 C0 0.66 0 1.32 0 2 C-9.74126708 3.85547944 -19.34664197 4.21878374 -29.25 4.25 C-31.02455566 4.26353516 -31.02455566 4.26353516 -32.83496094 4.27734375 C-40.10132301 4.2529668 -46.90552185 3.58175516 -54 2 C-53.67 1.34 -53.34 0.68 -53 0 C-50.47483831 -0.49645169 -48.05222381 -0.85375995 -45.5 -1.125 C-44.354104 -1.2502002 -44.354104 -1.2502002 -43.18505859 -1.37792969 C-28.61283473 -2.84262501 -14.49913419 -1.78254998 0 0 Z " fill="#7329A3" transform="translate(164,151)"/>
<path d="M0 0 C11.88 0 23.76 0 36 0 C35.67 0.99 35.34 1.98 35 3 C34.01 3 33.02 3 32 3 C32.495 6.465 32.495 6.465 33 10 C32.34 10 31.68 10 31 10 C30.34 8.02 29.68 6.04 29 4 C25.7 3.67 22.4 3.34 19 3 C19.01160156 3.9178125 19.02320313 4.835625 19.03515625 5.78125 C19.08301493 12.29003027 19.02900697 18.56870645 18 25 C16.33325679 22.08175756 15.7567992 20.02405621 15.8046875 16.671875 C15.81113281 15.87265625 15.81757813 15.0734375 15.82421875 14.25 C15.84097656 13.425 15.85773438 12.6 15.875 11.75 C15.88402344 10.90953125 15.89304688 10.0690625 15.90234375 9.203125 C15.92584183 7.13529396 15.96171092 5.06761005 16 3 C15.39744385 3.00580078 14.7948877 3.01160156 14.17407227 3.01757812 C12.97609009 3.0243457 12.97609009 3.0243457 11.75390625 3.03125 C10.9657251 3.03705078 10.17754395 3.04285156 9.36547852 3.04882812 C6.17110016 2.98288988 3.14732526 2.53571494 0 2 C0 1.34 0 0.68 0 0 Z " fill="#6E209F" transform="translate(119,158)"/>
<path d="M0 0 C1.12775345 0.00212242 1.12775345 0.00212242 2.27828979 0.00428772 C4.6829626 0.0098916 7.08754277 0.02244468 9.4921875 0.03515625 C11.12109241 0.04017075 12.74999877 0.04473375 14.37890625 0.04882812 C18.37503577 0.05986228 22.37109592 0.07712946 26.3671875 0.09765625 C26.3671875 0.42765625 26.3671875 0.75765625 26.3671875 1.09765625 C16.4671875 1.09765625 6.5671875 1.09765625 -3.6328125 1.09765625 C-3.6328125 1.75765625 -3.6328125 2.41765625 -3.6328125 3.09765625 C-2.8490625 2.91203125 -2.0653125 2.72640625 -1.2578125 2.53515625 C1.3671875 2.09765625 1.3671875 2.09765625 3.3671875 3.09765625 C4.90387615 3.32233456 6.44686804 3.5056243 7.9921875 3.66015625 C9.4359375 3.80453125 10.8796875 3.94890625 12.3671875 4.09765625 C12.3671875 7.72765625 12.3671875 11.35765625 12.3671875 15.09765625 C12.0371875 15.09765625 11.7071875 15.09765625 11.3671875 15.09765625 C11.3671875 11.79765625 11.3671875 8.49765625 11.3671875 5.09765625 C8.0671875 5.42765625 4.7671875 5.75765625 1.3671875 6.09765625 C0.7175 8.10859375 0.7175 8.10859375 0.0546875 10.16015625 C-1.30430214 14.25006794 -2.87529904 18.16417374 -4.6328125 22.09765625 C-7.6328125 22.09765625 -7.6328125 22.09765625 -9.6328125 21.09765625 C-8.735625 20.07671875 -8.735625 20.07671875 -7.8203125 19.03515625 C-4.42517106 14.47596632 -2.48372841 9.71370128 -1.6328125 4.09765625 C-4.2728125 3.76765625 -6.9128125 3.43765625 -9.6328125 3.09765625 C-9.6328125 2.43765625 -9.6328125 1.77765625 -9.6328125 1.09765625 C-6.56686656 -0.43531672 -3.36169397 -0.0236583 0 0 Z " fill="#8848B0" transform="translate(122.6328125,156.90234375)"/>
<path d="M0 0 C0.33 0 0.66 0 1 0 C2.19190363 8.34332544 2.09283549 16.59323022 2 25 C4.97 25 7.94 25 11 25 C6.5 27.25 6.5 27.25 2.890625 27.1953125 C2.13652344 27.18886719 1.38242188 27.18242187 0.60546875 27.17578125 C-0.56048828 27.15064453 -0.56048828 27.15064453 -1.75 27.125 C-2.54277344 27.11597656 -3.33554688 27.10695312 -4.15234375 27.09765625 C-6.10169281 27.07417012 -8.05088575 27.03830137 -10 27 C-10.33 26.34 -10.66 25.68 -11 25 C-8.03 24.67 -5.06 24.34 -2 24 C-1.97494385 23.30849854 -1.9498877 22.61699707 -1.92407227 21.90454102 C-1.80847839 18.79032134 -1.68558758 15.67643211 -1.5625 12.5625 C-1.52318359 11.47388672 -1.48386719 10.38527344 -1.44335938 9.26367188 C-1.40146484 8.22919922 -1.35957031 7.19472656 -1.31640625 6.12890625 C-1.26141968 4.69140015 -1.26141968 4.69140015 -1.20532227 3.22485352 C-1 1 -1 1 0 0 Z " fill="#6B1B9E" transform="translate(136,119)"/>
<path d="M0 0 C1.32 1.32 2.64 2.64 4 4 C3.00449135 6.6245228 2.06036546 7.95028727 -0.125 9.75 C-3.98275174 11.42728337 -6.81513202 11.2127899 -11 11 C-10.9375 8.1875 -10.9375 8.1875 -10 5 C-6.625 3.25 -6.625 3.25 -3 2 C-2.01 1.34 -1.02 0.68 0 0 Z " fill="#F8F5FA" transform="translate(141,218)"/>
<path d="M0 0 C0.66 0.33 1.32 0.66 2 1 C1.67 2.65 1.34 4.3 1 6 C2.32 6.66 3.64 7.32 5 8 C5 8.66 5 9.32 5 10 C3.02 10 1.04 10 -1 10 C-1 11.98 -1 13.96 -1 16 C-2.5 14.625 -2.5 14.625 -4 13 C-4 12.34 -4 11.68 -4 11 C-5.98 11 -7.96 11 -10 11 C-9.34 10.01 -8.68 9.02 -8 8 C-8.31506627 4.85778033 -8.31506627 4.85778033 -9 2 C-7.6078125 2.3403125 -7.6078125 2.3403125 -6.1875 2.6875 C-3.03173152 3.36319983 -3.03173152 3.36319983 -1.125 1.5625 C-0.75375 1.046875 -0.3825 0.53125 0 0 Z " fill="#7A33A8" transform="translate(197,111)"/>
<path d="M0 0 C0.66 0 1.32 0 2 0 C2 1.98 2 3.96 2 6 C3.32 6.33 4.64 6.66 6 7 C6 7.66 6 8.32 6 9 C4.02 9 2.04 9 0 9 C0 10.98 0 12.96 0 15 C-2 14 -2 14 -3 11 C-5.97 10.505 -5.97 10.505 -9 10 C-8.34 9.01 -7.68 8.02 -7 7 C-7.31506627 3.85778033 -7.31506627 3.85778033 -8 1 C-6.576875 1.309375 -6.576875 1.309375 -5.125 1.625 C-4.09375 1.74875 -3.0625 1.8725 -2 2 C-1.34 1.34 -0.68 0.68 0 0 Z " fill="#7932A7" transform="translate(79,112)"/>
<path d="M0 0 C0.886875 0.24105469 1.77375 0.48210937 2.6875 0.73046875 C5.4267847 2.01219487 5.98381435 3.02376325 7 5.8125 C5.75 7.375 5.75 7.375 4 8.8125 C0.62481254 8.27005916 -2.55289963 6.92988228 -5.75 5.75 C-6.73484375 5.38777344 -7.7196875 5.02554688 -8.734375 4.65234375 C-9.48203125 4.37519531 -10.2296875 4.09804687 -11 3.8125 C-6.95979196 -0.36238165 -5.69835442 -1.6316509 0 0 Z " fill="#F6F1F9" transform="translate(138,235.1875)"/>
<path d="M0 0 C-0.37007874 7.4015748 -0.37007874 7.4015748 -3.5 10.375 C-4.325 10.91125 -5.15 11.4475 -6 12 C-6.33 12.66 -6.66 13.32 -7 14 C-8.9375 13.3125 -8.9375 13.3125 -11 12 C-11.75 9.375 -11.75 9.375 -12 7 C-10.87720538 6.01830524 -9.75168527 5.03972702 -8.625 4.0625 C-7.68527344 3.24458984 -7.68527344 3.24458984 -6.7265625 2.41015625 C-4.23340655 0.37389087 -3.29576226 0 0 0 Z " fill="#F2EBF6" transform="translate(119,214)"/>
<path d="M0 0 C14.85 0.33 29.7 0.66 45 1 C42.377799 3.622201 40.50039421 3.24857363 36.92984009 3.27789307 C35.68453018 3.27182037 35.68453018 3.27182037 34.4140625 3.265625 C33.56073334 3.26753845 32.70740417 3.2694519 31.82821655 3.27142334 C30.02089138 3.27278572 28.21355643 3.26908558 26.40625 3.26074219 C23.64300427 3.25006954 20.88041258 3.26062197 18.1171875 3.2734375 C16.36197773 3.2721154 14.60676837 3.26955196 12.8515625 3.265625 C12.02540436 3.26967346 11.19924622 3.27372192 10.34805298 3.27789307 C3.26638517 3.22021591 3.26638517 3.22021591 0 1 C0 0.67 0 0.34 0 0 Z " fill="#F9F7FB" transform="translate(111,154)"/>
<path d="M0 0 C2 0 2 0 3.40234375 1.35546875 C11 10.42239186 11 10.42239186 11 14 C8.36 14 5.72 14 3 14 C-0.00559652 8.99067246 -0.29341888 5.67276511 0 0 Z " fill="#F2EBF6" transform="translate(104,226)"/>
<path d="M0 0 C1.2065625 0.495 1.2065625 0.495 2.4375 1 C2.4375 1.66 2.4375 2.32 2.4375 3 C1.2309375 3.4640625 1.2309375 3.4640625 0 3.9375 C-2.45330405 4.76335345 -2.45330405 4.76335345 -3.5625 6 C-8.2313148 6.42443771 -10.77114604 5.73820008 -14.5625 3 C-15.2225 2.34 -15.8825 1.68 -16.5625 1 C-11.19110917 -2.06242192 -5.82987341 -1.63645569 0 0 Z " fill="#F0E8F5" transform="translate(157.5625,233)"/>
<path d="M0 0 C-0.52849741 4.58031088 -0.52849741 4.58031088 -2 7 C-5.1845878 8.82955623 -8.4874601 9.95660715 -12 11 C-13 9 -13 9 -13.125 6.125 C-12 3 -12 3 -10.03125 1.68359375 C-3.74111374 -1.24703791 -3.74111374 -1.24703791 0 0 Z " fill="#F4EEF7" transform="translate(168,218)"/>
<path d="M0 0 C0.7528125 -0.00515625 1.505625 -0.0103125 2.28125 -0.015625 C4.7296721 0.27749596 6.37304054 1.03183231 8.5 2.25 C8.5 2.91 8.5 3.57 8.5 4.25 C6.5636296 4.75435694 4.62585854 5.25333874 2.6875 5.75 C1.60855469 6.0284375 0.52960938 6.306875 -0.58203125 6.59375 C-3.5 7.25 -3.5 7.25 -6.5 7.25 C-7.16 5.6 -7.82 3.95 -8.5 2.25 C-5.54497399 0.55757601 -3.40004978 -0.02328801 0 0 Z " fill="#F4EEF8" transform="translate(154.5,212.75)"/>
<path d="M0 0 C0.66 0.99 1.32 1.98 2 3 C1.3125 5.2890625 1.3125 5.2890625 0 8 C-0.7115625 9.52753906 -0.7115625 9.52753906 -1.4375 11.0859375 C-1.953125 12.17132813 -2.46875 13.25671875 -3 14.375 C-5.10640294 18.89530996 -6.79357483 23.17429932 -8 28 C-8.33 28.33 -8.66 28.66 -9 29 C-9.36760731 31.32817964 -9.70241581 33.6618385 -10 36 C-10.33 36 -10.66 36 -11 36 C-11.65351253 22.49407437 -5.78827301 11.85152336 0 0 Z " fill="#813DAC" transform="translate(160,108)"/>
<path d="M0 0 C4.39075018 0.35989756 6.38486502 1.6372727 9.8125 4.3125 C8.73046875 5.83203125 8.73046875 5.83203125 6.8125 7.3125 C3.67578125 7.38671875 3.67578125 7.38671875 0.125 7 C-1.64423828 6.82017578 -1.64423828 6.82017578 -3.44921875 6.63671875 C-4.35285156 6.52972656 -5.25648437 6.42273438 -6.1875 6.3125 C-3.90693574 0.38303292 -3.90693574 0.38303292 0 0 Z " fill="#F8F5FA" transform="translate(127.1875,213.6875)"/>
<path d="M0 0 C2.31 0 4.62 0 7 0 C7.52992692 1.45505358 8.0486789 2.91418127 8.5625 4.375 C8.85253906 5.18710938 9.14257812 5.99921875 9.44140625 6.8359375 C10 9 10 9 9 11 C6.69 10.67 4.38 10.34 2 10 C1.34 6.7 0.68 3.4 0 0 Z " fill="#ECE2F2" transform="translate(228,98)"/>
<path d="M0 0 C1.65 0 3.3 0 5 0 C7.39763185 2.39763185 7.34280586 3.33273498 7.625 6.625 C7.69976562 7.44226563 7.77453125 8.25953125 7.8515625 9.1015625 C7.92503906 10.04128906 7.92503906 10.04128906 8 11 C5.36 10.67 2.72 10.34 0 10 C0 6.7 0 3.4 0 0 Z " fill="#ECE2F2" transform="translate(232,110)"/>
<path d="M0 0 C2.31 0 4.62 0 7 0 C7.67154933 1.28913487 8.33708859 2.58140204 9 3.875 C9.37125 4.59429687 9.7425 5.31359375 10.125 6.0546875 C11 8 11 8 11 10 C8.69 10 6.38 10 4 10 C3.32845067 8.71086513 2.66291141 7.41859796 2 6.125 C1.62875 5.40570313 1.2575 4.68640625 0.875 3.9453125 C0 2 0 2 0 0 Z " fill="#ECE2F2" transform="translate(223,86)"/>
<path d="M0 0 C1.8125 1.4375 1.8125 1.4375 3 3 C3 3.66 3 4.32 3 5 C3.66 5 4.32 5 5 5 C5 5.66 5 6.32 5 7 C0.545 7.495 0.545 7.495 -4 8 C-4.45375 7.236875 -4.9075 6.47375 -5.375 5.6875 C-6.53824492 3.76367186 -7.7529415 1.87058776 -9 0 C-5.67255773 -1.10914742 -3.35438475 -1.03211839 0 0 Z " fill="#EFE7F5" transform="translate(217,66)"/>
<path d="M0 0 C1.9375 2.5 1.9375 2.5 3 5 C-1.57906464 7.51109996 -6.04413531 7.26968434 -11 6 C-11.33 5.34 -11.66 4.68 -12 4 C-8.0768229 0.19570706 -5.46444868 -0.91074145 0 0 Z " fill="#F8F5FA" transform="translate(155,241)"/>
<path d="M0 0 C7.26153846 -0.61538462 7.26153846 -0.61538462 11 2.5 C11.66 3.325 12.32 4.15 13 5 C10 7 10 7 6 9 C3.69 7.02 1.38 5.04 -1 3 C-0.67 2.01 -0.34 1.02 0 0 Z " fill="#F7F3FA" transform="translate(157,238)"/>
<path d="M0 0 C1.2684375 0.495 1.2684375 0.495 2.5625 1 C1.0625 3.5625 1.0625 3.5625 -1.4375 6 C-5.19001796 6.41526859 -8.37451172 5.76402283 -11.4375 3.5625 C-12.4375 2 -12.4375 2 -12.4375 0 C-8.41501725 -2.01124138 -4.18016888 -1.21604913 0 0 Z " fill="#EFE7F4" transform="translate(126.4375,232)"/>
<path d="M0 0 C3.73487777 0.4979837 5.81237635 0.87491756 9 3 C8.5 4.875 8.5 4.875 7 7 C2.81388189 8.76112017 -0.63647445 9.31796282 -5 8 C-6.66519519 7.65939189 -8.33157466 7.32441604 -10 7 C-10 6.67 -10 6.34 -10 6 C-5.05 5.67 -0.1 5.34 5 5 C5 4.34 5 3.68 5 3 C1.7 3 -1.6 3 -5 3 C-5 2.67 -5 2.34 -5 2 C-3.35 2 -1.7 2 0 2 C0 1.34 0 0.68 0 0 Z " fill="#E4D6ED" transform="translate(159,148)"/>
<path d="M0 0 C1.37478516 0.01740234 1.37478516 0.01740234 2.77734375 0.03515625 C3.69644531 0.04417969 4.61554688 0.05320312 5.5625 0.0625 C6.27277344 0.07410156 6.98304688 0.08570312 7.71484375 0.09765625 C6.72484375 2.40765625 5.73484375 4.71765625 4.71484375 7.09765625 C1.41484375 7.09765625 -1.88515625 7.09765625 -5.28515625 7.09765625 C-3.06170492 0.13084209 -3.06170492 0.13084209 0 0 Z " fill="#F1EAF6" transform="translate(134.28515625,28.90234375)"/>
<path d="M0 0 C3.14737182 0.69941596 6.02588876 1.76078698 9 3 C8.1875 5.4375 8.1875 5.4375 7 8 C4 9 4 9 1.95703125 8.22265625 C1.24933594 7.83980469 0.54164062 7.45695313 -0.1875 7.0625 C-0.90292969 6.68222656 -1.61835937 6.30195313 -2.35546875 5.91015625 C-2.89816406 5.60980469 -3.44085938 5.30945313 -4 5 C-2.68 3.35 -1.36 1.7 0 0 Z " fill="#F0E8F5" transform="translate(96,214)"/>
<path d="M0 0 C2.0625 1.75 2.0625 1.75 4 4 C4.10446693 7.23847472 2.72556776 8.30961586 0.5625 10.75 C-2 13 -2 13 -4 13 C-5.14507772 7.80310881 -5.14507772 7.80310881 -5 5 C-2.5625 2 -2.5625 2 0 0 Z " fill="#F0E9F5" transform="translate(209,190)"/>
<path d="M0 0 C1.9375 0.6875 1.9375 0.6875 4 2 C5 4.25 5 4.25 5 7 C3.0625 10.3125 3.0625 10.3125 1 13 C-0.65 11.68 -2.3 10.36 -4 9 C-2.94124926 5.59687262 -1.99097846 2.98646769 0 0 Z " fill="#F2EBF6" transform="translate(223,170)"/>
<path d="M0 0 C2.31 0 4.62 0 7 0 C8.32 2.97 9.64 5.94 11 9 C8.36 9 5.72 9 3 9 C0 3.375 0 3.375 0 0 Z " fill="#F1EAF6" transform="translate(39,162)"/>
<path d="M0 0 C1.98 0.66 3.96 1.32 6 2 C6 5.63 6 9.26 6 13 C0.125 11.125 0.125 11.125 -1 10 C-0.91036938 8.30858344 -0.75422324 6.62040398 -0.5625 4.9375 C-0.46066406 4.01839844 -0.35882813 3.09929687 -0.25390625 2.15234375 C-0.17011719 1.44207031 -0.08632812 0.73179687 0 0 Z " fill="#F0E9F5" transform="translate(233,134)"/>
<path d="M0 0 C2.99591579 1.45256523 4.88228767 3.5169804 7.0625 6 C7.0625 6.66 7.0625 7.32 7.0625 8 C1.86560881 9.23316062 1.86560881 9.23316062 -0.9375 9 C-3.23009828 7.23017948 -4.324943 5.46922791 -5.9375 3 C-2.5775 0 -2.5775 0 0 0 Z " fill="#F0E9F5" transform="translate(205.9375,55)"/>
<path d="M0 0 C2.68497945 1.34248973 4.79048772 2.97461374 7 5 C7 5.66 7 6.32 7 7 C4 9 4 9 1.6875 8.875 C-1.65397603 7.78707757 -4.16161441 6.04627798 -7 4 C-2.63636364 0 -2.63636364 0 0 0 Z " fill="#F2EBF6" transform="translate(196,47)"/>
<path d="M0 0 C0.375 3.25 0.375 3.25 0 7 C-4.71794872 11 -4.71794872 11 -8 11 C-10 8 -10 8 -10.0625 6.0625 C-8.24431525 2.53308255 -4.00700767 0 0 0 Z " fill="#F1EAF6" transform="translate(90,40)"/>
<path d="M0 0 C0 2.64 0 5.28 0 8 C-6.625 11 -6.625 11 -10 11 C-10 7.75 -10 7.75 -9 4 C-6.5559516 2.17223104 -3.16061665 0 0 0 Z " fill="#F4EEF7" transform="translate(180,212)"/>
<path d="M0 0 C2.0625 1.75 2.0625 1.75 4 4 C4.10654689 7.30295369 2.70826336 8.31308322 0.4375 10.75 C-0.7690625 11.86375 -0.7690625 11.86375 -2 13 C-3.5625 11.8125 -3.5625 11.8125 -5 10 C-4.88445309 5.60921741 -2.83848733 3.20474376 0 0 Z " fill="#F4EEF7" transform="translate(217,180)"/>
<path d="M0 0 C5.24934383 -0.52493438 5.24934383 -0.52493438 8 0 C12 4.6 12 4.6 12 8 C9.69 8.33 7.38 8.66 5 9 C3.35 6.03 1.7 3.06 0 0 Z " fill="#F2ECF7" transform="translate(44,174)"/>
<path d="M0 0 C4.875 1.875 4.875 1.875 6 3 C6.07205511 4.68608966 6.08386068 6.37500659 6.0625 8.0625 C6.05347656 8.98160156 6.04445313 9.90070313 6.03515625 10.84765625 C6.02355469 11.55792969 6.01195312 12.26820312 6 13 C3.69 12.01 1.38 11.02 -1 10 C-1.125 3.375 -1.125 3.375 0 0 Z " fill="#F2ECF6" transform="translate(34,111)"/>
<path d="M0 0 C1.32 0.99 2.64 1.98 4 3 C3.49287967 6.71888239 2.88391785 9.73454239 1 13 C-0.9375 12.3125 -0.9375 12.3125 -3 11 C-4 8.75 -4 8.75 -4 6 C-2.0625 2.6875 -2.0625 2.6875 0 0 Z " fill="#F4EFF8" transform="translate(49,75)"/>
<path d="M0 0 C0.875 3.1875 0.875 3.1875 1 7 C-0.765088 9.32278681 -2.49169762 10.37698081 -5 12 C-5.66 12 -6.32 12 -7 12 C-7.875 8.8125 -7.875 8.8125 -8 5 C-5.97741469 2.33835679 -3.49138373 0 0 0 Z " fill="#F4EEF7" transform="translate(78,47)"/>
<path d="M0 0 C4.3890815 0.51035831 7.33708062 1.52214277 11 4 C9.3125 6.0625 9.3125 6.0625 7 8 C3.02483548 7.8980727 0.27014594 6.14895305 -3 4 C-2.01 2.68 -1.02 1.36 0 0 Z " fill="#F2ECF6" transform="translate(182,41)"/>
<path d="M0 0 C0 2.31 0 4.62 0 7 C-4.455 8.485 -4.455 8.485 -9 10 C-9.33 8.02 -9.66 6.04 -10 4 C-3.375 0 -3.375 0 0 0 Z " fill="#F3ECF7" transform="translate(102,35)"/>
<path d="M0 0 C1.49080078 0.02707031 1.49080078 0.02707031 3.01171875 0.0546875 C3.77097656 0.07789063 4.53023437 0.10109375 5.3125 0.125 C4.9825 2.105 4.6525 4.085 4.3125 6.125 C2.52043453 5.98415204 0.72885083 5.83716299 -1.0625 5.6875 C-2.06023437 5.60628906 -3.05796875 5.52507812 -4.0859375 5.44140625 C-6.6875 5.125 -6.6875 5.125 -8.6875 4.125 C-8.6875 3.465 -8.6875 2.805 -8.6875 2.125 C-5.26655758 -0.15562828 -4.00562778 -0.09425007 0 0 Z " fill="#F5F1F8" transform="translate(123.6875,222.875)"/>
<path d="M0 0 C1.97848472 1.84910152 3.39119162 3.79363422 5 6 C1.72942857 8.18038095 0.79480531 8.63246755 -3 8 C-5.8125 5.625 -5.8125 5.625 -8 3 C-8 2.34 -8 1.68 -8 1 C-4.87910113 -0.04029962 -3.23374059 -0.53895677 0 0 Z " fill="#F4EEF7" transform="translate(68,194)"/>
<path d="M0 0 C2.3125 3.0625 2.3125 3.0625 4 6 C0.91190305 7.76462683 -0.23312136 8 -4 8 C-5.484375 6.25 -5.484375 6.25 -6.75 4 C-7.17796875 3.2575 -7.6059375 2.515 -8.046875 1.75 C-8.36140625 1.1725 -8.6759375 0.595 -9 0 C-5.56600792 -0.9385275 -3.41676571 -1.28128714 0 0 Z " fill="#F4EFF8" transform="translate(60,185)"/>
<path d="M0 0 C0.66 0 1.32 0 2 0 C2 0.66 2 1.32 2 2 C3.32 2.33 4.64 2.66 6 3 C6.36923077 8.41538462 6.36923077 8.41538462 4.5 11.375 C4.005 11.91125 3.51 12.4475 3 13 C1.68 12.34 0.36 11.68 -1 11 C-1.14285714 3.57142857 -1.14285714 3.57142857 0 0 Z " fill="#F2ECF7" transform="translate(231,146)"/>
<path d="M0 0 C2.31 0.66 4.62 1.32 7 2 C7 5.3 7 8.6 7 12 C4.69 11.34 2.38 10.68 0 10 C0 6.7 0 3.4 0 0 Z " fill="#F8F4FA" transform="translate(233,122)"/>
<path d="M0 0 C2.20970874 2.89548041 3 4.33157745 3 8 C-0.25 8.375 -0.25 8.375 -4 8 C-8 3.28205128 -8 3.28205128 -8 0 C-4.62848454 -1.12383849 -3.31972498 -1.16190374 0 0 Z " fill="#F5EFF8" transform="translate(225,76)"/>
<path d="M0 0 C2.39012264 0.92520876 3.71424753 1.52934887 5.0625 3.75 C4.9586362 7.48909675 2.49204823 9.32560678 0 12 C-1.32 11.01 -2.64 10.02 -4 9 C-3.46930939 5.17902761 -2.50298434 2.93828597 0 0 Z " fill="#F4EEF7" transform="translate(56,65)"/>
<path d="M0 0 C2.56314674 0.87522084 5.07289877 1.80802805 7.5625 2.875 C7.5625 4.875 7.5625 4.875 6.4375 6.5625 C4.5625 7.875 4.5625 7.875 1.6875 7.75 C-1.45723357 6.8694746 -3.743907 5.69713644 -6.4375 3.875 C-3.13548658 -0.16079418 -3.13548658 -0.16079418 0 0 Z " fill="#F4EFF8" transform="translate(86.4375,209.125)"/>
<path d="M0 0 C2 3 2 3 2 5.4375 C0.5783095 9.0805819 -1.64494696 10.1512973 -5 12 C-5.66 12 -6.32 12 -7 12 C-7.4375 8.8125 -7.4375 8.8125 -7 5 C-4.91454966 2.88841619 -2.58793807 1.43260857 0 0 Z " fill="#F5F0F8" transform="translate(190,206)"/>
<path d="M0 0 C2.91035231 0.90082334 5.14730886 2.04272062 7.625 3.8125 C7.625 4.4725 7.625 5.1325 7.625 5.8125 C4.3493083 7.99629446 3.42429471 8.35525639 -0.375 7.8125 C-3.1875 5.9375 -3.1875 5.9375 -5.375 3.8125 C-5.375 3.1525 -5.375 2.4925 -5.375 1.8125 C-2.375 -0.1875 -2.375 -0.1875 0 0 Z " fill="#F5EFF8" transform="translate(75.375,202.1875)"/>
<path d="M0 0 C2.46800047 1.15173355 4.04783565 2.04783565 6 4 C5.63910592 7.48864279 3.8589578 10.09032693 2 13 C0.68 12.01 -0.64 11.02 -2 10 C-1.54177532 6.53058454 -1.10868317 3.32604951 0 0 Z " fill="#F4EEF8" transform="translate(228,158)"/>
<path d="M0 0 C0.66 0 1.32 0 2 0 C2 0.66 2 1.32 2 2 C3.32 2.66 4.64 3.32 6 4 C5.34 6.97 4.68 9.94 4 13 C1.5625 12.1875 1.5625 12.1875 -1 11 C-2.41687119 6.74938644 -1.19320039 4.28148375 0 0 Z " fill="#F2EBF6" transform="translate(37,98)"/>
<path d="M0 0 C2 0 2 0 3.6875 1.625 C5.45201578 4.81793331 4.88583199 6.53049137 4 10 C3.67 10.99 3.34 11.98 3 13 C-1.66550523 11.56445993 -1.66550523 11.56445993 -3 9.3125 C-3 5.74726375 -1.53817147 3.19939665 0 0 Z " fill="#F4EFF8" transform="translate(42,86)"/>
<path d="M0 0 C0.33 0.66 0.66 1.32 1 2 C0.0625 4.625 0.0625 4.625 -1 7 C-5.455 7.495 -5.455 7.495 -10 8 C-10.04254356 6.00045254 -10.04080783 3.99958364 -10 2 C-8.41727399 0.41727399 -6.61965997 0.65264253 -4.4375 0.4375 C-3.19806641 0.31181641 -3.19806641 0.31181641 -1.93359375 0.18359375 C-0.97646484 0.09271484 -0.97646484 0.09271484 0 0 Z " fill="#F4EEF7" transform="translate(127,29)"/>
<path d="M0 0 C0 3.3 0 6.6 0 10 C-0.99 10.33 -1.98 10.66 -3 11 C-5.6875 9.5625 -5.6875 9.5625 -8 8 C-7.8125 5.125 -7.8125 5.125 -7 2 C-4.52409924 0.60333803 -2.83735815 0 0 0 Z " fill="#F5F0F8" transform="translate(169,226)"/>
<path d="M0 0 C2 3 2 3 2 7 C0.25 8.484375 0.25 8.484375 -2 9.75 C-3.11375 10.39195312 -3.11375 10.39195312 -4.25 11.046875 C-5.11625 11.51867187 -5.11625 11.51867187 -6 12 C-7.13664596 6.75394171 -7.13664596 6.75394171 -7 4 C-3.3 0 -3.3 0 0 0 Z " fill="#F7F2F9" transform="translate(201,199)"/>
<path d="M0 0 C2.97 0.99 5.94 1.98 9 3 C7 7 7 7 4.75 7.875 C1.43317981 8.02576455 -0.93301112 7.21253049 -4 6 C-2.84826645 3.53199953 -1.95216435 1.95216435 0 0 Z " fill="#F6F1F9" transform="translate(171,35)"/>
<path d="M0 0 C1.45922693 0.11409593 2.91740598 0.24165544 4.375 0.375 C5.59316406 0.47941406 5.59316406 0.47941406 6.8359375 0.5859375 C9 1 9 1 11 3 C10.0625 5.0625 10.0625 5.0625 8 7 C4.91119814 7.16139685 1.97726506 6.84217458 -1 6 C-1.33 5.34 -1.66 4.68 -2 4 C-1.0625 1.875 -1.0625 1.875 0 0 Z " fill="#F5F0F8" transform="translate(157,32)"/>
<path d="M0 0 C3.63 0 7.26 0 11 0 C9 5 9 5 8 6 C6.31391034 6.07205511 4.62499341 6.08386068 2.9375 6.0625 C2.01839844 6.05347656 1.09929687 6.04445313 0.15234375 6.03515625 C-0.55792969 6.02355469 -1.26820313 6.01195312 -2 6 C-1.34 4.02 -0.68 2.04 0 0 Z " fill="#F5F1F8" transform="translate(144,30)"/>
<path d="M0 0 C0 1.98 0 3.96 0 6 C-4.95 7.485 -4.95 7.485 -10 9 C-10 7.02 -10 5.04 -10 3 C-6.27034861 0.96564469 -4.33094958 0 0 0 Z " fill="#F6F2F9" transform="translate(114,32)"/>
<path d="M0 0 C2.64 0 5.28 0 8 0 C8.33 2.97 8.66 5.94 9 9 C7.02 9 5.04 9 3 9 C2.01 6.03 1.02 3.06 0 0 Z " fill="#F5EFF8" transform="translate(35,150)"/>
<path d="M0 0 C1.5625 1.1875 1.5625 1.1875 3 3 C2.9142619 6.34378596 2.21705287 7.7409369 0.0625 10.3125 C-2 12 -2 12 -4 12 C-6 9 -6 9 -5.9375 7.125 C-4.59492632 4.08183299 -2.41929099 2.23319168 0 0 Z " fill="#F9F7FB" transform="translate(66,55)"/>
<path d="M0 0 C2.31 0.66 4.62 1.32 7 2 C7.33 4.97 7.66 7.94 8 11 C5.69 10.34 3.38 9.68 1 9 C0.67 6.03 0.34 3.06 0 0 Z " fill="#F8F5FA" transform="translate(33,137)"/>
<path d="M0 0 C1.98 0.66 3.96 1.32 6 2 C6 4.97 6 7.94 6 11 C4.33388095 11.042721 2.66617115 11.04063832 1 11 C0 10 0 10 -0.09765625 7.71484375 C-0.08605469 6.79832031 -0.07445312 5.88179687 -0.0625 4.9375 C-0.05347656 4.01839844 -0.04445312 3.09929687 -0.03515625 2.15234375 C-0.02355469 1.44207031 -0.01195312 0.73179688 0 0 Z " fill="#F9F6FB" transform="translate(33,124)"/>
<path d="M0 0 C-0.875 4.875 -0.875 4.875 -2 6 C-4.8125 6.3125 -4.8125 6.3125 -8 6 C-10.375 4 -10.375 4 -12 2 C-7.82262526 0.40861915 -4.46839215 -0.21278058 0 0 Z " fill="#F3EDF7" transform="translate(123,241)"/>
<path d="M0 0 C1.12775345 0.00212242 1.12775345 0.00212242 2.27828979 0.00428772 C4.6829626 0.0098916 7.08754277 0.02244468 9.4921875 0.03515625 C11.12109241 0.04017075 12.74999877 0.04473375 14.37890625 0.04882812 C18.37503577 0.05986228 22.37109592 0.07712946 26.3671875 0.09765625 C26.3671875 0.42765625 26.3671875 0.75765625 26.3671875 1.09765625 C16.4671875 1.09765625 6.5671875 1.09765625 -3.6328125 1.09765625 C-3.6328125 1.75765625 -3.6328125 2.41765625 -3.6328125 3.09765625 C-2.6428125 3.09765625 -1.6528125 3.09765625 -0.6328125 3.09765625 C-0.9628125 4.08765625 -1.2928125 5.07765625 -1.6328125 6.09765625 C-1.6328125 5.43765625 -1.6328125 4.77765625 -1.6328125 4.09765625 C-4.2728125 3.76765625 -6.9128125 3.43765625 -9.6328125 3.09765625 C-9.6328125 2.43765625 -9.6328125 1.77765625 -9.6328125 1.09765625 C-6.56686656 -0.43531672 -3.36169397 -0.0236583 0 0 Z " fill="#9B66BD" transform="translate(122.6328125,156.90234375)"/>
<path d="M0 0 C2.03257174 0.85236879 3.9945659 1.77164244 5.9375 2.8125 C3.9575 3.1425 1.9775 3.4725 -0.0625 3.8125 C1.2575 4.4725 2.5775 5.1325 3.9375 5.8125 C0.9375 7.8125 0.9375 7.8125 -2.125 7.6875 C-5.0625 6.8125 -5.0625 6.8125 -6.4375 4.75 C-6.64375 4.110625 -6.85 3.47125 -7.0625 2.8125 C-2.66378617 -0.24216238 -2.66378617 -0.24216238 0 0 Z " fill="#E5D8EE" transform="translate(111.0625,148.1875)"/>
<path d="M0 0 C0.125 2.375 0.125 2.375 0 5 C-2 7 -2 7 -4.1640625 7.1953125 C-5.38222656 7.16050781 -5.38222656 7.16050781 -6.625 7.125 C-7.44226563 7.10695312 -8.25953125 7.08890625 -9.1015625 7.0703125 C-9.72804687 7.04710937 -10.35453125 7.02390625 -11 7 C-11 6.34 -11 5.68 -11 5 C-7.47127722 1.76533745 -4.80292168 0 0 0 Z " fill="#EADFF1" transform="translate(153,223)"/>
<path d="M0 0 C2.64 0.33 5.28 0.66 8 1 C8 1.99 8 2.98 8 4 C2.58461538 7.07692308 2.58461538 7.07692308 -0.375 6.6875 C-0.91125 6.460625 -1.4475 6.23375 -2 6 C-1.34 4.02 -0.68 2.04 0 0 Z " fill="#F2EBF6" transform="translate(126,241)"/>
<path d="M0 0 C1.32 1.65 2.64 3.3 4 5 C3.34 6.32 2.68 7.64 2 9 C-0.31 8.01 -2.62 7.02 -5 6 C-3.63016497 2.83884224 -3.0109362 2.0072908 0 0 Z " fill="#F3EDF7" transform="translate(102,237)"/>
<path d="M0 0 C0 0.33 0 0.66 0 1 C-0.86625 1.20625 -1.7325 1.4125 -2.625 1.625 C-6.76430665 3.31138419 -9.51582516 5.25337565 -12 9 C-12.76272916 11.77174779 -12.89984608 14.09553642 -13 17 C-14.98 17 -16.96 17 -19 17 C-19 16.67 -19 16.34 -19 16 C-17.35 16 -15.7 16 -14 16 C-14.061875 14.783125 -14.12375 13.56625 -14.1875 12.3125 C-14.17360929 8.38142889 -13.57113962 6.10309954 -11 3 C-7.29301459 0.09452495 -4.65754061 -0.32494469 0 0 Z " fill="#8848B1" transform="translate(97,130)"/>
<path d="M0 0 C0.99 0.33 1.98 0.66 3 1 C3 1.99 3 2.98 3 4 C5.97 4 8.94 4 12 4 C12 4.33 12 4.66 12 5 C10.02 5.33 8.04 5.66 6 6 C6 6.33 6 6.66 6 7 C2.7 7.66 -0.6 8.32 -4 9 C-3.34 8.01 -2.68 7.02 -2 6 C-1.34 6 -0.68 6 0 6 C0 4.02 0 2.04 0 0 Z " fill="#8747B0" transform="translate(118,216)"/>
<path d="M0 0 C2.64 0.33 5.28 0.66 8 1 C8 1.33 8 1.66 8 2 C6.865625 2.12375 5.73125 2.2475 4.5625 2.375 C2.7990625 2.684375 2.7990625 2.684375 1 3 C0.67 3.66 0.34 4.32 0 5 C1.32 5.66 2.64 6.32 4 7 C3.01 7.66 2.02 8.32 1 9 C0.34 7.68 -0.32 6.36 -1 5 C-3.31 5 -5.62 5 -8 5 C-8 4.67 -8 4.34 -8 4 C-7.05125 3.896875 -6.1025 3.79375 -5.125 3.6875 C-1.70892499 3.31460705 -1.70892499 3.31460705 0 0 Z " fill="#8747B0" transform="translate(156,236)"/>
<path d="M0 0 C1.93938819 2.90908228 2.96774957 5.40862379 4.125 8.6875 C4.47820312 9.68136719 4.83140625 10.67523438 5.1953125 11.69921875 C5.46085938 12.45847656 5.72640625 13.21773437 6 14 C5.01 14.33 4.02 14.66 3 15 C-1.46015566 7.6302149 -1.46015566 7.6302149 -0.75 3 C-0.5025 2.01 -0.255 1.02 0 0 Z " fill="#8341AE" transform="translate(151,163)"/>
<path d="M0 0 C0.33 0 0.66 0 1 0 C1.22162329 1.62324086 1.42689803 3.248721 1.625 4.875 C1.74101563 5.77992188 1.85703125 6.68484375 1.9765625 7.6171875 C1.98429687 8.40351563 1.99203125 9.18984375 2 10 C1.34 10.66 0.68 11.32 0 12 C-3.625 11.625 -3.625 11.625 -7 11 C-7 10.34 -7 9.68 -7 9 C-3.535 8.505 -3.535 8.505 0 8 C0 5.36 0 2.72 0 0 Z " fill="#8F53B5" transform="translate(39,127)"/>
<path d="M0 0 C1.98 0 3.96 0 6 0 C6 0.99 6 1.98 6 3 C3 5 3 5 0.8125 4.625 C0.214375 4.41875 -0.38375 4.2125 -1 4 C-0.67 2.68 -0.34 1.36 0 0 Z " fill="#EAE0F1" transform="translate(167,247)"/>
<path d="M0 0 C0.66 0.33 1.32 0.66 2 1 C2 1.99 2 2.98 2 4 C1.21625 4.12375 0.4325 4.2475 -0.375 4.375 C-3.14057822 4.79117993 -3.14057822 4.79117993 -5 7 C-5.99 6.34 -6.98 5.68 -8 5 C-6.35197949 1.70395897 -3.32254422 1.22409524 0 0 Z " fill="#813EAC" transform="translate(170,243)"/>
<path d="M0 0 C4.18089978 5.05192057 3 10.66574537 3 17 C2.67 17 2.34 17 2 17 C2 14.03 2 11.06 2 8 C0.68 8.33 -0.64 8.66 -2 9 C-2.66 8.34 -3.32 7.68 -4 7 C-3.01 6.67 -2.02 6.34 -1 6 C-0.67 4.02 -0.34 2.04 0 0 Z " fill="#9054B6" transform="translate(167,218)"/>
<path d="M0 0 C0.33 0 0.66 0 1 0 C1 1.65 1 3.3 1 5 C4.3 5 7.6 5 11 5 C11 5.33 11 5.66 11 6 C5.06 6.33 -0.88 6.66 -7 7 C-7 6.67 -7 6.34 -7 6 C-5.35 6 -3.7 6 -2 6 C-1.855625 5.38125 -1.71125 4.7625 -1.5625 4.125 C-1 2 -1 2 0 0 Z " fill="#8442AE" transform="translate(123,138)"/>
<path d="M0 0 C2.475 0.99 2.475 0.99 5 2 C2.6875 4.5 2.6875 4.5 0 7 C-3 7 -3 7 -6 5 C-5.195625 4.54625 -4.39125 4.0925 -3.5625 3.625 C-0.91143428 2.25274335 -0.91143428 2.25274335 0 0 Z " fill="#8340AD" transform="translate(180,38)"/>
<path d="M0 0 C1.4606285 2.64738916 2 3.89448334 2 7 C2.66 7.33 3.32 7.66 4 8 C2.02 8.99 2.02 8.99 0 10 C-0.99 7.36 -1.98 4.72 -3 2 C-2.34 2 -1.68 2 -1 2 C-0.67 1.34 -0.34 0.68 0 0 Z M-2 10 C-1.34 10.33 -0.68 10.66 0 11 C-0.99 11 -1.98 11 -3 11 C-2.67 10.67 -2.34 10.34 -2 10 Z " fill="#8340AD" transform="translate(203,196)"/>
<path d="M0 0 C0.99 0.33 1.98 0.66 3 1 C1.95125002 3.62187494 1.35068687 4.79371361 -1.125 6.25 C-1.74375 6.4975 -2.3625 6.745 -3 7 C-3.33 5.68 -3.66 4.36 -4 3 C-2.1875 1.4375 -2.1875 1.4375 0 0 Z " fill="#ECE2F2" transform="translate(176,252)"/>
<path d="M0 0 C5.75 -0.125 5.75 -0.125 8 1 C7.34 2.32 6.68 3.64 6 5 C3.5625 4.1875 3.5625 4.1875 1 3 C0.67 2.01 0.34 1.02 0 0 Z " fill="#F0E9F5" transform="translate(93,246)"/>
<path d="M0 0 C1.65 1.32 3.3 2.64 5 4 C4.67 4.99 4.34 5.98 4 7 C1.37812506 5.95125002 0.20628639 5.35068687 -1.25 2.875 C-1.4975 2.25625 -1.745 1.6375 -2 1 C-1.34 0.67 -0.68 0.34 0 0 Z " fill="#EDE4F3" transform="translate(89,250)"/>
<path d="M0 0 C2.31 1.65 4.62 3.3 7 5 C6.01 5.495 6.01 5.495 5 6 C5 6.66 5 7.32 5 8 C2.4636387 6.98545548 1.20648539 6.3146444 -0.3125 4 C-0.539375 3.34 -0.76625 2.68 -1 2 C-0.67 1.34 -0.34 0.68 0 0 Z " fill="#945BB8" transform="translate(92,246)"/>
<path d="M0 0 C1.4540625 0.0309375 1.4540625 0.0309375 2.9375 0.0625 C2.6075 2.7025 2.2775 5.3425 1.9375 8.0625 C0.9475 7.7325 -0.0425 7.4025 -1.0625 7.0625 C-1.65044996 5.35210011 -2.0625 3.87772119 -2.0625 2.0625 C-2.7225 1.7325 -3.3825 1.4025 -4.0625 1.0625 C-3.0625 0.0625 -3.0625 0.0625 0 0 Z " fill="#8544AF" transform="translate(154.0625,218.9375)"/>
<path d="M0 0 C0.33 0 0.66 0 1 0 C1 2.64 1 5.28 1 8 C0.01 7.67 -0.98 7.34 -2 7 C-3.39439664 6.93334624 -4.79169875 6.91461801 -6.1875 6.9375 C-7.445625 6.958125 -8.70375 6.97875 -10 7 C-10 6.67 -10 6.34 -10 6 C-8.906875 5.938125 -7.81375 5.87625 -6.6875 5.8125 C-2.85481593 5.39401189 -2.85481593 5.39401189 -1.125 2.4375 C-0.75375 1.633125 -0.3825 0.82875 0 0 Z " fill="#894AB2" transform="translate(155,30)"/>
<path d="M0 0 C0.33 0 0.66 0 1 0 C2.25 7.625 2.25 7.625 0 11 C-0.66 10.67 -1.32 10.34 -2 10 C-2.25 3.375 -2.25 3.375 0 0 Z " fill="#894AB1" transform="translate(193,203)"/>
<path d="M0 0 C3.3 0.99 6.6 1.98 10 3 C9.01 4.485 9.01 4.485 8 6 C6 5 6 5 3 3 C1.34450469 2.61500109 -0.3222433 2.27206865 -2 2 C-1.34 1.34 -0.68 0.68 0 0 Z " fill="#813DAC" transform="translate(128,239)"/>
<path d="M0 0 C1.65 0.33 3.3 0.66 5 1 C3.70700306 3.88437779 2.34058637 5.87219421 0 8 C-0.33 7.01 -0.66 6.02 -1 5 C-0.34 4.01 0.32 3.02 1 2 C0.67 1.34 0.34 0.68 0 0 Z " fill="#7D38AA" transform="translate(166,33)"/>
<path d="M0 0 C0.33 0.66 0.66 1.32 1 2 C1.99 2.33 2.98 2.66 4 3 C0.91440696 5.26881841 -0.42209376 6.05451946 -4.3125 5.6875 C-5.199375 5.460625 -6.08625 5.23375 -7 5 C-4.66785852 3.79371992 -2.50357861 2.8345262 0 2 C0 1.34 0 0.68 0 0 Z " fill="#803CAB" transform="translate(83,206)"/>
<path d="M0 0 C2.97 0.495 2.97 0.495 6 1 C6 1.66 6 2.32 6 3 C2.37 3 -1.26 3 -5 3 C-5 2.67 -5 2.34 -5 2 C-3.35 2 -1.7 2 0 2 C0 1.34 0 0.68 0 0 Z " fill="#DBC8E7" transform="translate(159,148)"/>
<path d="M0 0 C1.32 0.66 2.64 1.32 4 2 C1.03 2.66 -1.94 3.32 -5 4 C-5.33 2.68 -5.66 1.36 -6 0 C-3.44901433 -1.27549283 -2.66705587 -0.86287102 0 0 Z " fill="#CAAEDC" transform="translate(113,149)"/>
<path d="M0 0 C3.68754757 0.49831724 5.60490662 1.10067643 8 4 C7.34 4 6.68 4 6 4 C5.67 5.32 5.34 6.64 5 8 C2 3.25 2 3.25 2 1 C1.34 0.67 0.68 0.34 0 0 Z " fill="#823FAD" transform="translate(42,85)"/>
<path d="M0 0 C1.32 0.66 2.64 1.32 4 2 C2.25 3.5625 2.25 3.5625 0 5 C-2.25 4.6875 -2.25 4.6875 -4 4 C-2.68 2.68 -1.36 1.36 0 0 Z " fill="#A16FC1" transform="translate(174,250)"/>
<path d="M0 0 C0.99 1.32 1.98 2.64 3 4 C1.865625 4.12375 0.73125 4.2475 -0.4375 4.375 C-2.2009375 4.684375 -2.2009375 4.684375 -4 5 C-4.33 5.66 -4.66 6.32 -5 7 C-4.75 4.625 -4.75 4.625 -4 2 C-1.9375 0.6875 -1.9375 0.6875 0 0 Z " fill="#8B4CB3" transform="translate(64,190)"/>
<path d="M0 0 C0.33 0 0.66 0 1 0 C1.042721 1.66611905 1.04063832 3.33382885 1 5 C0.67 5.33 0.34 5.66 0 6 C-0.36760731 8.32817964 -0.70241581 10.6618385 -1 13 C-1.33 13 -1.66 13 -2 13 C-2.05447047 11.58376784 -2.09300508 10.16691809 -2.125 8.75 C-2.14820313 7.96109375 -2.17140625 7.1721875 -2.1953125 6.359375 C-1.9828378 3.79268059 -1.28654105 2.2083933 0 0 Z " fill="#69199D" transform="translate(151,131)"/>
<path d="M0 0 C4 4.625 4 4.625 4 8 C2.68 7.34 1.36 6.68 0 6 C0 4.02 0 2.04 0 0 Z " fill="#7A32A7" transform="translate(106,222)"/>
<path d="M0 0 C0.33 0.99 0.66 1.98 1 3 C-2.465 4.485 -2.465 4.485 -6 6 C-6 5.01 -6 4.02 -6 3 C-4.02 2.67 -2.04 2.34 0 2 C0 1.34 0 0.68 0 0 Z " fill="#7830A6" transform="translate(163,215)"/>
</svg>
