<?xml version="1.0" encoding="UTF-8"?>
<svg version="1.1" xmlns="http://www.w3.org/2000/svg" width="221" height="76">
<path d="M0 0 C72.93 0 145.86 0 221 0 C221 25.08 221 50.16 221 76 C148.07 76 75.14 76 0 76 C0 50.92 0 25.84 0 0 Z " fill="#7617DD" transform="translate(0,0)"/>
<path d="M0 0 C3.77931616 2.07491867 6.95588415 4.13889228 9 8 C9.59393392 11.90299432 9.17095867 13.67707807 7.3125 17.1875 C4.02118516 21.19045048 1.74985643 22.70835726 -3.375 23.5625 C-7.55641377 22.91365993 -9.63415515 21.86656101 -12.66796875 18.9765625 C-14.78639253 15.83309495 -14.82956481 13.12237165 -14.56640625 9.41015625 C-13.64027682 5.46931585 -11.98805451 3.71009596 -9 1 C-5.64870516 -0.11709828 -3.51689744 -0.34479387 0 0 Z " fill="#F6F0FD" transform="translate(70,27)"/>
<path d="M0 0 C3.5625 1.5 3.5625 1.5 6 3 C5.34 4.65 4.68 6.3 4 8 C0.37 7.34 -3.26 6.68 -7 6 C-7 7.32 -7 8.64 -7 10 C-6.24074219 10.18175781 -5.48148438 10.36351562 -4.69921875 10.55078125 C-3.70535156 10.80214844 -2.71148437 11.05351563 -1.6875 11.3125 C-0.70136719 11.55613281 0.28476562 11.79976562 1.30078125 12.05078125 C4.05637058 13.01982352 5.31553008 13.64174211 7 16 C7.77333333 22.96 7.77333333 22.96 5.1875 26.4375 C1.13605364 29.33139025 -3.16341037 29.6795938 -8 29 C-10.57660544 27.89089728 -12.64972981 26.56684679 -15 25 C-14.34 23.68 -13.68 22.36 -13 21 C-9 21 -9 21 -7 22 C-4.6670134 22.04022391 -2.33293334 22.04320247 0 22 C0 21.01 0 20.02 0 19 C-1.01320313 18.76216797 -1.01320313 18.76216797 -2.046875 18.51953125 C-6.25683182 17.41837202 -9.32029322 16.5987893 -12.625 13.6875 C-14.31625368 10.38186781 -14.68653822 8.66153717 -14 5 C-10.2532402 -0.55970809 -6.23516226 -1.05013259 0 0 Z " fill="#F5EFFC" transform="translate(25,21)"/>
<path d="M0 0 C11.88 0 23.76 0 36 0 C36 1.32 36 2.64 36 4 C30.06 4.495 30.06 4.495 24 5 C24.99 7.64 25.98 10.28 27 13 C22 19.57142857 22 19.57142857 17 21 C14.36 18.69 11.72 16.38 9 14 C10 10 10 10 12 5 C8.04 4.67 4.08 4.34 0 4 C0 2.68 0 1.36 0 0 Z " fill="#8632E1" transform="translate(161,37)"/>
<path d="M0 0 C3.41889073 1.46523889 5.8141602 2.95543743 8 6 C9.22175273 14.41651878 6.00642371 21.25845894 3 29 C8.28 29.33 13.56 29.66 19 30 C19 30.33 19 30.66 19 31 C7.12 31 -4.76 31 -17 31 C-17 30.67 -17 30.34 -17 30 C-16.16855469 29.93941406 -15.33710938 29.87882812 -14.48046875 29.81640625 C-12.85044922 29.69072266 -12.85044922 29.69072266 -11.1875 29.5625 C-10.10855469 29.48128906 -9.02960938 29.40007813 -7.91796875 29.31640625 C-4.94010095 29.09787539 -4.94010095 29.09787539 -2 28 C-3.80493411 21.53976193 -3.80493411 21.53976193 -6.25 15.3125 C-7.3900674 11.79729218 -6.99455739 9.54311071 -6 6 C-4.16904165 3.6872105 -2.24035784 1.95435471 0 0 Z " fill="#7C21DF" transform="translate(178,6)"/>
<path d="M0 0 C1.98 0 3.96 0 6 0 C6.33 4.62 6.66 9.24 7 14 C8.65 14.33 10.3 14.66 12 15 C12.33 10.05 12.66 5.1 13 0 C14.98 0 16.96 0 19 0 C19 6.93 19 13.86 19 21 C17.35 21 15.7 21 14 21 C14 20.34 14 19.68 14 19 C13.46375 19.495 12.9275 19.99 12.375 20.5 C9.27859404 22.45562482 7.60146865 22.60024477 4 22 C1.66993957 19.87528662 0.18660893 18.1748921 -0.31835938 14.99560547 C-0.39323265 12.71348841 -0.3494253 10.46854583 -0.25 8.1875 C-0.23195313 7.39923828 -0.21390625 6.61097656 -0.1953125 5.79882812 C-0.14844048 3.86535739 -0.0767041 1.93251715 0 0 Z " fill="#F9F5FD" transform="translate(81,28)"/>
<path d="M0 0 C2.4375 1.0625 2.4375 1.0625 4 2 C3.34 3.32 2.68 4.64 2 6 C-0.64 5.67 -3.28 5.34 -6 5 C-4.39161707 8.21676586 -1.21406721 8.64670854 2 10 C4 12 4 12 4.4375 14.875 C4 18 4 18 1.9375 20.375 C-1.73031728 22.4040053 -3.85916073 22.51760491 -8 22 C-10.9375 20.5 -10.9375 20.5 -13 19 C-12.34 17.35 -11.68 15.7 -11 14 C-8.03 14.99 -5.06 15.98 -2 17 C-2 16.01 -2 15.02 -2 14 C-2.9075 13.9175 -3.815 13.835 -4.75 13.75 C-8.49841035 12.88498223 -9.79943285 12.13157632 -12 9 C-12.5625 6 -12.5625 6 -12 3 C-8.22757762 -1.45831736 -5.4717893 -1.3928191 0 0 Z " fill="#F4EDFC" transform="translate(131,28)"/>
<path d="M0 0 C2.3125 2.125 2.3125 2.125 5 5 C5.928125 5.928125 6.85625 6.85625 7.8125 7.8125 C10.02150339 11.03133351 10.67679013 12.88921388 10.4375 16.78515625 C9.7513477 20.25880228 8.42351983 23.38652769 6.97265625 26.60546875 C5.97408421 29.06380071 5.44056496 31.38907295 5 34 C3.68 34 2.36 34 1 34 C2.71212794 25.63971568 2.71212794 25.63971568 4.125 22.5 C5.46535968 18.6704009 5.74478579 14.99870427 5 11 C2.68743996 7.93275543 2.68743996 7.93275543 0 6 C-3.83275898 7.50572674 -5.91482075 9.44747239 -8 13 C-7.92858641 17.42764285 -7.25235797 20.68259707 -5.4375 24.6875 C-4.0695128 27.83981832 -3.69395908 29.63354985 -4 33 C-4.99 33 -5.98 33 -7 33 C-13.25887669 17.08457069 -13.25887669 17.08457069 -12 11 C-9.95446958 8.01037861 -7.60026663 5.51117826 -5 3 C-4.20529297 2.14341797 -4.20529297 2.14341797 -3.39453125 1.26953125 C-2 0 -2 0 0 0 Z " fill="#EDE1FB" transform="translate(180,1)"/>
<path d="M0 0 C2.9375 1.5 2.9375 1.5 5 3 C3.25 6.875 3.25 6.875 1 8 C-1.33414529 7.67240066 -3.66752239 7.33926947 -6 7 C-7.40432936 8.17718985 -7.40432936 8.17718985 -7.125 11.5 C-7.40432936 14.82281015 -7.40432936 14.82281015 -6 16 C-4.48071962 16.07179964 -2.95832518 16.08392007 -1.4375 16.0625 C-0.61121094 16.05347656 0.21507812 16.04445313 1.06640625 16.03515625 C1.70449219 16.02355469 2.34257813 16.01195313 3 16 C3.66 17.32 4.32 18.64 5 20 C0.89793387 22.98332082 -1.95785725 23.78240146 -7 23 C-10.09298607 21.5168137 -12.11378361 19.87606755 -14 17 C-15.00825421 13.11101949 -15.00825421 9.88898051 -14 6 C-10.55171139 0.74211387 -6.22068658 -1.0367811 0 0 Z " fill="#F5EFFD" transform="translate(49,27)"/>
<path d="M0 0 C0.66 0 1.32 0 2 0 C2.66 1.98 3.32 3.96 4 6 C3.01 6 2.02 6 1 6 C0.15901344 10.01804691 -0.05404945 13.01803543 1 17 C0.34 17 -0.32 17 -1 17 C-1 15.68 -1 14.36 -1 13 C-2.32 13 -3.64 13 -5 13 C-5 14.65 -5 16.3 -5 18 C-5.66 18 -6.32 18 -7 18 C-7 16.02 -7 14.04 -7 12 C-9.475 11.505 -9.475 11.505 -12 11 C-11.34 13.64 -10.68 16.28 -10 19 C-11.32 18.34 -12.64 17.68 -14 17 C-14 15.68 -14 14.36 -14 13 C-15.65 13.33 -17.3 13.66 -19 14 C-19.33 15.32 -19.66 16.64 -20 18 C-20.99 17.67 -21.98 17.34 -23 17 C-22.34 17 -21.68 17 -21 17 C-20.4465236 14.92446352 -20 13.15634036 -20 11 C-20.61875 11.495 -21.2375 11.99 -21.875 12.5 C-24 14 -24 14 -26 14 C-24.27592413 9.61144323 -21.17026127 7.08513063 -17 5 C-13.72211483 4.80120643 -10.44616338 4.68164643 -7.1640625 4.57421875 C-3.46269266 3.90248867 -2.42161086 2.76992475 0 0 Z " fill="#EFE7F9" transform="translate(146,53)"/>
<path d="M0 0 C1.98 0 3.96 0 6 0 C6 1.98 6 3.96 6 6 C7.65 6 9.3 6 11 6 C11 7.65 11 9.3 11 11 C9.35 11 7.7 11 6 11 C6 14.63 6 18.26 6 22 C7.65 22 9.3 22 11 22 C11 23.65 11 25.3 11 27 C8.20129973 28.39935013 6.09501208 28.25265405 3 28 C1.3269043 26.84448242 1.3269043 26.84448242 0 25 C-0.34057617 22.36450195 -0.34057617 22.36450195 -0.29296875 19.23828125 C-0.28330078 18.12001953 -0.27363281 17.00175781 -0.26367188 15.84960938 C-0.23853516 14.68236328 -0.21339844 13.51511719 -0.1875 12.3125 C-0.17396484 11.13365234 -0.16042969 9.95480469 -0.14648438 8.74023438 C-0.11109326 5.82636589 -0.06171809 2.91341055 0 0 Z " fill="#F9F6FD" transform="translate(104,22)"/>
<path d="M0 0 C0.99 0 1.98 0 3 0 C2.773125 1.093125 2.54625 2.18625 2.3125 3.3125 C1.59853617 6.90531273 1.59853617 6.90531273 3.4375 8.9375 C3.953125 9.288125 4.46875 9.63875 5 10 C8.12197478 8.6910428 8.12197478 8.6910428 10 6 C9.71887936 3.99199544 9.38932033 1.98985949 9 0 C9.99 0 10.98 0 12 0 C12.99 2.31 13.98 4.62 15 7 C10 13.57142857 10 13.57142857 5 15 C2.36 12.69 -0.28 10.38 -3 8 C-2.22404875 4.89619499 -1.4731994 2.74997221 0 0 Z " fill="#F1E8FC" transform="translate(173,43)"/>
<path d="M0 0 C4.15697978 0.80457673 5.95456512 1.74106709 8.875 4.75 C10.22939668 7.45879335 9.94001451 9.75933268 9.875 12.75 C8 12.625 8 12.625 5.875 11.75 C4.6875 8.75 4.6875 8.75 3.875 5.75 C2.72665792 4.37992257 2.72665792 4.37992257 -0.375 4.5625 C-4.19681184 5.3493378 -4.19681184 5.3493378 -5.69921875 8.046875 C-6.94924867 10.58275231 -8.08918346 13.11988518 -9.125 15.75 C-10.115 15.75 -11.105 15.75 -12.125 15.75 C-12.0023796 9.86422079 -10.20686947 6.58015971 -6.16015625 2.30078125 C-3.94210078 0.6106315 -2.75969725 0.14138866 0 0 Z " fill="#EADCFA" transform="translate(200.125,18.25)"/>
<path d="M0 0 C4.22962236 0.32042594 6.63061697 2.23889377 9.6796875 5.046875 C12.63649416 8.53111203 13.37727982 11.20896328 13.125 15.75 C12.135 15.75 11.145 15.75 10.125 15.75 C9.45345067 14.46086513 8.78791141 13.16859796 8.125 11.875 C7.75375 11.15570313 7.3825 10.43640625 7 9.6953125 C6.125 7.75 6.125 7.75 6.125 5.75 C3.485 5.42 0.845 5.09 -1.875 4.75 C-3.88636276 7.30991624 -5.50345496 9.79590299 -6.875 12.75 C-7.535 12.75 -8.195 12.75 -8.875 12.75 C-9.35904486 8.68402319 -8.9941537 6.95107187 -6.875 3.375 C-3.875 0.75 -3.875 0.75 0 0 Z " fill="#F0E6FC" transform="translate(156.875,18.25)"/>
<path d="M0 0 C11.88 0 23.76 0 36 0 C36 0.99 36 1.98 36 3 C24.12 3 12.24 3 0 3 C0 2.01 0 1.02 0 0 Z " fill="#F9F5FE" transform="translate(161,37)"/>
<path d="M0 0 C3 0.25 3 0.25 5 2.25 C5.25 5.75 5.25 5.75 5 9.25 C3 11.25 3 11.25 0 11.5 C-3 11.25 -3 11.25 -5 9.25 C-5.25 5.75 -5.25 5.75 -5 2.25 C-3 0.25 -3 0.25 0 0 Z " fill="#7A1FDE" transform="translate(67,32.75)"/>
<path d="M0 0 C1.67004829 0.31595508 3.33637583 0.65179959 5 1 C7.63804589 0.60602665 7.63804589 0.60602665 10 0 C10.66 0 11.32 0 12 0 C12 0.66 12 1.32 12 2 C11.01 2.495 11.01 2.495 10 3 C9.34444881 5.52733235 9.34444881 5.52733235 9 8 C8.01 8 7.02 8 6 8 C6 7.01 6 6.02 6 5 C5.01 5.33 4.02 5.66 3 6 C3.66 6 4.32 6 5 6 C4.67 6.99 4.34 7.98 4 9 C-0.875 8.125 -0.875 8.125 -2 7 C-2.1875 4.5625 -2.1875 4.5625 -2 2 C-1.34 1.34 -0.68 0.68 0 0 Z " fill="#BA8AEF" transform="translate(65,63)"/>
<path d="M0 0 C0.33 0 0.66 0 1 0 C1.16435547 0.96099609 1.16435547 0.96099609 1.33203125 1.94140625 C2.09291901 6.09226548 2.83273201 9.97313918 4.625 13.8125 C5.95241613 16.88969194 6.29925908 18.70815015 6 22 C5.01 22 4.02 22 3 22 C0.0013479 14.9585223 -1.96830363 8.71468134 -1 1 C-0.67 0.67 -0.34 0.34 0 0 Z " fill="#F5EFFD" transform="translate(170,12)"/>
<path d="M0 0 C0.99 0 1.98 0 3 0 C3 0.99 3 1.98 3 3 C4.65 3.33 6.3 3.66 8 4 C8 6.31 8 8.62 8 11 C7.01 11 6.02 11 5 11 C5 9.02 5 7.04 5 5 C4.34 5 3.68 5 3 5 C3 7.31 3 9.62 3 12 C2.01 12 1.02 12 0 12 C0 8.04 0 4.08 0 0 Z " fill="#E5D4F9" transform="translate(86,60)"/>
<path d="M0 0 C-0.86625 0.61875 -0.86625 0.61875 -1.75 1.25 C-6.64939366 5.06063951 -8.79716404 8.27262652 -11 14 C-11.99 14 -12.98 14 -14 14 C-13.63126118 7.85435306 -12.22746623 5.22746623 -8 1 C-5.07175348 0.02391783 -3.04386724 -0.08226668 0 0 Z " fill="#F1E7FC" transform="translate(202,20)"/>
<path d="M0 0 C2.625 0.375 2.625 0.375 5 1 C5.93065133 3.60582371 6.14917407 4.64198224 5.0625 7.25 C4.711875 7.8275 4.36125 8.405 4 9 C-0.875 8.125 -0.875 8.125 -2 7 C-2.1875 4.5625 -2.1875 4.5625 -2 2 C-1.34 1.34 -0.68 0.68 0 0 Z " fill="#DFC8F7" transform="translate(108,63)"/>
<path d="M0 0 C2.625 0.375 2.625 0.375 5 1 C5.93065133 3.60582371 6.14917407 4.64198224 5.0625 7.25 C4.711875 7.8275 4.36125 8.405 4 9 C-0.875 8.125 -0.875 8.125 -2 7 C-2.1875 4.5625 -2.1875 4.5625 -2 2 C-1.34 1.34 -0.68 0.68 0 0 Z " fill="#E0CAF8" transform="translate(42,63)"/>
<path d="M0 0 C2.625 0.375 2.625 0.375 5 1 C5.93065133 3.60582371 6.14917407 4.64198224 5.0625 7.25 C4.711875 7.8275 4.36125 8.405 4 9 C2.35 8.67 0.7 8.34 -1 8 C-1.625 5.125 -1.625 5.125 -2 2 C-1.34 1.34 -0.68 0.68 0 0 Z " fill="#D5B8F5" transform="translate(21,63)"/>
<path d="M0 0 C0.99 0 1.98 0 3 0 C3 2.97 3 5.94 3 9 C4.65 9 6.3 9 8 9 C8 9.99 8 10.98 8 12 C5.36 12 2.72 12 0 12 C0 8.04 0 4.08 0 0 Z " fill="#DFCAF8" transform="translate(10,60)"/>
<path d="M0 0 C1.65 0.33 3.3 0.66 5 1 C4.67 1.66 4.34 2.32 4 3 C4.89163577 5.11683841 4.89163577 5.11683841 6 7 C5.34 7.66 4.68 8.32 4 9 C1.375 8.625 1.375 8.625 -1 8 C-1 7.34 -1 6.68 -1 6 C0.32 6.33 1.64 6.66 3 7 C3 6.34 3 5.68 3 5 C1.68 4.67 0.36 4.34 -1 4 C-0.67 2.68 -0.34 1.36 0 0 Z " fill="#E8D9FA" transform="translate(79,63)"/>
<path d="M0 0 C0.78375 0.04125 1.5675 0.0825 2.375 0.125 C2.375 0.785 2.375 1.445 2.375 2.125 C1.055 2.125 -0.265 2.125 -1.625 2.125 C-1.625 3.445 -1.625 4.765 -1.625 6.125 C-0.305 6.125 1.015 6.125 2.375 6.125 C2.045 7.115 1.715 8.105 1.375 9.125 C-3.5 8.25 -3.5 8.25 -4.625 7.125 C-4.8125 4.6875 -4.8125 4.6875 -4.625 2.125 C-2.625 0.125 -2.625 0.125 0 0 Z " fill="#E5D3F9" transform="translate(36.625,62.875)"/>
<path d="M0 0 C0.99 0 1.98 0 3 0 C3 0.66 3 1.32 3 2 C3.66 2 4.32 2 5 2 C5 2.66 5 3.32 5 4 C4.34 4 3.68 4 3 4 C3 5.65 3 7.3 3 9 C3.66 9 4.32 9 5 9 C5 9.66 5 10.32 5 11 C3.125 10.875 3.125 10.875 1 10 C-0.40666215 6.98572397 -1.14845728 4.94022947 -0.625 1.625 C-0.41875 1.08875 -0.2125 0.5525 0 0 Z " fill="#EEE2FB" transform="translate(57,61)"/>
<path d="M0 0 C0.33 0.66 0.66 1.32 1 2 C1.99 2.33 2.98 2.66 4 3 C3.360625 3.886875 2.72125 4.77375 2.0625 5.6875 C0.19170243 8.69211428 -0.59423966 10.5510371 -1 14 C-0.01 14.33 0.98 14.66 2 15 C-0.97 14.505 -0.97 14.505 -4 14 C-3.36843005 8.94744036 -1.86540627 4.70406799 0 0 Z " fill="#8735E2" transform="translate(189,20)"/>
<path d="M0 0 C1.65 0.33 3.3 0.66 5 1 C4.34 1.66 3.68 2.32 3 3 C3.99 3.66 4.98 4.32 6 5 C5.34 6.32 4.68 7.64 4 9 C2.35 8.67 0.7 8.34 -1 8 C-0.67 7.34 -0.34 6.68 0 6 C0.99 6.33 1.98 6.66 3 7 C3 6.34 3 5.68 3 5 C1.68 4.67 0.36 4.34 -1 4 C-0.67 2.68 -0.34 1.36 0 0 Z " fill="#E9DAFA" transform="translate(50,63)"/>
<path d="M0 0 C2.625 0.375 2.625 0.375 5 1 C5 1.99 5 2.98 5 4 C4.34 4 3.68 4 3 4 C3 3.34 3 2.68 3 2 C2.01 2 1.02 2 0 2 C0.33 3.32 0.66 4.64 1 6 C2.32 6 3.64 6 5 6 C4.67 6.99 4.34 7.98 4 9 C-0.875 8.125 -0.875 8.125 -2 7 C-2.1875 4.5625 -2.1875 4.5625 -2 2 C-1.34 1.34 -0.68 0.68 0 0 Z " fill="#EADBFA" transform="translate(65,63)"/>
<path d="M0 0 C1.98 0 3.96 0 6 0 C5.67 0.99 5.34 1.98 5 3 C4.34 3 3.68 3 3 3 C3 4.98 3 6.96 3 9 C2.01 9 1.02 9 0 9 C0 6.03 0 3.06 0 0 Z " fill="#DEC6F7" transform="translate(100,63)"/>
<path d="M0 0 C4 6 4 6 4 11 C1.69 11.33 -0.62 11.66 -3 12 C-2.67 10.68 -2.34 9.36 -2 8 C-2 8.99 -2 9.98 -2 11 C-1.01 11 -0.02 11 1 11 C0.84402344 10.37351562 0.68804687 9.74703125 0.52734375 9.1015625 C0.33269531 8.28429688 0.13804687 7.46703125 -0.0625 6.625 C-0.35833984 5.40683594 -0.35833984 5.40683594 -0.66015625 4.1640625 C-1 2 -1 2 0 0 Z " fill="#8D3FE3" transform="translate(169,23)"/>
<path d="M0 0 C0.33 0 0.66 0 1 0 C1.10792837 2.60527105 1.18724878 5.20608311 1.25 7.8125 C1.28351563 8.55048828 1.31703125 9.28847656 1.3515625 10.04882812 C1.390625 12.20703125 1.390625 12.20703125 1 16 C-1.015625 18.01171875 -1.015625 18.01171875 -3 19 C-3.66 18.67 -4.32 18.34 -5 18 C-4.360625 17.2575 -3.72125 16.515 -3.0625 15.75 C0.12829467 11.08219437 -0.17712346 5.47311493 0 0 Z " fill="#8B3BE2" transform="translate(80,28)"/>
<path d="M0 0 C1.10844919 3.32534757 0.84454356 5.62182575 0 9 C-1.32 9 -2.64 9 -4 9 C-3.6875 5.625 -3.6875 5.625 -3 2 C-2.01 1.34 -1.02 0.68 0 0 Z " fill="#E7D7F9" transform="translate(185,26)"/>
<path d="M0 0 C0.99 0 1.98 0 3 0 C3 2.97 3 5.94 3 9 C2.01 9 1.02 9 0 9 C0 6.03 0 3.06 0 0 Z " fill="#E0CAF8" transform="translate(28,63)"/>
<path d="M0 0 C0.99 0 1.98 0 3 0 C3 2.97 3 5.94 3 9 C2.01 9 1.02 9 0 9 C0 6.03 0 3.06 0 0 Z " fill="#DEC8F7" transform="translate(95,63)"/>
<path d="M0 0 C-0.33 1.98 -0.66 3.96 -1 6 C-1.33 5.34 -1.66 4.68 -2 4 C-3.32 4 -4.64 4 -6 4 C-6 2.68 -6 1.36 -6 0 C-2.25 -1.125 -2.25 -1.125 0 0 Z " fill="#8938E2" transform="translate(41,65)"/>
<path d="M0 0 C-2 1.5 -2 1.5 -4 3 C-4.680625 3.556875 -5.36125 4.11375 -6.0625 4.6875 C-8 6 -8 6 -11 6 C-10.03628506 3.59071265 -9.34789837 2.23992991 -7.1875 0.75 C-4.67678635 -0.11081611 -2.63651351 -0.14647297 0 0 Z " fill="#F8F3FD" transform="translate(202,20)"/>
<path d="M0 0 C0.33 0 0.66 0 1 0 C1 3.63 1 7.26 1 11 C0.34 10.67 -0.32 10.34 -1 10 C-1 9.34 -1 8.68 -1 8 C-2.9600281 6.36323743 -2.9600281 6.36323743 -5 5 C-4.01 4.67 -3.02 4.34 -2 4 C-1.34 3.67 -0.68 3.34 0 3 C0 2.01 0 1.02 0 0 Z " fill="#9044E4" transform="translate(85,60)"/>
<path d="M0 0 C0.66 0 1.32 0 2 0 C2.33 0.66 2.66 1.32 3 2 C3.99 2.33 4.98 2.66 6 3 C6 3.66 6 4.32 6 5 C4.02 5.33 2.04 5.66 0 6 C0 5.34 0 4.68 0 4 C-1.32 3.67 -2.64 3.34 -4 3 C-2.35 3 -0.7 3 1 3 C0.67 2.01 0.34 1.02 0 0 Z " fill="#9E5BE7" transform="translate(47,65)"/>
<path d="M0 0 C1.65 0 3.3 0 5 0 C5 0.66 5 1.32 5 2 C4.01 2.495 4.01 2.495 3 3 C2.34444881 5.52733235 2.34444881 5.52733235 2 8 C1.34 8 0.68 8 0 8 C0 5.36 0 2.72 0 0 Z " fill="#F6F0FD" transform="translate(72,63)"/>
<path d="M0 0 C0.99 0.33 1.98 0.66 3 1 C2.67 1.33 2.34 1.66 2 2 C1.95919217 3.99958364 1.95745644 6.00045254 2 8 C0.68 7.67 -0.64 7.34 -2 7 C-2 5.35 -2 3.7 -2 2 C-1.34 2 -0.68 2 0 2 C0 1.34 0 0.68 0 0 Z " fill="#9449E5" transform="translate(62,63)"/>
<path d="M0 0 C-0.6875 2.375 -0.6875 2.375 -2 5 C-4.625 6.3125 -4.625 6.3125 -7 7 C-3.86206897 0 -3.86206897 0 0 0 Z " fill="#E8DBF6" transform="translate(127,60)"/>
<path d="M0 0 C0.99 0 1.98 0 3 0 C2.67 1.98 2.34 3.96 2 6 C1.01 6 0.02 6 -1 6 C-1.66 6.66 -2.32 7.32 -3 8 C-2.37240135 5.07120629 -1.41377341 2.63904371 0 0 Z " fill="#E6D5F9" transform="translate(173,43)"/>
<path d="M0 0 C0.66 0.99 1.32 1.98 2 3 C2.99 3.33 3.98 3.66 5 4 C5 4.66 5 5.32 5 6 C3.02 5.34 1.04 4.68 -1 4 C-1.66 4.99 -2.32 5.98 -3 7 C-3.1875 4.625 -3.1875 4.625 -3 2 C-2.01 1.34 -1.02 0.68 0 0 Z " fill="#9C58E7" transform="translate(77,64)"/>
<path d="M0 0 C1.67542976 0.28604898 3.34385343 0.61781233 5 1 C4.67 1.99 4.34 2.98 4 4 C2.68 3.34 1.36 2.68 0 2 C0 3.32 0 4.64 0 6 C-0.66 6 -1.32 6 -2 6 C-1.125 1.125 -1.125 1.125 0 0 Z " fill="#EFE5FB" transform="translate(21,63)"/>
<path d="M0 0 C0.66 0 1.32 0 2 0 C2 1.98 2 3.96 2 6 C2.99 6.33 3.98 6.66 5 7 C2.03 6.505 2.03 6.505 -1 6 C-0.67 4.02 -0.34 2.04 0 0 Z " fill="#8F41E3" transform="translate(186,28)"/>
<path d="M0 0 C0.99 0.495 0.99 0.495 2 1 C2.33 1.99 2.66 2.98 3 4 C3.66 4.33 4.32 4.66 5 5 C5 5.66 5 6.32 5 7 C1.125 6.125 1.125 6.125 0 5 C-0.04063832 3.33382885 -0.042721 1.66611905 0 0 Z " fill="#E1CCF8" transform="translate(57,65)"/>
<path d="M0 0 C0.33 0 0.66 0 1 0 C1 2.64 1 5.28 1 8 C0.01 8 -0.98 8 -2 8 C-2 6.35 -2 4.7 -2 3 C-1.34 3 -0.68 3 0 3 C0 2.01 0 1.02 0 0 Z " fill="#9B55E7" transform="translate(34,35)"/>
<path d="M0 0 C1.65 0.33 3.3 0.66 5 1 C4.67 1.99 4.34 2.98 4 4 C2.68 3.67 1.36 3.34 0 3 C0 2.01 0 1.02 0 0 Z " fill="#9348E5" transform="translate(125,32)"/>
</svg>
