<?xml version="1.0" encoding="UTF-8"?>
<svg version="1.1" xmlns="http://www.w3.org/2000/svg" width="185" height="131">
<path d="M0 0 C61.05 0 122.1 0 185 0 C185 43.23 185 86.46 185 131 C123.95 131 62.9 131 0 131 C0 87.77 0 44.54 0 0 Z " fill="#FEFEFD" transform="translate(0,0)"/>
<path d="M0 0 C1.65 0 3.3 0 5 0 C5.495 2.475 5.495 2.475 6 5 C6.763125 4.773125 7.52625 4.54625 8.3125 4.3125 C11 4 11 4 12.8125 5.3125 C14 7 14 7 14 9 C15.65 9.33 17.3 9.66 19 10 C18.25 16.625 18.25 16.625 16 20 C15.34 20 14.68 20 14 20 C14 20.66 14 21.32 14 22 C15.485 22.495 15.485 22.495 17 23 C17 24.65 17 26.3 17 28 C15.68 28 14.36 28 13 28 C13.020625 28.804375 13.04125 29.60875 13.0625 30.4375 C13 33 13 33 12 34 C9.0625 34.1875 9.0625 34.1875 6 34 C5.34 33.34 4.68 32.68 4 32 C4.375 28.375 4.375 28.375 5 25 C5.99 24.67 6.98 24.34 8 24 C7.175 23.38125 6.35 22.7625 5.5 22.125 C4.2625 21.073125 4.2625 21.073125 3 20 C3 19.34 3 18.68 3 18 C1.68 18 0.36 18 -1 18 C-1 18.66 -1 19.32 -1 20 C-0.01 20 0.98 20 2 20 C2.33 27.26 2.66 34.52 3 42 C3.66 41.67 4.32 41.34 5 41 C11.53333333 40.76666667 11.53333333 40.76666667 14 42 C14.4140625 45.16015625 14.4140625 45.16015625 14.625 49.0625 C14.73714844 50.99802734 14.73714844 50.99802734 14.8515625 52.97265625 C14.90054688 53.97167969 14.94953125 54.97070312 15 56 C16.65 56 18.3 56 20 56 C19.814375 55.13375 19.62875 54.2675 19.4375 53.375 C18.99332067 49.94847372 19.28045508 47.35787629 20 44 C19.34 44 18.68 44 18 44 C16.9375 41.625 16.9375 41.625 16 39 C16.495 38.01 16.495 38.01 17 37 C18.65 37 20.3 37 22 37 C23.32 41.62 24.64 46.24 26 51 C26.28875 49.80375 26.5775 48.6075 26.875 47.375 C27.7524334 43.85273164 28.80020637 40.42798179 30 37 C30.99 37 31.98 37 33 37 C33.20496094 37.78246094 33.40992187 38.56492188 33.62109375 39.37109375 C33.89050781 40.38300781 34.15992187 41.39492188 34.4375 42.4375 C34.70433594 43.44683594 34.97117187 44.45617187 35.24609375 45.49609375 C35.75978077 47.91752001 35.75978077 47.91752001 37 49 C37.50471197 47.23050388 38.00360685 45.45934777 38.5 43.6875 C38.7784375 42.70136719 39.056875 41.71523438 39.34375 40.69921875 C40.11812196 37.97712797 40.11812196 37.97712797 40 35 C41.32 35 42.64 35 44 35 C44.495 37.97 44.495 37.97 45 41 C45.99 40.01 45.99 40.01 47 39 C47 39.99 47 40.98 47 42 C47.69867188 42 48.39734375 42 49.1171875 42 C55.41145833 42 61.70572917 42 68 42 C68.33 42.66 68.66 43.32 69 44 C66.525 44.495 66.525 44.495 64 45 C63.67 45.99 63.34 46.98 63 48 C65.97 48.99 65.97 48.99 69 50 C69.625 52.375 69.625 52.375 70 55 C68 57 68 57 64.375 57.125 C63.26125 57.08375 62.1475 57.0425 61 57 C60.67 53.7 60.34 50.4 60 47 C59.34 47 58.68 47 58 47 C58 47.99 58 48.98 58 50 C54.37 50 50.74 50 47 50 C47.99 51.98 47.99 51.98 49 54 C50.92514038 54.62337247 50.92514038 54.62337247 53.0625 54.625 C55.0115625 54.810625 55.0115625 54.810625 57 55 C58.60725635 58.21451269 58.05748185 61.43612536 58 65 C58.928125 64.938125 59.85625 64.87625 60.8125 64.8125 C64 65 64 65 65.6640625 66.046875 C67.66615942 68.97391728 67.49338187 72.00463286 67.5625 75.4375 C67.66073341 81.52648898 67.66073341 81.52648898 70 87 C69.01 87.33 68.02 87.66 67 88 C66.67 88.99 66.34 89.98 66 91 C68.97 90.505 68.97 90.505 72 90 C72.66 87.36 73.32 84.72 74 82 C73.34 82 72.68 82 72 82 C70.81990204 79.63980407 70.70232315 77.83904283 70.46484375 75.2109375 C70.33432617 73.79941406 70.33432617 73.79941406 70.20117188 72.359375 C70.11416016 71.37453125 70.02714844 70.3896875 69.9375 69.375 C69.80118164 67.88613281 69.80118164 67.88613281 69.66210938 66.3671875 C69.43781564 63.91176132 69.21726893 61.45605611 69 59 C70.65 59 72.3 59 74 59 C74 54.38 74 49.76 74 45 C73.34 45 72.68 45 72 45 C72.99 42.03 72.99 42.03 74 39 C74.99 39 75.98 39 77 39 C77 39.99 77 40.98 77 42 C78.32 42 79.64 42 81 42 C81 42.99 81 43.98 81 45 C79.68 45 78.36 45 77 45 C77 48.3 77 51.6 77 55 C78.32 55 79.64 55 81 55 C80.67 55.99 80.34 56.98 80 58 C79.01 58 78.02 58 77 58 C77 58.66 77 59.32 77 60 C76.34 60 75.68 60 75 60 C75.33 66.93 75.66 73.86 76 81 C76.66 81 77.32 81 78 81 C78 75.72 78 70.44 78 65 C78.99 65 79.98 65 81 65 C81.33 65.66 81.66 66.32 82 67 C82.33 66.34 82.66 65.68 83 65 C83.99 65 84.98 65 86 65 C86 65.66 86 66.32 86 67 C85.01 67.66 84.02 68.32 83 69 C82.41518879 71.88595946 82.41518879 71.88595946 82.3125 75.125 C82.21388672 76.76855469 82.21388672 76.76855469 82.11328125 78.4453125 C82.07589844 79.28835937 82.03851563 80.13140625 82 81 C82.66 81 83.32 81 84 81 C84 84.96 84 88.92 84 93 C83.34 93 82.68 93 82 93 C81.87882813 92.36191406 81.75765625 91.72382812 81.6328125 91.06640625 C81.46523437 90.24011719 81.29765625 89.41382812 81.125 88.5625 C80.96257812 87.73878906 80.80015625 86.91507812 80.6328125 86.06640625 C80.31957031 85.04353516 80.31957031 85.04353516 80 84 C79.34 83.67 78.68 83.34 78 83 C77.67 86.3 77.34 89.6 77 93 C75.68 93 74.36 93 73 93 C71.64664105 93.97272675 70.31337396 94.9739266 69 96 C66.75 96.6875 66.75 96.6875 65 97 C63.8422494 93.52674819 63.93133348 90.63932552 64 87 C63.34 87 62.68 87 62 87 C61.34 88.98 60.68 90.96 60 93 C59.34 93 58.68 93 58 93 C58 91.02 58 89.04 58 87 C57.01 87 56.02 87 55 87 C55 88.98 55 90.96 55 93 C54.34 93 53.68 93 53 93 C53 90.36 53 87.72 53 85 C52.34 84.67 51.68 84.34 51 84 C51 82.35 51 80.7 51 79 C50.34 79 49.68 79 49 79 C49 79.99 49 80.98 49 82 C48.34 82 47.68 82 47 82 C47.33 82.99 47.66 83.98 48 85 C48.12781786 87.67394964 48.04391871 90.32095857 48 93 C45.625 93.1875 45.625 93.1875 43 93 C42.34 92.01 41.68 91.02 41 90 C40.34 90 39.68 90 39 90 C38.34 90.99 37.68 91.98 37 93 C36.34 93.99 35.68 94.98 35 96 C34.34 96 33.68 96 33 96 C33 95.34 33 94.68 33 94 C31.35 93.67 29.7 93.34 28 93 C28.33 91.35 28.66 89.7 29 88 C28.34 88 27.68 88 27 88 C26.22227595 90.33317216 25.57584432 92.61435923 25 95 C22.11538849 93.70689829 19.87147927 92.58442376 18 90 C17.3125 86.3125 17.3125 86.3125 17 83 C16.34 83 15.68 83 15 83 C14.34 82.01 13.68 81.02 13 80 C11.35 80.33 9.7 80.66 8 81 C7.505 86.94 7.505 86.94 7 93 C5.02 92.505 5.02 92.505 3 92 C1.11280345 92.36707617 1.11280345 92.36707617 -1 93 C-3.33094534 93.3496418 -5.66404762 93.68554487 -8 94 C-8 93.34 -8 92.68 -8 92 C-9.98 92.33 -11.96 92.66 -14 93 C-14.33 91.35 -14.66 89.7 -15 88 C-16.98 88.495 -16.98 88.495 -19 89 C-19.495 90.98 -19.495 90.98 -20 93 C-20.928125 93.103125 -21.85625 93.20625 -22.8125 93.3125 C-26.03254358 94.0070192 -27.02579865 94.47740939 -29 97 C-29.0825 96.401875 -29.165 95.80375 -29.25 95.1875 C-30.20455872 92.4033704 -31.57132271 91.56688858 -34 90 C-34.66 90.99 -35.32 91.98 -36 93 C-37.99956611 93.04165763 -40.00043389 93.04165763 -42 93 C-42.99 93.99 -42.99 93.99 -44 95 C-44.99 95.495 -44.99 95.495 -46 96 C-46.33 94.35 -46.66 92.7 -47 91 C-48.8253125 91.495 -48.8253125 91.495 -50.6875 92 C-53.87385536 92.86409637 -56.69843345 93.09251325 -60 93 C-60.027193 91.41676312 -60.04648306 89.83338938 -60.0625 88.25 C-60.07410156 87.36828125 -60.08570313 86.4865625 -60.09765625 85.578125 C-60.00826198 83.2181162 -59.66912821 81.25501476 -59 79 C-60.485 79.495 -60.485 79.495 -62 80 C-66.00383132 80.13399703 -69.9927355 80.04308887 -74 80 C-74 73.07 -74 66.14 -74 59 C-73.01 59 -72.02 59 -71 59 C-71 64.94 -71 70.88 -71 77 C-66.05 76.505 -66.05 76.505 -61 76 C-61.12375 74.6696875 -61.12375 74.6696875 -61.25 73.3125 C-60.93764029 69.17373382 -60.1190035 67.71913126 -57 65 C-53.4375 64.6875 -53.4375 64.6875 -50 65 C-49.01 65 -48.02 65 -47 65 C-46.34 63.35 -45.68 61.7 -45 60 C-45.66 60 -46.32 60 -47 60 C-47.39832031 59.19175781 -47.79664062 58.38351563 -48.20703125 57.55078125 C-48.73683594 56.48214844 -49.26664063 55.41351563 -49.8125 54.3125 C-50.33457031 53.25675781 -50.85664062 52.20101562 -51.39453125 51.11328125 C-52.8198306 48.3493796 -54.40003975 45.66660041 -56 43 C-56.33 47.62 -56.66 52.24 -57 57 C-57.99 57 -58.98 57 -60 57 C-60 50.4 -60 43.8 -60 37 C-58.68 37 -57.36 37 -56 37 C-55.7525 37.969375 -55.505 38.93875 -55.25 39.9375 C-54.8375 40.948125 -54.425 41.95875 -54 43 C-51.96756452 43.96877057 -51.96756452 43.96877057 -50 44 C-50 44.66 -50 45.32 -50 46 C-49.34 46 -48.68 46 -48 46 C-48 42.37 -48 38.74 -48 35 C-46.02 34.505 -46.02 34.505 -44 34 C-42 39.625 -42 39.625 -42 43 C-41.28714844 42.88140625 -40.57429688 42.7628125 -39.83984375 42.640625 C-33.05913575 41.72801289 -29.55418793 41.92692885 -24 46 C-23.67 44.68 -23.34 43.36 -23 42 C-22.13375 42.2784375 -22.13375 42.2784375 -21.25 42.5625 C-18.77399031 43.04394633 -17.39805371 42.63948099 -15 42 C-14.01 42.495 -14.01 42.495 -13 43 C-13 41.9275 -13 40.855 -13 39.75 C-13 37.16666667 -13 34.58333333 -13 32 C-13.97135817 29.24781851 -14.58469272 28.2442984 -17.125 26.75 C-17.74375 26.5025 -18.3625 26.255 -19 26 C-19 24.35 -19 22.7 -19 21 C-17.35 20.67 -15.7 20.34 -14 20 C-13.505 18.515 -13.505 18.515 -13 17 C-12.67 16.34 -12.34 15.68 -12 15 C-13.32 15 -14.64 15 -16 15 C-17.35439668 12.29120665 -17.06501451 9.99066732 -17 7 C-15.02 7 -13.04 7 -11 7 C-10.34 5.35 -9.68 3.7 -9 2 C-7.35 2 -5.7 2 -4 2 C-3.505 4.475 -3.505 4.475 -3 7 C-1.68 6.67 -0.36 6.34 1 6 C0.01 5.505 0.01 5.505 -1 5 C-0.67 3.35 -0.34 1.7 0 0 Z " fill="#F9FBF3" transform="translate(79,21)"/>
<path d="M0 0 C1.32 0 2.64 0 4 0 C4.33 1.98 4.66 3.96 5 6 C5.66 5.34 6.32 4.68 7 4 C7 4.99 7 5.98 7 7 C7.69867188 7 8.39734375 7 9.1171875 7 C15.41145833 7 21.70572917 7 28 7 C28.495 7.99 28.495 7.99 29 9 C27.35 9.33 25.7 9.66 24 10 C23.67 10.99 23.34 11.98 23 13 C24.98 13.66 26.96 14.32 29 15 C29.625 17.375 29.625 17.375 30 20 C28 22 28 22 24.375 22.125 C23.26125 22.08375 22.1475 22.0425 21 22 C20.67 18.7 20.34 15.4 20 12 C19.34 12 18.68 12 18 12 C18 12.99 18 13.98 18 15 C14.37 15 10.74 15 7 15 C7.66 16.32 8.32 17.64 9 19 C10.92514038 19.62337247 10.92514038 19.62337247 13.0625 19.625 C14.361875 19.74875 15.66125 19.8725 17 20 C18.60725635 23.21451269 18.05748185 26.43612536 18 30 C18.928125 29.938125 19.85625 29.87625 20.8125 29.8125 C24 30 24 30 25.6640625 31.046875 C27.66615942 33.97391728 27.49338187 37.00463286 27.5625 40.4375 C27.66073341 46.52648898 27.66073341 46.52648898 30 52 C29.01 52.33 28.02 52.66 27 53 C26.67 53.99 26.34 54.98 26 56 C28.97 55.505 28.97 55.505 32 55 C32.66 52.36 33.32 49.72 34 47 C33.34 47 32.68 47 32 47 C30.81990204 44.63980407 30.70232315 42.83904283 30.46484375 40.2109375 C30.33432617 38.79941406 30.33432617 38.79941406 30.20117188 37.359375 C30.11416016 36.37453125 30.02714844 35.3896875 29.9375 34.375 C29.84662109 33.38242188 29.75574219 32.38984375 29.66210938 31.3671875 C29.43781564 28.91176132 29.21726893 26.45605611 29 24 C30.65 24 32.3 24 34 24 C34 19.38 34 14.76 34 10 C33.34 10 32.68 10 32 10 C32.66 8.02 33.32 6.04 34 4 C34.99 4 35.98 4 37 4 C37 4.99 37 5.98 37 7 C38.32 7 39.64 7 41 7 C41 7.99 41 8.98 41 10 C39.68 10 38.36 10 37 10 C37 13.3 37 16.6 37 20 C38.32 20 39.64 20 41 20 C40.505 21.485 40.505 21.485 40 23 C39.01 23 38.02 23 37 23 C37 23.66 37 24.32 37 25 C36.34 25 35.68 25 35 25 C35.495 35.395 35.495 35.395 36 46 C36.66 46 37.32 46 38 46 C38 40.72 38 35.44 38 30 C38.99 30 39.98 30 41 30 C41.495 30.99 41.495 30.99 42 32 C42.33 31.34 42.66 30.68 43 30 C43.99 30 44.98 30 46 30 C46 30.66 46 31.32 46 32 C45.01 32.66 44.02 33.32 43 34 C42.41518879 36.88595946 42.41518879 36.88595946 42.3125 40.125 C42.24675781 41.22070312 42.18101562 42.31640625 42.11328125 43.4453125 C42.07589844 44.28835937 42.03851563 45.13140625 42 46 C42.66 46 43.32 46 44 46 C44 49.96 44 53.92 44 58 C43.34 58 42.68 58 42 58 C41.87882812 57.36191406 41.75765625 56.72382812 41.6328125 56.06640625 C41.46523437 55.24011719 41.29765625 54.41382813 41.125 53.5625 C40.96257812 52.73878906 40.80015625 51.91507813 40.6328125 51.06640625 C40.31957031 50.04353516 40.31957031 50.04353516 40 49 C39.01 48.505 39.01 48.505 38 48 C37.505 52.95 37.505 52.95 37 58 C35.68 58 34.36 58 33 58 C31.64664105 58.97272675 30.31337396 59.9739266 29 61 C26.75 61.6875 26.75 61.6875 25 62 C23.8422494 58.52674819 23.93133348 55.63932552 24 52 C23.34 52 22.68 52 22 52 C21.34 53.98 20.68 55.96 20 58 C19.34 58 18.68 58 18 58 C18 56.02 18 54.04 18 52 C17.01 52 16.02 52 15 52 C15 53.98 15 55.96 15 58 C14.34 58 13.68 58 13 58 C13 55.36 13 52.72 13 50 C12.01 49.505 12.01 49.505 11 49 C11 47.35 11 45.7 11 44 C10.01 44.33 9.02 44.66 8 45 C5.66700175 45.03954234 3.33291811 45.04401732 1 45 C0.67 41.04 0.34 37.08 0 33 C-2.97 33.495 -2.97 33.495 -6 34 C-6 37.63 -6 41.26 -6 45 C-6.99 45 -7.98 45 -9 45 C-9 42.69 -9 40.38 -9 38 C-13.62 38 -18.24 38 -23 38 C-22.34 39.32 -21.68 40.64 -21 42 C-17.43793339 42.81870185 -17.43793339 42.81870185 -14 43 C-14 43.66 -14 44.32 -14 45 C-21.38052027 45.48396854 -21.38052027 45.48396854 -24 43.4375 C-25.37498501 40.08597404 -25.38467994 37.59034613 -25 34 C-23.50249365 31.33576541 -22.71193072 30.20014671 -19.73168945 29.36230469 C-18.43557739 29.26804199 -18.43557739 29.26804199 -17.11328125 29.171875 C-16.17548828 29.09453125 -15.23769531 29.0171875 -14.27148438 28.9375 C-13.29501953 28.875625 -12.31855469 28.81375 -11.3125 28.75 C-10.32443359 28.67265625 -9.33636719 28.5953125 -8.31835938 28.515625 C-5.87965134 28.32712583 -3.44097027 28.15594824 -1 28 C-1 25.69 -1 23.38 -1 21 C-2.32 21.33 -3.64 21.66 -5 22 C-6.32 17.38 -7.64 12.76 -9 8 C-10.32 12.62 -11.64 17.24 -13 22 C-14.32 21.67 -15.64 21.34 -17 21 C-18.32 14.73 -19.64 8.46 -21 2 C-20.01 2 -19.02 2 -18 2 C-16.68 6.62 -15.36 11.24 -14 16 C-13.71125 14.80375 -13.4225 13.6075 -13.125 12.375 C-12.2475666 8.85273164 -11.19979363 5.42798179 -10 2 C-9.01 2 -8.02 2 -7 2 C-6.79503906 2.78246094 -6.59007813 3.56492188 -6.37890625 4.37109375 C-6.10949219 5.38300781 -5.84007813 6.39492188 -5.5625 7.4375 C-5.29566406 8.44683594 -5.02882813 9.45617187 -4.75390625 10.49609375 C-4.24021923 12.91752001 -4.24021923 12.91752001 -3 14 C-2.49528803 12.23050388 -1.99639315 10.45934777 -1.5 8.6875 C-1.2215625 7.70136719 -0.943125 6.71523438 -0.65625 5.69921875 C0.11812196 2.97712797 0.11812196 2.97712797 0 0 Z " fill="#F2F6ED" transform="translate(119,56)"/>
<path d="M0 0 C2.0625 0.4375 2.0625 0.4375 4 1 C4.33 3.64 4.66 6.28 5 9 C5.71285156 8.88140625 6.42570312 8.7628125 7.16015625 8.640625 C13.94086425 7.72801289 17.44581207 7.92692885 23 12 C23.33 10.68 23.66 9.36 24 8 C24.5775 8.185625 25.155 8.37125 25.75 8.5625 C28.20692525 9.04023546 29.64397534 8.75729364 32 8 C32 8.99 32 9.98 32 11 C30.35 11.33 28.7 11.66 27 12 C27 15.63 27 19.26 27 23 C25.68 23 24.36 23 23 23 C22.505 22.01 22.505 22.01 22 21 C21.67 21.66 21.34 22.32 21 23 C20.34 23 19.68 23 19 23 C18.34 24.98 17.68 26.96 17 29 C18.32 29.66 19.64 30.32 21 31 C21 31.99 21 32.98 21 34 C18.66785852 35.20628008 16.50357861 36.1654738 14 37 C14 38.32 14 39.64 14 41 C16.31 41.66 18.62 42.32 21 43 C20.505 47.95 20.505 47.95 20 53 C19.34 53 18.68 53 18 53 C18 54.32 18 55.64 18 57 C18.66 57 19.32 57 20 57 C20 57.66 20 58.32 20 59 C17.03824877 58.38722388 15.61941217 57.74627478 13 56 C12.34 56.99 11.68 57.98 11 59 C9.00043389 59.04165763 6.99956611 59.04165763 5 59 C4.34 59.66 3.68 60.32 3 61 C2.01 61.495 2.01 61.495 1 62 C0.505 59.525 0.505 59.525 0 57 C-1.8253125 57.495 -1.8253125 57.495 -3.6875 58 C-6.87385536 58.86409637 -9.69843345 59.09251325 -13 59 C-13.027193 57.41676312 -13.04648306 55.83338938 -13.0625 54.25 C-13.07410156 53.36828125 -13.08570313 52.4865625 -13.09765625 51.578125 C-13.00826198 49.2181162 -12.66912821 47.25501476 -12 45 C-13.485 45.495 -13.485 45.495 -15 46 C-19.00383132 46.13399703 -22.9927355 46.04308887 -27 46 C-27 39.07 -27 32.14 -27 25 C-26.01 25 -25.02 25 -24 25 C-24 30.94 -24 36.88 -24 43 C-19.05 42.505 -19.05 42.505 -14 42 C-14.0825 41.113125 -14.165 40.22625 -14.25 39.3125 C-13.93764029 35.17373382 -13.1190035 33.71913126 -10 31 C-6.4375 30.6875 -6.4375 30.6875 -3 31 C-2.01 31 -1.02 31 0 31 C0.66 29.35 1.32 27.7 2 26 C1.34 26 0.68 26 0 26 C-0.39832031 25.19175781 -0.79664062 24.38351563 -1.20703125 23.55078125 C-1.73683594 22.48214844 -2.26664063 21.41351563 -2.8125 20.3125 C-3.33457031 19.25675781 -3.85664063 18.20101562 -4.39453125 17.11328125 C-5.8198306 14.3493796 -7.40003975 11.66660041 -9 9 C-9.33 13.62 -9.66 18.24 -10 23 C-10.99 23 -11.98 23 -13 23 C-13 16.4 -13 9.8 -13 3 C-11.68 3 -10.36 3 -9 3 C-8.7525 3.969375 -8.505 4.93875 -8.25 5.9375 C-7.8375 6.948125 -7.425 7.95875 -7 9 C-4.96756452 9.96877057 -4.96756452 9.96877057 -3 10 C-3 10.66 -3 11.32 -3 12 C-2.34 12 -1.68 12 -1 12 C-1.01160156 11.21753906 -1.02320312 10.43507813 -1.03515625 9.62890625 C-1.04417969 8.61699219 -1.05320312 7.60507812 -1.0625 6.5625 C-1.07410156 5.55316406 -1.08570312 4.54382812 -1.09765625 3.50390625 C-1 1 -1 1 0 0 Z " fill="#EFF5E4" transform="translate(32,55)"/>
<path d="M0 0 C0.99 0 1.98 0 3 0 C3 1.32 3 2.64 3 4 C3.99 4 4.98 4 6 4 C5.33333333 7.33333333 4.66666667 10.66666667 4 14 C6.12364481 14.22609337 6.12364481 14.22609337 7.625 12.5 C8.305625 11.7575 8.305625 11.7575 9 11 C9.495 12.7015625 9.495 12.7015625 10 14.4375 C10.72187368 16.40493425 10.72187368 16.40493425 12 18 C14.79200866 18.969218 16.99397579 18.95072091 20 19 C20 18.34 20 17.68 20 17 C17.69 17 15.38 17 13 17 C12.34 15.35 11.68 13.7 11 12 C15.62 12 20.24 12 25 12 C25 14.31 25 16.62 25 19 C25.99 19 26.98 19 28 19 C28 15.37 28 11.74 28 8 C29.98 7.67 31.96 7.34 34 7 C34.36402369 8.43503555 34.71586591 9.87316506 35.0625 11.3125 C35.25972656 12.11300781 35.45695312 12.91351563 35.66015625 13.73828125 C36 16 36 16 35 19 C38.96 18.505 38.96 18.505 43 18 C43 18.99 43 19.98 43 21 C42.34 21 41.68 21 41 21 C41.495 22.485 41.495 22.485 42 24 C42.12781786 26.67394964 42.04391871 29.32095857 42 32 C39.625 32.1875 39.625 32.1875 37 32 C36.01 30.515 36.01 30.515 35 29 C34.34 29 33.68 29 33 29 C32.34 29.99 31.68 30.98 31 32 C30.34 32.99 29.68 33.98 29 35 C28.34 35 27.68 35 27 35 C27 34.34 27 33.68 27 33 C25.35 32.67 23.7 32.34 22 32 C22.33 30.35 22.66 28.7 23 27 C22.34 27 21.68 27 21 27 C20.22227595 29.33317216 19.57584432 31.61435923 19 34 C16.11538849 32.70689829 13.87147927 31.58442376 12 29 C11.3125 25.3125 11.3125 25.3125 11 22 C10.34 22 9.68 22 9 22 C8.34 21.01 7.68 20.02 7 19 C5.35 19.33 3.7 19.66 2 20 C1.67 23.96 1.34 27.92 1 32 C-0.32 31.67 -1.64 31.34 -3 31 C-4.88719655 31.36707617 -4.88719655 31.36707617 -7 32 C-9.33094534 32.3496418 -11.66404762 32.68554487 -14 33 C-14 32.34 -14 31.68 -14 31 C-15.98 31.33 -17.96 31.66 -20 32 C-20.33 30.35 -20.66 28.7 -21 27 C-22.32 27.33 -23.64 27.66 -25 28 C-25.33 29.32 -25.66 30.64 -26 32 C-26.66 32 -27.32 32 -28 32 C-28 29.36 -28 26.72 -28 24 C-27.34 24 -26.68 24 -26 24 C-27.3089572 20.87802522 -27.3089572 20.87802522 -30 19 C-30.33523267 14.20431038 -30.56531242 10.25351885 -28.5625 5.8125 C-25.15560785 3.40274702 -23.12109565 3.84676665 -19.12109375 4.5078125 C-17 5 -17 5 -14 6 C-13.67 5.34 -13.34 4.68 -13 4 C-10.71484375 3.3671875 -10.71484375 3.3671875 -7.9375 2.875 C-7.01839844 2.70742187 -6.09929687 2.53984375 -5.15234375 2.3671875 C-4.44207031 2.24601562 -3.73179688 2.12484375 -3 2 C-3 2.66 -3 3.32 -3 4 C-2.01 4 -1.02 4 0 4 C0 2.68 0 1.36 0 0 Z " fill="#F4FAE9" transform="translate(85,82)"/>
<path d="M0 0 C1.65 0 3.3 0 5 0 C5.33 1.65 5.66 3.3 6 5 C6.763125 4.773125 7.52625 4.54625 8.3125 4.3125 C11 4 11 4 12.8125 5.3125 C14 7 14 7 14 9 C16.475 9.495 16.475 9.495 19 10 C18.25 16.625 18.25 16.625 16 20 C15.34 20 14.68 20 14 20 C14 20.66 14 21.32 14 22 C14.99 22.33 15.98 22.66 17 23 C17 24.65 17 26.3 17 28 C15.68 28 14.36 28 13 28 C13.020625 28.804375 13.04125 29.60875 13.0625 30.4375 C13 33 13 33 12 34 C9.0625 34.1875 9.0625 34.1875 6 34 C5.34 33.34 4.68 32.68 4 32 C4.375 28.375 4.375 28.375 5 25 C5.99 24.67 6.98 24.34 8 24 C7.175 23.38125 6.35 22.7625 5.5 22.125 C4.675 21.42375 3.85 20.7225 3 20 C3 19.34 3 18.68 3 18 C1.68 18 0.36 18 -1 18 C-1 18.66 -1 19.32 -1 20 C-0.01 20 0.98 20 2 20 C2.33 27.26 2.66 34.52 3 42 C6.465 41.505 6.465 41.505 10 41 C13.13107836 44.38583802 13.33550778 46.71109462 13.1875 51.25 C13.14689453 52.86648437 13.14689453 52.86648437 13.10546875 54.515625 C13.07066406 55.33546875 13.03585938 56.1553125 13 57 C12.01 57 11.02 57 10 57 C9.67 53.04 9.34 49.08 9 45 C7.35 44.67 5.7 44.34 4 44 C2.18884044 45.81115956 2.61800552 48.61278227 2.4375 51.0625 C2.35371094 52.16722656 2.26992187 53.27195313 2.18359375 54.41015625 C2.09271484 55.69212891 2.09271484 55.69212891 2 57 C1.01 57 0.02 57 -1 57 C-1.495 45.12 -1.495 45.12 -2 33 C-2 34.29187929 -1.97809895 35.58402811 -1.9296875 36.875 C-1.90261719 37.926875 -1.90261719 37.926875 -1.875 39 C-1.85179688 39.70125 -1.82859375 40.4025 -1.8046875 41.125 C-2 43 -2 43 -4 45 C-4.99 45 -5.98 45 -7 45 C-7 47.97 -7 50.94 -7 54 C-6.01 54 -5.02 54 -4 54 C-4 54.99 -4 55.98 -4 57 C-6.375 57.125 -6.375 57.125 -9 57 C-11 55 -11 55 -11.1953125 52.3984375 C-11.17210938 51.40070313 -11.14890625 50.40296875 -11.125 49.375 C-11.10695313 48.37210938 -11.08890625 47.36921875 -11.0703125 46.3359375 C-11.04710938 45.56507812 -11.02390625 44.79421875 -11 44 C-11.66 44 -12.32 44 -13 44 C-13 40 -13 36 -13 32 C-13.97135817 29.24781851 -14.58469272 28.2442984 -17.125 26.75 C-17.74375 26.5025 -18.3625 26.255 -19 26 C-19 24.35 -19 22.7 -19 21 C-17.35 20.67 -15.7 20.34 -14 20 C-13.67 19.01 -13.34 18.02 -13 17 C-12.67 16.34 -12.34 15.68 -12 15 C-13.32 15 -14.64 15 -16 15 C-17.35439668 12.29120665 -17.06501451 9.99066732 -17 7 C-15.02 7 -13.04 7 -11 7 C-10.34 5.35 -9.68 3.7 -9 2 C-7.35 2 -5.7 2 -4 2 C-3.67 3.65 -3.34 5.3 -3 7 C-1.68 6.67 -0.36 6.34 1 6 C0.34 5.67 -0.32 5.34 -1 5 C-0.67 3.35 -0.34 1.7 0 0 Z " fill="#D9EAC0" transform="translate(79,21)"/>
<path d="M0 0 C2.9375 1.5625 2.9375 1.5625 5 3 C5.33 1.68 5.66 0.36 6 -1 C6.5775 -0.814375 7.155 -0.62875 7.75 -0.4375 C10.20692525 0.04023546 11.64397534 -0.24270636 14 -1 C14 -0.01 14 0.98 14 2 C12.35 2.33 10.7 2.66 9 3 C9 6.63 9 10.26 9 14 C7.68 14 6.36 14 5 14 C4.67 13.34 4.34 12.68 4 12 C3.67 12.66 3.34 13.32 3 14 C2.34 14 1.68 14 1 14 C0.34 15.98 -0.32 17.96 -1 20 C0.32 20.66 1.64 21.32 3 22 C3 22.99 3 23.98 3 25 C0.66785852 26.20628008 -1.49642139 27.1654738 -4 28 C-4 29.32 -4 30.64 -4 32 C-1.69 32.66 0.62 33.32 3 34 C2.67 37.3 2.34 40.6 2 44 C1.34 44 0.68 44 0 44 C0 45.32 0 46.64 0 48 C0.66 48 1.32 48 2 48 C2 48.66 2 49.32 2 50 C-0.96175123 49.38722388 -2.38058783 48.74627478 -5 47 C-5.66 47.99 -6.32 48.98 -7 50 C-8.32 50 -9.64 50 -11 50 C-10.67 49.34 -10.34 48.68 -10 48 C-10.33 47.34 -10.66 46.68 -11 46 C-11 45.01 -11 44.02 -11 43 C-9.68 43 -8.36 43 -7 43 C-6.67 42.34 -6.34 41.68 -6 41 C-5.01 41.33 -4.02 41.66 -3 42 C-3.33 42.66 -3.66 43.32 -4 44 C-3.34 44 -2.68 44 -2 44 C-2 42.02 -2 40.04 -2 38 C-2.804375 38.185625 -3.60875 38.37125 -4.4375 38.5625 C-5.283125 38.706875 -6.12875 38.85125 -7 39 C-9.04975978 36.95024022 -8.27592642 32.92897437 -8.3125 30.125 C-8.35600586 29.02478516 -8.35600586 29.02478516 -8.40039062 27.90234375 C-8.42578125 25.7578125 -8.42578125 25.7578125 -8 22 C-6.04296875 20.1796875 -6.04296875 20.1796875 -4 19 C-3.67 18.01 -3.34 17.02 -3 16 C-2.34 16 -1.68 16 -1 16 C-1.33 15.34 -1.66 14.68 -2 14 C-3.3921875 14.12375 -3.3921875 14.12375 -4.8125 14.25 C-8 14 -8 14 -9.875 12.5 C-11.58096205 8.70897321 -11.46175546 6.15579911 -11 2 C-7.93001817 -2.05237601 -4.57527767 -1.12375241 0 0 Z " fill="#F5F9E7" transform="translate(50,64)"/>
<path d="M0 0 C-0.33 0.99 -0.66 1.98 -1 3 C-1.99 2.67 -2.98 2.34 -4 2 C-4.2165625 2.928125 -4.2165625 2.928125 -4.4375 3.875 C-5 6 -5 6 -6 8 C-5.34 8 -4.68 8 -4 8 C-4 12.62 -4 17.24 -4 22 C-5.65 22 -7.3 22 -9 22 C-8.67 22.66 -8.34 23.32 -8 24 C-7.78058781 25.5912342 -7.60940148 27.18929031 -7.46484375 28.7890625 C-7.37783203 29.73007813 -7.29082031 30.67109375 -7.20117188 31.640625 C-7.11416016 32.62546875 -7.02714844 33.6103125 -6.9375 34.625 C-6.84662109 35.61757812 -6.75574219 36.61015625 -6.66210938 37.6328125 C-6.43781564 40.08823868 -6.21726893 42.54394389 -6 45 C-5.34 45 -4.68 45 -4 45 C-3.63205236 48.31152874 -3.70190785 49.60609252 -5.75 52.3125 C-8 54 -8 54 -12 54 C-11.625 52.0625 -11.625 52.0625 -11 50 C-10.01 49.505 -10.01 49.505 -9 49 C-9.66 48.01 -10.32 47.02 -11 46 C-11.31630679 42.77582736 -11.46293674 39.59627183 -11.56640625 36.36132812 C-11.62695498 32.22935966 -11.62695498 32.22935966 -14 29 C-15.98821313 28.60235737 -17.98944339 28.26224651 -20 28 C-20.33 24.7 -20.66 21.4 -21 18 C-22.918125 18.061875 -22.918125 18.061875 -24.875 18.125 C-27.0546875 18.1953125 -27.0546875 18.1953125 -29 18 C-29.66 17.34 -30.32 16.68 -31 16 C-31 15.01 -31 14.02 -31 13 C-27.37 13 -23.74 13 -20 13 C-20 12.01 -20 11.02 -20 10 C-19.34 10 -18.68 10 -18 10 C-17.67 13.3 -17.34 16.6 -17 20 C-13.535 19.505 -13.535 19.505 -10 19 C-9.67 17.35 -9.34 15.7 -9 14 C-10.98 13.01 -12.96 12.02 -15 11 C-14.67 9.68 -14.34 8.36 -14 7 C-12.68 6.67 -11.36 6.34 -10 6 C-12.475 5.505 -12.475 5.505 -15 5 C-15 4.34 -15 3.68 -15 3 C-12.45969624 2.49193925 -9.91988132 1.9847393 -7.375 1.5 C-0.25 0 -0.25 0 0 0 Z " fill="#F9FCF6" transform="translate(157,58)"/>
<path d="M0 0 C1.32 0 2.64 0 4 0 C4.66 1.98 5.32 3.96 6 6 C6.66 6 7.32 6 8 6 C9.32 8.31 10.64 10.62 12 13 C12.33 8.71 12.66 4.42 13 0 C13.99 0 14.98 0 16 0 C16.01458252 0.62567871 16.02916504 1.25135742 16.04418945 1.89599609 C16.11852804 4.72296402 16.21523234 7.54873208 16.3125 10.375 C16.33505859 11.35984375 16.35761719 12.3446875 16.38085938 13.359375 C16.4340332 14.77089844 16.4340332 14.77089844 16.48828125 16.2109375 C16.51446533 17.08024902 16.54064941 17.94956055 16.56762695 18.84521484 C16.81345218 21.38600027 16.81345218 21.38600027 20 23 C20.2487793 25.06298828 20.2487793 25.06298828 20.07421875 27.5703125 C20.01943359 28.46621094 19.96464844 29.36210938 19.90820312 30.28515625 C19.83537109 31.22230469 19.76253906 32.15945312 19.6875 33.125 C19.5956543 34.54232422 19.5956543 34.54232422 19.50195312 35.98828125 C19.34841324 38.32681186 19.18053924 40.66342389 19 43 C17.68 43 16.36 43 15 43 C15 39.04 15 35.08 15 31 C14.34 31.33 13.68 31.66 13 32 C12.67 33.32 12.34 34.64 12 36 C8.7 36 5.4 36 2 36 C2.66 37.32 3.32 38.64 4 40 C7.56206661 40.81870185 7.56206661 40.81870185 11 41 C11 41.66 11 42.32 11 43 C7.94902735 43.28782761 5.04261451 43.42004236 2 43 C-0.125 40.9375 -0.125 40.9375 -1 38 C-0.88121951 34.55536591 -0.6155744 32.06015591 1.125 29.0625 C4.04345799 27.40870714 6.71370276 27.82394836 10 28 C10.99 28 11.98 28 13 28 C13.66 26.35 14.32 24.7 15 23 C14.34 23 13.68 23 13 23 C12.60167969 22.19175781 12.20335937 21.38351563 11.79296875 20.55078125 C11.26316406 19.48214844 10.73335937 18.41351563 10.1875 17.3125 C9.66542969 16.25675781 9.14335937 15.20101562 8.60546875 14.11328125 C7.1801694 11.3493796 5.59996025 8.66660041 4 6 C3.67 10.62 3.34 15.24 3 20 C2.01 20 1.02 20 0 20 C0 13.4 0 6.8 0 0 Z " fill="#BBC99A" transform="translate(19,58)"/>
<path d="M0 0 C0.99 0 1.98 0 3 0 C3.33 2.31 3.66 4.62 4 7 C4.33 6.67 4.66 6.34 5 6 C7.65061847 5.72098753 9.34584583 5.57857375 11.625 7.046875 C13.68834784 9.97776681 13.53256334 13.03362519 13.625 16.5 C13.79579303 21.82453151 13.79579303 21.82453151 15 27 C12.625 28.0625 12.625 28.0625 10 29 C9.34 28.67 8.68 28.34 8 28 C7.34 29.98 6.68 31.96 6 34 C5.34 34 4.68 34 4 34 C4 32.02 4 30.04 4 28 C3.01 28 2.02 28 1 28 C1 29.98 1 31.96 1 34 C0.34 34 -0.32 34 -1 34 C-1 31.36 -1 28.72 -1 26 C-1.66 25.67 -2.32 25.34 -3 25 C-3 23.35 -3 21.7 -3 20 C-3.66 19.67 -4.32 19.34 -5 19 C-4.34 17.68 -3.68 16.36 -3 15 C-2.01 15.33 -1.02 15.66 0 16 C0 10.72 0 5.44 0 0 Z " fill="#ECEFDF" transform="translate(133,80)"/>
<path d="M0 0 C0.99 0 1.98 0 3 0 C3 5.94 3 11.88 3 18 C8.445 17.01 8.445 17.01 14 16 C14.66 17.65 15.32 19.3 16 21 C18.97 21 21.94 21 25 21 C25 20.34 25 19.68 25 19 C23.329375 19.061875 23.329375 19.061875 21.625 19.125 C18 19 18 19 16 17 C16 16.01 16 15.02 16 14 C19.3 14 22.6 14 26 14 C26.33 12.35 26.66 10.7 27 9 C27.66 9 28.32 9 29 9 C29.22428282 16.94957992 28.95403042 24.27111181 27 32 C22.47580359 33.22690072 18.70776045 34.13191623 14 34 C13.972807 32.41676312 13.95351694 30.83338938 13.9375 29.25 C13.92589844 28.36828125 13.91429687 27.4865625 13.90234375 26.578125 C13.99173802 24.2181162 14.33087179 22.25501476 15 20 C14.01 20.33 13.02 20.66 12 21 C7.99616868 21.13399703 4.0072645 21.04308887 0 21 C0 14.07 0 7.14 0 0 Z " fill="#F8FCF3" transform="translate(5,80)"/>
<path d="M0 0 C0.33 0.66 0.66 1.32 1 2 C3.12576782 2.46651207 3.12576782 2.46651207 5.5625 2.625 C6.38878906 2.69976562 7.21507813 2.77453125 8.06640625 2.8515625 C8.70449219 2.90054688 9.34257813 2.94953125 10 3 C10 3.66 10 4.32 10 5 C8.35 5 6.7 5 5 5 C5 6.32 5 7.64 5 9 C7.475 9.495 7.475 9.495 10 10 C10.625 12.875 10.625 12.875 11 16 C9 18 9 18 5.375 18.125 C4.26125 18.08375 3.1475 18.0425 2 18 C1.67 14.04 1.34 10.08 1 6 C-0.98 6.33 -2.96 6.66 -5 7 C-5 10.63 -5 14.26 -5 18 C-5.99 18 -6.98 18 -8 18 C-8 15.69 -8 13.38 -8 11 C-12.62 11 -17.24 11 -22 11 C-21.34 12.32 -20.68 13.64 -20 15 C-16.43793339 15.81870185 -16.43793339 15.81870185 -13 16 C-13 16.66 -13 17.32 -13 18 C-20.38052027 18.48396854 -20.38052027 18.48396854 -23 16.4375 C-24.37498501 13.08597404 -24.38467994 10.59034613 -24 7 C-23.07421875 4.85546875 -23.07421875 4.85546875 -21 3 C-17.84195817 2.22787964 -14.67528087 2.02548041 -11.4375 1.8125 C-9.70678789 1.67623348 -7.9763022 1.53705034 -6.24609375 1.39453125 C-5.09645142 1.31489136 -5.09645142 1.31489136 -3.92358398 1.23364258 C-1.91889947 1.09949323 -1.91889947 1.09949323 0 0 Z " fill="#EDF7DE" transform="translate(118,83)"/>
<path d="M0 0 C3.375 1 3.375 1 5.375 4 C5.375 5.32 5.375 6.64 5.375 8 C2.075 8 -1.225 8 -4.625 8 C-4.295 9.65 -3.965 11.3 -3.625 13 C-0.985 13 1.655 13 4.375 13 C4.375 13.66 4.375 14.32 4.375 15 C2.065 15.66 -0.245 16.32 -2.625 17 C-2.295 18.65 -1.965 20.3 -1.625 22 C-1.00625 21.34 -0.3875 20.68 0.25 20 C2.375 18 2.375 18 4.375 18 C4.375 18.66 4.375 19.32 4.375 20 C5.2825 19.814375 6.19 19.62875 7.125 19.4375 C10.05814324 19.04265379 11.6394657 19.05308428 14.375 20 C14.375 20.66 14.375 21.32 14.375 22 C13.385 22 12.395 22 11.375 22 C11.375 23.32 11.375 24.64 11.375 26 C12.695 26.33 14.015 26.66 15.375 27 C15.375 27.33 15.375 27.66 15.375 28 C13.065 28.33 10.755 28.66 8.375 29 C8.375 28.34 8.375 27.68 8.375 27 C6.395 27.33 4.415 27.66 2.375 28 C2.045 26.35 1.715 24.7 1.375 23 C0.055 23.33 -1.265 23.66 -2.625 24 C-2.955 25.32 -3.285 26.64 -3.625 28 C-4.285 28 -4.945 28 -5.625 28 C-5.625 25.36 -5.625 22.72 -5.625 20 C-4.965 20 -4.305 20 -3.625 20 C-4.9339572 16.87802522 -4.9339572 16.87802522 -7.625 15 C-8.2367871 6.24804568 -8.2367871 6.24804568 -6.0625 1.8125 C-3.625 0 -3.625 0 0 0 Z " fill="#CFD8BB" transform="translate(62.625,86)"/>
<path d="M0 0 C0.99 0 1.98 0 3 0 C3 1.32 3 2.64 3 4 C3.99 4 4.98 4 6 4 C6 4.99 6 5.98 6 7 C5.01 7 4.02 7 3 7 C3 10.3 3 13.6 3 17 C3.99 17 4.98 17 6 17 C6 17.66 6 18.32 6 19 C4.35 19 2.7 19 1 19 C1 18.34 1 17.68 1 17 C0.34 17 -0.32 17 -1 17 C-1 16.01 -1 15.02 -1 14 C-1.66 14 -2.32 14 -3 14 C-3.33 15.98 -3.66 17.96 -4 20 C-11.75 20.125 -11.75 20.125 -14 19 C-14 18.34 -14 17.68 -14 17 C-11.69 17 -9.38 17 -7 17 C-8.24546405 13.26360784 -9.63404953 12.81243487 -13 11 C-12.67 8.69 -12.34 6.38 -12 4 C-7.545 3.01 -7.545 3.01 -3 2 C-3 2.66 -3 3.32 -3 4 C-2.01 4 -1.02 4 0 4 C0 2.68 0 1.36 0 0 Z " fill="#F4FBE6" transform="translate(85,82)"/>
<path d="M0 0 C0.66 0 1.32 0 2 0 C5 0 8 0 11 0 C11.33 0.66 11.66 1.32 12 2 C10.35 2.33 8.7 2.66 7 3 C6.67 3.99 6.34 4.98 6 6 C7.98 6.66 9.96 7.32 12 8 C12.625 10.375 12.625 10.375 13 13 C11 15 11 15 7.375 15.125 C6.26125 15.08375 5.1475 15.0425 4 15 C3.67 11.7 3.34 8.4 3 5 C2.34 5 1.68 5 1 5 C1 5.99 1 6.98 1 8 C-2.63 8 -6.26 8 -10 8 C-9.34 9.32 -8.68 10.64 -8 12 C-4.43793339 12.81870185 -4.43793339 12.81870185 -1 13 C-1 13.66 -1 14.32 -1 15 C-8.38052027 15.48396854 -8.38052027 15.48396854 -11 13.4375 C-12.38885542 10.05216491 -12.45310904 7.62487235 -12 4 C-8.91711453 -1.00968888 -5.34924052 -0.34511229 0 0 Z " fill="#E7F2CF" transform="translate(136,63)"/>
<path d="M0 0 C2.63887403 2.63887403 4.19852053 4.76730474 6.0625 7.9375 C6.56910156 8.79214844 7.07570313 9.64679688 7.59765625 10.52734375 C9 13 9 13 10.05859375 15.25390625 C10.88114818 17.18018119 10.88114818 17.18018119 13 18 C12.01 20.31 11.02 22.62 10 25 C9.01 24.67 8.02 24.34 7 24 C3.5 23.58333333 3.5 23.58333333 0 24 C-3.20646383 26.77893532 -3.53450501 29.90364407 -4 34 C-4.66 33.67 -5.32 33.34 -6 33 C-5.54177532 29.53058454 -5.10868317 26.32604951 -4 23 C-3.34 23 -2.68 23 -2 23 C-2.33 20.36 -2.66 17.72 -3 15 C-2.01 15 -1.02 15 0 15 C0 10.05 0 5.1 0 0 Z " fill="#FBFCF9" transform="translate(22,63)"/>
<path d="M0 0 C0.99 0 1.98 0 3 0 C3 0.99 3 1.98 3 3 C4.32 3 5.64 3 7 3 C7 3.99 7 4.98 7 6 C5.68 6 4.36 6 3 6 C3 9.3 3 12.6 3 16 C4.32 16 5.64 16 7 16 C6.67 16.99 6.34 17.98 6 19 C5.01 19 4.02 19 3 19 C3 19.66 3 20.32 3 21 C2.34 21 1.68 21 1 21 C1 27.6 1 34.2 1 41 C-0.32 41 -1.64 41 -3 41 C-3.66 34.07 -4.32 27.14 -5 20 C-3.35 20 -1.7 20 0 20 C0 15.38 0 10.76 0 6 C-0.66 6 -1.32 6 -2 6 C-1.34 4.02 -0.68 2.04 0 0 Z " fill="#BDCB94" transform="translate(153,60)"/>
<path d="M0 0 C0.36402369 1.43503555 0.71586591 2.87316506 1.0625 4.3125 C1.35833984 5.51326172 1.35833984 5.51326172 1.66015625 6.73828125 C2 9 2 9 1 12 C1.66 12 2.32 12 3 12 C3 13.65 3 15.3 3 17 C-0.76668598 18.3805087 -3.44789173 17.59568159 -7.25 16.5625 C-8.32765625 16.27503906 -9.4053125 15.98757812 -10.515625 15.69140625 C-11.33546875 15.46324219 -12.1553125 15.23507813 -13 15 C-13 13.02 -13 11.04 -13 9 C-15.64 8.67 -18.28 8.34 -21 8 C-21 7.34 -21 6.68 -21 6 C-18.36 6.33 -15.72 6.66 -13 7 C-13 6.34 -13 5.68 -13 5 C-11.68 5 -10.36 5 -9 5 C-9 7.31 -9 9.62 -9 12 C-8.01 12 -7.02 12 -6 12 C-6 8.37 -6 4.74 -6 1 C-3 0 -3 0 0 0 Z " fill="#F8FCF7" transform="translate(119,89)"/>
<path d="M0 0 C0.99 0 1.98 0 3 0 C4.32 4.62 5.64 9.24 7 14 C7.28875 12.80375 7.5775 11.6075 7.875 10.375 C8.7524334 6.85273164 9.80020637 3.42798179 11 0 C11.99 0 12.98 0 14 0 C14.20496094 0.78246094 14.40992187 1.56492188 14.62109375 2.37109375 C14.89050781 3.38300781 15.15992187 4.39492188 15.4375 5.4375 C15.83775391 6.95150391 15.83775391 6.95150391 16.24609375 8.49609375 C16.75978077 10.91752001 16.75978077 10.91752001 18 12 C18.18175781 11.21753906 18.36351563 10.43507813 18.55078125 9.62890625 C18.80214844 8.61699219 19.05351563 7.60507813 19.3125 6.5625 C19.55613281 5.55316406 19.79976562 4.54382812 20.05078125 3.50390625 C20.36402344 2.67761719 20.67726563 1.85132813 21 1 C21.99 0.67 22.98 0.34 24 0 C23.35346673 6.95023264 21.13972752 13.38177303 19 20 C18.01 20 17.02 20 16 20 C14.68 15.38 13.36 10.76 12 6 C10.68 10.62 9.36 15.24 8 20 C6.68 19.67 5.36 19.34 4 19 C2.68 12.73 1.36 6.46 0 0 Z " fill="#839955" transform="translate(98,58)"/>
<path d="M0 0 C3.375 -0.125 3.375 -0.125 7 0 C7.66 0.66 8.32 1.32 9 2 C8.625 5.125 8.625 5.125 8 8 C8.99 8.33 9.98 8.66 11 9 C11 10.65 11 12.3 11 14 C9.68 14 8.36 14 7 14 C7.020625 14.804375 7.04125 15.60875 7.0625 16.4375 C7 19 7 19 6 20 C3.0625 20.1875 3.0625 20.1875 0 20 C-0.66 19.34 -1.32 18.68 -2 18 C-1.625 14.375 -1.625 14.375 -1 11 C-0.01 10.67 0.98 10.34 2 10 C1.484375 9.649375 0.96875 9.29875 0.4375 8.9375 C-1 7 -1 7 -0.6875 3.3125 C-0.460625 2.219375 -0.23375 1.12625 0 0 Z " fill="#749639" transform="translate(85,35)"/>
<path d="M0 0 C0.99 0 1.98 0 3 0 C3.33 6.93 3.66 13.86 4 21 C7.465 20.505 7.465 20.505 11 20 C14.13107836 23.38583802 14.33550778 25.71109462 14.1875 30.25 C14.16042969 31.32765625 14.13335937 32.4053125 14.10546875 33.515625 C14.07066406 34.33546875 14.03585938 35.1553125 14 36 C13.01 36 12.02 36 11 36 C10.67 32.04 10.34 28.08 10 24 C8.35 23.67 6.7 23.34 5 23 C3.18884044 24.81115956 3.61800552 27.61278227 3.4375 30.0625 C3.31181641 31.71958984 3.31181641 31.71958984 3.18359375 33.41015625 C3.12300781 34.26480469 3.06242187 35.11945313 3 36 C2.01 36 1.02 36 0 36 C0 24.12 0 12.24 0 0 Z " fill="#749139" transform="translate(78,42)"/>
<path d="M0 0 C0.33 0.99 0.66 1.98 1 3 C0.34 3 -0.32 3 -1 3 C-0.67 3.99 -0.34 4.98 0 6 C0.12781786 8.67394964 0.04391871 11.32095857 0 14 C-2.375 14.1875 -2.375 14.1875 -5 14 C-5.66 13.01 -6.32 12.02 -7 11 C-7.66 11 -8.32 11 -9 11 C-9.99 12.485 -9.99 12.485 -11 14 C-11.99 15.485 -11.99 15.485 -13 17 C-13.66 17 -14.32 17 -15 17 C-15 16.34 -15 15.68 -15 15 C-16.65 14.67 -18.3 14.34 -20 14 C-20 12.68 -20 11.36 -20 10 C-19.34 10 -18.68 10 -18 10 C-17.34 8.68 -16.68 7.36 -16 6 C-12.37 6 -8.74 6 -5 6 C-5 4.35 -5 2.7 -5 1 C-3.35 0.67 -1.7 0.34 0 0 Z " fill="#F4F8E5" transform="translate(127,100)"/>
<path d="M0 0 C3.3 0.66 6.6 1.32 10 2 C10.1953125 8.0546875 10.1953125 8.0546875 10 10 C9.34 10.66 8.68 11.32 8 12 C7.01 12 6.02 12 5 12 C5 14.97 5 17.94 5 21 C5.99 21 6.98 21 8 21 C8 21.99 8 22.98 8 24 C5.625 24.125 5.625 24.125 3 24 C1 22 1 22 0.8046875 19.3984375 C0.82789062 18.40070313 0.85109375 17.40296875 0.875 16.375 C0.89304687 15.37210938 0.91109375 14.36921875 0.9296875 13.3359375 C0.95289062 12.56507812 0.97609375 11.79421875 1 11 C0.34 11 -0.32 11 -1 11 C-1.125 3.375 -1.125 3.375 0 0 Z " fill="#F1F6E6" transform="translate(67,54)"/>
<path d="M0 0 C1.32 0 2.64 0 4 0 C4.66 1.98 5.32 3.96 6 6 C6.66 6 7.32 6 8 6 C9.32 8.31 10.64 10.62 12 13 C12.33 8.71 12.66 4.42 13 0 C13.66 0 14.32 0 15 0 C15 6.6 15 13.2 15 20 C8.8743158 16.9371579 7.28302531 11.9346996 4 6 C3.67 10.62 3.34 15.24 3 20 C2.01 20 1.02 20 0 20 C0 13.4 0 6.8 0 0 Z " fill="#879F5A" transform="translate(19,58)"/>
<path d="M0 0 C0.66 0.66 1.32 1.32 2 2 C1.938125 2.804375 1.87625 3.60875 1.8125 4.4375 C1.874375 5.283125 1.93625 6.12875 2 7 C4.46326712 8.6446674 4.46326712 8.6446674 7 10 C7 10.99 7 11.98 7 13 C4.69 13 2.38 13 0 13 C0 13.66 0 14.32 0 15 C0.66 15.33 1.32 15.66 2 16 C-0.97 15.505 -0.97 15.505 -4 15 C-4 14.34 -4 13.68 -4 13 C-6.64 13 -9.28 13 -12 13 C-12.33 11.35 -12.66 9.7 -13 8 C-9.7 8 -6.4 8 -3 8 C-3.66 5.69 -4.32 3.38 -5 1 C-3.35 1.33 -1.7 1.66 0 2 C0 1.34 0 0.68 0 0 Z " fill="#F6FBEC" transform="translate(71,86)"/>
<path d="M0 0 C1.65 0 3.3 0 5 0 C5.33 1.65 5.66 3.3 6 5 C7.134375 5.144375 8.26875 5.28875 9.4375 5.4375 C13 6 13 6 14 7 C13.28 13.72 13.28 13.72 12 15 C9.0625 15.25 9.0625 15.25 6 15 C4 12 4 12 4 8 C1.57327433 6.21030974 1.57327433 6.21030974 -1 5 C-0.67 3.35 -0.34 1.7 0 0 Z " fill="#76983C" transform="translate(70,23)"/>
<path d="M0 0 C0 6.93 0 13.86 0 21 C3.63 21 7.26 21 11 21 C11 21.33 11 21.66 11 22 C9.27185839 22.19672365 7.54240803 22.38196799 5.8125 22.5625 C4.84957031 22.66691406 3.88664063 22.77132812 2.89453125 22.87890625 C0 23 0 23 -5 22 C-5 15.07 -5 8.14 -5 1 C-2 0 -2 0 0 0 Z " fill="#FAFDF8" transform="translate(5,80)"/>
<path d="M0 0 C0.99 0 1.98 0 3 0 C3.33 2.31 3.66 4.62 4 7 C4.33 6.67 4.66 6.34 5 6 C7.7096684 5.71477175 9.36210242 5.56417872 11.65234375 7.12890625 C13.59804859 9.83033413 13.29345269 11.90296655 13.1875 15.1875 C13.16042969 16.27417969 13.13335937 17.36085938 13.10546875 18.48046875 C13.07066406 19.31191406 13.03585938 20.14335938 13 21 C12.01 21 11.02 21 10 21 C10 17.04 10 13.08 10 9 C8.35 9 6.7 9 5 9 C3.26043342 10.73956658 3.62809614 13.1936622 3.4375 15.5625 C3.35371094 16.57441406 3.26992187 17.58632812 3.18359375 18.62890625 C3.12300781 19.41136719 3.06242188 20.19382812 3 21 C2.01 21 1.02 21 0 21 C0 14.07 0 7.14 0 0 Z " fill="#869F5C" transform="translate(133,80)"/>
<path d="M0 0 C2.3125 1.75 2.3125 1.75 4 4 C4 5.32 4 6.64 4 8 C0.7 8 -2.6 8 -6 8 C-5.67 9.65 -5.34 11.3 -5 13 C-2.36 13 0.28 13 3 13 C3 13.66 3 14.32 3 15 C-4.24942792 15.60411899 -4.24942792 15.60411899 -7.5625 12.9375 C-9.43625505 9.10852228 -9.12962701 7.06665724 -8 3 C-5.87509249 -0.29360665 -3.79066817 -0.64718725 0 0 Z " fill="#83975F" transform="translate(176,86)"/>
<path d="M0 0 C1.98 0 3.96 0 6 0 C5.484375 0.680625 4.96875 1.36125 4.4375 2.0625 C2.58644507 5.84509052 3.01069435 7.96667699 4 12 C6.35953094 14.35953094 7.77895617 14.49141413 11 15 C10.01 16.485 10.01 16.485 9 18 C5.375 18.1875 5.375 18.1875 2 18 C2 15.69 2 13.38 2 11 C1.38125 11.495 0.7625 11.99 0.125 12.5 C-2 14 -2 14 -4 14 C-4 10.7 -4 7.4 -4 4 C-2.68 3.34 -1.36 2.68 0 2 C0 1.34 0 0.68 0 0 Z " fill="#F7FCE7" transform="translate(165,86)"/>
<path d="M0 0 C3.4375 0.875 3.4375 0.875 5.4375 3.875 C5.4375 5.195 5.4375 6.515 5.4375 7.875 C2.1375 7.875 -1.1625 7.875 -4.5625 7.875 C-4.2325 9.525 -3.9025 11.175 -3.5625 12.875 C-0.9225 12.875 1.7175 12.875 4.4375 12.875 C4.4375 13.535 4.4375 14.195 4.4375 14.875 C-3.04279197 15.24288321 -3.04279197 15.24288321 -5.30078125 13.64453125 C-6.89005028 11.41561834 -6.96468928 10.09392792 -6.9375 7.375 C-6.94523437 6.6015625 -6.95296875 5.828125 -6.9609375 5.03125 C-6.14819495 0.63287856 -4.30026353 -0.15088644 0 0 Z " fill="#869C5E" transform="translate(62.5625,86.125)"/>
<path d="M0 0 C2.875 0.875 2.875 0.875 4.875 2.875 C4.875 4.525 4.875 6.175 4.875 7.875 C1.575 7.875 -1.725 7.875 -5.125 7.875 C-4.465 9.195 -3.805 10.515 -3.125 11.875 C0.43706661 12.69370185 0.43706661 12.69370185 3.875 12.875 C3.875 13.535 3.875 14.195 3.875 14.875 C-3.50552027 15.35896854 -3.50552027 15.35896854 -6.125 13.3125 C-7.51385542 9.92716491 -7.57810904 7.49987235 -7.125 3.875 C-4.93207758 0.50127319 -4.05834068 -0.16233363 0 0 Z " fill="#8A9F65" transform="translate(131.125,63.125)"/>
<path d="M0 0 C0.99 0 1.98 0 3 0 C3.66 1.32 4.32 2.64 5 4 C5.66 3.01 6.32 2.02 7 1 C7.99 1 8.98 1 10 1 C9.67 2.98 9.34 4.96 9 7 C8.01 7 7.02 7 6 7 C5.67 7.99 5.34 8.98 5 10 C4.67 9.01 4.34 8.02 4 7 C3.01 7 2.02 7 1 7 C1 12.28 1 17.56 1 23 C0.34 23 -0.32 23 -1 23 C-2.17426264 20.65147472 -2.11508173 19.26225935 -2.09765625 16.6484375 C-2.09443359 15.79765625 -2.09121094 14.946875 -2.08789062 14.0703125 C-2.07951172 13.18085937 -2.07113281 12.29140625 -2.0625 11.375 C-2.05798828 10.4778125 -2.05347656 9.580625 -2.04882812 8.65625 C-2.03702591 6.43743352 -2.02056155 4.21874982 -2 2 C-1.34 2 -0.68 2 0 2 C0 1.34 0 0.68 0 0 Z " fill="#FBFDFA" transform="translate(156,79)"/>
<path d="M0 0 C1.65 0 3.3 0 5 0 C5.33 1.65 5.66 3.3 6 5 C6.78375 4.79375 7.5675 4.5875 8.375 4.375 C9.674375 4.189375 9.674375 4.189375 11 4 C13 6 13 6 13.125 9.625 C13.08375 10.73875 13.0425 11.8525 13 13 C10.69 13 8.38 13 6 13 C5.773125 12.4225 5.54625 11.845 5.3125 11.25 C3.66961977 8.4336339 1.60466773 6.91922886 -1 5 C-0.67 3.35 -0.34 1.7 0 0 Z " fill="#DEEEC6" transform="translate(79,21)"/>
<path d="M0 0 C1.32 0 2.64 0 4 0 C4 0.66 4 1.32 4 2 C4.99 2.33 5.98 2.66 7 3 C7 3.66 7 4.32 7 5 C9.97 5.495 9.97 5.495 13 6 C13 6.33 13 6.66 13 7 C10.69 7 8.38 7 6 7 C6 9.31 6 11.62 6 14 C7.98 14.66 9.96 15.32 12 16 C11.360625 16.268125 10.72125 16.53625 10.0625 16.8125 C7.66868314 17.88667752 7.66868314 17.88667752 7 21 C8.32 21.33 9.64 21.66 11 22 C11 22.33 11 22.66 11 23 C8.36 23.66 5.72 24.32 3 25 C3 17.41 3 9.82 3 2 C2.01 2 1.02 2 0 2 C0 1.34 0 0.68 0 0 Z " fill="#EAF7D3" transform="translate(78,39)"/>
<path d="M0 0 C0.33 0.99 0.66 1.98 1 3 C3.09719872 4.02281518 3.09719872 4.02281518 5.5625 4.6875 C6.38878906 4.93886719 7.21507812 5.19023438 8.06640625 5.44921875 C9.02353516 5.72185547 9.02353516 5.72185547 10 6 C9.34 7.32 8.68 8.64 8 10 C7.01 10 6.02 10 5 10 C5 9.01 5 8.02 5 7 C3.68 7 2.36 7 1 7 C1 7.66 1 8.32 1 9 C1.99 9 2.98 9 4 9 C4 9.66 4 10.32 4 11 C0.61608307 12.06351675 -0.5804634 12.21442982 -3.8125 10.5625 C-4.534375 10.046875 -5.25625 9.53125 -6 9 C-5 7 -4 5 -3 3 C-2.34 3 -1.68 3 -1 3 C-0.67 2.01 -0.34 1.02 0 0 Z " fill="#FBFCFB" transform="translate(54,75)"/>
<path d="M0 0 C3.5625 0.1875 3.5625 0.1875 5.5625 2.1875 C5.1875 5.8125 5.1875 5.8125 4.5625 9.1875 C1.1875 9.8125 1.1875 9.8125 -2.4375 10.1875 C-4.4375 8.1875 -4.4375 8.1875 -4.625 4.625 C-4.38577586 0.23922414 -4.38577586 0.23922414 0 0 Z " fill="#789B3F" transform="translate(71.4375,45.8125)"/>
<path d="M0 0 C2.375 0.6875 2.375 0.6875 3.375 1.6875 C3.5625 5.125 3.5625 5.125 3.375 8.6875 C1.375 10.6875 1.375 10.6875 -1.125 10.9375 C-3.625 10.6875 -3.625 10.6875 -5.625 8.6875 C-5.9375 5.1875 -5.9375 5.1875 -5.625 1.6875 C-2.625 -0.3125 -2.625 -0.3125 0 0 Z " fill="#E4F1CD" transform="translate(46.625,65.3125)"/>
<path d="M0 0 C2 1.625 2 1.625 3 4 C2.93416738 7.75245951 2.81598805 10.06312483 0.3125 12.9375 C-2.71969746 14.33067181 -4.70130212 14.49129543 -8 14 C-10.22664226 12.21868619 -10.86038384 10.85665718 -11.31640625 8.05859375 C-11.50310865 4.7882905 -11.4450562 2.58747418 -9.4375 -0.0625 C-5.90893904 -1.41963883 -3.61224884 -0.98515877 0 0 Z M-9 3 C-9.41666667 6.5 -9.41666667 6.5 -9 10 C-7.17296773 12.2491908 -7.17296773 12.2491908 -4.5 12.25 C-1.82703227 12.2491908 -1.82703227 12.2491908 0 10 C0.33333333 6.5 0.33333333 6.5 0 3 C-0.66 2.34 -1.32 1.68 -2 1 C-6.04622502 0.63019987 -6.04622502 0.63019987 -9 3 Z " fill="#859A5E" transform="translate(50,64)"/>
<path d="M0 0 C-0.33 0.99 -0.66 1.98 -1 3 C-1.99 2.67 -2.98 2.34 -4 2 C-4.2165625 2.928125 -4.2165625 2.928125 -4.4375 3.875 C-5 6 -5 6 -6 8 C-5.34 8 -4.68 8 -4 8 C-4.33 8.99 -4.66 9.98 -5 11 C-6.32 10.01 -7.64 9.02 -9 8 C-9 9.65 -9 11.3 -9 13 C-10.98 12.34 -12.96 11.68 -15 11 C-14.67 9.68 -14.34 8.36 -14 7 C-12.68 6.67 -11.36 6.34 -10 6 C-11.65 5.67 -13.3 5.34 -15 5 C-15 4.34 -15 3.68 -15 3 C-12.45969624 2.49193925 -9.91988132 1.9847393 -7.375 1.5 C-0.25 0 -0.25 0 0 0 Z " fill="#F3F9E5" transform="translate(157,58)"/>
<path d="M0 0 C3.375 -0.125 3.375 -0.125 7 0 C7.66 0.66 8.32 1.32 9 2 C8.8125 5 8.8125 5 8 8 C5 10 5 10 2.3125 9.625 C1.549375 9.41875 0.78625 9.2125 0 9 C-1.125 2.25 -1.125 2.25 0 0 Z " fill="#6C982B" transform="translate(85,35)"/>
<path d="M0 0 C1.32 0 2.64 0 4 0 C4.33 1.98 4.66 3.96 5 6 C5.66 5.34 6.32 4.68 7 4 C7 4.99 7 5.98 7 7 C7.66 7.33 8.32 7.66 9 8 C8.505 8.350625 8.01 8.70125 7.5 9.0625 C5.2420784 11.97898206 5.74403059 14.41642819 6 18 C6.33 18.99 6.66 19.98 7 21 C5.68 21 4.36 21 3 21 C2.67 18.69 2.34 16.38 2 14 C1.34 15.32 0.68 16.64 0 18 C-1.57159226 14.85681547 -0.04018399 12.07066611 0.9375 8.875 C1.13279297 8.21628906 1.32808594 7.55757812 1.52929688 6.87890625 C2.01304986 5.25066448 2.50569075 3.62506818 3 2 C2.01 1.67 1.02 1.34 0 1 C0 0.67 0 0.34 0 0 Z " fill="#EAF5DE" transform="translate(119,56)"/>
<path d="M0 0 C0.99 0 1.98 0 3 0 C3 1.32 3 2.64 3 4 C3.99 4 4.98 4 6 4 C6 4.99 6 5.98 6 7 C5.01 7 4.02 7 3 7 C3 10.3 3 13.6 3 17 C3.99 17 4.98 17 6 17 C6 17.66 6 18.32 6 19 C4.35 19 2.7 19 1 19 C-0.32229189 16.35541621 -0.09677194 14.32238699 -0.0625 11.375 C-0.05347656 10.37210938 -0.04445313 9.36921875 -0.03515625 8.3359375 C-0.01775391 7.17964844 -0.01775391 7.17964844 0 6 C-0.66 6 -1.32 6 -2 6 C-2 5.34 -2 4.68 -2 4 C-1.34 4 -0.68 4 0 4 C0 2.68 0 1.36 0 0 Z " fill="#9AB16F" transform="translate(85,82)"/>
<path d="M0 0 C2.875 -0.125 2.875 -0.125 6 0 C6.66 0.66 7.32 1.32 8 2 C7.625 5.625 7.625 5.625 7 9 C4.69 9.33 2.38 9.66 0 10 C0 6.7 0 3.4 0 0 Z " fill="#B7C1A5" transform="translate(19,104)"/>
<path d="M0 0 C0.99 0 1.98 0 3 0 C3 7.26 3 14.52 3 22 C2.67 22 2.34 22 2 22 C1.67 26.29 1.34 30.58 1 35 C1.66 35.33 2.32 35.66 3 36 C2.01 36 1.02 36 0 36 C0 24.12 0 12.24 0 0 Z " fill="#849E55" transform="translate(78,42)"/>
<path d="M0 0 C1.4540625 0.0309375 1.4540625 0.0309375 2.9375 0.0625 C2.9375 0.7225 2.9375 1.3825 2.9375 2.0625 C1.9475 2.5575 1.9475 2.5575 0.9375 3.0625 C1.9275 3.7225 2.9175 4.3825 3.9375 5.0625 C3.6075 6.0525 3.2775 7.0425 2.9375 8.0625 C2.59522583 9.39356622 2.25998257 10.72650079 1.9375 12.0625 C-0.91341869 10.78450196 -3.28394171 9.68353327 -5.0625 7.0625 C-4.50485487 0.09193581 -4.50485487 0.09193581 0 0 Z " fill="#F5F7E5" transform="translate(102.0625,103.9375)"/>
<path d="M0 0 C0 0.66 0 1.32 0 2 C-0.99 2 -1.98 2 -3 2 C-3 3.32 -3 4.64 -3 6 C-1.68 6.33 -0.36 6.66 1 7 C1 7.33 1 7.66 1 8 C-1.31 8.33 -3.62 8.66 -6 9 C-6 8.34 -6 7.68 -6 7 C-7.32 7 -8.64 7 -10 7 C-10 4.69 -10 2.38 -10 0 C-6.30458414 -0.95024979 -3.69541586 -0.95024979 0 0 Z " fill="#D2D9C2" transform="translate(77,106)"/>
<path d="M0 0 C0.33 0.66 0.66 1.32 1 2 C3.52733235 2.65555119 3.52733235 2.65555119 6 3 C5.38461538 9.52307692 5.38461538 9.52307692 3.4375 11.9375 C2.963125 12.288125 2.48875 12.63875 2 13 C1.34 11.35 0.68 9.7 0 8 C-2.31 7.67 -4.62 7.34 -7 7 C-7.33 8.98 -7.66 10.96 -8 13 C-9.125 11.3125 -9.125 11.3125 -10 9 C-9.125 6.25 -9.125 6.25 -8 4 C-7.67 4.66 -7.34 5.32 -7 6 C-4.69 6 -2.38 6 0 6 C-0.33 5.01 -0.66 4.02 -1 3 C-0.67 2.01 -0.34 1.02 0 0 Z " fill="#BBCE95" transform="translate(92,28)"/>
<path d="M0 0 C0.99 0 1.98 0 3 0 C3 0.99 3 1.98 3 3 C3.99 3 4.98 3 6 3 C6 3.66 6 4.32 6 5 C5.01 5 4.02 5 3 5 C3 8.63 3 12.26 3 16 C3.99 16 4.98 16 6 16 C6 16.66 6 17.32 6 18 C1.125 17.125 1.125 17.125 0 16 C-0.07226502 14.14712498 -0.0838122 12.29166122 -0.0625 10.4375 C-0.05347656 9.42558594 -0.04445313 8.41367188 -0.03515625 7.37109375 C-0.02355469 6.58863281 -0.01195313 5.80617188 0 5 C-0.66 4.67 -1.32 4.34 -2 4 C-1.34 4 -0.68 4 0 4 C0 2.68 0 1.36 0 0 Z " fill="#89A05D" transform="translate(68,60)"/>
<path d="M0 0 C0 0.66 0 1.32 0 2 C-1.65 2 -3.3 2 -5 2 C-5 3.32 -5 4.64 -5 6 C-3.35 6.33 -1.7 6.66 0 7 C0.625 9.875 0.625 9.875 1 13 C-1 15 -1 15 -4.625 15.125 C-5.73875 15.08375 -6.8525 15.0425 -8 15 C-8 14.34 -8 13.68 -8 13 C-6.02 13 -4.04 13 -2 13 C-2 11.68 -2 10.36 -2 9 C-2.804375 8.773125 -3.60875 8.54625 -4.4375 8.3125 C-5.283125 7.879375 -6.12875 7.44625 -7 7 C-7.8125 4.375 -7.8125 4.375 -8 2 C-4.77208445 -0.1519437 -3.71599191 -0.20086443 0 0 Z " fill="#869664" transform="translate(128,86)"/>
<path d="M0 0 C0.99 0 1.98 0 3 0 C3 0.99 3 1.98 3 3 C4.32 3 5.64 3 7 3 C7 3.99 7 4.98 7 6 C5.68 6 4.36 6 3 6 C3 9.3 3 12.6 3 16 C4.32 16 5.64 16 7 16 C7 16.66 7 17.32 7 18 C5.02 18 3.04 18 1 18 C1 13.71 1 9.42 1 5 C0.01 4.67 -0.98 4.34 -2 4 C-1.34 2.68 -0.68 1.36 0 0 Z " fill="#7C9548" transform="translate(153,60)"/>
<path d="M0 0 C7.42857143 1 7.42857143 1 11 2 C10.75 3.875 10.75 3.875 10 6 C8.68352881 6.69937532 7.34977849 7.36729133 6 8 C5.67 8.99 5.34 9.98 5 11 C5 10.34 5 9.68 5 9 C4.34 9 3.68 9 3 9 C2.87625 8.030625 2.7525 7.06125 2.625 6.0625 C2.41875 5.051875 2.2125 4.04125 2 3 C1.34 2.67 0.68 2.34 0 2 C0 1.34 0 0.68 0 0 Z " fill="#FAFCFA" transform="translate(36,78)"/>
<path d="M0 0 C0.66 0 1.32 0 2 0 C2.33 1.98 2.66 3.96 3 6 C-0.3 6 -3.6 6 -7 6 C-6.34 7.32 -5.68 8.64 -5 10 C-1.43793339 10.81870185 -1.43793339 10.81870185 2 11 C2 11.66 2 12.32 2 13 C-1.05072097 13.28780387 -3.95880164 13.43137565 -7 13 C-9.49325015 10.35564378 -9.94763101 8.78553491 -10.1875 5.1875 C-10.125625 4.465625 -10.06375 3.74375 -10 3 C-9.01 3 -8.02 3 -7 3 C-7.33 3.66 -7.66 4.32 -8 5 C-5.03 5 -2.06 5 1 5 C0.67 3.35 0.34 1.7 0 0 Z " fill="#819457" transform="translate(28,88)"/>
<path d="M0 0 C1.2065625 0.0309375 1.2065625 0.0309375 2.4375 0.0625 C2.7675 0.7225 3.0975 1.3825 3.4375 2.0625 C1.7875 2.3925 0.1375 2.7225 -1.5625 3.0625 C-1.8925 4.0525 -2.2225 5.0425 -2.5625 6.0625 C-0.5825 6.7225 1.3975 7.3825 3.4375 8.0625 C4.0625 10.4375 4.0625 10.4375 4.4375 13.0625 C2.4375 15.0625 2.4375 15.0625 -1.1875 15.1875 C-2.30125 15.14625 -3.415 15.105 -4.5625 15.0625 C-4.5625 14.4025 -4.5625 13.7425 -4.5625 13.0625 C-2.5825 13.0625 -0.6025 13.0625 1.4375 13.0625 C1.4375 11.7425 1.4375 10.4225 1.4375 9.0625 C0.81875 8.93875 0.2 8.815 -0.4375 8.6875 C-2.5625 8.0625 -2.5625 8.0625 -4.5625 6.0625 C-3.83457637 0.09352625 -3.83457637 0.09352625 0 0 Z " fill="#839752" transform="translate(144.5625,62.9375)"/>
<path d="M0 0 C1.98 0 3.96 0 6 0 C6.33 0.66 6.66 1.32 7 2 C5.02 2 3.04 2 1 2 C1 3.32 1 4.64 1 6 C2.98 6.66 4.96 7.32 7 8 C7.125 10.375 7.125 10.375 7 13 C5 15 5 15 1.375 15.125 C0.26125 15.08375 -0.8525 15.0425 -2 15 C-2 14.34 -2 13.68 -2 13 C0.31 13 2.62 13 5 13 C3.75453595 9.26360784 2.36595047 8.81243487 -1 7 C-0.67 4.69 -0.34 2.38 0 0 Z " fill="#839460" transform="translate(73,86)"/>
<path d="M0 0 C1.134375 0.020625 2.26875 0.04125 3.4375 0.0625 C2.7775 1.3825 2.1175 2.7025 1.4375 4.0625 C0.4475 4.0625 -0.5425 4.0625 -1.5625 4.0625 C-1.5625 7.6925 -1.5625 11.3225 -1.5625 15.0625 C-2.5525 15.0625 -3.5425 15.0625 -4.5625 15.0625 C-4.58935412 12.75006208 -4.60882841 10.4375373 -4.625 8.125 C-4.63660156 6.83722656 -4.64820312 5.54945312 -4.66015625 4.22265625 C-4.53212333 0.07951094 -4.53212333 0.07951094 0 0 Z " fill="#8A9F5E" transform="translate(114.5625,85.9375)"/>
<path d="M0 0 C1.32 0.33 2.64 0.66 4 1 C6.18703385 0.62092718 6.18703385 0.62092718 8 0 C8 0.99 8 1.98 8 3 C6.35 3.33 4.7 3.66 3 4 C3 7.63 3 11.26 3 15 C2.01 15 1.02 15 0 15 C0 10.05 0 5.1 0 0 Z " fill="#91A668" transform="translate(56,63)"/>
<path d="M0 0 C0.66 0 1.32 0 2 0 C2 5.94 2 11.88 2 18 C4.97 18 7.94 18 11 18 C11 18.66 11 19.32 11 20 C7.37 20 3.74 20 0 20 C0 13.4 0 6.8 0 0 Z " fill="#7A9052" transform="translate(5,81)"/>
<path d="M0 0 C5.75 -0.125 5.75 -0.125 8 1 C8 2.98 8 4.96 8 7 C4.7 7 1.4 7 -2 7 C-1.34 8.32 -0.68 9.64 0 11 C3.56206661 11.81870185 3.56206661 11.81870185 7 12 C7 12.66 7 13.32 7 14 C-0.42608696 14.48695652 -0.42608696 14.48695652 -3.0625 12.25 C-4 10 -4 10 -3 6 C-0.03 6 2.94 6 6 6 C5.67 4.35 5.34 2.7 5 1 C3.35 1 1.7 1 0 1 C0 0.67 0 0.34 0 0 Z " fill="#7D9053" transform="translate(98,87)"/>
<path d="M0 0 C0.763125 0.20625 1.52625 0.4125 2.3125 0.625 C2.9375 3 2.9375 3 3.3125 5.625 C1.3125 7.625 1.3125 7.625 -1.1875 7.9375 C-2.425 7.7828125 -2.425 7.7828125 -3.6875 7.625 C-5.6875 4.625 -5.6875 4.625 -5.6875 1.625 C-2.6875 -0.375 -2.6875 -0.375 0 0 Z " fill="#72973D" transform="translate(71.6875,36.375)"/>
<path d="M0 0 C0.94875 0.04125 1.8975 0.0825 2.875 0.125 C3.205 2.435 3.535 4.745 3.875 7.125 C0.575 7.455 -2.725 7.785 -6.125 8.125 C-5.09178322 0.20367133 -5.09178322 0.20367133 0 0 Z " fill="#91A565" transform="translate(100.125,85.875)"/>
<path d="M0 0 C1.4606285 2.64738916 2 3.89448334 2 7 C-0.97 7 -3.94 7 -7 7 C-7.33 5.68 -7.66 4.36 -8 3 C-5.85915306 -0.33020635 -3.75910189 -0.30479204 0 0 Z " fill="#95A95D" transform="translate(27,86)"/>
<path d="M0 0 C1.2065625 0.0309375 1.2065625 0.0309375 2.4375 0.0625 C2.7675 1.7125 3.0975 3.3625 3.4375 5.0625 C5.0875 5.0625 6.7375 5.0625 8.4375 5.0625 C7.4475 5.5575 7.4475 5.5575 6.4375 6.0625 C6.1075 6.7225 5.7775 7.3825 5.4375 8.0625 C5.4375 7.4025 5.4375 6.7425 5.4375 6.0625 C4.7775 6.0625 4.1175 6.0625 3.4375 6.0625 C3.1075 6.7225 2.7775 7.3825 2.4375 8.0625 C0 7.375 0 7.375 -2.5625 6.0625 C-3.4375 3.5 -3.4375 3.5 -3.5625 1.0625 C-2.5625 0.0625 -2.5625 0.0625 0 0 Z " fill="#839D4E" transform="translate(72.5625,22.9375)"/>
<path d="M0 0 C0.66 0 1.32 0 2 0 C2.33 0.66 2.66 1.32 3 2 C3.33 1.34 3.66 0.68 4 0 C4.99 0 5.98 0 7 0 C7 0.66 7 1.32 7 2 C6.01 2.66 5.02 3.32 4 4 C3.41651248 6.6556728 3.41651248 6.6556728 3.3125 9.625 C3.21388672 11.12933594 3.21388672 11.12933594 3.11328125 12.6640625 C3.05720703 13.82035156 3.05720703 13.82035156 3 15 C2.01 15 1.02 15 0 15 C0 10.05 0 5.1 0 0 Z " fill="#899D57" transform="translate(158,86)"/>
<path d="M0 0 C0 1.98 0 3.96 0 6 C-0.598125 6.268125 -1.19625 6.53625 -1.8125 6.8125 C-3.97224808 7.98493467 -5.35790256 9.19369282 -7 11 C-7 10.01 -7 9.02 -7 8 C-6.34 7.67 -5.68 7.34 -5 7 C-5 6.34 -5 5.68 -5 5 C-5.66 5 -6.32 5 -7 5 C-7 3.68 -7 2.36 -7 1 C-4.53721199 -0.231394 -2.7204945 -0.07159196 0 0 Z " fill="#F4FAE9" transform="translate(57,107)"/>
<path d="M0 0 C3.3 0 6.6 0 10 0 C10 2.31 10 4.62 10 7 C9.67 6.34 9.34 5.68 9 5 C6.36 5 3.72 5 1 5 C0.67 3.35 0.34 1.7 0 0 Z " fill="#ECF6DA" transform="translate(170,94)"/>
<path d="M0 0 C2.31 0 4.62 0 7 0 C7 0.99 7 1.98 7 3 C4.66785852 4.20628008 2.50357861 5.1654738 0 6 C0 7.32 0 8.64 0 10 C2.31 10.66 4.62 11.32 7 12 C6.67 12.99 6.34 13.98 6 15 C6 14.34 6 13.68 6 13 C4.576875 13.0928125 4.576875 13.0928125 3.125 13.1875 C2.09375 13.125625 1.0625 13.06375 0 13 C-2.58772586 9.1184112 -1.87719799 7.46573523 -1 3 C-0.67 2.01 -0.34 1.02 0 0 Z " fill="#E3F1C3" transform="translate(46,86)"/>
<path d="M0 0 C0 0.33 0 0.66 0 1 C-1.98 1.33 -3.96 1.66 -6 2 C-6.93786082 7.05009595 -6.93786082 7.05009595 -6 12 C-4.02 12 -2.04 12 0 12 C0 12.66 0 13.32 0 14 C-6.3782235 14.48137536 -6.3782235 14.48137536 -8.9375 12.5 C-10.52833811 8.75685151 -10.39307503 6.06177529 -10 2 C-6.3558226 -0.4294516 -4.28758728 -0.16179575 0 0 Z " fill="#7A8D4A" transform="translate(52,87)"/>
<path d="M0 0 C0.66 0 1.32 0 2 0 C2 0.99 2 1.98 2 3 C4.64 3 7.28 3 10 3 C10.33 2.01 10.66 1.02 11 0 C11.33 1.32 11.66 2.64 12 4 C8.7 4 5.4 4 2 4 C2.66 5.32 3.32 6.64 4 8 C7.56206661 8.81870185 7.56206661 8.81870185 11 9 C11 9.66 11 10.32 11 11 C3.61947973 11.48396854 3.61947973 11.48396854 1 9.4375 C-0.32761013 6.2014503 -0.19966912 3.46093134 0 0 Z " fill="#798F4C" transform="translate(124,67)"/>
<path d="M0 0 C0.350625 0.474375 0.70125 0.94875 1.0625 1.4375 C3.84163543 3.67873825 6.5144717 3.67117658 10 4 C10 6.31 10 8.62 10 11 C9.34 11 8.68 11 8 11 C8 12.32 8 13.64 8 15 C8.66 15 9.32 15 10 15 C10 15.66 10 16.32 10 17 C9.01 17 8.02 17 7 17 C6.67 13.04 6.34 9.08 6 5 C4.35 5.33 2.7 5.66 1 6 C0 5 0 5 -0.0625 2.4375 C-0.041875 1.633125 -0.02125 0.82875 0 0 Z " fill="#EBF5D8" transform="translate(42,97)"/>
<path d="M0 0 C0.33 0 0.66 0 1 0 C1 6.6 1 13.2 1 20 C4.63 20 8.26 20 12 20 C12 20.33 12 20.66 12 21 C10.27185839 21.19672365 8.54240803 21.38196799 6.8125 21.5625 C5.84957031 21.66691406 4.88664063 21.77132812 3.89453125 21.87890625 C1.05766623 21.99758751 -1.25423671 21.67765639 -4 21 C-4 19.68 -4 18.36 -4 17 C-2.68 17 -1.36 17 0 17 C0 11.39 0 5.78 0 0 Z " fill="#F1FDDA" transform="translate(4,81)"/>
<path d="M0 0 C2.68234235 2.42457972 4.36856725 5.07510397 6.1875 8.1875 C6.71730469 9.08855469 7.24710938 9.98960938 7.79296875 10.91796875 C8.19128906 11.60503906 8.58960938 12.29210937 9 13 C8.01 13.33 7.02 13.66 6 14 C5.67 13.01 5.34 12.02 5 11 C4.01 10.67 3.02 10.34 2 10 C1.67 10.99 1.34 11.98 1 13 C0.1276588 10.00519083 -0.10829766 7.36424089 -0.0625 4.25 C-0.05347656 3.45078125 -0.04445313 2.6515625 -0.03515625 1.828125 C-0.02355469 1.22484375 -0.01195313 0.6215625 0 0 Z " fill="#ECF8DD" transform="translate(22,63)"/>
<path d="M0 0 C2.125 0.375 2.125 0.375 4 1 C3.01 1.33 2.02 1.66 1 2 C0.67 2.99 0.34 3.98 0 5 C1.98 4.67 3.96 4.34 6 4 C6.33 4.99 6.66 5.98 7 7 C4.34262343 9.18284504 2.34430737 10.27633685 -1 11 C-1.22174933 9.54364629 -1.42698698 8.08477044 -1.625 6.625 C-1.74101562 5.81289062 -1.85703125 5.00078125 -1.9765625 4.1640625 C-1.98429688 3.44992188 -1.99203125 2.73578125 -2 2 C-1.34 1.34 -0.68 0.68 0 0 Z " fill="#D4D9C4" transform="translate(145,107)"/>
<path d="M0 0 C0.33 0.66 0.66 1.32 1 2 C2.65 2 4.3 2 6 2 C4.68 2.33 3.36 2.66 2 3 C1.67 6.96 1.34 10.92 1 15 C0.01 14.67 -0.98 14.34 -2 14 C-2.33 11.03 -2.66 8.06 -3 5 C-2.34 4.67 -1.68 4.34 -1 4 C-0.34786708 1.97536745 -0.34786708 1.97536745 0 0 Z " fill="#D1D6BB" transform="translate(85,99)"/>
<path d="M0 0 C4.95 0.99 4.95 0.99 10 2 C10 2.33 10 2.66 10 3 C7.69 3 5.38 3 3 3 C3.33 4.65 3.66 6.3 4 8 C6.64 8 9.28 8 12 8 C12 8.66 12 9.32 12 10 C9.14133991 10.23822167 6.80180916 10.42775712 4 10 C1.5 7.8125 1.5 7.8125 0 5 C0 3.35 0 1.7 0 0 Z " fill="#859367" transform="translate(167,91)"/>
<path d="M0 0 C3.69230769 0.69230769 3.69230769 0.69230769 5 2 C5.04063832 3.66617115 5.042721 5.33388095 5 7 C3.1875 7.625 3.1875 7.625 1 8 C0.01 7.34 -0.98 6.68 -2 6 C-1.125 1.125 -1.125 1.125 0 0 Z " fill="#BAC3A3" transform="translate(111,106)"/>
<path d="M0 0 C1.65 0.33 3.3 0.66 5 1 C5 4.96 5 8.92 5 13 C4.34 13 3.68 13 3 13 C2.87882813 12.36191406 2.75765625 11.72382812 2.6328125 11.06640625 C2.46523437 10.24011719 2.29765625 9.41382812 2.125 8.5625 C1.96257812 7.73878906 1.80015625 6.91507812 1.6328125 6.06640625 C1.42398438 5.38449219 1.21515625 4.70257813 1 4 C0.34 3.67 -0.32 3.34 -1 3 C-0.67 2.01 -0.34 1.02 0 0 Z " fill="#D1D7C1" transform="translate(158,101)"/>
<path d="M0 0 C3.3 0 6.6 0 10 0 C9.67 1.65 9.34 3.3 9 5 C5.625 5.125 5.625 5.125 2 5 C1.34 4.34 0.68 3.68 0 3 C0 2.01 0 1.02 0 0 Z " fill="#EBF7DA" transform="translate(126,71)"/>
<path d="M0 0 C0 0.99 0 1.98 0 3 C0.66 3 1.32 3 2 3 C2 5.64 2 8.28 2 11 C1.01 11 0.02 11 -1 11 C-1.12375 9.865625 -1.2475 8.73125 -1.375 7.5625 C-1.58125 6.386875 -1.7875 5.21125 -2 4 C-2.66 3.67 -3.32 3.34 -4 3 C-4 5.97 -4 8.94 -4 12 C-4.33 12 -4.66 12 -5 12 C-5 8.37 -5 4.74 -5 1 C-3 0 -3 0 0 0 Z " fill="#EFF6DB" transform="translate(64,66)"/>
<path d="M0 0 C0 1.65 0 3.3 0 5 C-3.76624671 6.25541557 -5.37188934 5.37061958 -9 4 C-9 2.68 -9 1.36 -9 0 C-5.52176885 -1.15941038 -3.54104422 -0.70820884 0 0 Z " fill="#F7F9EB" transform="translate(83,108)"/>
<path d="M0 0 C0.99 0 1.98 0 3 0 C3 5.94 3 11.88 3 18 C8.445 17.01 8.445 17.01 14 16 C14.66 17.32 15.32 18.64 16 20 C14.35 20.33 12.7 20.66 11 21 C11 20.34 11 19.68 11 19 C8.03 19 5.06 19 2 19 C2 13.06 2 7.12 2 1 C1.34 0.67 0.68 0.34 0 0 Z " fill="#C9D9AA" transform="translate(5,80)"/>
<path d="M0 0 C0.33 0 0.66 0 1 0 C1.01458252 0.62567871 1.02916504 1.25135742 1.04418945 1.89599609 C1.11852804 4.72296402 1.21523234 7.54873208 1.3125 10.375 C1.33505859 11.35984375 1.35761719 12.3446875 1.38085938 13.359375 C1.41630859 14.30039063 1.45175781 15.24140625 1.48828125 16.2109375 C1.51446533 17.08024902 1.54064941 17.94956055 1.56762695 18.84521484 C1.81345218 21.38600027 1.81345218 21.38600027 5 23 C4.67 23.99 4.34 24.98 4 26 C3.01 26 2.02 26 1 26 C1 24.68 1 23.36 1 22 C0.01 22.33 -0.98 22.66 -2 23 C-2.33 21.68 -2.66 20.36 -3 19 C-2.01 19.33 -1.02 19.66 0 20 C0 13.4 0 6.8 0 0 Z " fill="#C1D0A9" transform="translate(34,58)"/>
<path d="M0 0 C0.99 0 1.98 0 3 0 C3 4.29 3 8.58 3 13 C4.65 13 6.3 13 8 13 C7.01 13.33 6.02 13.66 5 14 C5 14.66 5 15.32 5 16 C4.34 16 3.68 16 3 16 C3 16.99 3 17.98 3 19 C1.68 19 0.36 19 -1 19 C-0.67 17.68 -0.34 16.36 0 15 C0.66 15 1.32 15 2 15 C2 10.38 2 5.76 2 1 C1.34 0.67 0.68 0.34 0 0 Z " fill="#BECEA7" transform="translate(151,65)"/>
<path d="M0 0 C1.98 0 3.96 0 6 0 C6 1.65 6 3.3 6 5 C4.68 5 3.36 5 2 5 C2.020625 5.804375 2.04125 6.60875 2.0625 7.4375 C2 10 2 10 1 11 C-0.99958364 11.04080783 -3.00045254 11.04254356 -5 11 C-5 10.67 -5 10.34 -5 10 C-3.35 9.67 -1.7 9.34 0 9 C0 8.236875 0 7.47375 0 6.6875 C0 4.45833333 0 2.22916667 0 0 Z " fill="#AAC582" transform="translate(90,44)"/>
<path d="M0 0 C2.125 0.375 2.125 0.375 4 1 C4.38218767 2.65614657 4.71395102 4.32457024 5 6 C4 7 4 7 1.4375 7.0625 C0.2309375 7.0315625 0.2309375 7.0315625 -1 7 C-1.625 4.625 -1.625 4.625 -2 2 C-1.34 1.34 -0.68 0.68 0 0 Z " fill="#7B9848" transform="translate(87,25)"/>
<path d="M0 0 C2.39763185 2.39763185 2.34280586 3.33273498 2.625 6.625 C2.69976562 7.44226563 2.77453125 8.25953125 2.8515625 9.1015625 C2.92503906 10.04128906 2.92503906 10.04128906 3 11 C2.01 11.495 2.01 11.495 1 12 C1 9.36 1 6.72 1 4 C0.01 4 -0.98 4 -2 4 C-2 6.97 -2 9.94 -2 13 C-2.33 13 -2.66 13 -3 13 C-3.33 10.03 -3.66 7.06 -4 4 C-5.65 3.67 -7.3 3.34 -9 3 C-8.67 2.34 -8.34 1.68 -8 1 C-5.36 1.33 -2.72 1.66 0 2 C0 1.34 0 0.68 0 0 Z " fill="#EDF8DF" transform="translate(135,76)"/>
<path d="M0 0 C0.33 0 0.66 0 1 0 C1 3.96 1 7.92 1 12 C1.99 12 2.98 12 4 12 C4 12.66 4 13.32 4 14 C3.34 14 2.68 14 2 14 C2.33 15.98 2.66 17.96 3 20 C2.01 20 1.02 20 0 20 C0 18.68 0 17.36 0 16 C-0.66 15.67 -1.32 15.34 -2 15 C-1.855625 14.38125 -1.71125 13.7625 -1.5625 13.125 C-0.77943337 8.77462983 -0.40153341 4.39978093 0 0 Z " fill="#F4FBDD" transform="translate(88,66)"/>
<path d="M0 0 C0.66 0 1.32 0 2 0 C2.66988586 2.29077041 3.33603162 4.58251459 4 6.875 C4.19078125 7.52597656 4.3815625 8.17695312 4.578125 8.84765625 C6 13.7734375 6 13.7734375 6 16 C5.01 16.33 4.02 16.66 3 17 C1.7619986 13.42355152 2.25073929 10.66305234 3 7 C2.34 7 1.68 7 1 7 C-0.0625 4.625 -0.0625 4.625 -1 2 C-0.67 1.34 -0.34 0.68 0 0 Z " fill="#EEF8DC" transform="translate(96,58)"/>
<path d="M0 0 C1.65 0.33 3.3 0.66 5 1 C4.67 2.65 4.34 4.3 4 6 C2.35 6.33 0.7 6.66 -1 7 C-1.625 5.1875 -1.625 5.1875 -2 3 C-1.34 2.01 -0.68 1.02 0 0 Z " fill="#799847" transform="translate(64,29)"/>
<path d="M0 0 C3.3 0 6.6 0 10 0 C8.515 1.485 8.515 1.485 7 3 C7.66 3.66 8.32 4.32 9 5 C5.625 5.125 5.625 5.125 2 5 C1.34 4.34 0.68 3.68 0 3 C0 2.01 0 1.02 0 0 Z " fill="#EAF6DC" transform="translate(21,94)"/>
<path d="M0 0 C1.98 0.66 3.96 1.32 6 2 C4.68 2.33 3.36 2.66 2 3 C2.33 4.65 2.66 6.3 3 8 C5.64 8 8.28 8 11 8 C11 8.66 11 9.32 11 10 C3.67784643 10.36010591 3.67784643 10.36010591 1 8.9375 C-0.52690415 5.97912322 -0.18468872 3.26283401 0 0 Z " fill="#7E8D54" transform="translate(56,91)"/>
<path d="M0 0 C1.67542976 0.28604898 3.34385343 0.61781233 5 1 C5 2.65 5 4.3 5 6 C1.25 7.125 1.25 7.125 -1 6 C-1.042721 4.33388095 -1.04063832 2.66617115 -1 1 C-0.67 0.67 -0.34 0.34 0 0 Z " fill="#7C9848" transform="translate(61,41)"/>
<path d="M0 0 C1.32 0.33 2.64 0.66 4 1 C4.33 4.3 4.66 7.6 5 11 C5.99 11.33 6.98 11.66 8 12 C8 12.66 8 13.32 8 14 C6.35 14 4.7 14 3 14 C1.67770811 11.35541621 1.90322806 9.32238699 1.9375 6.375 C1.94652344 5.37210937 1.95554687 4.36921875 1.96484375 3.3359375 C1.98224609 2.17964844 1.98224609 2.17964844 2 1 C1.34 0.67 0.68 0.34 0 0 Z " fill="#7A9155" transform="translate(83,87)"/>
<path d="M0 0 C1.32 0 2.64 0 4 0 C4 0.99 4 1.98 4 3 C5.98 3 7.96 3 10 3 C10.33 3.66 10.66 4.32 11 5 C9.948125 4.896875 8.89625 4.79375 7.8125 4.6875 C3.84478007 4.63931296 3.84478007 4.63931296 1.0625 7.5 C0.381875 8.325 -0.29875 9.15 -1 10 C-1.33 8.35 -1.66 6.7 -2 5 C-0.35 4.67 1.3 4.34 3 4 C3 3.34 3 2.68 3 2 C2.01 2 1.02 2 0 2 C0 1.34 0 0.68 0 0 Z " fill="#F2FAE4" transform="translate(55,82)"/>
<path d="M0 0 C0.4125 0.45375 0.825 0.9075 1.25 1.375 C3.06408095 3.05950374 4.75285627 3.99265971 7 5 C5.35 5 3.7 5 2 5 C2 6.32 2 7.64 2 9 C2.66 9.33 3.32 9.66 4 10 C2.35 10.66 0.7 11.32 -1 12 C-0.67 9.36 -0.34 6.72 0 4 C-1.32 4 -2.64 4 -4 4 C-4.66 4.66 -5.32 5.32 -6 6 C-6 4.68 -6 3.36 -6 2 C-4.02 2 -2.04 2 0 2 C0 1.34 0 0.68 0 0 Z " fill="#D3E5B2" transform="translate(68,26)"/>
<path d="M0 0 C-0.639375 0.2475 -1.27875 0.495 -1.9375 0.75 C-4.18741541 1.81562433 -4.18741541 1.81562433 -4.75 4.125 C-4.8325 4.74375 -4.915 5.3625 -5 6 C-3.35 6.33 -1.7 6.66 0 7 C0 7.33 0 7.66 0 8 C-2.31 8 -4.62 8 -7 8 C-7.12375 7.071875 -7.12375 7.071875 -7.25 6.125 C-7.81258459 3.81562433 -7.81258459 3.81562433 -10.0625 2.75 C-10.701875 2.5025 -11.34125 2.255 -12 2 C-7.8794254 0.00214565 -4.54805635 -0.17835515 0 0 Z " fill="#E6F4CA" transform="translate(83,20)"/>
<path d="M0 0 C2.7839183 1.39195915 2.97898997 3.15575779 4 6 C7.71599191 6.20086443 8.77208445 6.1519437 12 4 C11.625 5.9375 11.625 5.9375 11 8 C8.17116253 9.41441874 6.12623255 9.31900332 3 9 C0.532661 6.7793949 0.03847554 5.56430797 -0.1875 2.25 C-0.125625 1.5075 -0.06375 0.765 0 0 Z " fill="#798D4C" transform="translate(39,69)"/>
<path d="M0 0 C0.33 0 0.66 0 1 0 C1.144375 1.11375 1.28875 2.2275 1.4375 3.375 C1.78372035 6.82142047 1.78372035 6.82142047 3 9 C1 12 1 12 -1.125 12.6875 C-1.74375 12.790625 -2.3625 12.89375 -3 13 C-3.66 12.01 -4.32 11.02 -5 10 C-4.01 10 -3.02 10 -2 10 C-1.34 6.7 -0.68 3.4 0 0 Z " fill="#F3F7E4" transform="translate(108,68)"/>
<path d="M0 0 C0.33 0.99 0.66 1.98 1 3 C1.99 3 2.98 3 4 3 C4.66 4.98 5.32 6.96 6 9 C5.01 9.66 4.02 10.32 3 11 C2.67 9.02 2.34 7.04 2 5 C-0.31 4.34 -2.62 3.68 -5 3 C-4.360625 2.690625 -3.72125 2.38125 -3.0625 2.0625 C-1.06389179 1.1654837 -1.06389179 1.1654837 0 0 Z " fill="#F0F8E0" transform="translate(177,83)"/>
<path d="M0 0 C0.66 0 1.32 0 2 0 C2 6.6 2 13.2 2 20 C1.01 19.67 0.02 19.34 -1 19 C-0.505 17.515 -0.505 17.515 0 16 C0.07051114 13.26134713 0.09357765 10.54972412 0.0625 7.8125 C0.05573242 6.68811523 0.05573242 6.68811523 0.04882812 5.54101562 C0.03706354 3.69397617 0.01912865 1.84697787 0 0 Z " fill="#718F41" transform="translate(32,58)"/>
<path d="M0 0 C-0.66 1.65 -1.32 3.3 -2 5 C-3.98 5 -5.96 5 -8 5 C-7.67 3.35 -7.34 1.7 -7 0 C-3.86650268 -1.04449911 -3.01031744 -0.93423645 0 0 Z " fill="#6F9533" transform="translate(84,33)"/>
<path d="M0 0 C0.66 0 1.32 0 2 0 C2 0.66 2 1.32 2 2 C3.65 2 5.3 2 7 2 C7.33 3.32 7.66 4.64 8 6 C4.28400809 6.20086443 3.22791555 6.1519437 0 4 C0 2.68 0 1.36 0 0 Z " fill="#F9FAFB" transform="translate(46,92)"/>
<path d="M0 0 C0.33 0 0.66 0 1 0 C1 4.29 1 8.58 1 13 C0.34 13 -0.32 13 -1 13 C-2.5121867 9.97562661 -2.17263369 7.33758466 -2 4 C-1 1.5625 -1 1.5625 0 0 Z " fill="#F5FDFC" transform="translate(156,89)"/>
<path d="M0 0 C0.99 0 1.98 0 3 0 C3 0.99 3 1.98 3 3 C3.99 3 4.98 3 6 3 C6 3.66 6 4.32 6 5 C4.68 5 3.36 5 2 5 C2 6.98 2 8.96 2 11 C1.67 11 1.34 11 1 11 C0.87625 10.21625 0.7525 9.4325 0.625 8.625 C0.20882007 5.85942178 0.20882007 5.85942178 -2 4 C-1.34 4 -0.68 4 0 4 C0 2.68 0 1.36 0 0 Z " fill="#7D9746" transform="translate(68,60)"/>
<path d="M0 0 C2.64 0.99 5.28 1.98 8 3 C8 3.33 8 3.66 8 4 C6.02 4.33 4.04 4.66 2 5 C1.67 6.98 1.34 8.96 1 11 C-0.625 9.4375 -0.625 9.4375 -2 7 C-1.1875 3.25 -1.1875 3.25 0 0 Z " fill="#D9EBB5" transform="translate(66,42)"/>
<path d="M0 0 C1.32 0 2.64 0 4 0 C4.33 1.65 4.66 3.3 5 5 C1.25 6.125 1.25 6.125 -1 5 C-0.67 3.35 -0.34 1.7 0 0 Z " fill="#799740" transform="translate(79,21)"/>
<path d="M0 0 C3.3 0.33 6.6 0.66 10 1 C8.68 2.65 7.36 4.3 6 6 C4.02 5.34 2.04 4.68 0 4 C0 2.68 0 1.36 0 0 Z " fill="#EFF9E5" transform="translate(20,100)"/>
<path d="M0 0 C1.32 0.33 2.64 0.66 4 1 C4 4.96 4 8.92 4 13 C3.01 13 2.02 13 1 13 C0.67 8.71 0.34 4.42 0 0 Z " fill="#869E57" transform="translate(88,65)"/>
<path d="M0 0 C0.99 0 1.98 0 3 0 C3 3.96 3 7.92 3 12 C-0.67952474 7.09396701 -0.29124516 5.82490317 0 0 Z " fill="#F7FEE8" transform="translate(16,66)"/>
<path d="M0 0 C0.99 0.66 1.98 1.32 3 2 C3 2.66 3 3.32 3 4 C2.01 4.33 1.02 4.66 0 5 C-0.33 6.65 -0.66 8.3 -1 10 C-0.34 10.33 0.32 10.66 1 11 C-0.32 10.67 -1.64 10.34 -3 10 C-3.33 8.02 -3.66 6.04 -4 4 C-3.34 4 -2.68 4 -2 4 C-1.34 2.68 -0.68 1.36 0 0 Z " fill="#EFF9E2" transform="translate(61,37)"/>
<path d="M0 0 C1.32 0.99 2.64 1.98 4 3 C4.33 2.34 4.66 1.68 5 1 C5 2.65 5 4.3 5 6 C4.01 6.33 3.02 6.66 2 7 C1.01 7.99 0.02 8.98 -1 10 C-0.67 6.7 -0.34 3.4 0 0 Z " fill="#F6FCEF" transform="translate(127,106)"/>
<path d="M0 0 C0 2.31 0 4.62 0 7 C-1.32 7 -2.64 7 -4 7 C-4 7.99 -4 8.98 -4 10 C-4.66 10 -5.32 10 -6 10 C-6 8.68 -6 7.36 -6 6 C-4.35 6 -2.7 6 -1 6 C-1 5.34 -1 4.68 -1 4 C-2.32 3.67 -3.64 3.34 -5 3 C-3.82137388 0.64274776 -2.79264635 0 0 0 Z " fill="#E9F2CC" transform="translate(129,82)"/>
<path d="M0 0 C1.65 0 3.3 0 5 0 C5 1.98 5 3.96 5 6 C3.02 5.34 1.04 4.68 -1 4 C-0.67 2.68 -0.34 1.36 0 0 Z " fill="#E2F0CD" transform="translate(143,65)"/>
<path d="M0 0 C1.98 0 3.96 0 6 0 C4.68 1.65 3.36 3.3 2 5 C1.67 4.34 1.34 3.68 1 3 C0.01 3.495 0.01 3.495 -1 4 C-1.65213292 6.02463255 -1.65213292 6.02463255 -2 8 C-2.66 6.68 -3.32 5.36 -4 4 C-2.68 3.34 -1.36 2.68 0 2 C0 1.34 0 0.68 0 0 Z " fill="#E4F1D1" transform="translate(165,86)"/>
<path d="M0 0 C0.99 0 1.98 0 3 0 C2.67 1.98 2.34 3.96 2 6 C1.01 6 0.02 6 -1 6 C-1.33 6.99 -1.66 7.98 -2 9 C-2.33 8.01 -2.66 7.02 -3 6 C-3.66 5.67 -4.32 5.34 -5 5 C-3.68 5 -2.36 5 -1 5 C-0.67 3.35 -0.34 1.7 0 0 Z " fill="#F2F8DB" transform="translate(163,80)"/>
<path d="M0 0 C0.99 1.485 0.99 1.485 2 3 C2.99 2.01 3.98 1.02 5 0 C4.67 2.64 4.34 5.28 4 8 C2.68 7.67 1.36 7.34 0 7 C0 4.69 0 2.38 0 0 Z " fill="#81954B" transform="translate(102,70)"/>
<path d="M0 0 C0.33 0.99 0.66 1.98 1 3 C1.99 3 2.98 3 4 3 C3.67 5.31 3.34 7.62 3 10 C2.01 10 1.02 10 0 10 C0 6.7 0 3.4 0 0 Z " fill="#F4FBE6" transform="translate(156,66)"/>
<path d="M0 0 C1.32 0.66 2.64 1.32 4 2 C3.6875 4.875 3.6875 4.875 3 8 C2.01 8.66 1.02 9.32 0 10 C-0.99 9.67 -1.98 9.34 -3 9 C-2.34 8.34 -1.68 7.68 -1 7 C-0.01 7 0.98 7 2 7 C1.34 4.69 0.68 2.38 0 0 Z " fill="#7E9B4B" transform="translate(90,35)"/>
<path d="M0 0 C0.33 0 0.66 0 1 0 C1 1.65 1 3.3 1 5 C1.99 5 2.98 5 4 5 C4 3.35 4 1.7 4 0 C4.66 0 5.32 0 6 0 C6 2.31 6 4.62 6 7 C4.33388095 7.042721 2.66617115 7.04063832 1 7 C0 6 0 6 -0.0625 2.9375 C-0.041875 1.968125 -0.02125 0.99875 0 0 Z " fill="#9EAB8C" transform="translate(121,107)"/>
<path d="M0 0 C0.66 0.66 1.32 1.32 2 2 C1.875 4 1.875 4 1 6 C-1.0625 7.25 -1.0625 7.25 -3 8 C-3.66 5.69 -4.32 3.38 -5 1 C-2.525 1.495 -2.525 1.495 0 2 C0 1.34 0 0.68 0 0 Z " fill="#E5F1D0" transform="translate(71,86)"/>
<path d="M0 0 C0.66 0 1.32 0 2 0 C1 4 0 8 -1 12 C-1.66 11.34 -2.32 10.68 -3 10 C-2.67342446 6.24438133 -1.8830622 3.26397448 0 0 Z " fill="#899D5D" transform="translate(109,60)"/>
<path d="M0 0 C3 2 3 2 3.6875 4.125 C3.790625 4.74375 3.89375 5.3625 4 6 C3.01 6 2.02 6 1 6 C1 7.32 1 8.64 1 10 C0.34 10 -0.32 10 -1 10 C-1.125 3.375 -1.125 3.375 0 0 Z " fill="#EBF4D2" transform="translate(67,54)"/>
<path d="M0 0 C0.33 0.99 0.66 1.98 1 3 C0.34 3 -0.32 3 -1 3 C-1 3.99 -1 4.98 -1 6 C-2.32 6 -3.64 6 -5 6 C-5 4.35 -5 2.7 -5 1 C-3.35 0.67 -1.7 0.34 0 0 Z " fill="#F4F9E9" transform="translate(127,100)"/>
<path d="M0 0 C0.98120464 3.05263664 0.98120464 4.94736336 0 8 C-1.32 8 -2.64 8 -4 8 C-3.40138258 5.64828869 -2.73075648 3.3140622 -2 1 C-1.34 0.67 -0.68 0.34 0 0 Z " fill="#F7FDF7" transform="translate(166,88)"/>
<path d="M0 0 C0.33 1.32 0.66 2.64 1 4 C-1.64 4 -4.28 4 -7 4 C-6.67 3.01 -6.34 2.02 -6 1 C-4 0 -4 0 0 0 Z " fill="#E9F7CE" transform="translate(103,88)"/>
<path d="M0 0 C0 3.63 0 7.26 0 11 C-0.99 11.495 -0.99 11.495 -2 12 C-1.9175 11.0925 -1.835 10.185 -1.75 9.25 C-1.68975201 5.89958592 -1.68975201 5.89958592 -4 3.625 C-4.66 3.08875 -5.32 2.5525 -6 2 C-1.125 0 -1.125 0 0 0 Z " fill="#EAF8D7" transform="translate(78,42)"/>
<path d="M0 0 C1.65 0.33 3.3 0.66 5 1 C5 1.99 5 2.98 5 4 C2.69 4 0.38 4 -2 4 C-1.34 2.68 -0.68 1.36 0 0 Z " fill="#ECF8DB" transform="translate(172,88)"/>
<path d="M0 0 C1.65 0.33 3.3 0.66 5 1 C5 1.99 5 2.98 5 4 C2.69 4 0.38 4 -2 4 C-1.34 2.68 -0.68 1.36 0 0 Z " fill="#E9F9D4" transform="translate(60,88)"/>
<path d="M0 0 C2.31 0 4.62 0 7 0 C7 0.99 7 1.98 7 3 C4.66785852 4.20628008 2.50357861 5.1654738 0 6 C-1 3 -1 3 0 0 Z " fill="#C8D4AF" transform="translate(46,86)"/>
<path d="M0 0 C0.33 0.66 0.66 1.32 1 2 C0.01 3.485 0.01 3.485 -1 5 C-3.1640625 5.29296875 -3.1640625 5.29296875 -5.625 5.1875 C-6.44226563 5.16042969 -7.25953125 5.13335937 -8.1015625 5.10546875 C-9.04128906 5.05326172 -9.04128906 5.05326172 -10 5 C-9.67 3.68 -9.34 2.36 -9 1 C-9 1.66 -9 2.32 -9 3 C-3.98464948 2.67039784 -3.98464948 2.67039784 0 0 Z " fill="#EFF4DC" transform="translate(149,75)"/>
<path d="M0 0 C1.98 0 3.96 0 6 0 C6 1.32 6 2.64 6 4 C4.02 4 2.04 4 0 4 C0 2.68 0 1.36 0 0 Z " fill="#ECF7DF" transform="translate(140,72)"/>
<path d="M0 0 C1.65 0.33 3.3 0.66 5 1 C5.33 1.99 5.66 2.98 6 4 C3.69 4 1.38 4 -1 4 C-0.67 2.68 -0.34 1.36 0 0 Z " fill="#EAF8D1" transform="translate(128,65)"/>
<path d="M0 0 C0.99 0 1.98 0 3 0 C3 2.31 3 4.62 3 7 C1.68 7 0.36 7 -1 7 C-0.67 4.69 -0.34 2.38 0 0 Z " fill="#FAFAFB" transform="translate(44,68)"/>
<path d="M0 0 C-0.66 2.31 -1.32 4.62 -2 7 C-1.34 7.33 -0.68 7.66 0 8 C-0.99 8 -1.98 8 -3 8 C-4.6875 5.5 -4.6875 5.5 -6 3 C-3.375 0 -3.375 0 0 0 Z " fill="#F4F8E4" transform="translate(96,22)"/>
<path d="M0 0 C1.98 0.495 1.98 0.495 4 1 C4 2.65 4 4.3 4 6 C3.01 6.33 2.02 6.66 1 7 C1 6.34 1 5.68 1 5 C0.34 4.67 -0.32 4.34 -1 4 C-0.67 2.68 -0.34 1.36 0 0 Z " fill="#F1F8DD" transform="translate(129,95)"/>
<path d="M0 0 C0.99 0.33 1.98 0.66 3 1 C3 1.66 3 2.32 3 3 C4.98 3 6.96 3 9 3 C9 3.66 9 4.32 9 5 C5.625 5.125 5.625 5.125 2 5 C1.34 4.34 0.68 3.68 0 3 C0 2.01 0 1.02 0 0 Z " fill="#7E935B" transform="translate(43,96)"/>
<path d="M0 0 C0.33 0 0.66 0 1 0 C1 2.64 1 5.28 1 8 C1.66 8 2.32 8 3 8 C2.67 9.32 2.34 10.64 2 12 C0.35 12 -1.3 12 -3 12 C-2.01 11.67 -1.02 11.34 0 11 C0 7.37 0 3.74 0 0 Z " fill="#EFF7D5" transform="translate(113,90)"/>
<path d="M0 0 C1.32 0.33 2.64 0.66 4 1 C3.2884375 1.804375 3.2884375 1.804375 2.5625 2.625 C0.71813924 5.42842836 0.37543153 7.69620258 0 11 C-0.66 10.67 -1.32 10.34 -2 10 C-1.54177532 6.53058454 -1.10868317 3.32604951 0 0 Z " fill="#F1F9DF" transform="translate(18,86)"/>
<path d="M0 0 C1.65 0.33 3.3 0.66 5 1 C5.33 1.99 5.66 2.98 6 4 C3.69 4 1.38 4 -1 4 C-0.67 2.68 -0.34 1.36 0 0 Z " fill="#EFF8DF" transform="translate(22,88)"/>
<path d="M0 0 C2 3 2 3 2 6 C2.99 6 3.98 6 5 6 C5.33 5.01 5.66 4.02 6 3 C6.5625 4.9375 6.5625 4.9375 7 7 C6 8 6 8 3.4375 8.0625 C2.633125 8.041875 1.82875 8.02125 1 8 C0.67 5.36 0.34 2.72 0 0 Z " fill="#ECF5DA" transform="translate(112,72)"/>
<path d="M0 0 C0.99 0 1.98 0 3 0 C3 0.99 3 1.98 3 3 C4.32 3 5.64 3 7 3 C7 3.99 7 4.98 7 6 C4.07120629 5.37240135 1.63904371 4.41377341 -1 3 C-0.67 2.01 -0.34 1.02 0 0 Z " fill="#9EAE73" transform="translate(153,60)"/>
<path d="M0 0 C0.99 0.33 1.98 0.66 3 1 C3.33 1.99 3.66 2.98 4 4 C1.69 4.66 -0.62 5.32 -3 6 C-1.125 1.125 -1.125 1.125 0 0 Z " fill="#F7FDF0" transform="translate(118,110)"/>
<path d="M0 0 C1.98 0 3.96 0 6 0 C5.01 0.495 5.01 0.495 4 1 C4 2.65 4 4.3 4 6 C3.01 6 2.02 6 1 6 C0.67 4.02 0.34 2.04 0 0 Z " fill="#E8F2D1" transform="translate(121,106)"/>
<path d="M0 0 C2.475 0.495 2.475 0.495 5 1 C4.67 2.65 4.34 4.3 4 6 C3.67 5.34 3.34 4.68 3 4 C2.01 3.67 1.02 3.34 0 3 C0 2.01 0 1.02 0 0 Z " fill="#F6FBE3" transform="translate(125,89)"/>
<path d="M0 0 C1.32 0.33 2.64 0.66 4 1 C3.01 1.495 3.01 1.495 2 2 C2.99 2.66 3.98 3.32 5 4 C4.67 4.99 4.34 5.98 4 7 C2.68 7 1.36 7 0 7 C0.33 6.34 0.66 5.68 1 5 C0.67 4.34 0.34 3.68 0 3 C0 2.01 0 1.02 0 0 Z " fill="#A8AE95" transform="translate(39,107)"/>
<path d="M0 0 C1.485 0.99 1.485 0.99 3 2 C4.65549531 2.38499891 6.3222433 2.72793135 8 3 C7.01 4.485 7.01 4.485 6 6 C4.125 5.8125 4.125 5.8125 2 5 C0.75 2.4375 0.75 2.4375 0 0 Z " fill="#EAF3D1" transform="translate(168,98)"/>
<path d="M0 0 C4.95 0.99 4.95 0.99 10 2 C10 2.33 10 2.66 10 3 C7.36 3 4.72 3 2 3 C1.67 3.99 1.34 4.98 1 6 C0.67 5.67 0.34 5.34 0 5 C0 3.35 0 1.7 0 0 Z " fill="#7F9341" transform="translate(167,91)"/>
<path d="M0 0 C2.31 0 4.62 0 7 0 C6.34 1.32 5.68 2.64 5 4 C3.68 4 2.36 4 1 4 C0.67 2.68 0.34 1.36 0 0 Z " fill="#9EB080" transform="translate(111,86)"/>
<path d="M0 0 C0 0.66 0 1.32 0 2 C-1.65 2 -3.3 2 -5 2 C-5 2.99 -5 3.98 -5 5 C-5.99 5 -6.98 5 -8 5 C-8 4.01 -8 3.02 -8 2 C-4.77208445 -0.1519437 -3.71599191 -0.20086443 0 0 Z " fill="#869868" transform="translate(128,86)"/>
<path d="M0 0 C0.99 0 1.98 0 3 0 C3 0.66 3 1.32 3 2 C4.32 2 5.64 2 7 2 C6.67 2.99 6.34 3.98 6 5 C4.125 4.75 4.125 4.75 2 4 C0.75 1.9375 0.75 1.9375 0 0 Z " fill="#FBFDE7" transform="translate(19,78)"/>
<path d="M0 0 C0.66 0 1.32 0 2 0 C1.34 3.3 0.68 6.6 0 10 C-0.33 10 -0.66 10 -1 10 C-2.25 3.375 -2.25 3.375 0 0 Z " fill="#E7F5D1" transform="translate(105,64)"/>
<path d="M0 0 C0.99 0.33 1.98 0.66 3 1 C3 1.66 3 2.32 3 3 C2.34 3 1.68 3 1 3 C1 4.32 1 5.64 1 7 C1.66 7 2.32 7 3 7 C3 7.66 3 8.32 3 9 C2.01 9 1.02 9 0 9 C-0.87890625 2.84765625 -0.87890625 2.84765625 -1 1 C-0.67 0.67 -0.34 0.34 0 0 Z " fill="#A3AD87" transform="translate(49,105)"/>
<path d="M0 0 C1.2065625 0.0309375 1.2065625 0.0309375 2.4375 0.0625 C1.4784375 0.6503125 1.4784375 0.6503125 0.5 1.25 C-2.00028819 3.44722296 -2.21200425 4.82041433 -2.5625 8.0625 C-3.2225 7.7325 -3.8825 7.4025 -4.5625 7.0625 C-3.5234375 0.0859375 -3.5234375 0.0859375 0 0 Z " fill="#9BA581" transform="translate(101.5625,103.9375)"/>
<path d="M0 0 C2.39763185 2.39763185 2.34280586 3.33273498 2.625 6.625 C2.69976562 7.44226563 2.77453125 8.25953125 2.8515625 9.1015625 C2.92503906 10.04128906 2.92503906 10.04128906 3 11 C2.01 11.495 2.01 11.495 1 12 C1 9.36 1 6.72 1 4 C0.01 4 -0.98 4 -2 4 C-2 3.34 -2 2.68 -2 2 C-1.34 2 -0.68 2 0 2 C0 1.34 0 0.68 0 0 Z " fill="#E8F2CD" transform="translate(135,76)"/>
<path d="M0 0 C0.33 0 0.66 0 1 0 C1 2.97 1 5.94 1 9 C-1.25245881 6.31158141 -2.88213958 4.35358125 -4 1 C-3.34 1 -2.68 1 -2 1 C-2 1.66 -2 2.32 -2 3 C-1.34 3 -0.68 3 0 3 C0 2.01 0 1.02 0 0 Z " fill="#EEF9DA" transform="translate(31,64)"/>
<path d="M0 0 C-0.33 2.97 -0.66 5.94 -1 9 C-1.33 9 -1.66 9 -2 9 C-2.33 6.36 -2.66 3.72 -3 1 C-3.99 0.67 -4.98 0.34 -6 0 C-3 -1 -3 -1 0 0 Z " fill="#E9F1D5" transform="translate(104,57)"/>
<path d="M0 0 C0.66 0 1.32 0 2 0 C2.33 0.99 2.66 1.98 3 3 C2.34 3 1.68 3 1 3 C1.33 4.65 1.66 6.3 2 8 C1.01 7.67 0.02 7.34 -1 7 C-0.67 4.69 -0.34 2.38 0 0 Z " fill="#7D9B4D" transform="translate(84,46)"/>
<path d="M0 0 C0.99 0 1.98 0 3 0 C3.33 1.32 3.66 2.64 4 4 C2.35 4.33 0.7 4.66 -1 5 C-0.67 3.35 -0.34 1.7 0 0 Z " fill="#759738" transform="translate(86,26)"/>
<path d="M0 0 C1.32 0.66 2.64 1.32 4 2 C4 2.99 4 3.98 4 5 C1.69 5 -0.62 5 -3 5 C-2.505 4.54625 -2.01 4.0925 -1.5 3.625 C0.22609337 2.12364481 0.22609337 2.12364481 0 0 Z " fill="#E5F2C0" transform="translate(74,94)"/>
<path d="M0 0 C3.3 0 6.6 0 10 0 C10 0.33 10 0.66 10 1 C7.69 1.33 5.38 1.66 3 2 C3 2.99 3 3.98 3 5 C2.34 5 1.68 5 1 5 C0.67 3.35 0.34 1.7 0 0 Z " fill="#E0EEC7" transform="translate(58,94)"/>
<path d="M0 0 C1.67542976 0.28604898 3.34385343 0.61781233 5 1 C4.67 2.32 4.34 3.64 4 5 C3.01 4.67 2.02 4.34 1 4 C1 3.34 1 2.68 1 2 C0.34 1.67 -0.32 1.34 -1 1 C-0.67 0.67 -0.34 0.34 0 0 Z " fill="#E1EFC9" transform="translate(138,88)"/>
<path d="M0 0 C1.98 0.495 1.98 0.495 4 1 C4.33 2.32 4.66 3.64 5 5 C3.35 5 1.7 5 0 5 C-0.33 4.01 -0.66 3.02 -1 2 C-0.67 1.34 -0.34 0.68 0 0 Z " fill="#739F3C" transform="translate(85,35)"/>
<path d="M0 0 C1.32 0 2.64 0 4 0 C4 1.65 4 3.3 4 5 C2.68 4.67 1.36 4.34 0 4 C0 2.68 0 1.36 0 0 Z " fill="#F3FAEC" transform="translate(70,31)"/>
<path d="M0 0 C1.98 0 3.96 0 6 0 C5.67 1.32 5.34 2.64 5 4 C1.125 2.25 1.125 2.25 0 0 Z " fill="#CBCDBB" transform="translate(99,112)"/>
<path d="M0 0 C2.475 0.495 2.475 0.495 5 1 C5 2.32 5 3.64 5 5 C4.67 4.34 4.34 3.68 4 3 C2.68 3 1.36 3 0 3 C0 2.01 0 1.02 0 0 Z " fill="#F5FBF1" transform="translate(67,110)"/>
<path d="M0 0 C2.475 0.495 2.475 0.495 5 1 C4.67 1.66 4.34 2.32 4 3 C3.01 3 2.02 3 1 3 C0.67 4.32 0.34 5.64 0 7 C0 4.69 0 2.38 0 0 Z " fill="#D9E5C2" transform="translate(20,105)"/>
<path d="M0 0 C0.33 0 0.66 0 1 0 C1 2.31 1 4.62 1 7 C-1.64 7 -4.28 7 -7 7 C-7 6.67 -7 6.34 -7 6 C-5.5459375 5.62875 -5.5459375 5.62875 -4.0625 5.25 C-2.5465625 4.63125 -2.5465625 4.63125 -1 4 C-0.03122943 1.96756452 -0.03122943 1.96756452 0 0 Z " fill="#E1ECCA" transform="translate(80,95)"/>
<path d="M0 0 C0.33 1.32 0.66 2.64 1 4 C-2.3 3.67 -5.6 3.34 -9 3 C-9 2.67 -9 2.34 -9 2 C-6.03 1.34 -3.06 0.68 0 0 Z " fill="#8DA561" transform="translate(179,90)"/>
<path d="M0 0 C1.98 0 3.96 0 6 0 C5.01 0.33 4.02 0.66 3 1 C3.33 2.32 3.66 3.64 4 5 C2.68 4.67 1.36 4.34 0 4 C0 2.68 0 1.36 0 0 Z " fill="#D9E9C1" transform="translate(74,88)"/>
<path d="M0 0 C0 0.33 0 0.66 0 1 C-1.670625 1.433125 -1.670625 1.433125 -3.375 1.875 C-7.00291092 2.69241329 -7.00291092 2.69241329 -9 5 C-9 3.35 -9 1.7 -9 0 C-5.93109813 -1.53445094 -3.29905734 -0.54984289 0 0 Z " fill="#F4FBE8" transform="translate(103,85)"/>
</svg>
