<?xml version="1.0" encoding="UTF-8"?>
<svg version="1.1" xmlns="http://www.w3.org/2000/svg" width="867" height="1645">
<path d="M0 0 C1.44246094 1.16402344 1.44246094 1.16402344 2.9140625 2.3515625 C11.35952643 9.25813953 19.08835428 16.87254817 26.8125 24.5625 C27.61605927 25.35829468 27.61605927 25.35829468 28.43585205 26.17016602 C35.42936088 33.11038331 41.88699777 40.2558101 48 48 C48.90488659 49.09985467 49.81196994 50.19791146 50.72265625 51.29296875 C62.99378857 66.47311741 73.88911964 82.98030993 83.04394531 100.22021484 C83.97849487 101.95996618 84.95370903 103.67767843 85.9296875 105.39453125 C109.88002728 148.24544037 123.98586608 200.38108851 124.203125 249.5 C124.21018463 250.56580292 124.21724426 251.63160583 124.22451782 252.72970581 C124.45229155 297.2167875 124.45229155 297.2167875 121 317 C120.80132324 318.1746582 120.60264648 319.34931641 120.39794922 320.55957031 C109.04285414 386.07038849 80.02562687 446.0482053 35 495 C33.52035559 496.66624255 32.04119744 498.33291702 30.5625 500 C23.49737465 507.84056593 16.04378864 515.17196852 8 522 C7.09121094 522.79792969 6.18242188 523.59585938 5.24609375 524.41796875 C-3.72558648 532.2395812 -13.25549321 539.17730165 -23 546 C-23.61536621 546.43666992 -24.23073242 546.87333984 -24.86474609 547.32324219 C-51.41849832 566.10825288 -81.19667143 579.84500263 -112 590 C-112.9684082 590.31952637 -113.93681641 590.63905273 -114.93457031 590.96826172 C-139.78537772 599.01218635 -166.82081584 605 -193 605 C-193 544.61 -193 484.22 -193 422 C-186.07 424.97 -179.14 427.94 -172 431 C-148.8932787 436.73324664 -126.83871103 434.33587138 -105.8125 422.75 C-99.88219353 419.15113328 -94.96333693 414.8160826 -90 410 C-89.37480469 409.44828125 -88.74960937 408.8965625 -88.10546875 408.328125 C-74.50081703 395.921174 -66.56618126 375.22141022 -65.71875 357.1640625 C-65.19871398 338.15103818 -69.5693125 321.58245003 -79.64453125 305.36328125 C-81 303 -81 303 -81 301 C-79.81857422 300.41605469 -79.81857422 300.41605469 -78.61328125 299.8203125 C-57.42022517 288.93535825 -42.79652991 273.43248812 -34 251 C-27.00880762 228.39423787 -29.13413895 206.14948518 -39.4921875 184.9453125 C-43.88880946 176.84627205 -49.53793832 170.4714816 -56 164 C-56.65742187 163.33097656 -57.31484375 162.66195312 -57.9921875 161.97265625 C-74.30815881 146.53200529 -96.15657244 141.30729172 -117.953125 141.76171875 C-124.06782285 141.98601636 -130.00396413 142.75407047 -136 144 C-136.09796875 143.14019531 -136.1959375 142.28039062 -136.296875 141.39453125 C-138.63321587 122.92535386 -144.72128142 107.14951047 -157 93 C-157.7425 91.989375 -158.485 90.97875 -159.25 89.9375 C-171.32905117 75.78547635 -191.31678632 67.9837216 -209.25 65.25 C-210.4875 65.1675 -211.725 65.085 -213 65 C-213.76699219 64.9484375 -214.53398437 64.896875 -215.32421875 64.84375 C-238.5784166 64.00951869 -259.78030982 73.50213335 -276.93359375 88.71484375 C-292.09862296 103.06927006 -298.7794633 122.87801261 -302 143 C-302.60513428 142.93143799 -303.21026855 142.86287598 -303.83374023 142.79223633 C-330.19247338 139.95930022 -353.08576279 143.36115808 -374.484375 159.890625 C-391.47705875 174.13914864 -402.7210937 193.54100682 -404.87109375 215.91015625 C-404.91363281 216.59980469 -404.95617187 217.28945313 -405 218 C-405.07927734 219.26650391 -405.07927734 219.26650391 -405.16015625 220.55859375 C-405.86619696 243.18259379 -397.49716967 265.45753863 -382.0546875 282.07421875 C-373.60399027 289.99473915 -364.34820571 295.88517492 -354 301 C-354.65130154 304.6592863 -356.26759125 307.19667059 -358.25 310.3125 C-369.10586594 328.59137078 -372.079588 351.10521956 -366.97265625 371.69921875 C-362.23158778 387.78838686 -354.75077642 400.23209417 -343 412 C-342.34257812 412.66902344 -341.68515625 413.33804687 -341.0078125 414.02734375 C-325.60660185 428.60230919 -303.31769062 434.84764087 -282.546875 434.31640625 C-267.97708871 433.56268787 -254.91614296 428.45807148 -242 422 C-242 482.39 -242 542.78 -242 605 C-309.77962563 605 -381.74221585 572.63483466 -433 530 C-433.84087158 529.30342285 -433.84087158 529.30342285 -434.69873047 528.59277344 C-453.46996413 512.9650478 -470.93552824 496.1767497 -485.71630859 476.68212891 C-486.97821684 475.02854431 -488.26040657 473.3931529 -489.55078125 471.76171875 C-508.93146836 447.16705248 -524.58358474 419.12280301 -536 390 C-536.32709961 389.17757813 -536.65419922 388.35515625 -536.99121094 387.5078125 C-552.44028078 348.31992803 -559.46435841 306.93081813 -559.3125 264.9375 C-559.31034485 263.86050842 -559.3081897 262.78351685 -559.30596924 261.67388916 C-559.25337023 245.26269508 -558.75580968 229.21310134 -556 213 C-555.69400879 211.15897705 -555.69400879 211.15897705 -555.38183594 209.28076172 C-552.41477471 191.85197632 -548.51306168 174.8125833 -543 158 C-542.68224609 157.01435059 -542.36449219 156.02870117 -542.03710938 155.01318359 C-528.08766349 112.29128597 -504.70051996 72.64585502 -475 39 C-474.34418945 38.25661377 -473.68837891 37.51322754 -473.01269531 36.74731445 C-461.30225846 23.59810078 -448.9815872 10.74396303 -435 0 C-433.94722887 -0.87234444 -432.8979798 -1.74895018 -431.8515625 -2.62890625 C-387.78897752 -39.37993201 -333.21293349 -62.85947081 -277 -73 C-276.1651709 -73.15307617 -275.3303418 -73.30615234 -274.47021484 -73.46386719 C-178.28494288 -90.68472658 -74.64259067 -62.93394899 0 0 Z M-435.76025391 60.89916992 C-441.81675117 67.40727424 -447.36061225 74.27737907 -452.74023438 81.35058594 C-453.90197161 82.87165121 -455.08295431 84.377966 -456.265625 85.8828125 C-491.85296931 131.83913123 -514.9098357 192.76400594 -515.203125 251.16015625 C-515.21013931 252.09966629 -515.21715363 253.03917633 -515.22438049 254.00715637 C-515.2417975 257.02565353 -515.24823365 260.04395442 -515.25 263.0625 C-515.25067474 264.09433411 -515.25134949 265.12616821 -515.25204468 266.18927002 C-515.23595265 281.66979655 -514.78505665 296.7324553 -512 312 C-511.82839355 312.97372559 -511.65678711 313.94745117 -511.47998047 314.95068359 C-502.2719193 366.01057596 -480.73022165 414.4011756 -447 454 C-446.12406706 455.06042798 -445.24911695 456.12166834 -444.375 457.18359375 C-433.15983017 470.68373067 -420.86111995 483.21673743 -407 494 C-405.29048709 495.43609702 -403.58219659 496.87365018 -401.875 498.3125 C-383.62244392 513.16203715 -363.31888706 525.10036456 -342 535 C-341.23316895 535.35658691 -340.46633789 535.71317383 -339.67626953 536.08056641 C-322.41646346 544.00462066 -304.6355728 550.27288544 -286 554 C-286 529.25 -286 504.5 -286 479 C-293.26 478.34 -300.52 477.68 -308 477 C-320.92733385 474.27435732 -332.23010427 470.80717322 -344 465 C-345.50820313 464.2575 -345.50820313 464.2575 -347.046875 463.5 C-357.89680612 457.86048778 -367.13711401 450.35813201 -376 442 C-376.67675781 441.38769531 -377.35351562 440.77539062 -378.05078125 440.14453125 C-393.95127563 425.19997841 -404.45250601 403.85895768 -410 383 C-410.17644043 382.34451172 -410.35288086 381.68902344 -410.53466797 381.01367188 C-415.00722599 363.44259159 -414.80016852 343.89308187 -410.3125 326.4375 C-408.6556148 319.90220055 -408.6556148 319.90220055 -410.83203125 313.7578125 C-413.27169754 311.40344923 -415.73057347 309.37129449 -418.421875 307.32958984 C-436.83693235 291.81467612 -446.51689574 260.42849729 -448.80517578 237.48486328 C-451.51764404 202.88899613 -442.47854296 169.08392024 -419.78125 142.390625 C-417.56315211 139.88387053 -415.29636652 137.43504585 -413 135 C-412.38769531 134.32324219 -411.77539062 133.64648438 -411.14453125 132.94921875 C-393.89423827 114.59549551 -369.10899216 103.21201621 -344.49755859 99.41699219 C-339.78865825 98.63712548 -336.9144011 98.0705837 -334 94 C-332.69785337 91.68011565 -331.48743176 89.38096554 -330.3125 87 C-315.84214845 58.93412173 -289.60752341 37.31015135 -259.78759766 27.25390625 C-226.65175486 16.69609197 -191.63080343 19.12467533 -160.42944336 34.55493164 C-151.51531824 39.16920744 -143.65562717 44.51308902 -136 51 C-135.18273437 51.66644531 -134.36546875 52.33289063 -133.5234375 53.01953125 C-125.23406397 60.01279998 -118.87367755 68.5111415 -112.8125 77.4375 C-112.37502441 78.07163818 -111.93754883 78.70577637 -111.48681641 79.35913086 C-108.80941206 83.36806485 -107.36236337 86.99134433 -105.9375 91.625 C-104.36673488 95.01097208 -103.10068574 96.59493706 -99.56396484 97.89648438 C-94.21898207 99.2552423 -88.80961402 100.09669034 -83.36328125 100.9375 C-60.85541366 104.41710543 -40.20161191 117.47798591 -24 133 C-23.25234375 133.68449219 -22.5046875 134.36898437 -21.734375 135.07421875 C-0.96449933 154.7184543 12.79716826 185.22303603 14.12597656 213.69970703 C15.05099023 250.13236573 6.25004354 282.65159231 -18.95703125 309.87890625 C-21 312 -21 312 -23.26953125 314.02734375 C-25.16035887 315.81066797 -25.16035887 315.81066797 -25.2421875 317.9375 C-25.12101562 318.618125 -24.99984375 319.29875 -24.875 320 C-24.74432129 320.75603516 -24.61364258 321.51207031 -24.47900391 322.29101562 C-24.16537226 324.06474485 -23.83634402 325.83583684 -23.49023438 327.60351562 C-17.23465009 361.22435249 -24.29041105 395.34802076 -43.13525391 423.70849609 C-52.89921268 437.88578104 -65.42948451 449.90306441 -80 459 C-80.76828125 459.5259375 -81.5365625 460.051875 -82.328125 460.59375 C-102.33025182 473.74200119 -125.68709445 476.88064495 -149 479 C-149 503.75 -149 528.5 -149 554 C-86.56571188 541.51314238 -24.81412026 502.61254024 14 452 C15.01356488 450.71424583 16.02795096 449.42913876 17.04296875 448.14453125 C66.70238016 384.81313659 87.87330188 305.4584773 78.62548828 225.77294922 C71.68791195 172.02985789 49.66941581 121.27988045 16 79 C14.84757813 77.52660156 14.84757813 77.52660156 13.671875 76.0234375 C2.76642732 62.33104208 -9.60492453 49.2756015 -23 38 C-23.50402344 37.56623047 -24.00804687 37.13246094 -24.52734375 36.68554688 C-41.72465315 21.93081144 -60.81854603 9.29701471 -81 -1 C-82.19858643 -1.61367432 -82.19858643 -1.61367432 -83.42138672 -2.23974609 C-176.47711692 -49.35542679 -288.49168558 -43.21870835 -435.76025391 60.89916992 Z " fill="#2DA462" transform="translate(650,78)"/>
<path d="M0 0 C8.91 0 17.82 0 27 0 C36.50863936 11.18663454 36.50863936 11.18663454 38.921875 16.1015625 C41.52562656 21.16801558 44.42981804 25.75661338 47.75 30.375 C48.6317242 31.65040021 49.51066584 32.92772888 50.38671875 34.20703125 C52.17921348 36.80982258 53.97398388 39.41103261 55.76953125 42.01171875 C56.23713867 42.68992676 56.70474609 43.36813477 57.18652344 44.06689453 C58.04685617 45.31465176 58.90804375 46.56182049 59.77050781 47.80810547 C64.60058416 54.8161141 69.27684529 61.91526793 74 69 C74.33 46.23 74.66 23.46 75 0 C84.9 0 94.8 0 105 0 C105 40.92 105 81.84 105 124 C96.09 124 87.18 124 78 124 C70.13462971 113.88738105 70.13462971 113.88738105 67.09765625 109.2578125 C66.43443359 108.25363281 65.77121094 107.24945312 65.08789062 106.21484375 C64.41951172 105.19519531 63.75113281 104.17554688 63.0625 103.125 C58.52222926 96.21110566 53.89113981 89.41121193 48.99291992 82.74560547 C45.59846926 78.06913944 42.36618878 73.28336732 39.125 68.5 C38.46242187 67.52546875 37.79984375 66.5509375 37.1171875 65.546875 C34.73322399 62.0387661 32.35275453 58.5291318 30 55 C29.67 77.77 29.34 100.54 29 124 C19.43 124 9.86 124 0 124 C0 83.08 0 42.16 0 0 Z " fill="#515352" transform="translate(99,1257)"/>
<path d="M0 0 C6.77041782 6.61996409 11.29002041 14.58622435 11.98828125 24.16015625 C11.99814462 26.02433246 11.91590734 27.88866791 11.8125 29.75 C4.22632173 33.54308914 -7.82607804 31.88782564 -16.1875 31.75 C-16.35765625 31.14671875 -16.5278125 30.5434375 -16.703125 29.921875 C-18.63690684 23.52500507 -18.63690684 23.52500507 -23.1875 18.75 C-28.67537539 16.9207082 -34.91244768 16.77497758 -40.25 19.0625 C-43.11979433 21.56199829 -44.11846133 23.3771912 -44.8125 27.125 C-44.5597868 31.01978083 -44.5597868 31.01978083 -41.08203125 33.16796875 C-34.34812699 37.10678016 -26.6648338 39.03503642 -19.24438477 41.29956055 C-6.05116263 45.35565592 5.28856435 50.66687239 12.19921875 63.28125 C16.01249492 72.37959314 16.2727075 82.26567304 13.1875 91.625 C8.56762001 102.52727735 1.63015169 107.99619841 -8.9453125 113.07421875 C-22.06057888 118.05801997 -40.31151521 118.14360204 -53.43359375 113.12890625 C-63.98462558 107.84590733 -70.60619944 101.01070025 -75.30859375 90.1640625 C-76.59902634 85.1514488 -76.75765229 79.90817248 -77.1875 74.75 C-62.8325 73.76 -62.8325 73.76 -48.1875 72.75 C-47.5275 75.72 -46.8675 78.69 -46.1875 81.75 C-43.68401662 85.80736961 -41.65203805 87.27902504 -37.1875 88.75 C-29.77922033 89.5803312 -24.55509049 88.76213137 -18.375 84.5 C-16.39044363 81.57539061 -16.1875 79.24671009 -16.1875 75.75 C-19.6688792 71.41494928 -23.41279924 69.49765583 -28.5625 67.75 C-29.26076904 67.49927734 -29.95903809 67.24855469 -30.6784668 66.99023438 C-34.1600599 65.75198629 -37.66228214 64.58857084 -41.18359375 63.46875 C-54.4764372 59.23997471 -66.28490819 54.5302663 -73.0625 41.6875 C-74.74987852 38.01399398 -75.92765112 34.82096584 -76.1875 30.75 C-76.23777344 30.08613281 -76.28804688 29.42226563 -76.33984375 28.73828125 C-76.76959039 18.88848822 -73.56496973 10.24143824 -67.1875 2.75 C-48.92749601 -14.95031038 -19.9185421 -14.06014736 0 0 Z " fill="#515352" transform="translate(82.1875,854.25)"/>
<path d="M0 0 C9.24 0 18.48 0 28 0 C28.33 12.54 28.66 25.08 29 38 C31.64 36.68 34.28 35.36 37 34 C46.55157862 30.81614046 59.46013667 31.90765527 68.35546875 36.32421875 C79.59153749 43.44426822 87.07193041 53.32945757 91 66 C93.87628223 80.07663952 92.07572166 93.99068424 84.78125 106.3984375 C78.28900922 115.88052601 69.84112567 121.38629144 59 125 C47.26863686 126.07811361 36.6766588 125.80719434 26.875 118.75 C26.25625 118.1725 25.6375 117.595 25 117 C23.68 119.31 22.36 121.62 21 124 C14.07 124 7.14 124 0 124 C0 83.08 0 42.16 0 0 Z M31.1875 65 C26.25264896 71.76779571 26.09871605 77.70261272 27 86 C29.07347621 91.7398805 33.13210774 95.50781643 38 99 C43.17695764 100.72565255 48.12288018 100.6858707 53.25 98.8125 C58.99022928 95.02916707 62.81570795 90.73716822 64.5078125 83.96875 C65.51615409 77.87579231 64.56360742 72.60850513 62 67 C59.70800597 64.03949126 59.70800597 64.03949126 57 62 C56.29875 61.4225 55.5975 60.845 54.875 60.25 C46.62688498 54.75125665 37.18388219 58.11202745 31.1875 65 Z " fill="#515352" transform="translate(180,1051)"/>
<path d="M0 0 C6.93 0 13.86 0 21 0 C22.32 2.64 23.64 5.28 25 8 C25.99 7.236875 26.98 6.47375 28 5.6875 C37.03157522 -1.27433923 48.12887162 -1.18128701 59 0 C69.79856327 2.45907876 78.06344748 9.52243207 84.375 18.4375 C92.06794358 30.90311962 94.04961618 44.86437878 90.875 59.1875 C87.56413314 70.71422164 81.33943605 80.66389039 70.859375 86.85546875 C63.5952707 90.54893241 58.06804589 92.23740542 50 92.375 C48.79923828 92.43107422 48.79923828 92.43107422 47.57421875 92.48828125 C39.68636054 92.6015041 37.05652197 90.66205544 29 87 C28.67 98.88 28.34 110.76 28 123 C18.76 123 9.52 123 0 123 C0 82.41 0 41.82 0 0 Z M31.1875 32 C26.25264896 38.76779571 26.09871605 44.70261272 27 53 C29.07347621 58.7398805 33.13210774 62.50781643 38 66 C43.17695764 67.72565255 48.12288018 67.6858707 53.25 65.8125 C58.99022928 62.02916707 62.81570795 57.73716822 64.5078125 50.96875 C65.51615409 44.87579231 64.56360742 39.60850513 62 34 C59.70800597 31.03949126 59.70800597 31.03949126 57 29 C56.29875 28.4225 55.5975 27.845 54.875 27.25 C46.62688498 21.75125665 37.18388219 25.11202745 31.1875 32 Z " fill="#515352" transform="translate(323,878)"/>
<path d="M0 0 C6.93 0 13.86 0 21 0 C22.32 2.64 23.64 5.28 25 8 C25.99 7.236875 26.98 6.47375 28 5.6875 C37.03157522 -1.27433923 48.12887162 -1.18128701 59 0 C69.79856327 2.45907876 78.06344748 9.52243207 84.375 18.4375 C92.06794358 30.90311962 94.04961618 44.86437878 90.875 59.1875 C87.56413314 70.71422164 81.33943605 80.66389039 70.859375 86.85546875 C63.5952707 90.54893241 58.06804589 92.23740542 50 92.375 C48.79923828 92.43107422 48.79923828 92.43107422 47.57421875 92.48828125 C39.68636054 92.6015041 37.05652197 90.66205544 29 87 C28.67 98.88 28.34 110.76 28 123 C18.76 123 9.52 123 0 123 C0 82.41 0 41.82 0 0 Z M31.1875 32 C26.25264896 38.76779571 26.09871605 44.70261272 27 53 C29.07347621 58.7398805 33.13210774 62.50781643 38 66 C43.17695764 67.72565255 48.12288018 67.6858707 53.25 65.8125 C58.99022928 62.02916707 62.81570795 57.73716822 64.5078125 50.96875 C65.51615409 44.87579231 64.56360742 39.60850513 62 34 C59.70800597 31.03949126 59.70800597 31.03949126 57 29 C56.29875 28.4225 55.5975 27.845 54.875 27.25 C46.62688498 21.75125665 37.18388219 25.11202745 31.1875 32 Z " fill="#515352" transform="translate(216,878)"/>
<path d="M0 0 C8.91 0 17.82 0 27 0 C27 40.92 27 81.84 27 124 C20.07 124 13.14 124 6 124 C5.01 122.02 4.02 120.04 3 118 C0.8543299 119.06784512 -1.27448381 120.14849124 -3.3828125 121.2890625 C-13.82644398 126.37698553 -25.96546067 127.02221776 -37.0625 123.4375 C-49.18287882 118.15807119 -56.80560238 108.84480064 -62 97 C-67.17413034 83.80596764 -65.71042442 69.29128516 -60.25390625 56.4453125 C-55.00808515 46.21514424 -46.35015221 38.00293325 -35.61328125 33.8828125 C-24.99596993 31.28874508 -12.59514794 31.33389971 -3 37 C-2.01 37.66 -1.02 38.32 0 39 C0 26.13 0 13.26 0 0 Z M-32.875 64.9375 C-37.36775055 71.41234637 -37.80296962 77.27141745 -37 85 C-35.0186639 91.86713081 -30.79983666 95.90009026 -24.625 99.3125 C-18.34893152 100.95623222 -13.43676761 100.45968468 -7.82421875 97.328125 C-2.65959741 93.56801525 -0.05381215 88.21749166 1 82 C1.08628957 75.42042061 -0.01140298 69.3578169 -4 64 C-8.77403659 59.62833096 -13.20860763 57.61340068 -19.8125 57.72265625 C-25.08671976 58.39135197 -29.38938681 60.98168679 -32.875 64.9375 Z " fill="#515352" transform="translate(830,845)"/>
<path d="M0 0 C9.24 0 18.48 0 28 0 C28 13.2 28 26.4 28 40 C29.98 38.68 31.96 37.36 34 36 C42.62672029 31.3008922 54.71139528 31.67108731 64.10546875 33.65625 C72.54216251 36.69084373 78.97036467 42.47536171 82.88713074 50.51956177 C86.8928963 59.44788282 87.41027615 67.60252908 87.29296875 77.3203125 C87.28735977 78.67365036 87.28309584 80.0269944 87.28010559 81.38034058 C87.26875896 84.90838018 87.23938253 88.43603759 87.20599365 91.96392822 C87.17507038 95.57746114 87.16138767 99.19105885 87.14648438 102.8046875 C87.11609974 109.87012702 87.05735655 116.93452288 87 124 C78.09 124 69.18 124 60 124 C59.94392578 118.616875 59.94392578 118.616875 59.88671875 113.125 C59.84045253 109.63324026 59.78923726 106.14158554 59.73754883 102.64990234 C59.70438024 100.23102244 59.67632342 97.81206665 59.65356445 95.39306641 C59.61987065 91.9075499 59.5675456 88.42272385 59.51171875 84.9375 C59.50532883 83.86322754 59.4989389 82.78895508 59.49235535 81.68212891 C59.34459772 74.0647363 58.60324811 68.05881653 53.5 62.0625 C49.81052494 59.01868308 46.78628779 58.73085608 42.06640625 58.765625 C38.99577965 59.11390023 36.6535133 60.48370668 34 62 C33.34 62 32.68 62 32 62 C31.5359375 63.175625 31.5359375 63.175625 31.0625 64.375 C30 67 30 67 29 69 C28.88068952 70.75590877 28.82280132 72.51614607 28.79467773 74.27587891 C28.77473251 75.3768692 28.75478729 76.4778595 28.73423767 77.61221313 C28.70916893 79.40131607 28.70916893 79.40131607 28.68359375 81.2265625 C28.66281265 82.44451508 28.64203156 83.66246765 28.62062073 84.91732788 C28.55507416 88.8198262 28.49621645 92.7223935 28.4375 96.625 C28.39431965 99.26563222 28.35070552 101.90625739 28.30664062 104.546875 C28.19856887 111.03118024 28.09953293 117.5155355 28 124 C18.76 124 9.52 124 0 124 C0 83.08 0 42.16 0 0 Z " fill="#515352" transform="translate(498,1051)"/>
<path d="M0 0 C28.38 0 56.76 0 86 0 C86 9.57 86 19.14 86 29 C67.19 29 48.38 29 29 29 C29 36.92 29 44.84 29 53 C44.18 53 59.36 53 75 53 C75 62.24 75 71.48 75 81 C59.82 81 44.64 81 29 81 C29 95.19 29 109.38 29 124 C19.43 124 9.86 124 0 124 C0 83.08 0 42.16 0 0 Z " fill="#515352" transform="translate(181,1463)"/>
<path d="M0 0 C11.32463729 8.52044139 18.6299671 18.93664298 21 33 C21.71489362 45.85531915 21.71489362 45.85531915 20 51 C-0.13 51 -20.26 51 -41 51 C-35.66433521 58.79433594 -35.66433521 58.79433594 -28 63 C-21.382957 63.79613338 -16.60480172 62.56019293 -11 59 C-10.67 58.67 -10.34 58.34 -10 58 C-8.60286821 57.97117772 -7.20412652 58.01316211 -5.80859375 58.0859375 C-4.94556641 58.12976562 -4.08253906 58.17359375 -3.19335938 58.21875 C-2.28392578 58.2703125 -1.37449219 58.321875 -0.4375 58.375 C0.88604492 58.44074219 0.88604492 58.44074219 2.23632812 58.5078125 C7.5326584 58.78965713 12.74580949 59.27655253 18 60 C16.62220866 68.81473324 11.21686607 75.62477655 4.5078125 81.2421875 C-7.40427408 89.5917809 -21.94983149 91.10962334 -36.09179688 88.63378906 C-47.44776746 85.71904955 -56.26329994 78.16994362 -62.53515625 68.50390625 C-70.24334656 55.32803961 -71.74786517 42.01349781 -68.04296875 27.24609375 C-64.020371 14.72632324 -56.3041726 5.52412247 -45 -1 C-31.7170345 -7.76079082 -12.84101068 -7.64808477 0 0 Z M-38.80078125 28.18359375 C-40.29063337 30.22154323 -40.29063337 30.22154323 -41 34 C-29.45 34 -17.9 34 -6 34 C-7.2204039 27.89798052 -9.47609824 26.07850733 -14.125 22.25 C-23.13122154 16.24585231 -32.56277509 20.8649881 -38.80078125 28.18359375 Z " fill="#515352" transform="translate(511,1500)"/>
<path d="M0 0 C11.32463729 8.52044139 18.6299671 18.93664298 21 33 C21.71489362 45.85531915 21.71489362 45.85531915 20 51 C-0.13 51 -20.26 51 -41 51 C-35.66433521 58.79433594 -35.66433521 58.79433594 -28 63 C-21.382957 63.79613338 -16.60480172 62.56019293 -11 59 C-10.67 58.67 -10.34 58.34 -10 58 C-8.60286821 57.97117772 -7.20412652 58.01316211 -5.80859375 58.0859375 C-4.94556641 58.12976562 -4.08253906 58.17359375 -3.19335938 58.21875 C-2.28392578 58.2703125 -1.37449219 58.321875 -0.4375 58.375 C0.88604492 58.44074219 0.88604492 58.44074219 2.23632812 58.5078125 C7.5326584 58.78965713 12.74580949 59.27655253 18 60 C16.62220866 68.81473324 11.21686607 75.62477655 4.5078125 81.2421875 C-7.40427408 89.5917809 -21.94983149 91.10962334 -36.09179688 88.63378906 C-47.44776746 85.71904955 -56.26329994 78.16994362 -62.53515625 68.50390625 C-70.24334656 55.32803961 -71.74786517 42.01349781 -68.04296875 27.24609375 C-64.020371 14.72632324 -56.3041726 5.52412247 -45 -1 C-31.7170345 -7.76079082 -12.84101068 -7.64808477 0 0 Z M-38.80078125 28.18359375 C-40.29063337 30.22154323 -40.29063337 30.22154323 -41 34 C-29.45 34 -17.9 34 -6 34 C-7.2204039 27.89798052 -9.47609824 26.07850733 -14.125 22.25 C-23.13122154 16.24585231 -32.56277509 20.8649881 -38.80078125 28.18359375 Z " fill="#515352" transform="translate(669,1088)"/>
<path d="M0 0 C11.32463729 8.52044139 18.6299671 18.93664298 21 33 C21.71489362 45.85531915 21.71489362 45.85531915 20 51 C-0.13 51 -20.26 51 -41 51 C-35.66433521 58.79433594 -35.66433521 58.79433594 -28 63 C-21.382957 63.79613338 -16.60480172 62.56019293 -11 59 C-10.67 58.67 -10.34 58.34 -10 58 C-8.60286821 57.97117772 -7.20412652 58.01316211 -5.80859375 58.0859375 C-4.94556641 58.12976563 -4.08253906 58.17359375 -3.19335938 58.21875 C-2.28392578 58.2703125 -1.37449219 58.321875 -0.4375 58.375 C0.88604492 58.44074219 0.88604492 58.44074219 2.23632812 58.5078125 C7.5326584 58.78965713 12.74580949 59.27655253 18 60 C16.62220866 68.81473324 11.21686607 75.62477655 4.5078125 81.2421875 C-7.40427408 89.5917809 -21.94983149 91.10962334 -36.09179688 88.63378906 C-47.44776746 85.71904955 -56.26329994 78.16994362 -62.53515625 68.50390625 C-70.24334656 55.32803961 -71.74786517 42.01349781 -68.04296875 27.24609375 C-64.020371 14.72632324 -56.3041726 5.52412247 -45 -1 C-31.7170345 -7.76079082 -12.84101068 -7.64808477 0 0 Z M-38.80078125 28.18359375 C-40.29063337 30.22154323 -40.29063337 30.22154323 -41 34 C-29.45 34 -17.9 34 -6 34 C-7.2204039 27.89798052 -9.47609824 26.07850733 -14.125 22.25 C-23.13122154 16.24585231 -32.56277509 20.8649881 -38.80078125 28.18359375 Z " fill="#515352" transform="translate(734,882)"/>
<path d="M0 0 C9.85502142 7.22810346 17.73335148 17.76635612 20.171875 29.984375 C21.83545782 45.76241829 19.49278706 59.56700899 9.421875 72.35546875 C2.61592686 79.89436515 -7.31173669 86.66382057 -17.69360352 87.5324707 C-33.96117251 87.97289351 -45.6971388 86.08750307 -58.265625 74.98046875 C-67.80709369 64.1496124 -73.21591621 52.75095651 -72.82421875 38.05078125 C-71.55823382 24.18523207 -66.1364474 11.57942906 -55.3984375 2.515625 C-39.37611216 -9.5907007 -17.04329991 -10.87155949 0 0 Z M-40.453125 25.29296875 C-45.32173592 32.30949625 -45.33379112 39.00535812 -44.578125 47.35546875 C-42.94235019 53.34091748 -39.58904863 56.87850134 -34.578125 60.35546875 C-30.4152248 62.65601886 -26.24801605 62.9184398 -21.578125 62.35546875 C-15.72726658 60.44498437 -11.99049883 56.33035059 -8.578125 51.35546875 C-5.2570729 44.46006398 -6.33298101 36.16414448 -8.640625 29.10546875 C-11.92464795 24.44427488 -16.10527466 20.1797522 -21.578125 18.35546875 C-29.24921723 17.70537619 -35.23316818 19.36885354 -40.453125 25.29296875 Z " fill="#515352" transform="translate(344.578125,1501.64453125)"/>
<path d="M0 0 C9.85502142 7.22810346 17.73335148 17.76635612 20.171875 29.984375 C21.83545782 45.76241829 19.49278706 59.56700899 9.421875 72.35546875 C2.61592686 79.89436515 -7.31173669 86.66382057 -17.69360352 87.5324707 C-33.96117251 87.97289351 -45.6971388 86.08750307 -58.265625 74.98046875 C-67.80709369 64.1496124 -73.21591621 52.75095651 -72.82421875 38.05078125 C-71.55823382 24.18523207 -66.1364474 11.57942906 -55.3984375 2.515625 C-39.37611216 -9.5907007 -17.04329991 -10.87155949 0 0 Z M-40.453125 25.29296875 C-45.32173592 32.30949625 -45.33379112 39.00535812 -44.578125 47.35546875 C-42.94235019 53.34091748 -39.58904863 56.87850134 -34.578125 60.35546875 C-30.4152248 62.65601886 -26.24801605 62.9184398 -21.578125 62.35546875 C-15.72726658 60.44498437 -11.99049883 56.33035059 -8.578125 51.35546875 C-5.2570729 44.46006398 -6.33298101 36.16414448 -8.640625 29.10546875 C-11.92464795 24.44427488 -16.10527466 20.1797522 -21.578125 18.35546875 C-29.24921723 17.70537619 -35.23316818 19.36885354 -40.453125 25.29296875 Z " fill="#515352" transform="translate(505.578125,1295.64453125)"/>
<path d="M0 0 C9.85502142 7.22810346 17.73335148 17.76635612 20.171875 29.984375 C21.83545782 45.76241829 19.49278706 59.56700899 9.421875 72.35546875 C2.61592686 79.89436515 -7.31173669 86.66382057 -17.69360352 87.5324707 C-33.96117251 87.97289351 -45.6971388 86.08750307 -58.265625 74.98046875 C-67.80709369 64.1496124 -73.21591621 52.75095651 -72.82421875 38.05078125 C-71.55823382 24.18523207 -66.1364474 11.57942906 -55.3984375 2.515625 C-39.37611216 -9.5907007 -17.04329991 -10.87155949 0 0 Z M-40.453125 25.29296875 C-45.32173592 32.30949625 -45.33379112 39.00535812 -44.578125 47.35546875 C-42.94235019 53.34091748 -39.58904863 56.87850134 -34.578125 60.35546875 C-30.4152248 62.65601886 -26.24801605 62.9184398 -21.578125 62.35546875 C-15.72726658 60.44498437 -11.99049883 56.33035059 -8.578125 51.35546875 C-5.2570729 44.46006398 -6.33298101 36.16414448 -8.640625 29.10546875 C-11.92464795 24.44427488 -16.10527466 20.1797522 -21.578125 18.35546875 C-29.24921723 17.70537619 -35.23316818 19.36885354 -40.453125 25.29296875 Z " fill="#515352" transform="translate(497.578125,883.64453125)"/>
<path d="M0 0 C9.24 0 18.48 0 28 0 C28.03738281 3.90070312 28.07476562 7.80140625 28.11328125 11.8203125 C28.15950832 15.60324676 28.21073788 19.38608254 28.26245117 23.16894531 C28.29568038 25.79551191 28.3237185 28.42214957 28.34643555 31.04882812 C28.38001728 34.82713061 28.43233753 38.60478305 28.48828125 42.3828125 C28.49467117 43.55490265 28.5010611 44.7269928 28.50764465 45.93460083 C28.62968049 53.89057049 28.62968049 53.89057049 32 61 C36.39930797 65.06935987 39.82662936 66.37030288 45.87109375 66.28125 C50.57867611 65.65933086 53.98020899 63.32572832 56.875 59.5625 C58.73835479 55.31819186 59.12694775 51.2606391 59.20532227 46.65893555 C59.22526749 45.6182341 59.24521271 44.57753265 59.26576233 43.5052948 C59.28247482 42.3936647 59.29918732 41.28203461 59.31640625 40.13671875 C59.33718735 38.98959915 59.35796844 37.84247955 59.37937927 36.66059875 C59.44466619 33.00295902 59.50366286 29.34524862 59.5625 25.6875 C59.60570504 23.20507087 59.64931997 20.72264884 59.69335938 18.24023438 C59.80109604 12.16022757 59.90032515 6.0801657 60 0 C68.91 0 77.82 0 87 0 C87 30.03 87 60.06 87 91 C80.07 91 73.14 91 66 91 C65.01 89.02 64.02 87.04 63 85 C59.16610796 86.43770951 55.58436131 88.19830545 51.96484375 90.09765625 C43.73309433 93.87804216 31.97545552 93.14366002 23.36328125 91.1640625 C13.59209936 87.43574982 7.61219308 81.12377213 3.0078125 71.8828125 C-0.07543275 63.06329701 -0.27251836 54.3836235 -0.1953125 45.1171875 C-0.1924826 43.82177032 -0.18965271 42.52635315 -0.18673706 41.19168091 C-0.17917608 37.78210435 -0.15959446 34.3727038 -0.1373291 30.9631958 C-0.11670627 27.47028017 -0.10759019 23.97733468 -0.09765625 20.484375 C-0.07740631 13.6560956 -0.03824186 6.82829673 0 0 Z " fill="#515352" transform="translate(111,878)"/>
<path d="M0 0 C1.38699097 0.0146228 1.38699097 0.0146228 2.80200195 0.02954102 C14.20282497 0.32573149 21.2849995 3.19954857 29.53125 11.2109375 C38.51812518 20.76787566 39.06521476 30.70337502 38.91796875 43.31640625 C38.91236236 44.73843434 38.9080972 46.16046828 38.90510559 47.58250427 C38.89373869 51.29632008 38.86434372 55.00977494 38.83099365 58.72344971 C38.80011511 62.52456787 38.78656255 66.32574526 38.77148438 70.12695312 C38.73946445 77.56398444 38.68676527 85.00064533 38.625 92.4375 C31.695 92.4375 24.765 92.4375 17.625 92.4375 C16.965 90.1275 16.305 87.8175 15.625 85.4375 C14.17867187 86.17806641 14.17867187 86.17806641 12.703125 86.93359375 C11.42719148 87.58094237 10.15114379 88.22806599 8.875 88.875 C7.92367187 89.36323242 7.92367187 89.36323242 6.953125 89.86132812 C-2.5755473 94.67529278 -14.23861648 95.01006834 -24.63671875 92.71875 C-32.16172032 89.86086273 -37.28755941 85.76516894 -40.62890625 78.34765625 C-43.7514307 70.35333973 -42.75177871 62.17493898 -39.375 54.4375 C-34.28735734 46.03247631 -26.03319245 42.10537653 -16.86328125 39.40234375 C-7.32584212 37.22322642 1.89466504 37.11593446 11.625 37.4375 C11.19816368 36.16304546 10.75802798 34.89304118 10.3125 33.625 C10.06886719 32.91730469 9.82523438 32.20960937 9.57421875 31.48046875 C8.19447086 28.51088791 6.53869039 26.8943452 3.625 25.4375 C0.37409308 25.06239536 -2.21888451 24.77209131 -5.1328125 26.44921875 C-7.82808356 28.61715416 -9.27184396 30.12803188 -10.375 33.4375 C-24.235 32.4475 -24.235 32.4475 -38.375 31.4375 C-35.25747502 18.96740009 -32.71710255 11.63750841 -21.9765625 4.69140625 C-14.67176937 1.17062758 -8.09181193 -0.09526729 0 0 Z M-12.375 58.4375 C-14.85538907 62.1580836 -14.83837203 64.03546571 -14.375 68.4375 C-12.15636971 71.34467073 -10.85555071 72.27731643 -7.375 73.4375 C-2.11734055 73.83430449 1.18602842 73.33248146 5.625 70.4375 C8.87472074 67.23157603 11.49594258 64.13738118 11.72265625 59.39453125 C11.71105469 58.68683594 11.69945312 57.97914062 11.6875 57.25 C11.666875 55.991875 11.64625 54.73375 11.625 53.4375 C3.6837123 53.24525281 -5.66090761 53.90095109 -12.375 58.4375 Z " fill="#515352" transform="translate(683.375,1288.5625)"/>
<path d="M0 0 C1.38699097 0.0146228 1.38699097 0.0146228 2.80200195 0.02954102 C14.20282497 0.32573149 21.2849995 3.19954857 29.53125 11.2109375 C38.51812518 20.76787566 39.06521476 30.70337502 38.91796875 43.31640625 C38.91236236 44.73843434 38.9080972 46.16046828 38.90510559 47.58250427 C38.89373869 51.29632008 38.86434372 55.00977494 38.83099365 58.72344971 C38.80011511 62.52456787 38.78656255 66.32574526 38.77148438 70.12695312 C38.73946445 77.56398444 38.68676527 85.00064533 38.625 92.4375 C31.695 92.4375 24.765 92.4375 17.625 92.4375 C16.965 90.1275 16.305 87.8175 15.625 85.4375 C14.17867188 86.17806641 14.17867188 86.17806641 12.703125 86.93359375 C11.42719148 87.58094237 10.15114379 88.22806599 8.875 88.875 C7.92367187 89.36323242 7.92367187 89.36323242 6.953125 89.86132812 C-2.5755473 94.67529278 -14.23861648 95.01006834 -24.63671875 92.71875 C-32.16172032 89.86086273 -37.28755941 85.76516894 -40.62890625 78.34765625 C-43.7514307 70.35333973 -42.75177871 62.17493898 -39.375 54.4375 C-34.28735734 46.03247631 -26.03319245 42.10537653 -16.86328125 39.40234375 C-7.32584212 37.22322642 1.89466504 37.11593446 11.625 37.4375 C11.19816368 36.16304546 10.75802798 34.89304118 10.3125 33.625 C10.06886719 32.91730469 9.82523437 32.20960937 9.57421875 31.48046875 C8.19447086 28.51088791 6.53869039 26.8943452 3.625 25.4375 C0.37409308 25.06239536 -2.21888451 24.77209131 -5.1328125 26.44921875 C-7.82808356 28.61715416 -9.27184396 30.12803188 -10.375 33.4375 C-24.235 32.4475 -24.235 32.4475 -38.375 31.4375 C-35.25747502 18.96740009 -32.71710255 11.63750841 -21.9765625 4.69140625 C-14.67176937 1.17062758 -8.09181193 -0.09526729 0 0 Z M-12.375 58.4375 C-14.85538907 62.1580836 -14.83837203 64.03546571 -14.375 68.4375 C-12.15636971 71.34467073 -10.85555071 72.27731643 -7.375 73.4375 C-2.11734055 73.83430449 1.18602842 73.33248146 5.625 70.4375 C8.87472074 67.23157603 11.49594258 64.13738118 11.72265625 59.39453125 C11.71105469 58.68683594 11.69945312 57.97914062 11.6875 57.25 C11.666875 55.991875 11.64625 54.73375 11.625 53.4375 C3.6837123 53.24525281 -5.66090761 53.90095109 -12.375 58.4375 Z " fill="#515352" transform="translate(262.375,1288.5625)"/>
<path d="M0 0 C9.57 0 19.14 0 29 0 C30.28777344 3.65835937 31.57554687 7.31671875 32.90234375 11.0859375 C34.14641455 14.61729824 35.39093421 18.14850049 36.63549805 21.6796875 C37.50217935 24.13948276 38.36839175 26.59944328 39.23413086 29.05957031 C40.47647706 32.58962556 41.72049202 36.11908879 42.96484375 39.6484375 C43.35341049 40.75367767 43.74197723 41.85891785 44.14231873 42.99765015 C44.50261673 44.01855743 44.86291473 45.03946472 45.23413086 46.09130859 C45.55167831 46.99287689 45.86922577 47.89444519 46.19639587 48.82333374 C46.9561308 51.00372699 46.9561308 51.00372699 48 53 C48.33492714 52.02614098 48.33492714 52.02614098 48.67662048 51.03260803 C50.99274976 44.29990872 53.31292495 37.56861381 55.63549805 30.83813477 C56.50275737 28.32319657 57.36897025 25.80789727 58.23413086 23.29223633 C59.47497652 19.68476344 60.71953023 16.07858886 61.96484375 12.47265625 C62.35341049 11.34038101 62.74197723 10.20810577 63.14231873 9.04151917 C63.50261673 8.00051559 63.86291473 6.95951202 64.23413086 5.88696289 C64.55167831 4.96540909 64.86922577 4.04385529 65.19639587 3.09437561 C66 1 66 1 67 0 C69.14558827 -0.08775605 71.29404421 -0.10695219 73.44140625 -0.09765625 C74.74658203 -0.09443359 76.05175781 -0.09121094 77.39648438 -0.08789062 C78.7851569 -0.07953401 80.17382877 -0.07106905 81.5625 -0.0625 C82.95507656 -0.05748666 84.34765481 -0.05292347 85.74023438 -0.04882812 C89.1601987 -0.03699434 92.58007844 -0.0205088 96 0 C95.27767418 4.81812708 93.50892159 9.09721956 91.70874023 13.59130859 C91.37031601 14.44576569 91.03189178 15.30022278 90.68321228 16.18057251 C89.5629215 19.0050398 88.43614923 21.82686316 87.30859375 24.6484375 C86.52193333 26.62312901 85.7354007 28.59787143 84.94898987 30.57266235 C83.29679059 34.71813513 81.6410291 38.86216506 79.9831543 43.00537109 C77.87538659 48.27453787 75.77946051 53.5483235 73.68669033 58.82346153 C72.06337628 62.90977954 70.43206979 66.99287307 68.79863167 71.07515335 C68.02370545 73.0153904 67.25152806 74.95672796 66.48232841 76.8992424 C51.35911744 115.05440951 51.35911744 115.05440951 36.4296875 122.08984375 C32.25356807 123.65421003 28.3801228 124.13873299 23.9375 124.125 C23.10089844 124.12757812 22.26429688 124.13015625 21.40234375 124.1328125 C19 124 19 124 15 123 C15 115.08 15 107.16 15 99 C19.95 98.01 19.95 98.01 25 97 C28.39397282 94.87876699 30.88137736 92.91517923 32 89 C31.59141025 82.20088299 28.9633892 76.34502031 26.40625 70.09375 C25.70792053 68.35925598 25.70792053 68.35925598 24.9954834 66.58972168 C23.75502645 63.51220952 22.50805847 60.43751176 21.25756836 57.36407471 C20.02104831 54.32149022 18.79201069 51.27589111 17.5625 48.23046875 C17.08151855 47.03921387 16.60053711 45.84795898 16.10498047 44.62060547 C15.62689941 43.43611816 15.14881836 42.25163086 14.65625 41.03125 C14.18074707 39.85320801 13.70524414 38.67516602 13.21533203 37.46142578 C11.80885043 33.97483444 10.40412063 30.48754275 9 27 C8.54399414 25.86933105 8.08798828 24.73866211 7.61816406 23.57373047 C6.33158879 20.37504459 5.05483646 17.17262594 3.78125 13.96875 C3.39634399 13.0152063 3.01143799 12.0616626 2.61486816 11.07922363 C2.2682312 10.20165405 1.92159424 9.32408447 1.56445312 8.41992188 C1.26059692 7.65869019 0.95674072 6.8974585 0.64367676 6.11315918 C0 4 0 4 0 0 Z " fill="#515352" transform="translate(277,1084)"/>
<path d="M0 0 C6.93 0 13.86 0 21 0 C22.32 2.64 23.64 5.28 25 8 C26.155 7.236875 27.31 6.47375 28.5 5.6875 C35.48131284 1.07484687 42.07711152 -0.54284347 50.375 -0.4375 C51.21135986 -0.42992676 52.04771973 -0.42235352 52.90942383 -0.41455078 C63.6808427 -0.12731294 71.89400999 3.81259679 79.46484375 11.484375 C87.02076755 20.76277383 87.57649107 33.20477674 87.390625 44.61328125 C87.38313905 45.96232757 87.3774573 47.31138496 87.37347412 48.66044617 C87.35840213 52.16392517 87.31928765 55.66671144 87.2746582 59.16992188 C87.23330007 62.76357491 87.21515651 66.35734627 87.1953125 69.95117188 C87.15490431 76.96805417 87.07657176 83.98304914 87 91 C78.09 91 69.18 91 60 91 C59.94392578 85.616875 59.94392578 85.616875 59.88671875 80.125 C59.84045253 76.63324026 59.78923726 73.14158554 59.73754883 69.64990234 C59.70438024 67.23102244 59.67632342 64.81206665 59.65356445 62.39306641 C59.61987065 58.9075499 59.5675456 55.42272385 59.51171875 51.9375 C59.50532883 50.86322754 59.4989389 49.78895508 59.49235535 48.68212891 C59.34459772 41.0647363 58.60324811 35.05881653 53.5 29.0625 C49.81403076 26.02157538 46.77974865 25.70719222 42.05859375 25.78515625 C37.49023683 26.26192974 34.69882274 28.22562886 31.6875 31.5625 C29.22461589 35.11999927 28.86334127 36.97950311 28.79467773 41.27587891 C28.77473251 42.3768692 28.75478729 43.4778595 28.73423767 44.61221313 C28.70916893 46.40131607 28.70916893 46.40131607 28.68359375 48.2265625 C28.66281265 49.44451508 28.64203156 50.66246765 28.62062073 51.91732788 C28.55507416 55.8198262 28.49621645 59.7223935 28.4375 63.625 C28.39431965 66.26563222 28.35070552 68.90625739 28.30664062 71.546875 C28.19856887 78.03118024 28.09953293 84.5155355 28 91 C18.76 91 9.52 91 0 91 C0 60.97 0 30.94 0 0 Z " fill="#515352" transform="translate(541,1290)"/>
<path d="M0 0 C0.97018066 0.00829834 1.94036133 0.01659668 2.93994141 0.02514648 C14.38585053 0.29556018 22.13902426 3.09196611 30.125 11.4375 C34.74474796 16.43182212 37.35999712 21.57558403 37.125 28.4375 C33.91717315 28.775829 30.70866902 29.10726146 27.5 29.4375 C26.59636719 29.53289062 25.69273437 29.62828125 24.76171875 29.7265625 C14.75241275 30.74941129 14.75241275 30.74941129 11.125 30.4375 C9.5 28.0625 9.5 28.0625 8.125 25.4375 C5.0766148 23.42516729 3.01132753 23.25970631 -0.5625 23.75 C-1.74392578 23.89888672 -1.74392578 23.89888672 -2.94921875 24.05078125 C-4.87460267 24.252419 -4.87460267 24.252419 -5.875 25.4375 C-5.91563832 27.10367115 -5.917721 28.77138095 -5.875 30.4375 C-1.1700071 32.44717034 3.55427783 34.28729729 8.4453125 35.79296875 C20.0948108 39.39122197 30.97448177 43.01587101 37.125 54.42578125 C39.50811962 61.60306729 39.6852715 71.00444637 36.5625 78 C35.4375 79.7734375 35.4375 79.7734375 34.125 81.4375 C33.650625 82.04851562 33.17625 82.65953125 32.6875 83.2890625 C27.04826956 89.66030843 18.35067566 94.00415831 9.81005859 94.59863281 C7.03991483 94.64449082 4.27049168 94.67278291 1.5 94.6875 C0.55253906 94.708125 -0.39492188 94.72875 -1.37109375 94.75 C-11.35861341 94.80465127 -20.28789992 92.84040996 -27.65234375 85.71875 C-33.59380079 79.38789514 -36.62266254 73.00741711 -37.875 64.4375 C-34.50045836 64.09941643 -31.12530319 63.76788682 -27.75 63.4375 C-26.79867187 63.34210938 -25.84734375 63.24671875 -24.8671875 63.1484375 C-20.18399618 62.69312723 -15.5873674 62.31056754 -10.875 62.4375 C-10.483125 63.365625 -10.09125 64.29375 -9.6875 65.25 C-7.65070372 68.83195207 -6.72058729 70.0163047 -2.875 71.4375 C1.03228779 71.54068542 4.67478785 71.50439616 7.8984375 69.1328125 C9.51578129 67.2461249 9.51578129 67.2461249 9.125 63.4375 C4.40795295 61.42268091 -0.33537641 59.58234143 -5.23046875 58.046875 C-17.12785307 54.31445998 -27.32507608 50.82770669 -33.875 39.4375 C-37.2098524 30.94878479 -36.37666105 23.61311732 -32.875 15.4375 C-29.26070692 8.34792511 -23.04322796 4.51567072 -15.75390625 1.7890625 C-10.49852424 0.11899116 -5.48206841 -0.0602999 0 0 Z " fill="#515352" transform="translate(579.875,1494.5625)"/>
<path d="M0 0 C7.59 0 15.18 0 23 0 C23 6.93 23 13.86 23 21 C29.27 21 35.54 21 42 21 C42 29.58 42 38.16 42 47 C35.73 47 29.46 47 23 47 C23.0743431 51.14526896 23.15746419 55.28851233 23.26245117 59.43286133 C23.29551994 60.8399778 23.32360704 62.24722116 23.34643555 63.65454102 C23.38031799 65.68820824 23.43264218 67.72073135 23.48828125 69.75390625 C23.51446533 70.97408447 23.54064941 72.1942627 23.56762695 73.45141602 C24.05949753 77.48830973 25.09435379 80.41212069 27 84 C31.63333333 88.1 31.63333333 88.1 42 87 C42 95.25 42 103.5 42 112 C37.4769457 113.13076358 33.44683783 113.22128218 28.8125 113.25 C27.99974609 113.270625 27.18699219 113.29125 26.34960938 113.3125 C17.28451332 113.37019353 10.33387525 111.16544208 3.72265625 104.8828125 C-3.41761267 97.07870906 -4.32188729 87.53010968 -4.1953125 77.37109375 C-4.1924826 76.49598648 -4.18965271 75.62087921 -4.18673706 74.71925354 C-4.17565394 71.95852245 -4.15057257 69.19813095 -4.125 66.4375 C-4.11495482 64.55143702 -4.10583168 62.66536889 -4.09765625 60.77929688 C-4.07575368 56.18606957 -4.04130764 51.59309211 -4 47 C-8.62 47 -13.24 47 -18 47 C-18 39.08 -18 31.16 -18 23 C-15.9375 22.938125 -13.875 22.87625 -11.75 22.8125 C-7.72988392 22.69189652 -5.7302271 22.61492808 -2.625 20 C-0.45950724 16.00216721 -0.33395706 12.66421019 -0.25 8.1875 C-0.1675 5.485625 -0.085 2.78375 0 0 Z " fill="#515352" transform="translate(645,1475)"/>
<path d="M0 0 C7.59 0 15.18 0 23 0 C23 6.93 23 13.86 23 21 C29.27 21 35.54 21 42 21 C42 29.58 42 38.16 42 47 C35.73 47 29.46 47 23 47 C23.0743431 51.14526896 23.15746419 55.28851233 23.26245117 59.43286133 C23.29551994 60.8399778 23.32360704 62.24722116 23.34643555 63.65454102 C23.38031799 65.68820824 23.43264218 67.72073135 23.48828125 69.75390625 C23.51446533 70.97408447 23.54064941 72.1942627 23.56762695 73.45141602 C24.05949753 77.48830973 25.09435379 80.41212069 27 84 C31.63333333 88.1 31.63333333 88.1 42 87 C42 95.25 42 103.5 42 112 C37.4769457 113.13076358 33.44683783 113.22128218 28.8125 113.25 C27.99974609 113.270625 27.18699219 113.29125 26.34960938 113.3125 C17.28451332 113.37019353 10.33387525 111.16544208 3.72265625 104.8828125 C-3.41761267 97.07870906 -4.32188729 87.53010968 -4.1953125 77.37109375 C-4.1924826 76.49598648 -4.18965271 75.62087921 -4.18673706 74.71925354 C-4.17565394 71.95852245 -4.15057257 69.19813095 -4.125 66.4375 C-4.11495482 64.55143702 -4.10583168 62.66536889 -4.09765625 60.77929688 C-4.07575368 56.18606957 -4.04130764 51.59309211 -4 47 C-8.62 47 -13.24 47 -18 47 C-18 39.08 -18 31.16 -18 23 C-15.9375 22.938125 -13.875 22.87625 -11.75 22.8125 C-7.72988392 22.69189652 -5.7302271 22.61492808 -2.625 20 C-0.45950724 16.00216721 -0.33395706 12.66421019 -0.25 8.1875 C-0.1675 5.485625 -0.085 2.78375 0 0 Z " fill="#515352" transform="translate(329,1269)"/>
<path d="M0 0 C7.59 0 15.18 0 23 0 C23 6.93 23 13.86 23 21 C29.27 21 35.54 21 42 21 C42 29.58 42 38.16 42 47 C35.73 47 29.46 47 23 47 C23.0743431 51.14526896 23.15746419 55.28851233 23.26245117 59.43286133 C23.29551994 60.8399778 23.32360704 62.24722116 23.34643555 63.65454102 C23.38031799 65.68820824 23.43264218 67.72073135 23.48828125 69.75390625 C23.51446533 70.97408447 23.54064941 72.1942627 23.56762695 73.45141602 C24.05949753 77.48830973 25.09435379 80.41212069 27 84 C31.63333333 88.1 31.63333333 88.1 42 87 C42 95.25 42 103.5 42 112 C37.4769457 113.13076358 33.44683783 113.22128218 28.8125 113.25 C27.99974609 113.270625 27.18699219 113.29125 26.34960938 113.3125 C17.28451332 113.37019353 10.33387525 111.16544208 3.72265625 104.8828125 C-3.41761267 97.07870906 -4.32188729 87.53010968 -4.1953125 77.37109375 C-4.1924826 76.49598648 -4.18965271 75.62087921 -4.18673706 74.71925354 C-4.17565394 71.95852245 -4.15057257 69.19813095 -4.125 66.4375 C-4.11495482 64.55143702 -4.10583168 62.66536889 -4.09765625 60.77929688 C-4.07575368 56.18606957 -4.04130764 51.59309211 -4 47 C-8.62 47 -13.24 47 -18 47 C-18 39.08 -18 31.16 -18 23 C-15.9375 22.938125 -13.875 22.87625 -11.75 22.8125 C-7.72988392 22.69189652 -5.7302271 22.61492808 -2.625 20 C-0.45950724 16.00216721 -0.33395706 12.66421019 -0.25 8.1875 C-0.1675 5.485625 -0.085 2.78375 0 0 Z " fill="#515352" transform="translate(439,1063)"/>
<path d="M0 0 C7.59 0 15.18 0 23 0 C23 6.93 23 13.86 23 21 C29.27 21 35.54 21 42 21 C42 29.58 42 38.16 42 47 C35.73 47 29.46 47 23 47 C23.0743431 51.14526896 23.15746419 55.28851233 23.26245117 59.43286133 C23.29551994 60.8399778 23.32360704 62.24722116 23.34643555 63.65454102 C23.38031799 65.68820824 23.43264218 67.72073135 23.48828125 69.75390625 C23.51446533 70.97408447 23.54064941 72.1942627 23.56762695 73.45141602 C24.05949753 77.48830973 25.09435379 80.41212069 27 84 C31.63333333 88.1 31.63333333 88.1 42 87 C42 95.25 42 103.5 42 112 C37.4769457 113.13076358 33.44683783 113.22128218 28.8125 113.25 C27.99974609 113.270625 27.18699219 113.29125 26.34960938 113.3125 C17.28451332 113.37019353 10.33387525 111.16544208 3.72265625 104.8828125 C-3.41761267 97.07870906 -4.32188729 87.53010968 -4.1953125 77.37109375 C-4.1924826 76.49598648 -4.18965271 75.62087921 -4.18673706 74.71925354 C-4.17565394 71.95852245 -4.15057257 69.19813095 -4.125 66.4375 C-4.11495482 64.55143702 -4.10583168 62.66536889 -4.09765625 60.77929688 C-4.07575368 56.18606957 -4.04130764 51.59309211 -4 47 C-8.62 47 -13.24 47 -18 47 C-18 39.08 -18 31.16 -18 23 C-15.9375 22.938125 -13.875 22.87625 -11.75 22.8125 C-7.72988392 22.69189652 -5.7302271 22.61492808 -2.625 20 C-0.45950724 16.00216721 -0.33395706 12.66421019 -0.25 8.1875 C-0.1675 5.485625 -0.085 2.78375 0 0 Z " fill="#515352" transform="translate(611,857)"/>
<path d="M0 0 C9.24 0 18.48 0 28 0 C28 40.92 28 81.84 28 124 C18.76 124 9.52 124 0 124 C0 83.08 0 42.16 0 0 Z " fill="#515352" transform="translate(740,1257)"/>
<path d="M0 0 C6.93 0 13.86 0 21 0 C22.32 2.64 23.64 5.28 25 8 C25.51949219 7.59007812 26.03898437 7.18015625 26.57421875 6.7578125 C27.27160156 6.21898437 27.96898437 5.68015625 28.6875 5.125 C29.37199219 4.59132813 30.05648438 4.05765625 30.76171875 3.5078125 C35.86107302 0.0726454 40.28037036 -0.26406572 46.3125 -0.125 C50.1178125 -0.063125 50.1178125 -0.063125 54 0 C54 9.57 54 19.14 54 29 C52.35 28.67 50.7 28.34 49 28 C43.18314877 27.52738084 38.84105078 27.36921191 34 31 C33.34 31 32.68 31 32 31 C31.690625 31.78375 31.38125 32.5675 31.0625 33.375 C30 36 30 36 29 38 C28.88097188 39.69463258 28.82285313 41.39371122 28.79467773 43.09228516 C28.77473251 44.15323395 28.75478729 45.21418274 28.73423767 46.30728149 C28.71752518 47.45626923 28.70081268 48.60525696 28.68359375 49.7890625 C28.66281265 50.96262299 28.64203156 52.13618347 28.62062073 53.3453064 C28.55508017 57.10514304 28.49621924 60.86505122 28.4375 64.625 C28.39431908 67.16927832 28.35070493 69.71354933 28.30664062 72.2578125 C28.19857661 78.50513599 28.09953626 84.75251145 28 91 C18.76 91 9.52 91 0 91 C0 60.97 0 30.94 0 0 Z " fill="#515352" transform="translate(380,1496)"/>
<path d="M0 0 C6.93 0 13.86 0 21 0 C22.32 2.64 23.64 5.28 25 8 C25.51949219 7.59007812 26.03898438 7.18015625 26.57421875 6.7578125 C27.27160156 6.21898437 27.96898437 5.68015625 28.6875 5.125 C29.37199219 4.59132813 30.05648437 4.05765625 30.76171875 3.5078125 C35.86107302 0.0726454 40.28037036 -0.26406572 46.3125 -0.125 C50.1178125 -0.063125 50.1178125 -0.063125 54 0 C54 9.57 54 19.14 54 29 C52.35 28.67 50.7 28.34 49 28 C43.18314877 27.52738084 38.84105078 27.36921191 34 31 C33.34 31 32.68 31 32 31 C31.690625 31.78375 31.38125 32.5675 31.0625 33.375 C30 36 30 36 29 38 C28.88097188 39.69463258 28.82285313 41.39371122 28.79467773 43.09228516 C28.77473251 44.15323395 28.75478729 45.21418274 28.73423767 46.30728149 C28.71752518 47.45626923 28.70081268 48.60525696 28.68359375 49.7890625 C28.66281265 50.96262299 28.64203156 52.13618347 28.62062073 53.3453064 C28.55508017 57.10514304 28.49621924 60.86505122 28.4375 64.625 C28.39431908 67.16927832 28.35070493 69.71354933 28.30664062 72.2578125 C28.19857661 78.50513599 28.09953626 84.75251145 28 91 C18.76 91 9.52 91 0 91 C0 60.97 0 30.94 0 0 Z " fill="#515352" transform="translate(533,878)"/>
<path d="M0 0 C9.24 0 18.48 0 28 0 C28 30.03 28 60.06 28 91 C18.76 91 9.52 91 0 91 C0 60.97 0 30.94 0 0 Z " fill="#515352" transform="translate(389,1290)"/>
<path d="M0 0 C3.67806313 4.20350072 5.83277406 8.48043336 5.49609375 14.18359375 C4.56873547 18.60316609 2.94726493 21.85731696 -0.375 25 C-5.08406313 27.77003713 -8.84849273 28.53329002 -14.16015625 27.70703125 C-18.99618592 26.16325458 -22.27530239 22.86470465 -24.8125 18.5625 C-25.82219797 13.96276481 -25.85413915 10.33094208 -24.25 5.875 C-21.77086201 2.07365508 -18.90253149 -1.15062587 -14.45703125 -2.64453125 C-9.11582131 -3.55644514 -4.63956721 -2.74937316 0 0 Z " fill="#515352" transform="translate(413.375,1254)"/>
</svg>
