<?xml version="1.0" encoding="UTF-8"?>
<svg version="1.1" xmlns="http://www.w3.org/2000/svg" viewBox="0 0 2067 1884"   <!-- â† Add this line! Matches width/height -->
  width="2067" 
  height="1884" 
  class="brand-logo" 
  role="img" 
  aria-label="Scouts logo">
<path d="M0 0 C3.27855512 0.57471975 4.80780642 1.46554108 7.03125 3.921875 C7.588125 4.52837891 8.145 5.13488281 8.71875 5.75976562 C9.3065625 6.41654297 9.894375 7.07332031 10.5 7.75 C11.11875 8.42740234 11.7375 9.10480469 12.375 9.80273438 C13.64783837 11.19685755 14.9173663 12.59401027 16.18359375 13.99414062 C18.76843722 16.84858605 21.38389536 19.67423622 24 22.5 C24.99893797 23.58050728 25.99763388 24.66123841 26.99609375 25.7421875 C27.49351074 26.28069336 27.99092773 26.81919922 28.50341797 27.37402344 C29.97796694 28.97606196 31.44432786 30.58529625 32.91015625 32.1953125 C41.00014078 41.02634475 49.41644556 49.5242871 57.875 58 C58.46290314 58.59049133 59.05080627 59.18098267 59.65652466 59.78936768 C65.92940678 66.08401887 72.23012393 72.23559073 79 78 C80.77570221 79.61967817 82.54708307 81.24411718 84.3125 82.875 C88.75250784 86.92521292 93.31934281 90.75534122 97.99609375 94.52734375 C101.496661 97.40882499 104.90285267 100.38714223 108.3125 103.375 C113.72959268 108.11022569 119.25997508 112.64486693 124.94726562 117.05078125 C128.63928983 119.91449337 132.24451894 122.85631303 135.8125 125.875 C141.88867745 130.97737947 148.17848734 135.77223678 154.49609375 140.5703125 C161.34651742 145.77502016 168.12515588 151.07205871 174.90576172 156.3671875 C176.85186126 157.88450083 178.80218381 159.39618102 180.75390625 160.90625 C192.30046651 169.86657175 203.34841092 179.35044708 214.06640625 189.28515625 C216.0449562 191.11617119 218.02867752 192.93747095 220.02734375 194.74609375 C228.81509792 202.70827602 237.44025555 210.82451426 245.140625 219.86328125 C246.99497962 221.99423078 248.91234843 224.05740976 250.84350586 226.11865234 C256.30089932 231.96349137 261.3119853 238.05058831 266.19140625 244.3828125 C268.0587702 246.8050914 269.96046803 249.19173682 271.90234375 251.5546875 C279.89607091 261.29766131 287.06612031 271.48018253 294 282 C294.57540527 282.87076172 295.15081055 283.74152344 295.74365234 284.63867188 C304.56223817 298.05285877 312.57765449 311.76829871 320 326 C320.74612549 327.41853271 320.74612549 327.41853271 321.50732422 328.86572266 C343.53750706 370.95165178 357.79562181 416.09374801 365 463 C365.16516113 464.01674805 365.33032227 465.03349609 365.50048828 466.08105469 C371.39066687 503.56622435 369.8050278 543.59402968 364 581 C363.81276367 582.23169922 363.62552734 583.46339844 363.43261719 584.73242188 C358.96790939 613.37132472 351.89741804 641.43302939 343 669 C342.65548798 670.06800842 342.65548798 670.06800842 342.30401611 671.15759277 C324.45601568 726.28494565 300.45910424 779.01715556 276.59375 831.73828125 C240.82382778 910.79507166 205.34282719 991.50260605 187 1094 C186.34 1097.96 185.68 1101.92 185 1106 C149.69 1106 114.38 1106 78 1106 C82.71342692 1069.47094137 82.71342692 1069.47094137 85.25 1056.125 C85.39617767 1055.34426117 85.54235535 1054.56352234 85.69296265 1053.75912476 C100.76231668 973.56823932 130.6490481 897.33264863 180.91848755 784.41357422 C234.06434235 668.21424596 234.06434235 668.21424596 261 544 C261.10586426 542.95730957 261.10586426 542.95730957 261.21386719 541.89355469 C264.91366756 503.77973814 259.39769907 465.38255642 248 429 C247.72961914 428.13503906 247.45923828 427.27007812 247.18066406 426.37890625 C227.96019364 366.05909456 188.65580261 307.26468043 140.359375 266.01953125 C138.47771113 264.40890175 136.61822013 262.7803386 134.765625 261.13671875 C126.13006797 253.50963436 117.19034374 246.41113774 107.98095703 239.49169922 C105.07695892 237.30493209 102.19285487 235.09277131 99.3125 232.875 C98.27609375 232.07707031 97.2396875 231.27914062 96.171875 230.45703125 C91.60592529 226.92737585 87.07103215 223.35827107 82.5390625 219.78515625 C80.18608762 217.93045076 77.82655717 216.08464134 75.4609375 214.24609375 C69.06116343 209.26367177 62.77719331 204.18091049 56.61083984 198.91186523 C53.47342438 196.23380571 50.29987615 193.61860124 47.0625 191.0625 C41.17639992 186.39355793 35.50914778 181.47746653 29.82324219 176.56884766 C28.0258228 175.02221978 26.22136051 173.48428571 24.4140625 171.94921875 C16.78576374 165.46275542 9.33096091 158.82074751 2 152 C-1.53834714 155.02233818 -5.06745544 158.05268221 -8.5625 161.125 C-13.43274418 165.39467457 -18.35592468 169.60206864 -23.27734375 173.8125 C-25.73163705 175.91232 -28.1820438 178.01652637 -30.62890625 180.125 C-37.67044893 186.18836362 -44.78426866 192.14390943 -52 198 C-53.77090918 199.45824123 -55.54174118 200.91657619 -57.3125 202.375 C-63.21907332 207.20765089 -69.22050825 211.91449324 -75.23242188 216.61474609 C-76.91389577 217.93251997 -78.59069191 219.25595816 -80.265625 220.58203125 C-87.34417923 226.17981362 -94.49814555 231.67015782 -101.6875 237.125 C-108.91338693 242.61547591 -116.06924202 248.13873871 -123 254 C-123.7727124 254.64751221 -123.7727124 254.64751221 -124.56103516 255.30810547 C-139.1899059 267.57761831 -153.78115544 280.4077091 -166.2109375 294.9375 C-167.44098976 296.35555151 -168.69805377 297.75047678 -169.9765625 299.125 C-176.61797802 306.27357816 -182.49031231 313.93783753 -188.31933594 321.75 C-189.41141402 323.21202667 -190.50817003 324.67057489 -191.61035156 326.125 C-228.10912251 374.34025873 -251.82104977 431.78600693 -258 492 C-258.13148438 493.24265625 -258.26296875 494.4853125 -258.3984375 495.765625 C-262.68063216 544.60579112 -251.8962619 593.77449509 -237 640 C-236.63068359 641.15048828 -236.26136719 642.30097656 -235.88085938 643.48632812 C-225.52388197 675.39162278 -212.44004272 706.41497224 -198.85754395 737.06347656 C-197.96663315 739.0753497 -197.07825396 741.08832552 -196.19042969 743.1015625 C-190.00439312 757.12479388 -183.7716896 771.12643192 -177.42578125 785.078125 C-143.00242845 860.76587399 -110.46225808 937.3981625 -82.25 1056.125 C-82.11292633 1056.84620026 -81.97585266 1057.56740051 -81.83462524 1058.31045532 C-78.85315383 1074.13320226 -77.06486174 1089.99732151 -75 1106 C-110.31 1106 -145.62 1106 -182 1106 C-184.31 1092.8 -186.62 1079.6 -189 1066 C-207.30788752 983.74717201 -239.52656977 907.36273359 -274.23832703 830.859375 C-349.06675144 665.90807021 -349.06675144 665.90807021 -364 557 C-364.103125 556.05358643 -364.20625 555.10717285 -364.3125 554.13208008 C-365.42361041 542.27792092 -365.24393367 530.33234581 -365.25 518.4375 C-365.25067474 517.25092804 -365.25134949 516.06435608 -365.25204468 514.84182739 C-365.23624941 497.36473477 -364.79337542 480.28622466 -362 463 C-361.82839355 461.88125488 -361.65678711 460.76250977 -361.47998047 459.60986328 C-349.38608477 381.86956679 -315.32024878 309.05770333 -266 248 C-265.25234375 247.06929687 -264.5046875 246.13859375 -263.734375 245.1796875 C-247.79708484 225.51605252 -247.79708484 225.51605252 -238.78125 216.77734375 C-236.9837243 214.98376 -235.3352354 213.1189257 -233.6875 211.1875 C-227.41723995 203.91514359 -220.51862563 197.16197216 -213.21484375 190.93359375 C-210.88680346 188.90117762 -208.62867169 186.80641825 -206.37084961 184.69677734 C-200.11773969 178.85812301 -193.70971179 173.31453232 -187 168 C-186.4838916 167.58959473 -185.9677832 167.17918945 -185.43603516 166.75634766 C-177.80308652 160.69146968 -170.07704837 154.7521004 -162.32446289 148.84130859 C-156.07070918 144.06798045 -149.87936168 139.21943661 -143.70605469 134.34277344 C-141.96782608 132.97467708 -140.22315883 131.61520589 -138.4765625 130.2578125 C-131.54152893 124.85964965 -124.76110991 119.32017987 -118.078125 113.61328125 C-115.2729268 111.22117731 -112.42536843 108.88544149 -109.5625 106.5625 C-104.16001031 102.1622113 -98.87031106 97.63946596 -93.59375 93.08984375 C-91.27215595 91.08853441 -88.93965113 89.1016574 -86.59375 87.12890625 C-71.98759475 74.8161404 -58.39305094 61.48305304 -44.875 48 C-44.28796295 47.41564178 -43.7009259 46.83128357 -43.09609985 46.22921753 C-37.42428515 40.57706181 -31.79713621 34.94231332 -26.59716797 28.84667969 C-23.55724006 25.33185017 -20.3245844 21.99389703 -17.125 18.625 C-11.32594147 12.49401108 -5.59162465 6.32164231 0 0 Z " fill="currentColor" transform="translate(1032,0)"/>
<path d="M0 0 C395.01 0 790.02 0 1197 0 C1197 33.33 1197 66.66 1197 101 C801.99 101 406.98 101 0 101 C0 67.67 0 34.34 0 0 Z " fill="currentColor" transform="translate(435,1197)"/>
<path d="M0 0 C0.788133 0.00092179 1.576266 0.00184359 2.38828182 0.00279331 C3.74081554 0.00073132 3.74081554 0.00073132 5.12067318 -0.00137234 C6.6160738 0.00402058 6.6160738 0.00402058 8.14168453 0.00952244 C9.18546261 0.00937641 10.22924068 0.00923038 11.3046484 0.00907993 C14.77305295 0.00977956 18.24140454 0.0175743 21.70979977 0.02539158 C24.1073367 0.02725558 26.50487401 0.02867957 28.90241146 0.0296793 C35.22684936 0.03350589 41.55126446 0.04333737 47.87569332 0.05438328 C54.32364754 0.06459438 60.77160543 0.06917627 67.21956539 0.0742197 C79.88168452 0.08495951 92.54378781 0.10184664 105.20589352 0.12304783 C105.05542275 1.70705015 104.90266836 3.29083562 104.74896908 4.87452793 C104.62174418 6.19751817 104.62174418 6.19751817 104.49194908 7.54723549 C103.76078209 14.13109261 102.17475618 20.59390831 100.76839352 27.06054783 C100.5072073 28.26698948 100.5072073 28.26698948 100.24074459 29.49780369 C86.19740167 93.91948145 62.67434734 167.82786425 21.49886227 220.2983408 C19.9553785 222.11543184 19.9553785 222.11543184 20.14729977 224.80664158 C21.65733083 229.5373293 24.28097882 233.16173696 27.14339352 237.18554783 C27.73023922 238.02537205 28.31708492 238.86519627 28.92171383 239.7304697 C33.81754041 246.68951846 38.89498567 253.47550211 44.20589352 260.12304783 C44.95354977 261.06406345 45.70120602 262.00507908 46.47151852 262.97461033 C51.00829254 268.60592074 55.74445904 274.01075428 60.65120602 279.32226658 C62.61406283 281.47420593 64.52242714 283.64983591 66.42073727 285.85742283 C70.62271497 290.67370154 75.11464209 295.17837901 79.64339352 299.68554783 C80.45099117 300.49701267 81.25858883 301.30847752 82.09065914 302.1445322 C86.96670756 307.01272236 91.9695346 311.64692859 97.20589352 316.12304783 C98.28894357 317.07240765 99.37102338 318.02287583 100.45198727 318.97461033 C119.50735373 335.596557 140.09088266 350.39546744 161.68196774 363.53955173 C164.36573138 365.22332916 166.97103917 367.00077603 169.58479977 368.79101658 C178.52584882 375.11122053 178.52584882 375.11122053 188.90511227 376.77148533 C191.9630761 375.30221513 194.56441496 373.64288353 197.24593258 371.57080173 C199.47501227 369.92425931 201.78432371 368.51872052 204.16683102 367.10351658 C224.9489085 354.75746526 244.72520387 340.70634122 263.20589352 325.12304783 C264.00543453 324.4508823 264.00543453 324.4508823 264.82112789 323.76513767 C276.7001111 313.75875359 288.07272035 303.3311242 299.08089352 292.37304783 C299.78254635 291.67606785 300.48419918 290.97908787 301.20711422 290.26098728 C305.74319991 285.71087969 310.02490687 280.99978989 314.20589352 276.12304783 C315.05151852 275.15882908 315.89714352 274.19461033 316.76839352 273.20117283 C327.56223071 260.67755403 337.51852012 247.43038964 346.70589352 233.68554783 C347.18091305 232.99428806 347.65593258 232.3030283 348.14534664 231.59082127 C350.60661878 227.92856822 350.60661878 227.92856822 350.965415 223.66845798 C350.1965107 221.09160287 349.25242793 219.17052458 347.83479977 216.89257908 C347.34825924 216.09956394 346.86171871 215.30654881 346.36043453 214.48950291 C345.835061 213.64669773 345.30968746 212.80389256 344.76839352 211.93554783 C343.66204976 210.1243759 342.55791988 208.31184996 341.45589352 206.49804783 C340.90417477 205.59054783 340.35245602 204.68304783 339.78401852 203.74804783 C335.71922448 196.98680625 331.95126594 190.06472571 328.20589352 183.12304783 C327.72040035 182.23117771 327.23490719 181.33930759 326.73470211 180.42041111 C299.58336548 130.33899579 280.36262304 75.81558237 269.20589352 19.99804783 C268.97479885 18.84391895 268.97479885 18.84391895 268.73903561 17.66647434 C266.20589352 4.92116455 266.20589352 4.92116455 266.20589352 0.12304783 C301.51589352 0.12304783 336.82589352 0.12304783 373.20589352 0.12304783 C374.75333797 3.99165896 375.81067773 7.33039634 376.72933102 11.34570408 C391.42975399 73.83162111 417.69198117 132.85457388 454.89339352 185.24804783 C455.38815182 185.948895 455.88291012 186.64974216 456.39266109 187.37182713 C459.17156999 191.29736687 461.98400214 195.19572926 464.83089352 199.07226658 C465.72288448 200.29115574 465.72288448 200.29115574 466.63289547 201.53466892 C467.78473283 203.10548692 468.94192308 204.67239727 470.10506344 206.23486423 C470.62689205 206.94691013 471.14872066 207.65895603 471.68636227 208.39257908 C472.1493774 209.01753269 472.61239254 209.64248631 473.08943844 210.28637791 C474.37687409 212.40432639 475.01304406 213.63540068 475.20589352 216.12304783 C474.38620537 218.50527233 473.5098842 220.65566704 472.44417477 222.92382908 C472.14253918 223.58829548 471.84090359 224.25276188 471.53012753 224.93736362 C470.53893123 227.10952757 469.52982308 229.27273874 468.51839352 231.43554783 C467.82372923 232.93840099 467.1292317 234.44133124 466.43489742 235.94433689 C451.24321751 268.66477651 432.9660769 299.08051659 410.20589352 327.12304783 C409.46081539 328.04988377 408.71573727 328.9767197 407.94808102 329.93164158 C391.83105103 349.83241875 391.83105103 349.83241875 383.89119625 357.43676853 C382.16654083 359.16242331 380.58709165 360.95955045 379.00276852 362.81445408 C375.26128081 367.11689407 371.31057186 371.16675721 367.26839352 375.18554783 C366.6038818 375.85392673 365.93937008 376.52230564 365.25472164 377.21093845 C361.31958806 381.13843841 357.27472463 384.87693789 353.06551266 388.50854588 C350.45040788 390.77895258 347.92754663 393.13756395 345.39339352 395.49804783 C339.84924082 400.6131001 334.09610147 405.40932321 328.20589352 410.12304783 C327.07505395 411.04545158 325.94487837 411.96866978 324.81526852 412.89257908 C287.82849422 443.01345508 246.4892804 468.36358968 202.89272213 487.67453098 C201.57152781 488.26002774 200.25226322 488.84990071 198.93508053 489.44436741 C197.09901716 490.26898318 195.25222131 491.06957416 193.40511227 491.86914158 C192.35154537 492.32990086 191.29797848 492.79066013 190.21248531 493.26538181 C184.04979226 495.02336319 179.07893366 492.41071992 173.51058102 489.83398533 C172.77365017 489.49889957 172.03671932 489.16381382 171.27745724 488.81857395 C168.87422674 487.72098438 166.47710132 486.6108787 164.08089352 485.49804783 C163.25798824 485.11789524 162.43508297 484.73774265 161.58724117 484.34607029 C118.11259438 464.22524166 78.01205784 438.80140874 41.20589352 408.12304783 C40.62613766 407.64238865 40.0463818 407.16172947 39.44905758 406.66650486 C32.01627367 400.49665529 24.81136518 394.11783203 17.73714352 387.54101658 C16.16084529 386.08133225 14.57523312 384.63238908 12.98714352 383.18554783 C3.60182883 374.61847593 -5.7168126 365.92601728 -13.96207523 356.23632908 C-15.84301555 354.06663033 -17.78325387 351.95839093 -19.73697758 349.854249 C-25.3483892 343.80567149 -30.63430739 337.56425399 -35.79410648 331.12304783 C-36.70453349 330.01542848 -37.61604491 328.90869983 -38.52848148 327.80273533 C-62.24869423 298.86972629 -80.76759696 266.70391178 -96.51676273 232.8632822 C-97.64741921 230.43773017 -98.79707018 228.02225412 -99.95035648 225.60742283 C-100.52540135 224.36361288 -101.098539 223.11891803 -101.66910648 221.87304783 C-102.3768018 220.34937595 -102.3768018 220.34937595 -103.09879398 218.79492283 C-104.00388382 215.31693717 -103.54409621 214.25068905 -101.79410648 211.12304783 C-100.08480518 208.47789839 -98.26575263 205.92369312 -96.41910648 203.37304783 C-95.32924892 201.84701603 -94.23940557 200.32097408 -93.14957523 198.79492283 C-92.03126816 197.23750009 -90.9127813 195.68020644 -89.79410648 194.12304783 C-72.40351086 169.84697381 -57.27635457 144.78184448 -43.79410648 118.12304783 C-43.33536137 117.22167088 -42.87661625 116.32029392 -42.40396976 115.39160252 C-25.88087402 82.70240985 -14.25622524 48.2812129 -5.6739893 12.73901463 C-5.48902393 11.97610615 -5.30405857 11.21319767 -5.1134882 10.42717075 C-4.76401926 8.98123317 -4.41786421 7.53448961 -4.07543278 6.08686924 C-2.65085689 0.18180759 -2.65085689 0.18180759 0 0 Z " fill="currentColor" transform="translate(847.7941064834595,1389.8769521713257)"/>
<path d="M0 0 C0.83096191 0.25974609 1.66192383 0.51949219 2.51806641 0.78710938 C24.88955287 7.84653605 46.93495188 17.85560883 67 30 C67.75893555 30.45697266 68.51787109 30.91394531 69.29980469 31.38476562 C90.05682418 43.97355299 109.72965535 58.34039131 127.59375 74.8046875 C128.91850973 76.0133157 130.2513487 77.21392913 131.61694336 78.3762207 C137.67116991 83.54476983 143.28624896 89.13430829 148.90014648 94.76977539 C150.5592732 96.43426277 152.22368051 98.09333447 153.88867188 99.75195312 C159.46849342 105.32791955 164.91679815 110.96171519 170 117 C170.90060957 118.04464351 171.80163034 119.0889327 172.703125 120.1328125 C202.26242913 154.86046122 227.24170873 192.96623139 249 233 C249.81186768 234.49176758 249.81186768 234.49176758 250.64013672 236.01367188 C288.57816546 306.19152742 314.39124889 383.97996538 332 499 C297.02 499 262.04 499 226 499 C223.76409726 488.93843766 223.76409726 488.93843766 222.95703125 484.0859375 C207.58182782 393.64715813 174.2647312 304.78952791 86.3203125 184.5390625 C84.41584658 182.45505097 82.57384698 180.34128914 80.75 178.1875 C72.91177177 169.17633026 64.21505575 160.59534458 55 153 C54.46213867 152.54834473 53.92427734 152.09668945 53.37011719 151.63134766 C39.12605605 139.68094946 24.15573938 129.20248021 8 120 C7.36046387 119.63165039 6.72092773 119.26330078 6.06201172 118.88378906 C-41.12895865 91.94088793 -99.8638392 83.50104932 -152.49902344 97.67285156 C-158.0672013 99.25846273 -163.54310088 101.06875175 -169 103 C-170.22460938 103.42796875 -171.44921875 103.8559375 -172.7109375 104.296875 C-210.88937397 118.62432357 -243.47473012 144.89006705 -267 178 C-267.67603271 178.94093506 -267.67603271 178.94093506 -268.36572266 179.90087891 C-301.5266091 226.41016541 -313.76814311 285.77498379 -305.421875 341.88671875 C-305.08987854 343.81466963 -304.74252278 345.74017196 -304.3671875 347.66015625 C-303.97752018 350.14324908 -303.9755319 352.49045781 -304 355 C-316.98575432 357.87213862 -329.97224863 360.7409044 -342.95970631 363.60533142 C-348.989865 364.93541489 -355.0197597 366.26667174 -361.04907227 367.60058594 C-366.86450036 368.88713589 -372.68059396 370.17063525 -378.49716759 371.45199585 C-380.71942965 371.94211573 -382.94144708 372.43334615 -385.16321754 372.9256897 C-388.26808918 373.61353186 -391.3737965 374.29746876 -394.47973633 374.98046875 C-395.40402435 375.186185 -396.32831238 375.39190125 -397.28060913 375.60385132 C-398.12614853 375.78896271 -398.97168793 375.9740741 -399.84284973 376.16479492 C-400.94485324 376.40814827 -400.94485324 376.40814827 -402.06911945 376.65641785 C-404 377 -404 377 -407 377 C-412.6257724 353.29750714 -414.28946601 330.24103336 -414.375 305.9375 C-414.38285522 304.84486847 -414.39071045 303.75223694 -414.39880371 302.62649536 C-414.51183068 282.38613453 -412.92646957 262.33958355 -408.75 242.5 C-408.54093018 241.48703857 -408.33186035 240.47407715 -408.11645508 239.43041992 C-396.41063796 184.48293337 -371.32622464 133.0959948 -334 91 C-333.14277344 90.03191406 -332.28554688 89.06382812 -331.40234375 88.06640625 C-320.70586609 76.20418581 -309.60072925 64.84647149 -297 55 C-295.83642756 54.04945705 -294.67510416 53.09615669 -293.515625 52.140625 C-279.89069618 40.96188447 -265.3365454 31.6518194 -250 23 C-249.28424805 22.59281738 -248.56849609 22.18563477 -247.83105469 21.76611328 C-173.28451862 -20.27679889 -80.76982541 -25.81200444 0 0 Z " fill="currentColor" transform="translate(414,607)"/>
<path d="M0 0 C0.89444824 0.39977051 1.78889648 0.79954102 2.71044922 1.21142578 C45.1256774 20.3693888 85.20911889 50.20038787 114 87 C114.90334195 88.09355458 115.80977474 89.18456089 116.71875 90.2734375 C159.78858662 142.23914787 187.90460592 212.66999201 188.203125 280.53515625 C188.21357849 282.13870972 188.21357849 282.13870972 188.22424316 283.7746582 C188.24153909 287.20397927 188.24796212 290.63313714 188.25 294.0625 C188.25100708 295.23062225 188.25201416 296.39874451 188.25305176 297.6022644 C188.23936019 321.02310154 186.41827949 343.17171585 181 366 C169.85776765 364.36279539 158.91068773 361.86393755 147.921875 359.4296875 C145.89884218 358.98387404 143.87574953 358.53833203 141.8526001 358.0930481 C136.56509567 356.92854248 131.27840465 355.76038542 125.99188232 354.59143066 C120.58232021 353.3959597 115.17198619 352.20399278 109.76171875 351.01171875 C99.17372664 348.67788156 88.58659169 346.34018085 78 344 C78.15521711 342.24323526 78.31171438 340.48658359 78.46875 338.72998047 C78.55576172 337.75173309 78.64277344 336.77348572 78.73242188 335.76559448 C79.04530763 332.53171609 79.49775871 329.33463575 80 326.125 C88.1783366 269.79212923 73.07165443 210.01791997 39.1574707 164.30859375 C33.61613015 157.00829181 27.78476516 150.05059709 21.41113281 143.46240234 C19.93433855 141.93195293 18.4797255 140.38198483 17.0234375 138.83203125 C-14.52051375 105.76615747 -60.55648832 84.73217828 -106 81 C-107.21381348 80.89945313 -107.21381348 80.89945313 -108.45214844 80.796875 C-132.77019637 78.94339242 -156.31054604 81.35683365 -180 87 C-180.77601563 87.18401367 -181.55203125 87.36802734 -182.3515625 87.55761719 C-220.76450997 97.00371018 -255.74668274 119.50137486 -284.68359375 145.90234375 C-286.67524817 147.70591613 -288.70021857 149.45106096 -290.75 151.1875 C-299.7961829 159.07297104 -308.29529682 167.80629801 -316 177 C-316.76957031 177.88042969 -317.53914063 178.76085937 -318.33203125 179.66796875 C-337.16560079 201.32127347 -353.63748716 225.19072408 -368 250 C-368.49741699 250.85207031 -368.99483398 251.70414063 -369.50732422 252.58203125 C-410.45185512 322.76513979 -438.36506339 401.06174088 -450.63037109 484.00170898 C-451 486 -451 486 -452 488 C-486.98 488 -521.96 488 -558 488 C-556.87167846 471.07517683 -556.87167846 471.07517683 -555.87109375 464.70703125 C-555.70639839 463.65415924 -555.70639839 463.65415924 -555.53837585 462.58001709 C-555.18078173 460.32254832 -554.8107853 458.06742417 -554.4375 455.8125 C-554.24350616 454.62670853 -554.24350616 454.62670853 -554.04559326 453.41696167 C-543.61393019 390.06721228 -524.57644398 327.44528247 -498 269 C-497.69622437 268.33141968 -497.39244873 267.66283936 -497.07946777 266.97399902 C-489.135094 249.52577422 -480.94921959 232.27685134 -471.46972656 215.59960938 C-469.92355251 212.86478191 -468.40919992 210.1139076 -466.8984375 207.359375 C-459.69505961 194.30559384 -451.86454933 181.77222641 -443.58447266 169.37597656 C-442.28824393 167.43223266 -441.0038302 165.48217933 -439.73046875 163.5234375 C-425.60678358 141.93649975 -409.64386785 121.56620943 -392.265625 102.51171875 C-391.0274303 101.13903049 -389.79567929 99.75997206 -388.59741211 98.35229492 C-383.56400251 92.46465727 -378.14168876 86.98937742 -372.6574707 81.52709961 C-371.06541034 79.94040054 -369.4787701 78.34842258 -367.89257812 76.75585938 C-362.43453174 71.29392481 -356.90045531 65.98692246 -351 61 C-349.97842495 60.1115292 -348.95754944 59.22225318 -347.9375 58.33203125 C-323.7502389 37.58630863 -296.86849825 19.67238308 -268.06640625 5.98583984 C-266.67158977 5.32040164 -265.28101463 4.64600975 -263.89453125 3.96337891 C-234.19648142 -10.62572143 -201.64377563 -19.33019662 -169 -24 C-167.79561279 -24.18006592 -167.79561279 -24.18006592 -166.56689453 -24.36376953 C-110.911955 -32.3553091 -51.04294648 -22.8585679 0 0 Z " fill="currentColor" transform="translate(1879,618)"/>
</svg>
